<?xml version="1.0" encoding="utf-8" standalone="no"?>
<!DOCTYPE svg PUBLIC "-//W3C//DTD SVG 1.1//EN"
  "http://www.w3.org/Graphics/SVG/1.1/DTD/svg11.dtd">
<svg xmlns:xlink="http://www.w3.org/1999/xlink" width="1189.688594pt" height="715.327813pt" viewBox="0 0 1189.688594 715.327813" xmlns="http://www.w3.org/2000/svg" version="1.1">
 <metadata>
  <rdf:RDF xmlns:dc="http://purl.org/dc/elements/1.1/" xmlns:cc="http://creativecommons.org/ns#" xmlns:rdf="http://www.w3.org/1999/02/22-rdf-syntax-ns#">
   <cc:Work>
    <dc:type rdf:resource="http://purl.org/dc/dcmitype/StillImage"/>
    <dc:date>2026-05-23T18:25:21.878767</dc:date>
    <dc:format>image/svg+xml</dc:format>
    <dc:creator>
     <cc:Agent>
      <dc:title>Matplotlib v3.10.1+dfsg1, https://matplotlib.org/</dc:title>
     </cc:Agent>
    </dc:creator>
   </cc:Work>
  </rdf:RDF>
 </metadata>
 <defs>
  <style type="text/css">*{stroke-linejoin: round; stroke-linecap: butt}</style>
 </defs>
 <g id="figure_1">
  <g id="patch_1">
   <path d="M 0 715.327813 
L 1189.688594 715.327813 
L 1189.688594 0 
L 0 0 
z
" style="fill: #ffffff"/>
  </g>
  <g id="axes_1">
   <g id="patch_2">
    <path d="M 67.928594 657.915313 
L 1182.488594 657.915313 
L 1182.488594 55.995312 
L 67.928594 55.995312 
z
" style="fill: #ffffff"/>
   </g>
   <g id="matplotlib.axis_1">
    <g id="xtick_1">
     <g id="line2d_1">
      <defs>
       <path id="m39ce0a329f" d="M 0 0 
L 0 4 
" style="stroke: #111827; stroke-width: 0.8"/>
      </defs>
      <g>
       <use xlink:href="#m39ce0a329f" x="261.184584" y="657.915313" style="fill: #111827; stroke: #111827; stroke-width: 0.8"/>
      </g>
     </g>
     <g id="text_1">
      <!-- 2021 -->
      <g style="fill: #111827" transform="translate(239.552084 678.332656) scale(0.17 -0.17)">
       <defs>
        <path id="DejaVuSans-32" d="M 1228 531 
L 3431 531 
L 3431 0 
L 469 0 
L 469 531 
Q 828 903 1448 1529 
Q 2069 2156 2228 2338 
Q 2531 2678 2651 2914 
Q 2772 3150 2772 3378 
Q 2772 3750 2511 3984 
Q 2250 4219 1831 4219 
Q 1534 4219 1204 4116 
Q 875 4013 500 3803 
L 500 4441 
Q 881 4594 1212 4672 
Q 1544 4750 1819 4750 
Q 2544 4750 2975 4387 
Q 3406 4025 3406 3419 
Q 3406 3131 3298 2873 
Q 3191 2616 2906 2266 
Q 2828 2175 2409 1742 
Q 1991 1309 1228 531 
z
" transform="scale(0.015625)"/>
        <path id="DejaVuSans-30" d="M 2034 4250 
Q 1547 4250 1301 3770 
Q 1056 3291 1056 2328 
Q 1056 1369 1301 889 
Q 1547 409 2034 409 
Q 2525 409 2770 889 
Q 3016 1369 3016 2328 
Q 3016 3291 2770 3770 
Q 2525 4250 2034 4250 
z
M 2034 4750 
Q 2819 4750 3233 4129 
Q 3647 3509 3647 2328 
Q 3647 1150 3233 529 
Q 2819 -91 2034 -91 
Q 1250 -91 836 529 
Q 422 1150 422 2328 
Q 422 3509 836 4129 
Q 1250 4750 2034 4750 
z
" transform="scale(0.015625)"/>
        <path id="DejaVuSans-31" d="M 794 531 
L 1825 531 
L 1825 4091 
L 703 3866 
L 703 4441 
L 1819 4666 
L 2450 4666 
L 2450 531 
L 3481 531 
L 3481 0 
L 794 0 
L 794 531 
z
" transform="scale(0.015625)"/>
       </defs>
       <use xlink:href="#DejaVuSans-32"/>
       <use xlink:href="#DejaVuSans-30" transform="translate(63.623047 0)"/>
       <use xlink:href="#DejaVuSans-32" transform="translate(127.246094 0)"/>
       <use xlink:href="#DejaVuSans-31" transform="translate(190.869141 0)"/>
      </g>
     </g>
    </g>
    <g id="xtick_2">
     <g id="line2d_2">
      <g>
       <use xlink:href="#m39ce0a329f" x="517.687988" y="657.915313" style="fill: #111827; stroke: #111827; stroke-width: 0.8"/>
      </g>
     </g>
     <g id="text_2">
      <!-- 2022 -->
      <g style="fill: #111827" transform="translate(496.055488 678.332656) scale(0.17 -0.17)">
       <use xlink:href="#DejaVuSans-32"/>
       <use xlink:href="#DejaVuSans-30" transform="translate(63.623047 0)"/>
       <use xlink:href="#DejaVuSans-32" transform="translate(127.246094 0)"/>
       <use xlink:href="#DejaVuSans-32" transform="translate(190.869141 0)"/>
      </g>
     </g>
    </g>
    <g id="xtick_3">
     <g id="line2d_3">
      <g>
       <use xlink:href="#m39ce0a329f" x="774.191393" y="657.915313" style="fill: #111827; stroke: #111827; stroke-width: 0.8"/>
      </g>
     </g>
     <g id="text_3">
      <!-- 2023 -->
      <g style="fill: #111827" transform="translate(752.558893 678.332656) scale(0.17 -0.17)">
       <defs>
        <path id="DejaVuSans-33" d="M 2597 2516 
Q 3050 2419 3304 2112 
Q 3559 1806 3559 1356 
Q 3559 666 3084 287 
Q 2609 -91 1734 -91 
Q 1441 -91 1130 -33 
Q 819 25 488 141 
L 488 750 
Q 750 597 1062 519 
Q 1375 441 1716 441 
Q 2309 441 2620 675 
Q 2931 909 2931 1356 
Q 2931 1769 2642 2001 
Q 2353 2234 1838 2234 
L 1294 2234 
L 1294 2753 
L 1863 2753 
Q 2328 2753 2575 2939 
Q 2822 3125 2822 3475 
Q 2822 3834 2567 4026 
Q 2313 4219 1838 4219 
Q 1578 4219 1281 4162 
Q 984 4106 628 3988 
L 628 4550 
Q 988 4650 1302 4700 
Q 1616 4750 1894 4750 
Q 2613 4750 3031 4423 
Q 3450 4097 3450 3541 
Q 3450 3153 3228 2886 
Q 3006 2619 2597 2516 
z
" transform="scale(0.015625)"/>
       </defs>
       <use xlink:href="#DejaVuSans-32"/>
       <use xlink:href="#DejaVuSans-30" transform="translate(63.623047 0)"/>
       <use xlink:href="#DejaVuSans-32" transform="translate(127.246094 0)"/>
       <use xlink:href="#DejaVuSans-33" transform="translate(190.869141 0)"/>
      </g>
     </g>
    </g>
    <g id="xtick_4">
     <g id="line2d_4">
      <g>
       <use xlink:href="#m39ce0a329f" x="1030.694798" y="657.915313" style="fill: #111827; stroke: #111827; stroke-width: 0.8"/>
      </g>
     </g>
     <g id="text_4">
      <!-- 2024 -->
      <g style="fill: #111827" transform="translate(1009.062298 678.332656) scale(0.17 -0.17)">
       <defs>
        <path id="DejaVuSans-34" d="M 2419 4116 
L 825 1625 
L 2419 1625 
L 2419 4116 
z
M 2253 4666 
L 3047 4666 
L 3047 1625 
L 3713 1625 
L 3713 1100 
L 3047 1100 
L 3047 0 
L 2419 0 
L 2419 1100 
L 313 1100 
L 313 1709 
L 2253 4666 
z
" transform="scale(0.015625)"/>
       </defs>
       <use xlink:href="#DejaVuSans-32"/>
       <use xlink:href="#DejaVuSans-30" transform="translate(63.623047 0)"/>
       <use xlink:href="#DejaVuSans-32" transform="translate(127.246094 0)"/>
       <use xlink:href="#DejaVuSans-34" transform="translate(190.869141 0)"/>
      </g>
     </g>
    </g>
    <g id="text_5">
     <!-- Date -->
     <g style="fill: #1f2937" transform="translate(597.721797 703.344531) scale(0.23 -0.23)">
      <defs>
       <path id="DejaVuSans-44" d="M 1259 4147 
L 1259 519 
L 2022 519 
Q 2988 519 3436 956 
Q 3884 1394 3884 2338 
Q 3884 3275 3436 3711 
Q 2988 4147 2022 4147 
L 1259 4147 
z
M 628 4666 
L 1925 4666 
Q 3281 4666 3915 4102 
Q 4550 3538 4550 2338 
Q 4550 1131 3912 565 
Q 3275 0 1925 0 
L 628 0 
L 628 4666 
z
" transform="scale(0.015625)"/>
       <path id="DejaVuSans-61" d="M 2194 1759 
Q 1497 1759 1228 1600 
Q 959 1441 959 1056 
Q 959 750 1161 570 
Q 1363 391 1709 391 
Q 2188 391 2477 730 
Q 2766 1069 2766 1631 
L 2766 1759 
L 2194 1759 
z
M 3341 1997 
L 3341 0 
L 2766 0 
L 2766 531 
Q 2569 213 2275 61 
Q 1981 -91 1556 -91 
Q 1019 -91 701 211 
Q 384 513 384 1019 
Q 384 1609 779 1909 
Q 1175 2209 1959 2209 
L 2766 2209 
L 2766 2266 
Q 2766 2663 2505 2880 
Q 2244 3097 1772 3097 
Q 1472 3097 1187 3025 
Q 903 2953 641 2809 
L 641 3341 
Q 956 3463 1253 3523 
Q 1550 3584 1831 3584 
Q 2591 3584 2966 3190 
Q 3341 2797 3341 1997 
z
" transform="scale(0.015625)"/>
       <path id="DejaVuSans-74" d="M 1172 4494 
L 1172 3500 
L 2356 3500 
L 2356 3053 
L 1172 3053 
L 1172 1153 
Q 1172 725 1289 603 
Q 1406 481 1766 481 
L 2356 481 
L 2356 0 
L 1766 0 
Q 1100 0 847 248 
Q 594 497 594 1153 
L 594 3053 
L 172 3053 
L 172 3500 
L 594 3500 
L 594 4494 
L 1172 4494 
z
" transform="scale(0.015625)"/>
       <path id="DejaVuSans-65" d="M 3597 1894 
L 3597 1613 
L 953 1613 
Q 991 1019 1311 708 
Q 1631 397 2203 397 
Q 2534 397 2845 478 
Q 3156 559 3463 722 
L 3463 178 
Q 3153 47 2828 -22 
Q 2503 -91 2169 -91 
Q 1331 -91 842 396 
Q 353 884 353 1716 
Q 353 2575 817 3079 
Q 1281 3584 2069 3584 
Q 2775 3584 3186 3129 
Q 3597 2675 3597 1894 
z
M 3022 2063 
Q 3016 2534 2758 2815 
Q 2500 3097 2075 3097 
Q 1594 3097 1305 2825 
Q 1016 2553 972 2059 
L 3022 2063 
z
" transform="scale(0.015625)"/>
      </defs>
      <use xlink:href="#DejaVuSans-44"/>
      <use xlink:href="#DejaVuSans-61" transform="translate(77.001953 0)"/>
      <use xlink:href="#DejaVuSans-74" transform="translate(138.28125 0)"/>
      <use xlink:href="#DejaVuSans-65" transform="translate(177.490234 0)"/>
     </g>
    </g>
   </g>
   <g id="matplotlib.axis_2">
    <g id="ytick_1">
     <g id="line2d_5">
      <path d="M 67.928594 657.915313 
L 1182.488594 657.915313 
" clip-path="url(#pdd5e4d684c)" style="fill: none; stroke: #d1d5db; stroke-opacity: 0.55; stroke-width: 0.9; stroke-linecap: square"/>
     </g>
     <g id="line2d_6">
      <defs>
       <path id="mba88c55eba" d="M 0 0 
L -4 0 
" style="stroke: #111827; stroke-width: 0.8"/>
      </defs>
      <g>
       <use xlink:href="#mba88c55eba" x="67.928594" y="657.915313" style="fill: #111827; stroke: #111827; stroke-width: 0.8"/>
      </g>
     </g>
     <g id="text_6">
      <!-- 0% -->
      <g style="fill: #111827" transform="translate(33.459688 664.373984) scale(0.17 -0.17)">
       <defs>
        <path id="DejaVuSans-25" d="M 4653 2053 
Q 4381 2053 4226 1822 
Q 4072 1591 4072 1178 
Q 4072 772 4226 539 
Q 4381 306 4653 306 
Q 4919 306 5073 539 
Q 5228 772 5228 1178 
Q 5228 1588 5073 1820 
Q 4919 2053 4653 2053 
z
M 4653 2450 
Q 5147 2450 5437 2106 
Q 5728 1763 5728 1178 
Q 5728 594 5436 251 
Q 5144 -91 4653 -91 
Q 4153 -91 3862 251 
Q 3572 594 3572 1178 
Q 3572 1766 3864 2108 
Q 4156 2450 4653 2450 
z
M 1428 4353 
Q 1159 4353 1004 4120 
Q 850 3888 850 3481 
Q 850 3069 1003 2837 
Q 1156 2606 1428 2606 
Q 1700 2606 1854 2837 
Q 2009 3069 2009 3481 
Q 2009 3884 1853 4118 
Q 1697 4353 1428 4353 
z
M 4250 4750 
L 4750 4750 
L 1831 -91 
L 1331 -91 
L 4250 4750 
z
M 1428 4750 
Q 1922 4750 2215 4408 
Q 2509 4066 2509 3481 
Q 2509 2891 2217 2550 
Q 1925 2209 1428 2209 
Q 931 2209 642 2551 
Q 353 2894 353 3481 
Q 353 4063 643 4406 
Q 934 4750 1428 4750 
z
" transform="scale(0.015625)"/>
       </defs>
       <use xlink:href="#DejaVuSans-30"/>
       <use xlink:href="#DejaVuSans-25" transform="translate(63.623047 0)"/>
      </g>
     </g>
    </g>
    <g id="ytick_2">
     <g id="line2d_7">
      <path d="M 67.928594 547.168994 
L 1182.488594 547.168994 
" clip-path="url(#pdd5e4d684c)" style="fill: none; stroke: #d1d5db; stroke-opacity: 0.55; stroke-width: 0.9; stroke-linecap: square"/>
     </g>
     <g id="line2d_8">
      <g>
       <use xlink:href="#mba88c55eba" x="67.928594" y="547.168994" style="fill: #111827; stroke: #111827; stroke-width: 0.8"/>
      </g>
     </g>
     <g id="text_7">
      <!-- 1% -->
      <g style="fill: #111827" transform="translate(33.459688 553.627666) scale(0.17 -0.17)">
       <use xlink:href="#DejaVuSans-31"/>
       <use xlink:href="#DejaVuSans-25" transform="translate(63.623047 0)"/>
      </g>
     </g>
    </g>
    <g id="ytick_3">
     <g id="line2d_9">
      <path d="M 67.928594 436.422675 
L 1182.488594 436.422675 
" clip-path="url(#pdd5e4d684c)" style="fill: none; stroke: #d1d5db; stroke-opacity: 0.55; stroke-width: 0.9; stroke-linecap: square"/>
     </g>
     <g id="line2d_10">
      <g>
       <use xlink:href="#mba88c55eba" x="67.928594" y="436.422675" style="fill: #111827; stroke: #111827; stroke-width: 0.8"/>
      </g>
     </g>
     <g id="text_8">
      <!-- 2% -->
      <g style="fill: #111827" transform="translate(33.459688 442.881347) scale(0.17 -0.17)">
       <use xlink:href="#DejaVuSans-32"/>
       <use xlink:href="#DejaVuSans-25" transform="translate(63.623047 0)"/>
      </g>
     </g>
    </g>
    <g id="ytick_4">
     <g id="line2d_11">
      <path d="M 67.928594 325.676356 
L 1182.488594 325.676356 
" clip-path="url(#pdd5e4d684c)" style="fill: none; stroke: #d1d5db; stroke-opacity: 0.55; stroke-width: 0.9; stroke-linecap: square"/>
     </g>
     <g id="line2d_12">
      <g>
       <use xlink:href="#mba88c55eba" x="67.928594" y="325.676356" style="fill: #111827; stroke: #111827; stroke-width: 0.8"/>
      </g>
     </g>
     <g id="text_9">
      <!-- 3% -->
      <g style="fill: #111827" transform="translate(33.459688 332.135028) scale(0.17 -0.17)">
       <use xlink:href="#DejaVuSans-33"/>
       <use xlink:href="#DejaVuSans-25" transform="translate(63.623047 0)"/>
      </g>
     </g>
    </g>
    <g id="ytick_5">
     <g id="line2d_13">
      <path d="M 67.928594 214.930038 
L 1182.488594 214.930038 
" clip-path="url(#pdd5e4d684c)" style="fill: none; stroke: #d1d5db; stroke-opacity: 0.55; stroke-width: 0.9; stroke-linecap: square"/>
     </g>
     <g id="line2d_14">
      <g>
       <use xlink:href="#mba88c55eba" x="67.928594" y="214.930038" style="fill: #111827; stroke: #111827; stroke-width: 0.8"/>
      </g>
     </g>
     <g id="text_10">
      <!-- 4% -->
      <g style="fill: #111827" transform="translate(33.459688 221.38871) scale(0.17 -0.17)">
       <use xlink:href="#DejaVuSans-34"/>
       <use xlink:href="#DejaVuSans-25" transform="translate(63.623047 0)"/>
      </g>
     </g>
    </g>
    <g id="ytick_6">
     <g id="line2d_15">
      <path d="M 67.928594 104.183719 
L 1182.488594 104.183719 
" clip-path="url(#pdd5e4d684c)" style="fill: none; stroke: #d1d5db; stroke-opacity: 0.55; stroke-width: 0.9; stroke-linecap: square"/>
     </g>
     <g id="line2d_16">
      <g>
       <use xlink:href="#mba88c55eba" x="67.928594" y="104.183719" style="fill: #111827; stroke: #111827; stroke-width: 0.8"/>
      </g>
     </g>
     <g id="text_11">
      <!-- 5% -->
      <g style="fill: #111827" transform="translate(33.459688 110.642391) scale(0.17 -0.17)">
       <defs>
        <path id="DejaVuSans-35" d="M 691 4666 
L 3169 4666 
L 3169 4134 
L 1269 4134 
L 1269 2991 
Q 1406 3038 1543 3061 
Q 1681 3084 1819 3084 
Q 2600 3084 3056 2656 
Q 3513 2228 3513 1497 
Q 3513 744 3044 326 
Q 2575 -91 1722 -91 
Q 1428 -91 1123 -41 
Q 819 9 494 109 
L 494 744 
Q 775 591 1075 516 
Q 1375 441 1709 441 
Q 2250 441 2565 725 
Q 2881 1009 2881 1497 
Q 2881 1984 2565 2268 
Q 2250 2553 1709 2553 
Q 1456 2553 1204 2497 
Q 953 2441 691 2322 
L 691 4666 
z
" transform="scale(0.015625)"/>
       </defs>
       <use xlink:href="#DejaVuSans-35"/>
       <use xlink:href="#DejaVuSans-25" transform="translate(63.623047 0)"/>
      </g>
     </g>
    </g>
    <g id="text_12">
     <!-- Deaths / confirmed cases -->
     <g style="fill: #1f2937" transform="translate(24.676406 502.98375) rotate(-90) scale(0.23 -0.23)">
      <defs>
       <path id="DejaVuSans-68" d="M 3513 2113 
L 3513 0 
L 2938 0 
L 2938 2094 
Q 2938 2591 2744 2837 
Q 2550 3084 2163 3084 
Q 1697 3084 1428 2787 
Q 1159 2491 1159 1978 
L 1159 0 
L 581 0 
L 581 4863 
L 1159 4863 
L 1159 2956 
Q 1366 3272 1645 3428 
Q 1925 3584 2291 3584 
Q 2894 3584 3203 3211 
Q 3513 2838 3513 2113 
z
" transform="scale(0.015625)"/>
       <path id="DejaVuSans-73" d="M 2834 3397 
L 2834 2853 
Q 2591 2978 2328 3040 
Q 2066 3103 1784 3103 
Q 1356 3103 1142 2972 
Q 928 2841 928 2578 
Q 928 2378 1081 2264 
Q 1234 2150 1697 2047 
L 1894 2003 
Q 2506 1872 2764 1633 
Q 3022 1394 3022 966 
Q 3022 478 2636 193 
Q 2250 -91 1575 -91 
Q 1294 -91 989 -36 
Q 684 19 347 128 
L 347 722 
Q 666 556 975 473 
Q 1284 391 1588 391 
Q 1994 391 2212 530 
Q 2431 669 2431 922 
Q 2431 1156 2273 1281 
Q 2116 1406 1581 1522 
L 1381 1569 
Q 847 1681 609 1914 
Q 372 2147 372 2553 
Q 372 3047 722 3315 
Q 1072 3584 1716 3584 
Q 2034 3584 2315 3537 
Q 2597 3491 2834 3397 
z
" transform="scale(0.015625)"/>
       <path id="DejaVuSans-20" transform="scale(0.015625)"/>
       <path id="DejaVuSans-2f" d="M 1625 4666 
L 2156 4666 
L 531 -594 
L 0 -594 
L 1625 4666 
z
" transform="scale(0.015625)"/>
       <path id="DejaVuSans-63" d="M 3122 3366 
L 3122 2828 
Q 2878 2963 2633 3030 
Q 2388 3097 2138 3097 
Q 1578 3097 1268 2742 
Q 959 2388 959 1747 
Q 959 1106 1268 751 
Q 1578 397 2138 397 
Q 2388 397 2633 464 
Q 2878 531 3122 666 
L 3122 134 
Q 2881 22 2623 -34 
Q 2366 -91 2075 -91 
Q 1284 -91 818 406 
Q 353 903 353 1747 
Q 353 2603 823 3093 
Q 1294 3584 2113 3584 
Q 2378 3584 2631 3529 
Q 2884 3475 3122 3366 
z
" transform="scale(0.015625)"/>
       <path id="DejaVuSans-6f" d="M 1959 3097 
Q 1497 3097 1228 2736 
Q 959 2375 959 1747 
Q 959 1119 1226 758 
Q 1494 397 1959 397 
Q 2419 397 2687 759 
Q 2956 1122 2956 1747 
Q 2956 2369 2687 2733 
Q 2419 3097 1959 3097 
z
M 1959 3584 
Q 2709 3584 3137 3096 
Q 3566 2609 3566 1747 
Q 3566 888 3137 398 
Q 2709 -91 1959 -91 
Q 1206 -91 779 398 
Q 353 888 353 1747 
Q 353 2609 779 3096 
Q 1206 3584 1959 3584 
z
" transform="scale(0.015625)"/>
       <path id="DejaVuSans-6e" d="M 3513 2113 
L 3513 0 
L 2938 0 
L 2938 2094 
Q 2938 2591 2744 2837 
Q 2550 3084 2163 3084 
Q 1697 3084 1428 2787 
Q 1159 2491 1159 1978 
L 1159 0 
L 581 0 
L 581 3500 
L 1159 3500 
L 1159 2956 
Q 1366 3272 1645 3428 
Q 1925 3584 2291 3584 
Q 2894 3584 3203 3211 
Q 3513 2838 3513 2113 
z
" transform="scale(0.015625)"/>
       <path id="DejaVuSans-66" d="M 2375 4863 
L 2375 4384 
L 1825 4384 
Q 1516 4384 1395 4259 
Q 1275 4134 1275 3809 
L 1275 3500 
L 2222 3500 
L 2222 3053 
L 1275 3053 
L 1275 0 
L 697 0 
L 697 3053 
L 147 3053 
L 147 3500 
L 697 3500 
L 697 3744 
Q 697 4328 969 4595 
Q 1241 4863 1831 4863 
L 2375 4863 
z
" transform="scale(0.015625)"/>
       <path id="DejaVuSans-69" d="M 603 3500 
L 1178 3500 
L 1178 0 
L 603 0 
L 603 3500 
z
M 603 4863 
L 1178 4863 
L 1178 4134 
L 603 4134 
L 603 4863 
z
" transform="scale(0.015625)"/>
       <path id="DejaVuSans-72" d="M 2631 2963 
Q 2534 3019 2420 3045 
Q 2306 3072 2169 3072 
Q 1681 3072 1420 2755 
Q 1159 2438 1159 1844 
L 1159 0 
L 581 0 
L 581 3500 
L 1159 3500 
L 1159 2956 
Q 1341 3275 1631 3429 
Q 1922 3584 2338 3584 
Q 2397 3584 2469 3576 
Q 2541 3569 2628 3553 
L 2631 2963 
z
" transform="scale(0.015625)"/>
       <path id="DejaVuSans-6d" d="M 3328 2828 
Q 3544 3216 3844 3400 
Q 4144 3584 4550 3584 
Q 5097 3584 5394 3201 
Q 5691 2819 5691 2113 
L 5691 0 
L 5113 0 
L 5113 2094 
Q 5113 2597 4934 2840 
Q 4756 3084 4391 3084 
Q 3944 3084 3684 2787 
Q 3425 2491 3425 1978 
L 3425 0 
L 2847 0 
L 2847 2094 
Q 2847 2600 2669 2842 
Q 2491 3084 2119 3084 
Q 1678 3084 1418 2786 
Q 1159 2488 1159 1978 
L 1159 0 
L 581 0 
L 581 3500 
L 1159 3500 
L 1159 2956 
Q 1356 3278 1631 3431 
Q 1906 3584 2284 3584 
Q 2666 3584 2933 3390 
Q 3200 3197 3328 2828 
z
" transform="scale(0.015625)"/>
       <path id="DejaVuSans-64" d="M 2906 2969 
L 2906 4863 
L 3481 4863 
L 3481 0 
L 2906 0 
L 2906 525 
Q 2725 213 2448 61 
Q 2172 -91 1784 -91 
Q 1150 -91 751 415 
Q 353 922 353 1747 
Q 353 2572 751 3078 
Q 1150 3584 1784 3584 
Q 2172 3584 2448 3432 
Q 2725 3281 2906 2969 
z
M 947 1747 
Q 947 1113 1208 752 
Q 1469 391 1925 391 
Q 2381 391 2643 752 
Q 2906 1113 2906 1747 
Q 2906 2381 2643 2742 
Q 2381 3103 1925 3103 
Q 1469 3103 1208 2742 
Q 947 2381 947 1747 
z
" transform="scale(0.015625)"/>
      </defs>
      <use xlink:href="#DejaVuSans-44"/>
      <use xlink:href="#DejaVuSans-65" transform="translate(77.001953 0)"/>
      <use xlink:href="#DejaVuSans-61" transform="translate(138.525391 0)"/>
      <use xlink:href="#DejaVuSans-74" transform="translate(199.804688 0)"/>
      <use xlink:href="#DejaVuSans-68" transform="translate(239.013672 0)"/>
      <use xlink:href="#DejaVuSans-73" transform="translate(302.392578 0)"/>
      <use xlink:href="#DejaVuSans-20" transform="translate(354.492188 0)"/>
      <use xlink:href="#DejaVuSans-2f" transform="translate(386.279297 0)"/>
      <use xlink:href="#DejaVuSans-20" transform="translate(419.970703 0)"/>
      <use xlink:href="#DejaVuSans-63" transform="translate(451.757812 0)"/>
      <use xlink:href="#DejaVuSans-6f" transform="translate(506.738281 0)"/>
      <use xlink:href="#DejaVuSans-6e" transform="translate(567.919922 0)"/>
      <use xlink:href="#DejaVuSans-66" transform="translate(631.298828 0)"/>
      <use xlink:href="#DejaVuSans-69" transform="translate(666.503906 0)"/>
      <use xlink:href="#DejaVuSans-72" transform="translate(694.287109 0)"/>
      <use xlink:href="#DejaVuSans-6d" transform="translate(733.650391 0)"/>
      <use xlink:href="#DejaVuSans-65" transform="translate(831.0625 0)"/>
      <use xlink:href="#DejaVuSans-64" transform="translate(892.585938 0)"/>
      <use xlink:href="#DejaVuSans-20" transform="translate(956.0625 0)"/>
      <use xlink:href="#DejaVuSans-63" transform="translate(987.849609 0)"/>
      <use xlink:href="#DejaVuSans-61" transform="translate(1042.830078 0)"/>
      <use xlink:href="#DejaVuSans-73" transform="translate(1104.109375 0)"/>
      <use xlink:href="#DejaVuSans-65" transform="translate(1156.208984 0)"/>
      <use xlink:href="#DejaVuSans-73" transform="translate(1217.732422 0)"/>
     </g>
    </g>
   </g>
   <g id="patch_3">
    <path d="M 46.143373 657.915313 
L 131.176009 657.915313 
L 131.176009 55.995312 
L 46.143373 55.995312 
z
" clip-path="url(#pdd5e4d684c)" style="fill: #f3f4f6; opacity: 0.3"/>
   </g>
   <g id="patch_4">
    <path d="M 196.531671 657.915313 
L 301.944029 657.915313 
L 301.944029 55.995312 
L 196.531671 55.995312 
z
" clip-path="url(#pdd5e4d684c)" style="fill: #eceff3; opacity: 0.3"/>
   </g>
   <g id="patch_5">
    <path d="M 302.646778 657.915313 
L 387.679413 657.915313 
L 387.679413 55.995312 
L 302.646778 55.995312 
z
" clip-path="url(#pdd5e4d684c)" style="fill: #f3f4f6; opacity: 0.3"/>
   </g>
   <g id="patch_6">
    <path d="M 453.035075 657.915313 
L 538.77046 657.915313 
L 538.77046 55.995312 
L 453.035075 55.995312 
z
" clip-path="url(#pdd5e4d684c)" style="fill: #eceff3; opacity: 0.3"/>
   </g>
   <g id="patch_7">
    <path d="M 539.473209 657.915313 
L 644.182818 657.915313 
L 644.182818 55.995312 
L 539.473209 55.995312 
z
" clip-path="url(#pdd5e4d684c)" style="fill: #e5e7eb; opacity: 0.3"/>
   </g>
   <g id="patch_8">
    <path d="M 644.885567 657.915313 
L 1287.198203 657.915313 
L 1287.198203 55.995312 
L 644.885567 55.995312 
z
" clip-path="url(#pdd5e4d684c)" style="fill: #f7f7f7; opacity: 0.3"/>
   </g>
   <g id="line2d_17">
    <path d="M 67.928594 303.514615 
L 70.036841 303.514615 
L 70.73959 179.573989 
L 74.956084 179.573989 
L 75.658833 118.105854 
L 79.875328 118.105854 
L 80.578077 88.931865 
L 84.794571 88.931865 
L 85.49732 82.403393 
L 94.633058 82.318175 
L 95.335807 86.636127 
L 99.552301 86.636127 
L 100.25505 91.774106 
L 104.471545 91.774106 
L 105.174294 96.308469 
L 109.390788 96.308469 
L 110.093537 102.24349 
L 114.310031 102.24349 
L 115.01278 106.693639 
L 119.229275 106.693639 
L 119.932024 111.547676 
L 124.148518 111.547676 
L 124.851267 121.163089 
L 129.067761 121.163089 
L 129.770511 128.721059 
L 133.987005 128.721059 
L 134.689754 134.493036 
L 138.906248 134.493036 
L 139.608997 139.484063 
L 143.825492 139.484063 
L 144.528241 145.587614 
L 148.744735 145.587614 
L 149.447484 153.59302 
L 153.663978 153.59302 
L 154.366727 163.222609 
L 158.583222 163.222609 
L 159.285971 175.30977 
L 163.502465 175.30977 
L 164.205214 190.872461 
L 168.421709 190.872461 
L 169.124458 208.47317 
L 173.340952 208.47317 
L 174.043701 223.975342 
L 178.260195 223.975342 
L 178.962944 237.253486 
L 183.179439 237.253486 
L 183.882188 250.092592 
L 188.098682 250.092592 
L 188.801431 265.050938 
L 193.017925 265.050938 
L 193.720674 278.675349 
L 197.937169 278.675349 
L 198.639918 294.198949 
L 202.856412 294.198949 
L 203.559161 314.764524 
L 207.775656 314.764524 
L 208.478405 339.761877 
L 212.694899 339.761877 
L 213.397648 367.898227 
L 217.614142 367.898227 
L 218.316891 393.458476 
L 222.533386 393.458476 
L 223.236135 411.15866 
L 227.452629 411.15866 
L 228.155378 415.433043 
L 232.371872 415.433043 
L 233.074621 410.543567 
L 237.291116 410.543567 
L 237.993865 401.673254 
L 242.210359 401.673254 
L 242.913108 387.604726 
L 247.129603 387.604726 
L 247.832352 371.57664 
L 252.048846 371.57664 
L 252.751595 357.411235 
L 256.968089 357.411235 
L 257.670838 344.330041 
L 261.887333 344.330041 
L 262.590082 330.278109 
L 266.806576 330.278109 
L 267.509325 321.927153 
L 271.725819 321.927153 
L 272.428569 313.879746 
L 276.645063 313.879746 
L 277.347812 307.995851 
L 281.564306 307.995851 
L 282.267055 304.844707 
L 286.48355 304.844707 
L 287.186299 303.83402 
L 291.402793 303.83402 
L 292.105542 303.573615 
L 296.322036 303.573615 
L 297.024785 304.48362 
L 301.24128 304.48362 
L 301.944029 307.07192 
L 306.160523 307.07192 
L 306.863272 310.61879 
L 311.079767 310.61879 
L 311.782516 315.498949 
L 315.99901 315.498949 
L 316.701759 322.084419 
L 320.918253 322.084419 
L 321.621002 330.043905 
L 325.837497 330.043905 
L 326.540246 336.422133 
L 330.75674 336.422133 
L 331.459489 343.219722 
L 335.675983 343.219722 
L 336.378732 351.676287 
L 340.595227 351.676287 
L 341.297976 359.661367 
L 345.51447 359.661367 
L 346.217219 366.295383 
L 350.433714 366.295383 
L 351.136463 371.465851 
L 355.352957 371.465851 
L 356.055706 375.020127 
L 360.2722 375.020127 
L 360.974949 377.744558 
L 365.191444 377.744558 
L 365.894193 379.233851 
L 370.110687 379.233851 
L 370.813436 380.369875 
L 375.02993 380.369875 
L 375.73268 381.221262 
L 379.949174 381.221262 
L 380.651923 381.623214 
L 384.868417 381.623214 
L 385.571166 381.894446 
L 389.787661 381.894446 
L 390.49041 382.144991 
L 394.706904 382.144991 
L 395.409653 382.48414 
L 399.626147 382.48414 
L 400.328896 383.065835 
L 404.545391 383.065835 
L 405.24814 383.873178 
L 409.464634 383.873178 
L 410.167383 384.789486 
L 414.383877 384.789486 
L 415.086627 386.000431 
L 419.303121 386.000431 
L 420.00587 387.864068 
L 424.222364 387.864068 
L 424.925113 390.684785 
L 429.141608 390.684785 
L 429.844357 394.199341 
L 434.060851 394.199341 
L 434.7636 397.916441 
L 438.980094 397.916441 
L 439.682843 401.258324 
L 443.899338 401.258324 
L 444.602087 404.033679 
L 448.818581 404.033679 
L 449.52133 406.340549 
L 453.737825 406.340549 
L 454.440574 408.577172 
L 458.657068 408.577172 
L 459.359817 410.674319 
L 463.576311 410.674319 
L 464.27906 412.893706 
L 468.495555 412.893706 
L 469.198304 415.640566 
L 473.414798 415.640566 
L 474.117547 419.774607 
L 478.334041 419.774607 
L 479.03679 424.747175 
L 483.253285 424.747175 
L 483.956034 432.231422 
L 488.172528 432.231422 
L 488.875277 441.341201 
L 493.091772 441.341201 
L 493.794521 450.464054 
L 498.011015 450.464054 
L 498.713764 458.31972 
L 502.930258 458.31972 
L 503.633007 464.373809 
L 507.849502 464.373809 
L 508.552251 468.89733 
L 512.768745 468.89733 
L 513.471494 472.088739 
L 517.687988 472.088739 
L 518.390738 475.880302 
L 522.607232 475.880302 
L 523.309981 482.741038 
L 527.526475 482.741038 
L 528.229224 492.369987 
L 532.445719 492.369987 
L 533.148468 506.200084 
L 537.364962 506.200084 
L 538.067711 521.935693 
L 542.284205 521.935693 
L 542.986954 536.079766 
L 547.203449 536.079766 
L 547.906198 547.281825 
L 552.122692 547.281825 
L 552.825441 555.442239 
L 557.041935 555.442239 
L 557.744685 561.759725 
L 561.961179 561.759725 
L 562.663928 567.470017 
L 566.880422 567.470017 
L 567.583171 573.689436 
L 571.799666 573.689436 
L 572.502415 579.58437 
L 576.718909 579.58437 
L 577.421658 584.623142 
L 581.638152 584.623142 
L 582.340901 588.18707 
L 586.557396 588.18707 
L 587.260145 590.565885 
L 591.476639 590.565885 
L 592.179388 592.324766 
L 596.395883 592.324766 
L 597.098632 593.927273 
L 601.315126 593.927273 
L 602.017875 595.157053 
L 606.234369 595.157053 
L 606.937118 596.085105 
L 611.153613 596.085105 
L 611.856362 596.88421 
L 616.072856 596.88421 
L 616.775605 597.427628 
L 620.992099 597.427628 
L 621.694848 597.768216 
L 625.911343 597.768216 
L 626.614092 598.230404 
L 630.830586 598.230404 
L 631.533335 598.848685 
L 635.74983 598.848685 
L 636.452579 599.5808 
L 640.669073 599.5808 
L 641.371822 600.557529 
L 645.588316 600.557529 
L 646.291065 601.573848 
L 650.50756 601.573848 
L 651.210309 602.524218 
L 655.426803 602.524218 
L 656.129552 603.42221 
L 660.346046 603.42221 
L 661.048796 604.134408 
L 665.26529 604.134408 
L 665.968039 604.624753 
L 670.184533 604.624753 
L 670.887282 604.962905 
L 675.103777 604.962905 
L 675.806526 605.244515 
L 680.02302 605.244515 
L 680.725769 605.473775 
L 684.942263 605.473775 
L 685.645012 605.709401 
L 689.861507 605.709401 
L 690.564256 605.915264 
L 694.78075 605.915264 
L 695.483499 606.133872 
L 699.699993 606.133872 
L 700.402743 606.37636 
L 704.619237 606.37636 
L 705.321986 606.649344 
L 709.53848 606.649344 
L 710.241229 607.061107 
L 714.457724 607.061107 
L 715.160473 607.530686 
L 719.376967 607.530686 
L 720.079716 607.969336 
L 724.29621 607.969336 
L 724.998959 608.277022 
L 729.215454 608.277022 
L 729.918203 608.471941 
L 734.134697 608.471941 
L 734.837446 608.592215 
L 743.973184 608.671969 
L 745.378682 608.733534 
L 773.488644 608.629815 
L 774.894142 608.542304 
L 788.246374 608.433997 
L 793.165618 608.417209 
L 822.681078 608.288638 
L 824.086576 608.17983 
L 827.600321 608.17983 
L 828.30307 608.051166 
L 832.519565 608.051166 
L 833.222314 607.936173 
L 842.358052 607.841248 
L 843.76355 607.780169 
L 852.196538 607.709498 
L 854.304785 607.657865 
L 871.873512 607.562037 
L 876.090006 607.543251 
L 1182.488594 607.500611 
L 1182.488594 607.500611 
" clip-path="url(#pdd5e4d684c)" style="fill: none; stroke: #9ca3af; stroke-opacity: 0.38; stroke-width: 1.6; stroke-linecap: square"/>
   </g>
   <g id="line2d_18">
    <path d="M 72.145088 250.397204 
L 72.847837 241.544302 
L 73.550586 234.658712 
L 74.253335 229.15024 
L 74.956084 224.643308 
L 76.361582 208.25293 
L 77.767081 196.23332 
L 79.172579 187.041854 
L 79.875328 183.212076 
L 81.280826 173.784055 
L 82.686324 166.070219 
L 84.091822 159.642023 
L 86.200069 151.301748 
L 86.902818 148.841093 
L 89.713814 117.253776 
L 94.633058 92.939822 
L 99.552301 85.07239 
L 104.471545 85.78295 
L 109.390788 89.259219 
L 124.148518 104.198318 
L 131.176009 113.248856 
L 136.095252 120.009873 
L 144.528241 131.837616 
L 153.663978 143.289433 
L 158.583222 150.471827 
L 163.502465 159.428253 
L 168.421709 170.749465 
L 174.043701 186.639243 
L 188.801431 231.969282 
L 196.531671 253.860948 
L 200.748165 265.903157 
L 203.559161 274.314169 
L 208.478405 290.840688 
L 212.694899 306.850175 
L 218.316891 332.700878 
L 226.047131 371.184015 
L 227.452629 378.06931 
L 232.371872 396.987102 
L 237.291116 407.648436 
L 242.210359 409.702131 
L 247.129603 403.813647 
L 252.048846 392.849547 
L 258.373587 375.47052 
L 267.509325 349.12581 
L 272.428569 336.931938 
L 277.347812 326.306112 
L 281.564306 318.520215 
L 286.48355 312.161864 
L 291.402793 307.638581 
L 296.322036 305.062048 
L 301.24128 304.18399 
L 306.160523 304.740793 
L 311.079767 306.436986 
L 315.99901 309.41832 
L 320.918253 313.818519 
L 326.540246 320.483064 
L 332.162238 327.992406 
L 337.081482 335.056249 
L 353.947459 360.257141 
L 356.055706 363.108431 
L 360.2722 368.110682 
L 365.191444 372.63148 
L 370.110687 375.866097 
L 375.73268 378.313572 
L 380.651923 379.78091 
L 386.273915 380.802093 
L 391.895908 381.46739 
L 398.923398 381.991595 
L 405.950889 382.538691 
L 412.27563 383.269821 
L 416.492125 383.929905 
L 420.708619 384.774964 
L 424.925113 385.875063 
L 429.844357 387.670759 
L 434.7636 390.112728 
L 440.385592 393.622891 
L 450.224079 400.219175 
L 455.143323 403.148729 
L 460.062566 405.725002 
L 467.792806 409.305007 
L 473.414798 411.946441 
L 479.03679 415.248402 
L 483.253285 418.264014 
L 488.172528 423.098443 
L 493.794521 430.619653 
L 498.713764 438.394982 
L 505.741255 450.180869 
L 508.552251 454.608844 
L 512.768745 460.513728 
L 518.390738 466.547063 
L 526.120977 473.589907 
L 527.526475 474.901852 
L 532.445719 480.770017 
L 537.364962 489.297853 
L 542.986954 502.716655 
L 550.717194 523.952068 
L 552.825441 529.63299 
L 557.041935 540.184881 
L 561.961179 550.140889 
L 567.583171 558.931581 
L 573.205164 566.314792 
L 578.827156 573.075539 
L 583.04365 577.821531 
L 587.260145 582.123735 
L 591.476639 585.740117 
L 597.098632 589.257506 
L 602.017875 591.500177 
L 607.639867 593.387974 
L 613.26186 594.862061 
L 618.181103 595.888448 
L 623.100347 596.668266 
L 630.127837 597.500997 
L 644.885567 599.204736 
L 649.102062 599.901398 
L 656.129552 601.196292 
L 665.968039 603.022632 
L 673.698278 604.111877 
L 678.617522 604.61148 
L 684.239514 605.028652 
L 691.969754 605.449687 
L 717.971469 606.804602 
L 742.567686 608.453099 
L 751.000674 608.649275 
L 765.055656 608.755888 
L 780.516135 608.627793 
L 802.301355 608.424838 
L 829.708569 608.256693 
L 881.711999 607.554515 
L 928.796185 607.500611 
L 1182.488594 607.500611 
L 1182.488594 607.500611 
" clip-path="url(#pdd5e4d684c)" style="fill: none; stroke: #d55e00; stroke-width: 3.2; stroke-linecap: square"/>
   </g>
   <g id="line2d_19">
    <path d="M 60.901103 657.915313 
L 60.901103 55.995312 
" clip-path="url(#pdd5e4d684c)" style="fill: none; stroke-dasharray: 1.1,1.815; stroke-dashoffset: 0; stroke: #9ca3af; stroke-opacity: 0.8; stroke-width: 1.1"/>
   </g>
   <g id="line2d_20">
    <path d="M 257.670838 657.915313 
L 257.670838 55.995312 
" clip-path="url(#pdd5e4d684c)" style="fill: none; stroke-dasharray: 1.1,1.815; stroke-dashoffset: 0; stroke: #9ca3af; stroke-opacity: 0.8; stroke-width: 1.1"/>
   </g>
   <g id="line2d_21">
    <path d="M 495.902768 657.915313 
L 495.902768 55.995312 
" clip-path="url(#pdd5e4d684c)" style="fill: none; stroke-dasharray: 1.1,1.815; stroke-dashoffset: 0; stroke: #9ca3af; stroke-opacity: 0.8; stroke-width: 1.1"/>
   </g>
   <g id="patch_9">
    <path d="M 67.928594 657.915313 
L 67.928594 55.995312 
" style="fill: none; stroke: #9ca3af; stroke-linejoin: miter; stroke-linecap: square"/>
   </g>
   <g id="patch_10">
    <path d="M 67.928594 657.915313 
L 1182.488594 657.915313 
" style="fill: none; stroke: #9ca3af; stroke-linejoin: miter; stroke-linecap: square"/>
   </g>
   <g id="text_13">
    <g id="patch_11">
     <path d="M 62.651103 175.940695 
L 62.651103 83.200461 
L 47.053447 83.200461 
L 47.053447 175.940695 
z
" style="fill: #ffffff; opacity: 0.82"/>
    </g>
    <!-- First lockdown -->
    <g style="fill: #6b7280" transform="translate(58.301494 174.190695) rotate(-90) scale(0.125 -0.125)">
     <defs>
      <path id="DejaVuSans-46" d="M 628 4666 
L 3309 4666 
L 3309 4134 
L 1259 4134 
L 1259 2759 
L 3109 2759 
L 3109 2228 
L 1259 2228 
L 1259 0 
L 628 0 
L 628 4666 
z
" transform="scale(0.015625)"/>
      <path id="DejaVuSans-6c" d="M 603 4863 
L 1178 4863 
L 1178 0 
L 603 0 
L 603 4863 
z
" transform="scale(0.015625)"/>
      <path id="DejaVuSans-6b" d="M 581 4863 
L 1159 4863 
L 1159 1991 
L 2875 3500 
L 3609 3500 
L 1753 1863 
L 3688 0 
L 2938 0 
L 1159 1709 
L 1159 0 
L 581 0 
L 581 4863 
z
" transform="scale(0.015625)"/>
      <path id="DejaVuSans-77" d="M 269 3500 
L 844 3500 
L 1563 769 
L 2278 3500 
L 2956 3500 
L 3675 769 
L 4391 3500 
L 4966 3500 
L 4050 0 
L 3372 0 
L 2619 2869 
L 1863 0 
L 1184 0 
L 269 3500 
z
" transform="scale(0.015625)"/>
     </defs>
     <use xlink:href="#DejaVuSans-46"/>
     <use xlink:href="#DejaVuSans-69" transform="translate(50.269531 0)"/>
     <use xlink:href="#DejaVuSans-72" transform="translate(78.052734 0)"/>
     <use xlink:href="#DejaVuSans-73" transform="translate(119.166016 0)"/>
     <use xlink:href="#DejaVuSans-74" transform="translate(171.265625 0)"/>
     <use xlink:href="#DejaVuSans-20" transform="translate(210.474609 0)"/>
     <use xlink:href="#DejaVuSans-6c" transform="translate(242.261719 0)"/>
     <use xlink:href="#DejaVuSans-6f" transform="translate(270.044922 0)"/>
     <use xlink:href="#DejaVuSans-63" transform="translate(331.226562 0)"/>
     <use xlink:href="#DejaVuSans-6b" transform="translate(386.207031 0)"/>
     <use xlink:href="#DejaVuSans-64" transform="translate(444.117188 0)"/>
     <use xlink:href="#DejaVuSans-6f" transform="translate(507.59375 0)"/>
     <use xlink:href="#DejaVuSans-77" transform="translate(568.775391 0)"/>
     <use xlink:href="#DejaVuSans-6e" transform="translate(650.5625 0)"/>
    </g>
   </g>
   <g id="text_14">
    <g id="patch_12">
     <path d="M 259.420838 178.669211 
L 259.420838 83.200461 
L 243.823182 83.200461 
L 243.823182 178.669211 
z
" style="fill: #ffffff; opacity: 0.82"/>
    </g>
    <!-- Vaccine rollout -->
    <g style="fill: #6b7280" transform="translate(255.071229 176.919211) rotate(-90) scale(0.125 -0.125)">
     <defs>
      <path id="DejaVuSans-56" d="M 1831 0 
L 50 4666 
L 709 4666 
L 2188 738 
L 3669 4666 
L 4325 4666 
L 2547 0 
L 1831 0 
z
" transform="scale(0.015625)"/>
      <path id="DejaVuSans-75" d="M 544 1381 
L 544 3500 
L 1119 3500 
L 1119 1403 
Q 1119 906 1312 657 
Q 1506 409 1894 409 
Q 2359 409 2629 706 
Q 2900 1003 2900 1516 
L 2900 3500 
L 3475 3500 
L 3475 0 
L 2900 0 
L 2900 538 
Q 2691 219 2414 64 
Q 2138 -91 1772 -91 
Q 1169 -91 856 284 
Q 544 659 544 1381 
z
M 1991 3584 
L 1991 3584 
z
" transform="scale(0.015625)"/>
     </defs>
     <use xlink:href="#DejaVuSans-56"/>
     <use xlink:href="#DejaVuSans-61" transform="translate(60.658203 0)"/>
     <use xlink:href="#DejaVuSans-63" transform="translate(121.9375 0)"/>
     <use xlink:href="#DejaVuSans-63" transform="translate(176.917969 0)"/>
     <use xlink:href="#DejaVuSans-69" transform="translate(231.898438 0)"/>
     <use xlink:href="#DejaVuSans-6e" transform="translate(259.681641 0)"/>
     <use xlink:href="#DejaVuSans-65" transform="translate(323.060547 0)"/>
     <use xlink:href="#DejaVuSans-20" transform="translate(384.583984 0)"/>
     <use xlink:href="#DejaVuSans-72" transform="translate(416.371094 0)"/>
     <use xlink:href="#DejaVuSans-6f" transform="translate(455.234375 0)"/>
     <use xlink:href="#DejaVuSans-6c" transform="translate(516.416016 0)"/>
     <use xlink:href="#DejaVuSans-6c" transform="translate(544.199219 0)"/>
     <use xlink:href="#DejaVuSans-6f" transform="translate(571.982422 0)"/>
     <use xlink:href="#DejaVuSans-75" transform="translate(633.164062 0)"/>
     <use xlink:href="#DejaVuSans-74" transform="translate(696.542969 0)"/>
    </g>
   </g>
   <g id="text_15">
    <g id="patch_13">
     <path d="M 497.652768 214.053976 
L 497.652768 83.200461 
L 482.055112 83.200461 
L 482.055112 214.053976 
z
" style="fill: #ffffff; opacity: 0.82"/>
    </g>
    <!-- Omicron emergence -->
    <g style="fill: #6b7280" transform="translate(493.303158 212.303976) rotate(-90) scale(0.125 -0.125)">
     <defs>
      <path id="DejaVuSans-4f" d="M 2522 4238 
Q 1834 4238 1429 3725 
Q 1025 3213 1025 2328 
Q 1025 1447 1429 934 
Q 1834 422 2522 422 
Q 3209 422 3611 934 
Q 4013 1447 4013 2328 
Q 4013 3213 3611 3725 
Q 3209 4238 2522 4238 
z
M 2522 4750 
Q 3503 4750 4090 4092 
Q 4678 3434 4678 2328 
Q 4678 1225 4090 567 
Q 3503 -91 2522 -91 
Q 1538 -91 948 565 
Q 359 1222 359 2328 
Q 359 3434 948 4092 
Q 1538 4750 2522 4750 
z
" transform="scale(0.015625)"/>
      <path id="DejaVuSans-67" d="M 2906 1791 
Q 2906 2416 2648 2759 
Q 2391 3103 1925 3103 
Q 1463 3103 1205 2759 
Q 947 2416 947 1791 
Q 947 1169 1205 825 
Q 1463 481 1925 481 
Q 2391 481 2648 825 
Q 2906 1169 2906 1791 
z
M 3481 434 
Q 3481 -459 3084 -895 
Q 2688 -1331 1869 -1331 
Q 1566 -1331 1297 -1286 
Q 1028 -1241 775 -1147 
L 775 -588 
Q 1028 -725 1275 -790 
Q 1522 -856 1778 -856 
Q 2344 -856 2625 -561 
Q 2906 -266 2906 331 
L 2906 616 
Q 2728 306 2450 153 
Q 2172 0 1784 0 
Q 1141 0 747 490 
Q 353 981 353 1791 
Q 353 2603 747 3093 
Q 1141 3584 1784 3584 
Q 2172 3584 2450 3431 
Q 2728 3278 2906 2969 
L 2906 3500 
L 3481 3500 
L 3481 434 
z
" transform="scale(0.015625)"/>
     </defs>
     <use xlink:href="#DejaVuSans-4f"/>
     <use xlink:href="#DejaVuSans-6d" transform="translate(78.710938 0)"/>
     <use xlink:href="#DejaVuSans-69" transform="translate(176.123047 0)"/>
     <use xlink:href="#DejaVuSans-63" transform="translate(203.90625 0)"/>
     <use xlink:href="#DejaVuSans-72" transform="translate(258.886719 0)"/>
     <use xlink:href="#DejaVuSans-6f" transform="translate(297.75 0)"/>
     <use xlink:href="#DejaVuSans-6e" transform="translate(358.931641 0)"/>
     <use xlink:href="#DejaVuSans-20" transform="translate(422.310547 0)"/>
     <use xlink:href="#DejaVuSans-65" transform="translate(454.097656 0)"/>
     <use xlink:href="#DejaVuSans-6d" transform="translate(515.621094 0)"/>
     <use xlink:href="#DejaVuSans-65" transform="translate(613.033203 0)"/>
     <use xlink:href="#DejaVuSans-72" transform="translate(674.556641 0)"/>
     <use xlink:href="#DejaVuSans-67" transform="translate(713.919922 0)"/>
     <use xlink:href="#DejaVuSans-65" transform="translate(777.396484 0)"/>
     <use xlink:href="#DejaVuSans-6e" transform="translate(838.919922 0)"/>
     <use xlink:href="#DejaVuSans-63" transform="translate(902.298828 0)"/>
     <use xlink:href="#DejaVuSans-65" transform="translate(957.279297 0)"/>
    </g>
   </g>
   <g id="text_16">
    <!-- Case fatality ratio -->
    <g style="fill: #111827" transform="translate(473.223437 29.995312) scale(0.3 -0.3)">
     <defs>
      <path id="DejaVuSans-Bold-43" d="M 4288 256 
Q 3956 84 3597 -3 
Q 3238 -91 2847 -91 
Q 1681 -91 1000 561 
Q 319 1213 319 2328 
Q 319 3447 1000 4098 
Q 1681 4750 2847 4750 
Q 3238 4750 3597 4662 
Q 3956 4575 4288 4403 
L 4288 3438 
Q 3953 3666 3628 3772 
Q 3303 3878 2944 3878 
Q 2300 3878 1931 3465 
Q 1563 3053 1563 2328 
Q 1563 1606 1931 1193 
Q 2300 781 2944 781 
Q 3303 781 3628 887 
Q 3953 994 4288 1222 
L 4288 256 
z
" transform="scale(0.015625)"/>
      <path id="DejaVuSans-Bold-61" d="M 2106 1575 
Q 1756 1575 1579 1456 
Q 1403 1338 1403 1106 
Q 1403 894 1545 773 
Q 1688 653 1941 653 
Q 2256 653 2472 879 
Q 2688 1106 2688 1447 
L 2688 1575 
L 2106 1575 
z
M 3816 1997 
L 3816 0 
L 2688 0 
L 2688 519 
Q 2463 200 2181 54 
Q 1900 -91 1497 -91 
Q 953 -91 614 226 
Q 275 544 275 1050 
Q 275 1666 698 1953 
Q 1122 2241 2028 2241 
L 2688 2241 
L 2688 2328 
Q 2688 2594 2478 2717 
Q 2269 2841 1825 2841 
Q 1466 2841 1156 2769 
Q 847 2697 581 2553 
L 581 3406 
Q 941 3494 1303 3539 
Q 1666 3584 2028 3584 
Q 2975 3584 3395 3211 
Q 3816 2838 3816 1997 
z
" transform="scale(0.015625)"/>
      <path id="DejaVuSans-Bold-73" d="M 3272 3391 
L 3272 2541 
Q 2913 2691 2578 2766 
Q 2244 2841 1947 2841 
Q 1628 2841 1473 2761 
Q 1319 2681 1319 2516 
Q 1319 2381 1436 2309 
Q 1553 2238 1856 2203 
L 2053 2175 
Q 2913 2066 3209 1816 
Q 3506 1566 3506 1031 
Q 3506 472 3093 190 
Q 2681 -91 1863 -91 
Q 1516 -91 1145 -36 
Q 775 19 384 128 
L 384 978 
Q 719 816 1070 734 
Q 1422 653 1784 653 
Q 2113 653 2278 743 
Q 2444 834 2444 1013 
Q 2444 1163 2330 1236 
Q 2216 1309 1875 1350 
L 1678 1375 
Q 931 1469 631 1722 
Q 331 1975 331 2491 
Q 331 3047 712 3315 
Q 1094 3584 1881 3584 
Q 2191 3584 2531 3537 
Q 2872 3491 3272 3391 
z
" transform="scale(0.015625)"/>
      <path id="DejaVuSans-Bold-65" d="M 4031 1759 
L 4031 1441 
L 1416 1441 
Q 1456 1047 1700 850 
Q 1944 653 2381 653 
Q 2734 653 3104 758 
Q 3475 863 3866 1075 
L 3866 213 
Q 3469 63 3072 -14 
Q 2675 -91 2278 -91 
Q 1328 -91 801 392 
Q 275 875 275 1747 
Q 275 2603 792 3093 
Q 1309 3584 2216 3584 
Q 3041 3584 3536 3087 
Q 4031 2591 4031 1759 
z
M 2881 2131 
Q 2881 2450 2695 2645 
Q 2509 2841 2209 2841 
Q 1884 2841 1681 2658 
Q 1478 2475 1428 2131 
L 2881 2131 
z
" transform="scale(0.015625)"/>
      <path id="DejaVuSans-Bold-20" transform="scale(0.015625)"/>
      <path id="DejaVuSans-Bold-66" d="M 2841 4863 
L 2841 4128 
L 2222 4128 
Q 1984 4128 1890 4042 
Q 1797 3956 1797 3744 
L 1797 3500 
L 2753 3500 
L 2753 2700 
L 1797 2700 
L 1797 0 
L 678 0 
L 678 2700 
L 122 2700 
L 122 3500 
L 678 3500 
L 678 3744 
Q 678 4316 997 4589 
Q 1316 4863 1984 4863 
L 2841 4863 
z
" transform="scale(0.015625)"/>
      <path id="DejaVuSans-Bold-74" d="M 1759 4494 
L 1759 3500 
L 2913 3500 
L 2913 2700 
L 1759 2700 
L 1759 1216 
Q 1759 972 1856 886 
Q 1953 800 2241 800 
L 2816 800 
L 2816 0 
L 1856 0 
Q 1194 0 917 276 
Q 641 553 641 1216 
L 641 2700 
L 84 2700 
L 84 3500 
L 641 3500 
L 641 4494 
L 1759 4494 
z
" transform="scale(0.015625)"/>
      <path id="DejaVuSans-Bold-6c" d="M 538 4863 
L 1656 4863 
L 1656 0 
L 538 0 
L 538 4863 
z
" transform="scale(0.015625)"/>
      <path id="DejaVuSans-Bold-69" d="M 538 3500 
L 1656 3500 
L 1656 0 
L 538 0 
L 538 3500 
z
M 538 4863 
L 1656 4863 
L 1656 3950 
L 538 3950 
L 538 4863 
z
" transform="scale(0.015625)"/>
      <path id="DejaVuSans-Bold-79" d="M 78 3500 
L 1197 3500 
L 2138 1125 
L 2938 3500 
L 4056 3500 
L 2584 -331 
Q 2363 -916 2067 -1148 
Q 1772 -1381 1288 -1381 
L 641 -1381 
L 641 -647 
L 991 -647 
Q 1275 -647 1404 -556 
Q 1534 -466 1606 -231 
L 1638 -134 
L 78 3500 
z
" transform="scale(0.015625)"/>
      <path id="DejaVuSans-Bold-72" d="M 3138 2547 
Q 2991 2616 2845 2648 
Q 2700 2681 2553 2681 
Q 2122 2681 1889 2404 
Q 1656 2128 1656 1613 
L 1656 0 
L 538 0 
L 538 3500 
L 1656 3500 
L 1656 2925 
Q 1872 3269 2151 3426 
Q 2431 3584 2822 3584 
Q 2878 3584 2943 3579 
Q 3009 3575 3134 3559 
L 3138 2547 
z
" transform="scale(0.015625)"/>
      <path id="DejaVuSans-Bold-6f" d="M 2203 2784 
Q 1831 2784 1636 2517 
Q 1441 2250 1441 1747 
Q 1441 1244 1636 976 
Q 1831 709 2203 709 
Q 2569 709 2762 976 
Q 2956 1244 2956 1747 
Q 2956 2250 2762 2517 
Q 2569 2784 2203 2784 
z
M 2203 3584 
Q 3106 3584 3614 3096 
Q 4122 2609 4122 1747 
Q 4122 884 3614 396 
Q 3106 -91 2203 -91 
Q 1297 -91 786 396 
Q 275 884 275 1747 
Q 275 2609 786 3096 
Q 1297 3584 2203 3584 
z
" transform="scale(0.015625)"/>
     </defs>
     <use xlink:href="#DejaVuSans-Bold-43"/>
     <use xlink:href="#DejaVuSans-Bold-61" transform="translate(73.388672 0)"/>
     <use xlink:href="#DejaVuSans-Bold-73" transform="translate(140.869141 0)"/>
     <use xlink:href="#DejaVuSans-Bold-65" transform="translate(200.390625 0)"/>
     <use xlink:href="#DejaVuSans-Bold-20" transform="translate(268.212891 0)"/>
     <use xlink:href="#DejaVuSans-Bold-66" transform="translate(303.027344 0)"/>
     <use xlink:href="#DejaVuSans-Bold-61" transform="translate(346.533203 0)"/>
     <use xlink:href="#DejaVuSans-Bold-74" transform="translate(414.013672 0)"/>
     <use xlink:href="#DejaVuSans-Bold-61" transform="translate(461.816406 0)"/>
     <use xlink:href="#DejaVuSans-Bold-6c" transform="translate(529.296875 0)"/>
     <use xlink:href="#DejaVuSans-Bold-69" transform="translate(563.574219 0)"/>
     <use xlink:href="#DejaVuSans-Bold-74" transform="translate(597.851562 0)"/>
     <use xlink:href="#DejaVuSans-Bold-79" transform="translate(645.654297 0)"/>
     <use xlink:href="#DejaVuSans-Bold-20" transform="translate(710.839844 0)"/>
     <use xlink:href="#DejaVuSans-Bold-72" transform="translate(745.654297 0)"/>
     <use xlink:href="#DejaVuSans-Bold-61" transform="translate(794.970703 0)"/>
     <use xlink:href="#DejaVuSans-Bold-74" transform="translate(862.451172 0)"/>
     <use xlink:href="#DejaVuSans-Bold-69" transform="translate(910.253906 0)"/>
     <use xlink:href="#DejaVuSans-Bold-6f" transform="translate(944.53125 0)"/>
    </g>
   </g>
   <g id="legend_1">
    <g id="line2d_22">
     <path d="M 917.774687 78.262656 
L 941.574687 78.262656 
L 965.374687 78.262656 
" style="fill: none; stroke: #9ca3af; stroke-opacity: 0.38; stroke-width: 1.6; stroke-linecap: square"/>
    </g>
    <g id="text_17">
     <!-- Cumulative CFR -->
     <g transform="translate(978.974687 84.212656) scale(0.17 -0.17)">
      <defs>
       <path id="DejaVuSans-43" d="M 4122 4306 
L 4122 3641 
Q 3803 3938 3442 4084 
Q 3081 4231 2675 4231 
Q 1875 4231 1450 3742 
Q 1025 3253 1025 2328 
Q 1025 1406 1450 917 
Q 1875 428 2675 428 
Q 3081 428 3442 575 
Q 3803 722 4122 1019 
L 4122 359 
Q 3791 134 3420 21 
Q 3050 -91 2638 -91 
Q 1578 -91 968 557 
Q 359 1206 359 2328 
Q 359 3453 968 4101 
Q 1578 4750 2638 4750 
Q 3056 4750 3426 4639 
Q 3797 4528 4122 4306 
z
" transform="scale(0.015625)"/>
       <path id="DejaVuSans-76" d="M 191 3500 
L 800 3500 
L 1894 563 
L 2988 3500 
L 3597 3500 
L 2284 0 
L 1503 0 
L 191 3500 
z
" transform="scale(0.015625)"/>
       <path id="DejaVuSans-52" d="M 2841 2188 
Q 3044 2119 3236 1894 
Q 3428 1669 3622 1275 
L 4263 0 
L 3584 0 
L 2988 1197 
Q 2756 1666 2539 1819 
Q 2322 1972 1947 1972 
L 1259 1972 
L 1259 0 
L 628 0 
L 628 4666 
L 2053 4666 
Q 2853 4666 3247 4331 
Q 3641 3997 3641 3322 
Q 3641 2881 3436 2590 
Q 3231 2300 2841 2188 
z
M 1259 4147 
L 1259 2491 
L 2053 2491 
Q 2509 2491 2742 2702 
Q 2975 2913 2975 3322 
Q 2975 3731 2742 3939 
Q 2509 4147 2053 4147 
L 1259 4147 
z
" transform="scale(0.015625)"/>
      </defs>
      <use xlink:href="#DejaVuSans-43"/>
      <use xlink:href="#DejaVuSans-75" transform="translate(69.824219 0)"/>
      <use xlink:href="#DejaVuSans-6d" transform="translate(133.203125 0)"/>
      <use xlink:href="#DejaVuSans-75" transform="translate(230.615234 0)"/>
      <use xlink:href="#DejaVuSans-6c" transform="translate(293.994141 0)"/>
      <use xlink:href="#DejaVuSans-61" transform="translate(321.777344 0)"/>
      <use xlink:href="#DejaVuSans-74" transform="translate(383.056641 0)"/>
      <use xlink:href="#DejaVuSans-69" transform="translate(422.265625 0)"/>
      <use xlink:href="#DejaVuSans-76" transform="translate(450.048828 0)"/>
      <use xlink:href="#DejaVuSans-65" transform="translate(509.228516 0)"/>
      <use xlink:href="#DejaVuSans-20" transform="translate(570.751953 0)"/>
      <use xlink:href="#DejaVuSans-43" transform="translate(602.539062 0)"/>
      <use xlink:href="#DejaVuSans-46" transform="translate(672.363281 0)"/>
      <use xlink:href="#DejaVuSans-52" transform="translate(729.882812 0)"/>
     </g>
    </g>
    <g id="line2d_23">
     <path d="M 917.774687 103.215469 
L 941.574687 103.215469 
L 965.374687 103.215469 
" style="fill: none; stroke: #d55e00; stroke-width: 3.2; stroke-linecap: square"/>
    </g>
    <g id="text_18">
     <!-- 28-day smoothed CFR -->
     <g transform="translate(978.974687 109.165469) scale(0.17 -0.17)">
      <defs>
       <path id="DejaVuSans-38" d="M 2034 2216 
Q 1584 2216 1326 1975 
Q 1069 1734 1069 1313 
Q 1069 891 1326 650 
Q 1584 409 2034 409 
Q 2484 409 2743 651 
Q 3003 894 3003 1313 
Q 3003 1734 2745 1975 
Q 2488 2216 2034 2216 
z
M 1403 2484 
Q 997 2584 770 2862 
Q 544 3141 544 3541 
Q 544 4100 942 4425 
Q 1341 4750 2034 4750 
Q 2731 4750 3128 4425 
Q 3525 4100 3525 3541 
Q 3525 3141 3298 2862 
Q 3072 2584 2669 2484 
Q 3125 2378 3379 2068 
Q 3634 1759 3634 1313 
Q 3634 634 3220 271 
Q 2806 -91 2034 -91 
Q 1263 -91 848 271 
Q 434 634 434 1313 
Q 434 1759 690 2068 
Q 947 2378 1403 2484 
z
M 1172 3481 
Q 1172 3119 1398 2916 
Q 1625 2713 2034 2713 
Q 2441 2713 2670 2916 
Q 2900 3119 2900 3481 
Q 2900 3844 2670 4047 
Q 2441 4250 2034 4250 
Q 1625 4250 1398 4047 
Q 1172 3844 1172 3481 
z
" transform="scale(0.015625)"/>
       <path id="DejaVuSans-2d" d="M 313 2009 
L 1997 2009 
L 1997 1497 
L 313 1497 
L 313 2009 
z
" transform="scale(0.015625)"/>
       <path id="DejaVuSans-79" d="M 2059 -325 
Q 1816 -950 1584 -1140 
Q 1353 -1331 966 -1331 
L 506 -1331 
L 506 -850 
L 844 -850 
Q 1081 -850 1212 -737 
Q 1344 -625 1503 -206 
L 1606 56 
L 191 3500 
L 800 3500 
L 1894 763 
L 2988 3500 
L 3597 3500 
L 2059 -325 
z
" transform="scale(0.015625)"/>
      </defs>
      <use xlink:href="#DejaVuSans-32"/>
      <use xlink:href="#DejaVuSans-38" transform="translate(63.623047 0)"/>
      <use xlink:href="#DejaVuSans-2d" transform="translate(127.246094 0)"/>
      <use xlink:href="#DejaVuSans-64" transform="translate(163.330078 0)"/>
      <use xlink:href="#DejaVuSans-61" transform="translate(226.806641 0)"/>
      <use xlink:href="#DejaVuSans-79" transform="translate(288.085938 0)"/>
      <use xlink:href="#DejaVuSans-20" transform="translate(347.265625 0)"/>
      <use xlink:href="#DejaVuSans-73" transform="translate(379.052734 0)"/>
      <use xlink:href="#DejaVuSans-6d" transform="translate(431.152344 0)"/>
      <use xlink:href="#DejaVuSans-6f" transform="translate(528.564453 0)"/>
      <use xlink:href="#DejaVuSans-6f" transform="translate(589.746094 0)"/>
      <use xlink:href="#DejaVuSans-74" transform="translate(650.927734 0)"/>
      <use xlink:href="#DejaVuSans-68" transform="translate(690.136719 0)"/>
      <use xlink:href="#DejaVuSans-65" transform="translate(753.515625 0)"/>
      <use xlink:href="#DejaVuSans-64" transform="translate(815.039062 0)"/>
      <use xlink:href="#DejaVuSans-20" transform="translate(878.515625 0)"/>
      <use xlink:href="#DejaVuSans-43" transform="translate(910.302734 0)"/>
      <use xlink:href="#DejaVuSans-46" transform="translate(980.126953 0)"/>
      <use xlink:href="#DejaVuSans-52" transform="translate(1037.646484 0)"/>
     </g>
    </g>
   </g>
  </g>
 </g>
 <defs>
  <clipPath id="pdd5e4d684c">
   <rect x="67.928594" y="55.995312" width="1114.56" height="601.92"/>
  </clipPath>
 </defs>
</svg>
