<?xml version="1.0" encoding="utf-8" standalone="no"?>
<!DOCTYPE svg PUBLIC "-//W3C//DTD SVG 1.1//EN"
  "http://www.w3.org/Graphics/SVG/1.1/DTD/svg11.dtd">
<svg xmlns:xlink="http://www.w3.org/1999/xlink" width="1576.640938pt" height="730.103478pt" viewBox="0 0 1576.640938 730.103478" xmlns="http://www.w3.org/2000/svg" version="1.1">
 <metadata>
  <rdf:RDF xmlns:dc="http://purl.org/dc/elements/1.1/" xmlns:cc="http://creativecommons.org/ns#" xmlns:rdf="http://www.w3.org/1999/02/22-rdf-syntax-ns#">
   <cc:Work>
    <dc:type rdf:resource="http://purl.org/dc/dcmitype/StillImage"/>
    <dc:date>2026-05-25T12:59:07.655127</dc:date>
    <dc:format>image/svg+xml</dc:format>
    <dc:creator>
     <cc:Agent>
      <dc:title>Matplotlib v3.8.2, https://matplotlib.org/</dc:title>
     </cc:Agent>
    </dc:creator>
   </cc:Work>
  </rdf:RDF>
 </metadata>
 <defs>
  <style type="text/css">*{stroke-linejoin: round; stroke-linecap: butt}</style>
 </defs>
 <g id="figure_1">
  <g id="patch_1">
   <path d="M 0 730.103478 
L 1576.640938 730.103478 
L 1576.640938 0 
L 0 0 
z
" style="fill: #ffffff"/>
  </g>
  <g id="axes_1">
   <g id="patch_2">
    <path d="M 95.040938 660.230081 
L 777.440937 660.230081 
L 777.440937 116 
L 95.040938 116 
z
" style="fill: #ffffff"/>
   </g>
   <g id="matplotlib.axis_1">
    <g id="xtick_1">
     <g id="line2d_1">
      <defs>
       <path id="mae1fa9db5b" d="M 0 0 
L 0 4 
" style="stroke: #111827; stroke-width: 0.8"/>
      </defs>
      <g>
       <use xlink:href="#mae1fa9db5b" x="193.385405" y="660.230081" style="fill: #111827; stroke: #111827; stroke-width: 0.8"/>
      </g>
     </g>
     <g id="text_1">
      <!-- Oct 2020 -->
      <g style="fill: #111827" transform="translate(124.014104 717.947766) rotate(-30) scale(0.17 -0.17)">
       <defs>
        <path id="DejaVuSans-4f" d="M 2522 4238 
Q 1834 4238 1429 3725 
Q 1025 3213 1025 2328 
Q 1025 1447 1429 934 
Q 1834 422 2522 422 
Q 3209 422 3611 934 
Q 4013 1447 4013 2328 
Q 4013 3213 3611 3725 
Q 3209 4238 2522 4238 
z
M 2522 4750 
Q 3503 4750 4090 4092 
Q 4678 3434 4678 2328 
Q 4678 1225 4090 567 
Q 3503 -91 2522 -91 
Q 1538 -91 948 565 
Q 359 1222 359 2328 
Q 359 3434 948 4092 
Q 1538 4750 2522 4750 
z
" transform="scale(0.015625)"/>
        <path id="DejaVuSans-63" d="M 3122 3366 
L 3122 2828 
Q 2878 2963 2633 3030 
Q 2388 3097 2138 3097 
Q 1578 3097 1268 2742 
Q 959 2388 959 1747 
Q 959 1106 1268 751 
Q 1578 397 2138 397 
Q 2388 397 2633 464 
Q 2878 531 3122 666 
L 3122 134 
Q 2881 22 2623 -34 
Q 2366 -91 2075 -91 
Q 1284 -91 818 406 
Q 353 903 353 1747 
Q 353 2603 823 3093 
Q 1294 3584 2113 3584 
Q 2378 3584 2631 3529 
Q 2884 3475 3122 3366 
z
" transform="scale(0.015625)"/>
        <path id="DejaVuSans-74" d="M 1172 4494 
L 1172 3500 
L 2356 3500 
L 2356 3053 
L 1172 3053 
L 1172 1153 
Q 1172 725 1289 603 
Q 1406 481 1766 481 
L 2356 481 
L 2356 0 
L 1766 0 
Q 1100 0 847 248 
Q 594 497 594 1153 
L 594 3053 
L 172 3053 
L 172 3500 
L 594 3500 
L 594 4494 
L 1172 4494 
z
" transform="scale(0.015625)"/>
        <path id="DejaVuSans-20" transform="scale(0.015625)"/>
        <path id="DejaVuSans-32" d="M 1228 531 
L 3431 531 
L 3431 0 
L 469 0 
L 469 531 
Q 828 903 1448 1529 
Q 2069 2156 2228 2338 
Q 2531 2678 2651 2914 
Q 2772 3150 2772 3378 
Q 2772 3750 2511 3984 
Q 2250 4219 1831 4219 
Q 1534 4219 1204 4116 
Q 875 4013 500 3803 
L 500 4441 
Q 881 4594 1212 4672 
Q 1544 4750 1819 4750 
Q 2544 4750 2975 4387 
Q 3406 4025 3406 3419 
Q 3406 3131 3298 2873 
Q 3191 2616 2906 2266 
Q 2828 2175 2409 1742 
Q 1991 1309 1228 531 
z
" transform="scale(0.015625)"/>
        <path id="DejaVuSans-30" d="M 2034 4250 
Q 1547 4250 1301 3770 
Q 1056 3291 1056 2328 
Q 1056 1369 1301 889 
Q 1547 409 2034 409 
Q 2525 409 2770 889 
Q 3016 1369 3016 2328 
Q 3016 3291 2770 3770 
Q 2525 4250 2034 4250 
z
M 2034 4750 
Q 2819 4750 3233 4129 
Q 3647 3509 3647 2328 
Q 3647 1150 3233 529 
Q 2819 -91 2034 -91 
Q 1250 -91 836 529 
Q 422 1150 422 2328 
Q 422 3509 836 4129 
Q 1250 4750 2034 4750 
z
" transform="scale(0.015625)"/>
       </defs>
       <use xlink:href="#DejaVuSans-4f"/>
       <use xlink:href="#DejaVuSans-63" x="78.710938"/>
       <use xlink:href="#DejaVuSans-74" x="133.691406"/>
       <use xlink:href="#DejaVuSans-20" x="172.900391"/>
       <use xlink:href="#DejaVuSans-32" x="204.6875"/>
       <use xlink:href="#DejaVuSans-30" x="268.310547"/>
       <use xlink:href="#DejaVuSans-32" x="331.933594"/>
       <use xlink:href="#DejaVuSans-30" x="395.556641"/>
      </g>
     </g>
    </g>
    <g id="xtick_2">
     <g id="line2d_2">
      <g>
       <use xlink:href="#mae1fa9db5b" x="342.465039" y="660.230081" style="fill: #111827; stroke: #111827; stroke-width: 0.8"/>
      </g>
     </g>
     <g id="text_2">
      <!-- Nov 2020 -->
      <g style="fill: #111827" transform="translate(269.813396 719.841673) rotate(-30) scale(0.17 -0.17)">
       <defs>
        <path id="DejaVuSans-4e" d="M 628 4666 
L 1478 4666 
L 3547 763 
L 3547 4666 
L 4159 4666 
L 4159 0 
L 3309 0 
L 1241 3903 
L 1241 0 
L 628 0 
L 628 4666 
z
" transform="scale(0.015625)"/>
        <path id="DejaVuSans-6f" d="M 1959 3097 
Q 1497 3097 1228 2736 
Q 959 2375 959 1747 
Q 959 1119 1226 758 
Q 1494 397 1959 397 
Q 2419 397 2687 759 
Q 2956 1122 2956 1747 
Q 2956 2369 2687 2733 
Q 2419 3097 1959 3097 
z
M 1959 3584 
Q 2709 3584 3137 3096 
Q 3566 2609 3566 1747 
Q 3566 888 3137 398 
Q 2709 -91 1959 -91 
Q 1206 -91 779 398 
Q 353 888 353 1747 
Q 353 2609 779 3096 
Q 1206 3584 1959 3584 
z
" transform="scale(0.015625)"/>
        <path id="DejaVuSans-76" d="M 191 3500 
L 800 3500 
L 1894 563 
L 2988 3500 
L 3597 3500 
L 2284 0 
L 1503 0 
L 191 3500 
z
" transform="scale(0.015625)"/>
       </defs>
       <use xlink:href="#DejaVuSans-4e"/>
       <use xlink:href="#DejaVuSans-6f" x="74.804688"/>
       <use xlink:href="#DejaVuSans-76" x="135.986328"/>
       <use xlink:href="#DejaVuSans-20" x="195.166016"/>
       <use xlink:href="#DejaVuSans-32" x="226.953125"/>
       <use xlink:href="#DejaVuSans-30" x="290.576172"/>
       <use xlink:href="#DejaVuSans-32" x="354.199219"/>
       <use xlink:href="#DejaVuSans-30" x="417.822266"/>
      </g>
     </g>
    </g>
    <g id="xtick_3">
     <g id="line2d_3">
      <g>
       <use xlink:href="#mae1fa9db5b" x="486.735652" y="660.230081" style="fill: #111827; stroke: #111827; stroke-width: 0.8"/>
      </g>
     </g>
     <g id="text_3">
      <!-- Dec 2020 -->
      <g style="fill: #111827" transform="translate(414.33015 719.699563) rotate(-30) scale(0.17 -0.17)">
       <defs>
        <path id="DejaVuSans-44" d="M 1259 4147 
L 1259 519 
L 2022 519 
Q 2988 519 3436 956 
Q 3884 1394 3884 2338 
Q 3884 3275 3436 3711 
Q 2988 4147 2022 4147 
L 1259 4147 
z
M 628 4666 
L 1925 4666 
Q 3281 4666 3915 4102 
Q 4550 3538 4550 2338 
Q 4550 1131 3912 565 
Q 3275 0 1925 0 
L 628 0 
L 628 4666 
z
" transform="scale(0.015625)"/>
        <path id="DejaVuSans-65" d="M 3597 1894 
L 3597 1613 
L 953 1613 
Q 991 1019 1311 708 
Q 1631 397 2203 397 
Q 2534 397 2845 478 
Q 3156 559 3463 722 
L 3463 178 
Q 3153 47 2828 -22 
Q 2503 -91 2169 -91 
Q 1331 -91 842 396 
Q 353 884 353 1716 
Q 353 2575 817 3079 
Q 1281 3584 2069 3584 
Q 2775 3584 3186 3129 
Q 3597 2675 3597 1894 
z
M 3022 2063 
Q 3016 2534 2758 2815 
Q 2500 3097 2075 3097 
Q 1594 3097 1305 2825 
Q 1016 2553 972 2059 
L 3022 2063 
z
" transform="scale(0.015625)"/>
       </defs>
       <use xlink:href="#DejaVuSans-44"/>
       <use xlink:href="#DejaVuSans-65" x="77.001953"/>
       <use xlink:href="#DejaVuSans-63" x="138.525391"/>
       <use xlink:href="#DejaVuSans-20" x="193.505859"/>
       <use xlink:href="#DejaVuSans-32" x="225.292969"/>
       <use xlink:href="#DejaVuSans-30" x="288.916016"/>
       <use xlink:href="#DejaVuSans-32" x="352.539062"/>
       <use xlink:href="#DejaVuSans-30" x="416.162109"/>
      </g>
     </g>
    </g>
    <g id="xtick_4">
     <g id="line2d_4">
      <g>
       <use xlink:href="#mae1fa9db5b" x="635.815286" y="660.230081" style="fill: #111827; stroke: #111827; stroke-width: 0.8"/>
      </g>
     </g>
     <g id="text_4">
      <!-- Jan 2021 -->
      <g style="fill: #111827" transform="translate(569.20444 716.354016) rotate(-30) scale(0.17 -0.17)">
       <defs>
        <path id="DejaVuSans-4a" d="M 628 4666 
L 1259 4666 
L 1259 325 
Q 1259 -519 939 -900 
Q 619 -1281 -91 -1281 
L -331 -1281 
L -331 -750 
L -134 -750 
Q 284 -750 456 -515 
Q 628 -281 628 325 
L 628 4666 
z
" transform="scale(0.015625)"/>
        <path id="DejaVuSans-61" d="M 2194 1759 
Q 1497 1759 1228 1600 
Q 959 1441 959 1056 
Q 959 750 1161 570 
Q 1363 391 1709 391 
Q 2188 391 2477 730 
Q 2766 1069 2766 1631 
L 2766 1759 
L 2194 1759 
z
M 3341 1997 
L 3341 0 
L 2766 0 
L 2766 531 
Q 2569 213 2275 61 
Q 1981 -91 1556 -91 
Q 1019 -91 701 211 
Q 384 513 384 1019 
Q 384 1609 779 1909 
Q 1175 2209 1959 2209 
L 2766 2209 
L 2766 2266 
Q 2766 2663 2505 2880 
Q 2244 3097 1772 3097 
Q 1472 3097 1187 3025 
Q 903 2953 641 2809 
L 641 3341 
Q 956 3463 1253 3523 
Q 1550 3584 1831 3584 
Q 2591 3584 2966 3190 
Q 3341 2797 3341 1997 
z
" transform="scale(0.015625)"/>
        <path id="DejaVuSans-6e" d="M 3513 2113 
L 3513 0 
L 2938 0 
L 2938 2094 
Q 2938 2591 2744 2837 
Q 2550 3084 2163 3084 
Q 1697 3084 1428 2787 
Q 1159 2491 1159 1978 
L 1159 0 
L 581 0 
L 581 3500 
L 1159 3500 
L 1159 2956 
Q 1366 3272 1645 3428 
Q 1925 3584 2291 3584 
Q 2894 3584 3203 3211 
Q 3513 2838 3513 2113 
z
" transform="scale(0.015625)"/>
        <path id="DejaVuSans-31" d="M 794 531 
L 1825 531 
L 1825 4091 
L 703 3866 
L 703 4441 
L 1819 4666 
L 2450 4666 
L 2450 531 
L 3481 531 
L 3481 0 
L 794 0 
L 794 531 
z
" transform="scale(0.015625)"/>
       </defs>
       <use xlink:href="#DejaVuSans-4a"/>
       <use xlink:href="#DejaVuSans-61" x="29.492188"/>
       <use xlink:href="#DejaVuSans-6e" x="90.771484"/>
       <use xlink:href="#DejaVuSans-20" x="154.150391"/>
       <use xlink:href="#DejaVuSans-32" x="185.9375"/>
       <use xlink:href="#DejaVuSans-30" x="249.560547"/>
       <use xlink:href="#DejaVuSans-32" x="313.183594"/>
       <use xlink:href="#DejaVuSans-31" x="376.806641"/>
      </g>
     </g>
    </g>
   </g>
   <g id="matplotlib.axis_2">
    <g id="ytick_1">
     <g id="line2d_5">
      <path d="M 95.040938 653.765785 
L 777.440937 653.765785 
" clip-path="url(#p21ebe920a1)" style="fill: none; stroke: #d1d5db; stroke-opacity: 0.55; stroke-width: 0.9; stroke-linecap: square"/>
     </g>
     <g id="line2d_6">
      <defs>
       <path id="mb2287d08eb" d="M 0 0 
L -4 0 
" style="stroke: #111827; stroke-width: 0.8"/>
      </defs>
      <g>
       <use xlink:href="#mb2287d08eb" x="95.040938" y="653.765785" style="fill: #111827; stroke: #111827; stroke-width: 0.8"/>
      </g>
     </g>
     <g id="text_5">
      <!-- 0 -->
      <g style="fill: #111827" transform="translate(76.724688 660.224457) scale(0.17 -0.17)">
       <use xlink:href="#DejaVuSans-30"/>
      </g>
     </g>
    </g>
    <g id="ytick_2">
     <g id="line2d_7">
      <path d="M 95.040938 588.403474 
L 777.440937 588.403474 
" clip-path="url(#p21ebe920a1)" style="fill: none; stroke: #d1d5db; stroke-opacity: 0.55; stroke-width: 0.9; stroke-linecap: square"/>
     </g>
     <g id="line2d_8">
      <g>
       <use xlink:href="#mb2287d08eb" x="95.040938" y="588.403474" style="fill: #111827; stroke: #111827; stroke-width: 0.8"/>
      </g>
     </g>
     <g id="text_6">
      <!-- 5000 -->
      <g style="fill: #111827" transform="translate(44.275938 594.862145) scale(0.17 -0.17)">
       <defs>
        <path id="DejaVuSans-35" d="M 691 4666 
L 3169 4666 
L 3169 4134 
L 1269 4134 
L 1269 2991 
Q 1406 3038 1543 3061 
Q 1681 3084 1819 3084 
Q 2600 3084 3056 2656 
Q 3513 2228 3513 1497 
Q 3513 744 3044 326 
Q 2575 -91 1722 -91 
Q 1428 -91 1123 -41 
Q 819 9 494 109 
L 494 744 
Q 775 591 1075 516 
Q 1375 441 1709 441 
Q 2250 441 2565 725 
Q 2881 1009 2881 1497 
Q 2881 1984 2565 2268 
Q 2250 2553 1709 2553 
Q 1456 2553 1204 2497 
Q 953 2441 691 2322 
L 691 4666 
z
" transform="scale(0.015625)"/>
       </defs>
       <use xlink:href="#DejaVuSans-35"/>
       <use xlink:href="#DejaVuSans-30" x="63.623047"/>
       <use xlink:href="#DejaVuSans-30" x="127.246094"/>
       <use xlink:href="#DejaVuSans-30" x="190.869141"/>
      </g>
     </g>
    </g>
    <g id="ytick_3">
     <g id="line2d_9">
      <path d="M 95.040938 523.041162 
L 777.440937 523.041162 
" clip-path="url(#p21ebe920a1)" style="fill: none; stroke: #d1d5db; stroke-opacity: 0.55; stroke-width: 0.9; stroke-linecap: square"/>
     </g>
     <g id="line2d_10">
      <g>
       <use xlink:href="#mb2287d08eb" x="95.040938" y="523.041162" style="fill: #111827; stroke: #111827; stroke-width: 0.8"/>
      </g>
     </g>
     <g id="text_7">
      <!-- 10000 -->
      <g style="fill: #111827" transform="translate(33.459688 529.499834) scale(0.17 -0.17)">
       <use xlink:href="#DejaVuSans-31"/>
       <use xlink:href="#DejaVuSans-30" x="63.623047"/>
       <use xlink:href="#DejaVuSans-30" x="127.246094"/>
       <use xlink:href="#DejaVuSans-30" x="190.869141"/>
       <use xlink:href="#DejaVuSans-30" x="254.492188"/>
      </g>
     </g>
    </g>
    <g id="ytick_4">
     <g id="line2d_11">
      <path d="M 95.040938 457.678851 
L 777.440937 457.678851 
" clip-path="url(#p21ebe920a1)" style="fill: none; stroke: #d1d5db; stroke-opacity: 0.55; stroke-width: 0.9; stroke-linecap: square"/>
     </g>
     <g id="line2d_12">
      <g>
       <use xlink:href="#mb2287d08eb" x="95.040938" y="457.678851" style="fill: #111827; stroke: #111827; stroke-width: 0.8"/>
      </g>
     </g>
     <g id="text_8">
      <!-- 15000 -->
      <g style="fill: #111827" transform="translate(33.459688 464.137523) scale(0.17 -0.17)">
       <use xlink:href="#DejaVuSans-31"/>
       <use xlink:href="#DejaVuSans-35" x="63.623047"/>
       <use xlink:href="#DejaVuSans-30" x="127.246094"/>
       <use xlink:href="#DejaVuSans-30" x="190.869141"/>
       <use xlink:href="#DejaVuSans-30" x="254.492188"/>
      </g>
     </g>
    </g>
    <g id="ytick_5">
     <g id="line2d_13">
      <path d="M 95.040938 392.31654 
L 777.440937 392.31654 
" clip-path="url(#p21ebe920a1)" style="fill: none; stroke: #d1d5db; stroke-opacity: 0.55; stroke-width: 0.9; stroke-linecap: square"/>
     </g>
     <g id="line2d_14">
      <g>
       <use xlink:href="#mb2287d08eb" x="95.040938" y="392.31654" style="fill: #111827; stroke: #111827; stroke-width: 0.8"/>
      </g>
     </g>
     <g id="text_9">
      <!-- 20000 -->
      <g style="fill: #111827" transform="translate(33.459688 398.775212) scale(0.17 -0.17)">
       <use xlink:href="#DejaVuSans-32"/>
       <use xlink:href="#DejaVuSans-30" x="63.623047"/>
       <use xlink:href="#DejaVuSans-30" x="127.246094"/>
       <use xlink:href="#DejaVuSans-30" x="190.869141"/>
       <use xlink:href="#DejaVuSans-30" x="254.492188"/>
      </g>
     </g>
    </g>
    <g id="ytick_6">
     <g id="line2d_15">
      <path d="M 95.040938 326.954228 
L 777.440937 326.954228 
" clip-path="url(#p21ebe920a1)" style="fill: none; stroke: #d1d5db; stroke-opacity: 0.55; stroke-width: 0.9; stroke-linecap: square"/>
     </g>
     <g id="line2d_16">
      <g>
       <use xlink:href="#mb2287d08eb" x="95.040938" y="326.954228" style="fill: #111827; stroke: #111827; stroke-width: 0.8"/>
      </g>
     </g>
     <g id="text_10">
      <!-- 25000 -->
      <g style="fill: #111827" transform="translate(33.459688 333.4129) scale(0.17 -0.17)">
       <use xlink:href="#DejaVuSans-32"/>
       <use xlink:href="#DejaVuSans-35" x="63.623047"/>
       <use xlink:href="#DejaVuSans-30" x="127.246094"/>
       <use xlink:href="#DejaVuSans-30" x="190.869141"/>
       <use xlink:href="#DejaVuSans-30" x="254.492188"/>
      </g>
     </g>
    </g>
    <g id="ytick_7">
     <g id="line2d_17">
      <path d="M 95.040938 261.591917 
L 777.440937 261.591917 
" clip-path="url(#p21ebe920a1)" style="fill: none; stroke: #d1d5db; stroke-opacity: 0.55; stroke-width: 0.9; stroke-linecap: square"/>
     </g>
     <g id="line2d_18">
      <g>
       <use xlink:href="#mb2287d08eb" x="95.040938" y="261.591917" style="fill: #111827; stroke: #111827; stroke-width: 0.8"/>
      </g>
     </g>
     <g id="text_11">
      <!-- 30000 -->
      <g style="fill: #111827" transform="translate(33.459688 268.050589) scale(0.17 -0.17)">
       <defs>
        <path id="DejaVuSans-33" d="M 2597 2516 
Q 3050 2419 3304 2112 
Q 3559 1806 3559 1356 
Q 3559 666 3084 287 
Q 2609 -91 1734 -91 
Q 1441 -91 1130 -33 
Q 819 25 488 141 
L 488 750 
Q 750 597 1062 519 
Q 1375 441 1716 441 
Q 2309 441 2620 675 
Q 2931 909 2931 1356 
Q 2931 1769 2642 2001 
Q 2353 2234 1838 2234 
L 1294 2234 
L 1294 2753 
L 1863 2753 
Q 2328 2753 2575 2939 
Q 2822 3125 2822 3475 
Q 2822 3834 2567 4026 
Q 2313 4219 1838 4219 
Q 1578 4219 1281 4162 
Q 984 4106 628 3988 
L 628 4550 
Q 988 4650 1302 4700 
Q 1616 4750 1894 4750 
Q 2613 4750 3031 4423 
Q 3450 4097 3450 3541 
Q 3450 3153 3228 2886 
Q 3006 2619 2597 2516 
z
" transform="scale(0.015625)"/>
       </defs>
       <use xlink:href="#DejaVuSans-33"/>
       <use xlink:href="#DejaVuSans-30" x="63.623047"/>
       <use xlink:href="#DejaVuSans-30" x="127.246094"/>
       <use xlink:href="#DejaVuSans-30" x="190.869141"/>
       <use xlink:href="#DejaVuSans-30" x="254.492188"/>
      </g>
     </g>
    </g>
    <g id="ytick_8">
     <g id="line2d_19">
      <path d="M 95.040938 196.229606 
L 777.440937 196.229606 
" clip-path="url(#p21ebe920a1)" style="fill: none; stroke: #d1d5db; stroke-opacity: 0.55; stroke-width: 0.9; stroke-linecap: square"/>
     </g>
     <g id="line2d_20">
      <g>
       <use xlink:href="#mb2287d08eb" x="95.040938" y="196.229606" style="fill: #111827; stroke: #111827; stroke-width: 0.8"/>
      </g>
     </g>
     <g id="text_12">
      <!-- 35000 -->
      <g style="fill: #111827" transform="translate(33.459688 202.688278) scale(0.17 -0.17)">
       <use xlink:href="#DejaVuSans-33"/>
       <use xlink:href="#DejaVuSans-35" x="63.623047"/>
       <use xlink:href="#DejaVuSans-30" x="127.246094"/>
       <use xlink:href="#DejaVuSans-30" x="190.869141"/>
       <use xlink:href="#DejaVuSans-30" x="254.492188"/>
      </g>
     </g>
    </g>
    <g id="ytick_9">
     <g id="line2d_21">
      <path d="M 95.040938 130.867295 
L 777.440937 130.867295 
" clip-path="url(#p21ebe920a1)" style="fill: none; stroke: #d1d5db; stroke-opacity: 0.55; stroke-width: 0.9; stroke-linecap: square"/>
     </g>
     <g id="line2d_22">
      <g>
       <use xlink:href="#mb2287d08eb" x="95.040938" y="130.867295" style="fill: #111827; stroke: #111827; stroke-width: 0.8"/>
      </g>
     </g>
     <g id="text_13">
      <!-- 40000 -->
      <g style="fill: #111827" transform="translate(33.459688 137.325967) scale(0.17 -0.17)">
       <defs>
        <path id="DejaVuSans-34" d="M 2419 4116 
L 825 1625 
L 2419 1625 
L 2419 4116 
z
M 2253 4666 
L 3047 4666 
L 3047 1625 
L 3713 1625 
L 3713 1100 
L 3047 1100 
L 3047 0 
L 2419 0 
L 2419 1100 
L 313 1100 
L 313 1709 
L 2253 4666 
z
" transform="scale(0.015625)"/>
       </defs>
       <use xlink:href="#DejaVuSans-34"/>
       <use xlink:href="#DejaVuSans-30" x="63.623047"/>
       <use xlink:href="#DejaVuSans-30" x="127.246094"/>
       <use xlink:href="#DejaVuSans-30" x="190.869141"/>
       <use xlink:href="#DejaVuSans-30" x="254.492188"/>
      </g>
     </g>
    </g>
    <g id="text_14">
     <!-- 7-day smoothed new cases -->
     <g style="fill: #1f2937" transform="translate(24.676406 545.336212) rotate(-90) scale(0.23 -0.23)">
      <defs>
       <path id="DejaVuSans-37" d="M 525 4666 
L 3525 4666 
L 3525 4397 
L 1831 0 
L 1172 0 
L 2766 4134 
L 525 4134 
L 525 4666 
z
" transform="scale(0.015625)"/>
       <path id="DejaVuSans-2d" d="M 313 2009 
L 1997 2009 
L 1997 1497 
L 313 1497 
L 313 2009 
z
" transform="scale(0.015625)"/>
       <path id="DejaVuSans-64" d="M 2906 2969 
L 2906 4863 
L 3481 4863 
L 3481 0 
L 2906 0 
L 2906 525 
Q 2725 213 2448 61 
Q 2172 -91 1784 -91 
Q 1150 -91 751 415 
Q 353 922 353 1747 
Q 353 2572 751 3078 
Q 1150 3584 1784 3584 
Q 2172 3584 2448 3432 
Q 2725 3281 2906 2969 
z
M 947 1747 
Q 947 1113 1208 752 
Q 1469 391 1925 391 
Q 2381 391 2643 752 
Q 2906 1113 2906 1747 
Q 2906 2381 2643 2742 
Q 2381 3103 1925 3103 
Q 1469 3103 1208 2742 
Q 947 2381 947 1747 
z
" transform="scale(0.015625)"/>
       <path id="DejaVuSans-79" d="M 2059 -325 
Q 1816 -950 1584 -1140 
Q 1353 -1331 966 -1331 
L 506 -1331 
L 506 -850 
L 844 -850 
Q 1081 -850 1212 -737 
Q 1344 -625 1503 -206 
L 1606 56 
L 191 3500 
L 800 3500 
L 1894 763 
L 2988 3500 
L 3597 3500 
L 2059 -325 
z
" transform="scale(0.015625)"/>
       <path id="DejaVuSans-73" d="M 2834 3397 
L 2834 2853 
Q 2591 2978 2328 3040 
Q 2066 3103 1784 3103 
Q 1356 3103 1142 2972 
Q 928 2841 928 2578 
Q 928 2378 1081 2264 
Q 1234 2150 1697 2047 
L 1894 2003 
Q 2506 1872 2764 1633 
Q 3022 1394 3022 966 
Q 3022 478 2636 193 
Q 2250 -91 1575 -91 
Q 1294 -91 989 -36 
Q 684 19 347 128 
L 347 722 
Q 666 556 975 473 
Q 1284 391 1588 391 
Q 1994 391 2212 530 
Q 2431 669 2431 922 
Q 2431 1156 2273 1281 
Q 2116 1406 1581 1522 
L 1381 1569 
Q 847 1681 609 1914 
Q 372 2147 372 2553 
Q 372 3047 722 3315 
Q 1072 3584 1716 3584 
Q 2034 3584 2315 3537 
Q 2597 3491 2834 3397 
z
" transform="scale(0.015625)"/>
       <path id="DejaVuSans-6d" d="M 3328 2828 
Q 3544 3216 3844 3400 
Q 4144 3584 4550 3584 
Q 5097 3584 5394 3201 
Q 5691 2819 5691 2113 
L 5691 0 
L 5113 0 
L 5113 2094 
Q 5113 2597 4934 2840 
Q 4756 3084 4391 3084 
Q 3944 3084 3684 2787 
Q 3425 2491 3425 1978 
L 3425 0 
L 2847 0 
L 2847 2094 
Q 2847 2600 2669 2842 
Q 2491 3084 2119 3084 
Q 1678 3084 1418 2786 
Q 1159 2488 1159 1978 
L 1159 0 
L 581 0 
L 581 3500 
L 1159 3500 
L 1159 2956 
Q 1356 3278 1631 3431 
Q 1906 3584 2284 3584 
Q 2666 3584 2933 3390 
Q 3200 3197 3328 2828 
z
" transform="scale(0.015625)"/>
       <path id="DejaVuSans-68" d="M 3513 2113 
L 3513 0 
L 2938 0 
L 2938 2094 
Q 2938 2591 2744 2837 
Q 2550 3084 2163 3084 
Q 1697 3084 1428 2787 
Q 1159 2491 1159 1978 
L 1159 0 
L 581 0 
L 581 4863 
L 1159 4863 
L 1159 2956 
Q 1366 3272 1645 3428 
Q 1925 3584 2291 3584 
Q 2894 3584 3203 3211 
Q 3513 2838 3513 2113 
z
" transform="scale(0.015625)"/>
       <path id="DejaVuSans-77" d="M 269 3500 
L 844 3500 
L 1563 769 
L 2278 3500 
L 2956 3500 
L 3675 769 
L 4391 3500 
L 4966 3500 
L 4050 0 
L 3372 0 
L 2619 2869 
L 1863 0 
L 1184 0 
L 269 3500 
z
" transform="scale(0.015625)"/>
      </defs>
      <use xlink:href="#DejaVuSans-37"/>
      <use xlink:href="#DejaVuSans-2d" x="63.623047"/>
      <use xlink:href="#DejaVuSans-64" x="99.707031"/>
      <use xlink:href="#DejaVuSans-61" x="163.183594"/>
      <use xlink:href="#DejaVuSans-79" x="224.462891"/>
      <use xlink:href="#DejaVuSans-20" x="283.642578"/>
      <use xlink:href="#DejaVuSans-73" x="315.429688"/>
      <use xlink:href="#DejaVuSans-6d" x="367.529297"/>
      <use xlink:href="#DejaVuSans-6f" x="464.941406"/>
      <use xlink:href="#DejaVuSans-6f" x="526.123047"/>
      <use xlink:href="#DejaVuSans-74" x="587.304688"/>
      <use xlink:href="#DejaVuSans-68" x="626.513672"/>
      <use xlink:href="#DejaVuSans-65" x="689.892578"/>
      <use xlink:href="#DejaVuSans-64" x="751.416016"/>
      <use xlink:href="#DejaVuSans-20" x="814.892578"/>
      <use xlink:href="#DejaVuSans-6e" x="846.679688"/>
      <use xlink:href="#DejaVuSans-65" x="910.058594"/>
      <use xlink:href="#DejaVuSans-77" x="971.582031"/>
      <use xlink:href="#DejaVuSans-20" x="1053.369141"/>
      <use xlink:href="#DejaVuSans-63" x="1085.15625"/>
      <use xlink:href="#DejaVuSans-61" x="1140.136719"/>
      <use xlink:href="#DejaVuSans-73" x="1201.416016"/>
      <use xlink:href="#DejaVuSans-65" x="1253.515625"/>
      <use xlink:href="#DejaVuSans-73" x="1315.039062"/>
     </g>
    </g>
   </g>
   <g id="patch_3">
    <path d="M 193.385405 660.230081 
L 193.385405 116 
L 554.061938 116 
L 554.061938 660.230081 
z
" clip-path="url(#p21ebe920a1)" style="fill: #0072b2; opacity: 0.07; stroke: #0072b2; stroke-linejoin: miter"/>
   </g>
   <g id="PolyCollection_1">
    <defs>
     <path id="m6df77d275c" d="M 558.870959 -392.93584 
L 558.870959 -350.901413 
L 563.679979 -345.724456 
L 568.489 -342.573062 
L 573.29802 -340.470175 
L 578.10704 -339.037343 
L 582.916061 -338.08047 
L 587.725081 -337.484258 
L 592.534102 -337.17358 
L 597.343122 -337.096255 
L 602.152143 -337.214289 
L 606.961163 -337.499001 
L 611.770183 -337.928108 
L 616.579204 -338.483889 
L 621.388224 -339.151976 
L 626.197245 -339.920529 
L 631.006265 -340.779652 
L 635.815286 -341.720973 
L 640.624306 -342.737338 
L 645.433327 -343.822572 
L 650.242347 -344.971304 
L 655.051367 -346.178827 
L 659.860388 -347.440988 
L 664.669408 -348.754101 
L 669.478429 -350.114877 
L 674.287449 -351.520366 
L 679.09647 -352.96791 
L 683.90549 -354.455106 
L 688.71451 -355.979769 
L 693.523531 -357.53991 
L 698.332551 -359.133707 
L 698.332551 -589.365747 
L 698.332551 -589.365747 
L 693.523531 -583.902228 
L 688.71451 -578.405051 
L 683.90549 -572.872397 
L 679.09647 -567.302275 
L 674.287449 -561.692502 
L 669.478429 -556.040674 
L 664.669408 -550.344132 
L 659.860388 -544.599928 
L 655.051367 -538.804772 
L 650.242347 -532.954978 
L 645.433327 -527.046392 
L 640.624306 -521.074309 
L 635.815286 -515.033357 
L 631.006265 -508.917361 
L 626.197245 -502.719166 
L 621.388224 -496.430402 
L 616.579204 -490.041172 
L 611.770183 -483.539635 
L 606.961163 -476.911425 
L 602.152143 -470.138819 
L 597.343122 -463.199536 
L 592.534102 -456.064894 
L 587.725081 -448.696899 
L 582.916061 -441.043369 
L 578.10704 -433.029179 
L 573.29802 -424.53903 
L 568.489 -415.378825 
L 563.679979 -405.170114 
L 558.870959 -392.93584 
z
" style="stroke: #0072b2; stroke-opacity: 0.22"/>
    </defs>
    <g clip-path="url(#p21ebe920a1)">
     <use xlink:href="#m6df77d275c" x="0" y="730.103478" style="fill: #0072b2; fill-opacity: 0.22; stroke: #0072b2; stroke-opacity: 0.22"/>
    </g>
   </g>
   <g id="line2d_23">
    <path d="M 554.061938 660.230081 
L 554.061938 116 
" clip-path="url(#p21ebe920a1)" style="fill: none; stroke-dasharray: 1.2,1.98; stroke-dashoffset: 0; stroke: #6b7280; stroke-width: 1.2"/>
   </g>
   <g id="patch_4">
    <path d="M 95.040938 660.230081 
L 95.040938 116 
" style="fill: none; stroke: #9ca3af; stroke-linejoin: miter; stroke-linecap: square"/>
   </g>
   <g id="patch_5">
    <path d="M 95.040937 660.230081 
L 777.440937 660.230081 
" style="fill: none; stroke: #9ca3af; stroke-linejoin: miter; stroke-linecap: square"/>
   </g>
   <g id="line2d_24">
    <path d="M 126.059119 635.49235 
L 135.67716 635.49235 
L 140.486181 630.823614 
L 169.340303 630.823614 
L 174.149324 629.368835 
L 203.003446 629.368835 
L 207.812467 623.986716 
L 236.666589 623.986716 
L 241.47561 604.940138 
L 270.329732 604.940138 
L 275.138753 575.273119 
L 303.992875 575.273119 
L 308.801896 514.092128 
L 337.656019 514.092128 
L 342.465039 446.457076 
L 371.319162 446.457076 
L 376.128182 419.036653 
L 404.982305 419.036653 
L 409.791325 414.984189 
L 438.645448 414.984189 
L 443.454468 413.979477 
L 472.308591 413.979477 
L 477.117611 423.836114 
L 505.971734 423.836114 
L 510.780754 414.244661 
L 539.634877 414.244661 
L 544.443897 362.03885 
L 573.29802 362.03885 
L 578.10704 327.721769 
L 606.961163 327.721769 
L 611.770183 394.505243 
L 640.624306 394.505243 
L 645.433327 424.15172 
L 674.287449 424.15172 
L 679.09647 382.035982 
L 707.950592 382.035982 
L 712.759613 431.666519 
L 741.613735 431.666519 
L 746.422756 475.321073 
L 746.422756 475.321073 
" clip-path="url(#p21ebe920a1)" style="fill: none; stroke: #9ca3af; stroke-width: 2.2; stroke-linecap: square"/>
   </g>
   <g id="text_15">
    <!-- Wave 2 — 2020/21 winter -->
    <g style="fill: #111827" transform="translate(221.321406 90) scale(0.3 -0.3)">
     <defs>
      <path id="DejaVuSans-Bold-57" d="M 191 4666 
L 1344 4666 
L 2150 1275 
L 2950 4666 
L 4109 4666 
L 4909 1275 
L 5716 4666 
L 6859 4666 
L 5759 0 
L 4372 0 
L 3525 3547 
L 2688 0 
L 1300 0 
L 191 4666 
z
" transform="scale(0.015625)"/>
      <path id="DejaVuSans-Bold-61" d="M 2106 1575 
Q 1756 1575 1579 1456 
Q 1403 1338 1403 1106 
Q 1403 894 1545 773 
Q 1688 653 1941 653 
Q 2256 653 2472 879 
Q 2688 1106 2688 1447 
L 2688 1575 
L 2106 1575 
z
M 3816 1997 
L 3816 0 
L 2688 0 
L 2688 519 
Q 2463 200 2181 54 
Q 1900 -91 1497 -91 
Q 953 -91 614 226 
Q 275 544 275 1050 
Q 275 1666 698 1953 
Q 1122 2241 2028 2241 
L 2688 2241 
L 2688 2328 
Q 2688 2594 2478 2717 
Q 2269 2841 1825 2841 
Q 1466 2841 1156 2769 
Q 847 2697 581 2553 
L 581 3406 
Q 941 3494 1303 3539 
Q 1666 3584 2028 3584 
Q 2975 3584 3395 3211 
Q 3816 2838 3816 1997 
z
" transform="scale(0.015625)"/>
      <path id="DejaVuSans-Bold-76" d="M 97 3500 
L 1216 3500 
L 2088 1081 
L 2956 3500 
L 4078 3500 
L 2700 0 
L 1472 0 
L 97 3500 
z
" transform="scale(0.015625)"/>
      <path id="DejaVuSans-Bold-65" d="M 4031 1759 
L 4031 1441 
L 1416 1441 
Q 1456 1047 1700 850 
Q 1944 653 2381 653 
Q 2734 653 3104 758 
Q 3475 863 3866 1075 
L 3866 213 
Q 3469 63 3072 -14 
Q 2675 -91 2278 -91 
Q 1328 -91 801 392 
Q 275 875 275 1747 
Q 275 2603 792 3093 
Q 1309 3584 2216 3584 
Q 3041 3584 3536 3087 
Q 4031 2591 4031 1759 
z
M 2881 2131 
Q 2881 2450 2695 2645 
Q 2509 2841 2209 2841 
Q 1884 2841 1681 2658 
Q 1478 2475 1428 2131 
L 2881 2131 
z
" transform="scale(0.015625)"/>
      <path id="DejaVuSans-Bold-20" transform="scale(0.015625)"/>
      <path id="DejaVuSans-Bold-32" d="M 1844 884 
L 3897 884 
L 3897 0 
L 506 0 
L 506 884 
L 2209 2388 
Q 2438 2594 2547 2791 
Q 2656 2988 2656 3200 
Q 2656 3528 2436 3728 
Q 2216 3928 1850 3928 
Q 1569 3928 1234 3808 
Q 900 3688 519 3450 
L 519 4475 
Q 925 4609 1322 4679 
Q 1719 4750 2100 4750 
Q 2938 4750 3402 4381 
Q 3866 4013 3866 3353 
Q 3866 2972 3669 2642 
Q 3472 2313 2841 1759 
L 1844 884 
z
" transform="scale(0.015625)"/>
      <path id="DejaVuSans-Bold-2014" d="M 344 2156 
L 6056 2156 
L 6056 1350 
L 344 1350 
L 344 2156 
z
" transform="scale(0.015625)"/>
      <path id="DejaVuSans-Bold-30" d="M 2944 2338 
Q 2944 3213 2780 3570 
Q 2616 3928 2228 3928 
Q 1841 3928 1675 3570 
Q 1509 3213 1509 2338 
Q 1509 1453 1675 1090 
Q 1841 728 2228 728 
Q 2613 728 2778 1090 
Q 2944 1453 2944 2338 
z
M 4147 2328 
Q 4147 1169 3647 539 
Q 3147 -91 2228 -91 
Q 1306 -91 806 539 
Q 306 1169 306 2328 
Q 306 3491 806 4120 
Q 1306 4750 2228 4750 
Q 3147 4750 3647 4120 
Q 4147 3491 4147 2328 
z
" transform="scale(0.015625)"/>
      <path id="DejaVuSans-Bold-2f" d="M 1644 4666 
L 2338 4666 
L 691 -594 
L 0 -594 
L 1644 4666 
z
" transform="scale(0.015625)"/>
      <path id="DejaVuSans-Bold-31" d="M 750 831 
L 1813 831 
L 1813 3847 
L 722 3622 
L 722 4441 
L 1806 4666 
L 2950 4666 
L 2950 831 
L 4013 831 
L 4013 0 
L 750 0 
L 750 831 
z
" transform="scale(0.015625)"/>
      <path id="DejaVuSans-Bold-77" d="M 225 3500 
L 1313 3500 
L 1900 1088 
L 2491 3500 
L 3425 3500 
L 4013 1113 
L 4603 3500 
L 5691 3500 
L 4769 0 
L 3547 0 
L 2956 2406 
L 2369 0 
L 1147 0 
L 225 3500 
z
" transform="scale(0.015625)"/>
      <path id="DejaVuSans-Bold-69" d="M 538 3500 
L 1656 3500 
L 1656 0 
L 538 0 
L 538 3500 
z
M 538 4863 
L 1656 4863 
L 1656 3950 
L 538 3950 
L 538 4863 
z
" transform="scale(0.015625)"/>
      <path id="DejaVuSans-Bold-6e" d="M 4056 2131 
L 4056 0 
L 2931 0 
L 2931 347 
L 2931 1631 
Q 2931 2084 2911 2256 
Q 2891 2428 2841 2509 
Q 2775 2619 2662 2680 
Q 2550 2741 2406 2741 
Q 2056 2741 1856 2470 
Q 1656 2200 1656 1722 
L 1656 0 
L 538 0 
L 538 3500 
L 1656 3500 
L 1656 2988 
Q 1909 3294 2193 3439 
Q 2478 3584 2822 3584 
Q 3428 3584 3742 3212 
Q 4056 2841 4056 2131 
z
" transform="scale(0.015625)"/>
      <path id="DejaVuSans-Bold-74" d="M 1759 4494 
L 1759 3500 
L 2913 3500 
L 2913 2700 
L 1759 2700 
L 1759 1216 
Q 1759 972 1856 886 
Q 1953 800 2241 800 
L 2816 800 
L 2816 0 
L 1856 0 
Q 1194 0 917 276 
Q 641 553 641 1216 
L 641 2700 
L 84 2700 
L 84 3500 
L 641 3500 
L 641 4494 
L 1759 4494 
z
" transform="scale(0.015625)"/>
      <path id="DejaVuSans-Bold-72" d="M 3138 2547 
Q 2991 2616 2845 2648 
Q 2700 2681 2553 2681 
Q 2122 2681 1889 2404 
Q 1656 2128 1656 1613 
L 1656 0 
L 538 0 
L 538 3500 
L 1656 3500 
L 1656 2925 
Q 1872 3269 2151 3426 
Q 2431 3584 2822 3584 
Q 2878 3584 2943 3579 
Q 3009 3575 3134 3559 
L 3138 2547 
z
" transform="scale(0.015625)"/>
     </defs>
     <use xlink:href="#DejaVuSans-Bold-57"/>
     <use xlink:href="#DejaVuSans-Bold-61" x="106.677734"/>
     <use xlink:href="#DejaVuSans-Bold-76" x="174.158203"/>
     <use xlink:href="#DejaVuSans-Bold-65" x="239.34375"/>
     <use xlink:href="#DejaVuSans-Bold-20" x="307.166016"/>
     <use xlink:href="#DejaVuSans-Bold-32" x="341.980469"/>
     <use xlink:href="#DejaVuSans-Bold-20" x="411.560547"/>
     <use xlink:href="#DejaVuSans-Bold-2014" x="446.375"/>
     <use xlink:href="#DejaVuSans-Bold-20" x="546.375"/>
     <use xlink:href="#DejaVuSans-Bold-32" x="581.189453"/>
     <use xlink:href="#DejaVuSans-Bold-30" x="650.769531"/>
     <use xlink:href="#DejaVuSans-Bold-32" x="720.349609"/>
     <use xlink:href="#DejaVuSans-Bold-30" x="789.929688"/>
     <use xlink:href="#DejaVuSans-Bold-2f" x="859.509766"/>
     <use xlink:href="#DejaVuSans-Bold-32" x="896.033203"/>
     <use xlink:href="#DejaVuSans-Bold-31" x="965.613281"/>
     <use xlink:href="#DejaVuSans-Bold-20" x="1035.193359"/>
     <use xlink:href="#DejaVuSans-Bold-77" x="1070.007812"/>
     <use xlink:href="#DejaVuSans-Bold-69" x="1162.390625"/>
     <use xlink:href="#DejaVuSans-Bold-6e" x="1196.667969"/>
     <use xlink:href="#DejaVuSans-Bold-74" x="1267.859375"/>
     <use xlink:href="#DejaVuSans-Bold-65" x="1315.662109"/>
     <use xlink:href="#DejaVuSans-Bold-72" x="1383.484375"/>
    </g>
   </g>
   <g id="line2d_25">
    <path d="M 558.870959 358.184852 
L 563.679979 354.656193 
L 568.489 351.127535 
L 573.29802 347.598876 
L 578.10704 344.070217 
L 582.916061 340.541559 
L 587.725081 337.0129 
L 592.534102 333.484241 
L 597.343122 329.955583 
L 602.152143 326.426924 
L 606.961163 322.898265 
L 611.770183 319.369607 
L 616.579204 315.840948 
L 621.388224 312.312289 
L 626.197245 308.783631 
L 631.006265 305.254972 
L 635.815286 301.726314 
L 640.624306 298.197655 
L 645.433327 294.668996 
L 650.242347 291.140338 
L 655.051367 287.611679 
L 659.860388 284.08302 
L 664.669408 280.554362 
L 669.478429 277.025703 
L 674.287449 273.497044 
L 679.09647 269.968386 
L 683.90549 266.439727 
L 688.71451 262.911068 
L 693.523531 259.38241 
L 698.332551 255.853751 
" clip-path="url(#p21ebe920a1)" style="fill: none; stroke-dasharray: 10.36,4.48; stroke-dashoffset: 0; stroke: #0072b2; stroke-width: 2.8"/>
   </g>
   <g id="legend_1">
    <g id="patch_6">
     <path d="M 104.140938 202.72625 
L 250.480313 202.72625 
Q 253.080313 202.72625 253.080313 200.12625 
L 253.080313 125.1 
Q 253.080313 122.5 250.480313 122.5 
L 104.140938 122.5 
Q 101.540938 122.5 101.540938 125.1 
L 101.540938 200.12625 
Q 101.540938 202.72625 104.140938 202.72625 
z
" style="fill: #ffffff; opacity: 0.8; stroke: #cccccc; stroke-linejoin: miter"/>
    </g>
    <g id="line2d_26">
     <path d="M 106.740938 133.027969 
L 119.740938 133.027969 
L 132.740938 133.027969 
" style="fill: none; stroke: #9ca3af; stroke-width: 2.2; stroke-linecap: square"/>
    </g>
    <g id="text_16">
     <!-- Observed -->
     <g transform="translate(143.140938 137.577969) scale(0.13 -0.13)">
      <defs>
       <path id="DejaVuSans-62" d="M 3116 1747 
Q 3116 2381 2855 2742 
Q 2594 3103 2138 3103 
Q 1681 3103 1420 2742 
Q 1159 2381 1159 1747 
Q 1159 1113 1420 752 
Q 1681 391 2138 391 
Q 2594 391 2855 752 
Q 3116 1113 3116 1747 
z
M 1159 2969 
Q 1341 3281 1617 3432 
Q 1894 3584 2278 3584 
Q 2916 3584 3314 3078 
Q 3713 2572 3713 1747 
Q 3713 922 3314 415 
Q 2916 -91 2278 -91 
Q 1894 -91 1617 61 
Q 1341 213 1159 525 
L 1159 0 
L 581 0 
L 581 4863 
L 1159 4863 
L 1159 2969 
z
" transform="scale(0.015625)"/>
       <path id="DejaVuSans-72" d="M 2631 2963 
Q 2534 3019 2420 3045 
Q 2306 3072 2169 3072 
Q 1681 3072 1420 2755 
Q 1159 2438 1159 1844 
L 1159 0 
L 581 0 
L 581 3500 
L 1159 3500 
L 1159 2956 
Q 1341 3275 1631 3429 
Q 1922 3584 2338 3584 
Q 2397 3584 2469 3576 
Q 2541 3569 2628 3553 
L 2631 2963 
z
" transform="scale(0.015625)"/>
      </defs>
      <use xlink:href="#DejaVuSans-4f"/>
      <use xlink:href="#DejaVuSans-62" x="78.710938"/>
      <use xlink:href="#DejaVuSans-73" x="142.1875"/>
      <use xlink:href="#DejaVuSans-65" x="194.287109"/>
      <use xlink:href="#DejaVuSans-72" x="255.810547"/>
      <use xlink:href="#DejaVuSans-76" x="296.923828"/>
      <use xlink:href="#DejaVuSans-65" x="356.103516"/>
      <use xlink:href="#DejaVuSans-64" x="417.626953"/>
     </g>
    </g>
    <g id="patch_7">
     <path d="M 106.740938 156.659531 
L 132.740938 156.659531 
L 132.740938 147.559531 
L 106.740938 147.559531 
z
" style="fill: #0072b2; opacity: 0.07; stroke: #0072b2; stroke-linejoin: miter"/>
    </g>
    <g id="text_17">
     <!-- Training window -->
     <g transform="translate(143.140938 156.659531) scale(0.13 -0.13)">
      <defs>
       <path id="DejaVuSans-54" d="M -19 4666 
L 3928 4666 
L 3928 4134 
L 2272 4134 
L 2272 0 
L 1638 0 
L 1638 4134 
L -19 4134 
L -19 4666 
z
" transform="scale(0.015625)"/>
       <path id="DejaVuSans-69" d="M 603 3500 
L 1178 3500 
L 1178 0 
L 603 0 
L 603 3500 
z
M 603 4863 
L 1178 4863 
L 1178 4134 
L 603 4134 
L 603 4863 
z
" transform="scale(0.015625)"/>
       <path id="DejaVuSans-67" d="M 2906 1791 
Q 2906 2416 2648 2759 
Q 2391 3103 1925 3103 
Q 1463 3103 1205 2759 
Q 947 2416 947 1791 
Q 947 1169 1205 825 
Q 1463 481 1925 481 
Q 2391 481 2648 825 
Q 2906 1169 2906 1791 
z
M 3481 434 
Q 3481 -459 3084 -895 
Q 2688 -1331 1869 -1331 
Q 1566 -1331 1297 -1286 
Q 1028 -1241 775 -1147 
L 775 -588 
Q 1028 -725 1275 -790 
Q 1522 -856 1778 -856 
Q 2344 -856 2625 -561 
Q 2906 -266 2906 331 
L 2906 616 
Q 2728 306 2450 153 
Q 2172 0 1784 0 
Q 1141 0 747 490 
Q 353 981 353 1791 
Q 353 2603 747 3093 
Q 1141 3584 1784 3584 
Q 2172 3584 2450 3431 
Q 2728 3278 2906 2969 
L 2906 3500 
L 3481 3500 
L 3481 434 
z
" transform="scale(0.015625)"/>
      </defs>
      <use xlink:href="#DejaVuSans-54"/>
      <use xlink:href="#DejaVuSans-72" x="46.333984"/>
      <use xlink:href="#DejaVuSans-61" x="87.447266"/>
      <use xlink:href="#DejaVuSans-69" x="148.726562"/>
      <use xlink:href="#DejaVuSans-6e" x="176.509766"/>
      <use xlink:href="#DejaVuSans-69" x="239.888672"/>
      <use xlink:href="#DejaVuSans-6e" x="267.671875"/>
      <use xlink:href="#DejaVuSans-67" x="331.050781"/>
      <use xlink:href="#DejaVuSans-20" x="394.527344"/>
      <use xlink:href="#DejaVuSans-77" x="426.314453"/>
      <use xlink:href="#DejaVuSans-69" x="508.101562"/>
      <use xlink:href="#DejaVuSans-6e" x="535.884766"/>
      <use xlink:href="#DejaVuSans-64" x="599.263672"/>
      <use xlink:href="#DejaVuSans-6f" x="662.740234"/>
      <use xlink:href="#DejaVuSans-77" x="723.921875"/>
     </g>
    </g>
    <g id="line2d_27">
     <path d="M 106.740938 171.191094 
L 119.740938 171.191094 
L 132.740938 171.191094 
" style="fill: none; stroke-dasharray: 10.36,4.48; stroke-dashoffset: 0; stroke: #0072b2; stroke-width: 2.8"/>
    </g>
    <g id="text_18">
     <!-- Forecast -->
     <g transform="translate(143.140938 175.741094) scale(0.13 -0.13)">
      <defs>
       <path id="DejaVuSans-46" d="M 628 4666 
L 3309 4666 
L 3309 4134 
L 1259 4134 
L 1259 2759 
L 3109 2759 
L 3109 2228 
L 1259 2228 
L 1259 0 
L 628 0 
L 628 4666 
z
" transform="scale(0.015625)"/>
      </defs>
      <use xlink:href="#DejaVuSans-46"/>
      <use xlink:href="#DejaVuSans-6f" x="53.894531"/>
      <use xlink:href="#DejaVuSans-72" x="115.076172"/>
      <use xlink:href="#DejaVuSans-65" x="153.939453"/>
      <use xlink:href="#DejaVuSans-63" x="215.462891"/>
      <use xlink:href="#DejaVuSans-61" x="270.443359"/>
      <use xlink:href="#DejaVuSans-73" x="331.722656"/>
      <use xlink:href="#DejaVuSans-74" x="383.822266"/>
     </g>
    </g>
    <g id="patch_8">
     <path d="M 106.740938 194.822656 
L 132.740938 194.822656 
L 132.740938 185.722656 
L 106.740938 185.722656 
z
" style="fill: #0072b2; fill-opacity: 0.22; stroke: #0072b2; stroke-opacity: 0.22; stroke-linejoin: miter"/>
    </g>
    <g id="text_19">
     <!-- 90 % CI -->
     <g transform="translate(143.140938 194.822656) scale(0.13 -0.13)">
      <defs>
       <path id="DejaVuSans-39" d="M 703 97 
L 703 672 
Q 941 559 1184 500 
Q 1428 441 1663 441 
Q 2288 441 2617 861 
Q 2947 1281 2994 2138 
Q 2813 1869 2534 1725 
Q 2256 1581 1919 1581 
Q 1219 1581 811 2004 
Q 403 2428 403 3163 
Q 403 3881 828 4315 
Q 1253 4750 1959 4750 
Q 2769 4750 3195 4129 
Q 3622 3509 3622 2328 
Q 3622 1225 3098 567 
Q 2575 -91 1691 -91 
Q 1453 -91 1209 -44 
Q 966 3 703 97 
z
M 1959 2075 
Q 2384 2075 2632 2365 
Q 2881 2656 2881 3163 
Q 2881 3666 2632 3958 
Q 2384 4250 1959 4250 
Q 1534 4250 1286 3958 
Q 1038 3666 1038 3163 
Q 1038 2656 1286 2365 
Q 1534 2075 1959 2075 
z
" transform="scale(0.015625)"/>
       <path id="DejaVuSans-25" d="M 4653 2053 
Q 4381 2053 4226 1822 
Q 4072 1591 4072 1178 
Q 4072 772 4226 539 
Q 4381 306 4653 306 
Q 4919 306 5073 539 
Q 5228 772 5228 1178 
Q 5228 1588 5073 1820 
Q 4919 2053 4653 2053 
z
M 4653 2450 
Q 5147 2450 5437 2106 
Q 5728 1763 5728 1178 
Q 5728 594 5436 251 
Q 5144 -91 4653 -91 
Q 4153 -91 3862 251 
Q 3572 594 3572 1178 
Q 3572 1766 3864 2108 
Q 4156 2450 4653 2450 
z
M 1428 4353 
Q 1159 4353 1004 4120 
Q 850 3888 850 3481 
Q 850 3069 1003 2837 
Q 1156 2606 1428 2606 
Q 1700 2606 1854 2837 
Q 2009 3069 2009 3481 
Q 2009 3884 1853 4118 
Q 1697 4353 1428 4353 
z
M 4250 4750 
L 4750 4750 
L 1831 -91 
L 1331 -91 
L 4250 4750 
z
M 1428 4750 
Q 1922 4750 2215 4408 
Q 2509 4066 2509 3481 
Q 2509 2891 2217 2550 
Q 1925 2209 1428 2209 
Q 931 2209 642 2551 
Q 353 2894 353 3481 
Q 353 4063 643 4406 
Q 934 4750 1428 4750 
z
" transform="scale(0.015625)"/>
       <path id="DejaVuSans-43" d="M 4122 4306 
L 4122 3641 
Q 3803 3938 3442 4084 
Q 3081 4231 2675 4231 
Q 1875 4231 1450 3742 
Q 1025 3253 1025 2328 
Q 1025 1406 1450 917 
Q 1875 428 2675 428 
Q 3081 428 3442 575 
Q 3803 722 4122 1019 
L 4122 359 
Q 3791 134 3420 21 
Q 3050 -91 2638 -91 
Q 1578 -91 968 557 
Q 359 1206 359 2328 
Q 359 3453 968 4101 
Q 1578 4750 2638 4750 
Q 3056 4750 3426 4639 
Q 3797 4528 4122 4306 
z
" transform="scale(0.015625)"/>
       <path id="DejaVuSans-49" d="M 628 4666 
L 1259 4666 
L 1259 0 
L 628 0 
L 628 4666 
z
" transform="scale(0.015625)"/>
      </defs>
      <use xlink:href="#DejaVuSans-39"/>
      <use xlink:href="#DejaVuSans-30" x="63.623047"/>
      <use xlink:href="#DejaVuSans-20" x="127.246094"/>
      <use xlink:href="#DejaVuSans-25" x="159.033203"/>
      <use xlink:href="#DejaVuSans-20" x="254.052734"/>
      <use xlink:href="#DejaVuSans-43" x="285.839844"/>
      <use xlink:href="#DejaVuSans-49" x="355.664062"/>
     </g>
    </g>
   </g>
  </g>
  <g id="axes_2">
   <g id="patch_9">
    <path d="M 887.040938 660.230081 
L 1569.440937 660.230081 
L 1569.440937 116 
L 887.040938 116 
z
" style="fill: #ffffff"/>
   </g>
   <g id="matplotlib.axis_3">
    <g id="xtick_5">
     <g id="line2d_28">
      <g>
       <use xlink:href="#mae1fa9db5b" x="986.445662" y="660.230081" style="fill: #111827; stroke: #111827; stroke-width: 0.8"/>
      </g>
     </g>
     <g id="text_20">
      <!-- Jan 2022 -->
      <g style="fill: #111827" transform="translate(919.834817 716.354016) rotate(-30) scale(0.17 -0.17)">
       <use xlink:href="#DejaVuSans-4a"/>
       <use xlink:href="#DejaVuSans-61" x="29.492188"/>
       <use xlink:href="#DejaVuSans-6e" x="90.771484"/>
       <use xlink:href="#DejaVuSans-20" x="154.150391"/>
       <use xlink:href="#DejaVuSans-32" x="185.9375"/>
       <use xlink:href="#DejaVuSans-30" x="249.560547"/>
       <use xlink:href="#DejaVuSans-32" x="313.183594"/>
       <use xlink:href="#DejaVuSans-32" x="376.806641"/>
      </g>
     </g>
    </g>
    <g id="xtick_6">
     <g id="line2d_29">
      <g>
       <use xlink:href="#mae1fa9db5b" x="1137.873006" y="660.230081" style="fill: #111827; stroke: #111827; stroke-width: 0.8"/>
      </g>
     </g>
     <g id="text_21">
      <!-- Feb 2022 -->
      <g style="fill: #111827" transform="translate(1067.894405 718.298391) rotate(-30) scale(0.17 -0.17)">
       <use xlink:href="#DejaVuSans-46"/>
       <use xlink:href="#DejaVuSans-65" x="52.019531"/>
       <use xlink:href="#DejaVuSans-62" x="113.542969"/>
       <use xlink:href="#DejaVuSans-20" x="177.019531"/>
       <use xlink:href="#DejaVuSans-32" x="208.806641"/>
       <use xlink:href="#DejaVuSans-30" x="272.429688"/>
       <use xlink:href="#DejaVuSans-32" x="336.052734"/>
       <use xlink:href="#DejaVuSans-32" x="399.675781"/>
      </g>
     </g>
    </g>
    <g id="xtick_7">
     <g id="line2d_30">
      <g>
       <use xlink:href="#mae1fa9db5b" x="1274.646091" y="660.230081" style="fill: #111827; stroke: #111827; stroke-width: 0.8"/>
      </g>
     </g>
     <g id="text_22">
      <!-- Mar 2022 -->
      <g style="fill: #111827" transform="translate(1202.953707 719.287844) rotate(-30) scale(0.17 -0.17)">
       <defs>
        <path id="DejaVuSans-4d" d="M 628 4666 
L 1569 4666 
L 2759 1491 
L 3956 4666 
L 4897 4666 
L 4897 0 
L 4281 0 
L 4281 4097 
L 3078 897 
L 2444 897 
L 1241 4097 
L 1241 0 
L 628 0 
L 628 4666 
z
" transform="scale(0.015625)"/>
       </defs>
       <use xlink:href="#DejaVuSans-4d"/>
       <use xlink:href="#DejaVuSans-61" x="86.279297"/>
       <use xlink:href="#DejaVuSans-72" x="147.558594"/>
       <use xlink:href="#DejaVuSans-20" x="188.671875"/>
       <use xlink:href="#DejaVuSans-32" x="220.458984"/>
       <use xlink:href="#DejaVuSans-30" x="284.082031"/>
       <use xlink:href="#DejaVuSans-32" x="347.705078"/>
       <use xlink:href="#DejaVuSans-32" x="411.328125"/>
      </g>
     </g>
    </g>
    <g id="xtick_8">
     <g id="line2d_31">
      <g>
       <use xlink:href="#mae1fa9db5b" x="1426.073436" y="660.230081" style="fill: #111827; stroke: #111827; stroke-width: 0.8"/>
      </g>
     </g>
     <g id="text_23">
      <!-- Apr 2022 -->
      <g style="fill: #111827" transform="translate(1356.688332 717.955735) rotate(-30) scale(0.17 -0.17)">
       <defs>
        <path id="DejaVuSans-41" d="M 2188 4044 
L 1331 1722 
L 3047 1722 
L 2188 4044 
z
M 1831 4666 
L 2547 4666 
L 4325 0 
L 3669 0 
L 3244 1197 
L 1141 1197 
L 716 0 
L 50 0 
L 1831 4666 
z
" transform="scale(0.015625)"/>
        <path id="DejaVuSans-70" d="M 1159 525 
L 1159 -1331 
L 581 -1331 
L 581 3500 
L 1159 3500 
L 1159 2969 
Q 1341 3281 1617 3432 
Q 1894 3584 2278 3584 
Q 2916 3584 3314 3078 
Q 3713 2572 3713 1747 
Q 3713 922 3314 415 
Q 2916 -91 2278 -91 
Q 1894 -91 1617 61 
Q 1341 213 1159 525 
z
M 3116 1747 
Q 3116 2381 2855 2742 
Q 2594 3103 2138 3103 
Q 1681 3103 1420 2742 
Q 1159 2381 1159 1747 
Q 1159 1113 1420 752 
Q 1681 391 2138 391 
Q 2594 391 2855 752 
Q 3116 1113 3116 1747 
z
" transform="scale(0.015625)"/>
       </defs>
       <use xlink:href="#DejaVuSans-41"/>
       <use xlink:href="#DejaVuSans-70" x="68.408203"/>
       <use xlink:href="#DejaVuSans-72" x="131.884766"/>
       <use xlink:href="#DejaVuSans-20" x="172.998047"/>
       <use xlink:href="#DejaVuSans-32" x="204.785156"/>
       <use xlink:href="#DejaVuSans-30" x="268.408203"/>
       <use xlink:href="#DejaVuSans-32" x="332.03125"/>
       <use xlink:href="#DejaVuSans-32" x="395.654297"/>
      </g>
     </g>
    </g>
   </g>
   <g id="matplotlib.axis_4">
    <g id="ytick_10">
     <g id="line2d_32">
      <path d="M 887.040938 602.673492 
L 1569.440937 602.673492 
" clip-path="url(#pc5b625a12b)" style="fill: none; stroke: #d1d5db; stroke-opacity: 0.55; stroke-width: 0.9; stroke-linecap: square"/>
     </g>
     <g id="line2d_33">
      <g>
       <use xlink:href="#mb2287d08eb" x="887.040938" y="602.673492" style="fill: #111827; stroke: #111827; stroke-width: 0.8"/>
      </g>
     </g>
     <g id="text_24">
      <!-- 50000 -->
      <g style="fill: #111827" transform="translate(825.459688 609.132164) scale(0.17 -0.17)">
       <use xlink:href="#DejaVuSans-35"/>
       <use xlink:href="#DejaVuSans-30" x="63.623047"/>
       <use xlink:href="#DejaVuSans-30" x="127.246094"/>
       <use xlink:href="#DejaVuSans-30" x="190.869141"/>
       <use xlink:href="#DejaVuSans-30" x="254.492188"/>
      </g>
     </g>
    </g>
    <g id="ytick_11">
     <g id="line2d_34">
      <path d="M 887.040938 529.12065 
L 1569.440937 529.12065 
" clip-path="url(#pc5b625a12b)" style="fill: none; stroke: #d1d5db; stroke-opacity: 0.55; stroke-width: 0.9; stroke-linecap: square"/>
     </g>
     <g id="line2d_35">
      <g>
       <use xlink:href="#mb2287d08eb" x="887.040938" y="529.12065" style="fill: #111827; stroke: #111827; stroke-width: 0.8"/>
      </g>
     </g>
     <g id="text_25">
      <!-- 100000 -->
      <g style="fill: #111827" transform="translate(814.643438 535.579322) scale(0.17 -0.17)">
       <use xlink:href="#DejaVuSans-31"/>
       <use xlink:href="#DejaVuSans-30" x="63.623047"/>
       <use xlink:href="#DejaVuSans-30" x="127.246094"/>
       <use xlink:href="#DejaVuSans-30" x="190.869141"/>
       <use xlink:href="#DejaVuSans-30" x="254.492188"/>
       <use xlink:href="#DejaVuSans-30" x="318.115234"/>
      </g>
     </g>
    </g>
    <g id="ytick_12">
     <g id="line2d_36">
      <path d="M 887.040938 455.567807 
L 1569.440937 455.567807 
" clip-path="url(#pc5b625a12b)" style="fill: none; stroke: #d1d5db; stroke-opacity: 0.55; stroke-width: 0.9; stroke-linecap: square"/>
     </g>
     <g id="line2d_37">
      <g>
       <use xlink:href="#mb2287d08eb" x="887.040938" y="455.567807" style="fill: #111827; stroke: #111827; stroke-width: 0.8"/>
      </g>
     </g>
     <g id="text_26">
      <!-- 150000 -->
      <g style="fill: #111827" transform="translate(814.643438 462.026479) scale(0.17 -0.17)">
       <use xlink:href="#DejaVuSans-31"/>
       <use xlink:href="#DejaVuSans-35" x="63.623047"/>
       <use xlink:href="#DejaVuSans-30" x="127.246094"/>
       <use xlink:href="#DejaVuSans-30" x="190.869141"/>
       <use xlink:href="#DejaVuSans-30" x="254.492188"/>
       <use xlink:href="#DejaVuSans-30" x="318.115234"/>
      </g>
     </g>
    </g>
    <g id="ytick_13">
     <g id="line2d_38">
      <path d="M 887.040938 382.014965 
L 1569.440937 382.014965 
" clip-path="url(#pc5b625a12b)" style="fill: none; stroke: #d1d5db; stroke-opacity: 0.55; stroke-width: 0.9; stroke-linecap: square"/>
     </g>
     <g id="line2d_39">
      <g>
       <use xlink:href="#mb2287d08eb" x="887.040938" y="382.014965" style="fill: #111827; stroke: #111827; stroke-width: 0.8"/>
      </g>
     </g>
     <g id="text_27">
      <!-- 200000 -->
      <g style="fill: #111827" transform="translate(814.643438 388.473637) scale(0.17 -0.17)">
       <use xlink:href="#DejaVuSans-32"/>
       <use xlink:href="#DejaVuSans-30" x="63.623047"/>
       <use xlink:href="#DejaVuSans-30" x="127.246094"/>
       <use xlink:href="#DejaVuSans-30" x="190.869141"/>
       <use xlink:href="#DejaVuSans-30" x="254.492188"/>
       <use xlink:href="#DejaVuSans-30" x="318.115234"/>
      </g>
     </g>
    </g>
    <g id="ytick_14">
     <g id="line2d_40">
      <path d="M 887.040938 308.462122 
L 1569.440937 308.462122 
" clip-path="url(#pc5b625a12b)" style="fill: none; stroke: #d1d5db; stroke-opacity: 0.55; stroke-width: 0.9; stroke-linecap: square"/>
     </g>
     <g id="line2d_41">
      <g>
       <use xlink:href="#mb2287d08eb" x="887.040938" y="308.462122" style="fill: #111827; stroke: #111827; stroke-width: 0.8"/>
      </g>
     </g>
     <g id="text_28">
      <!-- 250000 -->
      <g style="fill: #111827" transform="translate(814.643438 314.920794) scale(0.17 -0.17)">
       <use xlink:href="#DejaVuSans-32"/>
       <use xlink:href="#DejaVuSans-35" x="63.623047"/>
       <use xlink:href="#DejaVuSans-30" x="127.246094"/>
       <use xlink:href="#DejaVuSans-30" x="190.869141"/>
       <use xlink:href="#DejaVuSans-30" x="254.492188"/>
       <use xlink:href="#DejaVuSans-30" x="318.115234"/>
      </g>
     </g>
    </g>
    <g id="ytick_15">
     <g id="line2d_42">
      <path d="M 887.040938 234.90928 
L 1569.440937 234.90928 
" clip-path="url(#pc5b625a12b)" style="fill: none; stroke: #d1d5db; stroke-opacity: 0.55; stroke-width: 0.9; stroke-linecap: square"/>
     </g>
     <g id="line2d_43">
      <g>
       <use xlink:href="#mb2287d08eb" x="887.040938" y="234.90928" style="fill: #111827; stroke: #111827; stroke-width: 0.8"/>
      </g>
     </g>
     <g id="text_29">
      <!-- 300000 -->
      <g style="fill: #111827" transform="translate(814.643438 241.367952) scale(0.17 -0.17)">
       <use xlink:href="#DejaVuSans-33"/>
       <use xlink:href="#DejaVuSans-30" x="63.623047"/>
       <use xlink:href="#DejaVuSans-30" x="127.246094"/>
       <use xlink:href="#DejaVuSans-30" x="190.869141"/>
       <use xlink:href="#DejaVuSans-30" x="254.492188"/>
       <use xlink:href="#DejaVuSans-30" x="318.115234"/>
      </g>
     </g>
    </g>
    <g id="ytick_16">
     <g id="line2d_44">
      <path d="M 887.040938 161.356438 
L 1569.440937 161.356438 
" clip-path="url(#pc5b625a12b)" style="fill: none; stroke: #d1d5db; stroke-opacity: 0.55; stroke-width: 0.9; stroke-linecap: square"/>
     </g>
     <g id="line2d_45">
      <g>
       <use xlink:href="#mb2287d08eb" x="887.040938" y="161.356438" style="fill: #111827; stroke: #111827; stroke-width: 0.8"/>
      </g>
     </g>
     <g id="text_30">
      <!-- 350000 -->
      <g style="fill: #111827" transform="translate(814.643438 167.815109) scale(0.17 -0.17)">
       <use xlink:href="#DejaVuSans-33"/>
       <use xlink:href="#DejaVuSans-35" x="63.623047"/>
       <use xlink:href="#DejaVuSans-30" x="127.246094"/>
       <use xlink:href="#DejaVuSans-30" x="190.869141"/>
       <use xlink:href="#DejaVuSans-30" x="254.492188"/>
       <use xlink:href="#DejaVuSans-30" x="318.115234"/>
      </g>
     </g>
    </g>
    <g id="text_31">
     <!-- 7-day smoothed new cases -->
     <g style="fill: #1f2937" transform="translate(805.860156 545.336212) rotate(-90) scale(0.23 -0.23)">
      <use xlink:href="#DejaVuSans-37"/>
      <use xlink:href="#DejaVuSans-2d" x="63.623047"/>
      <use xlink:href="#DejaVuSans-64" x="99.707031"/>
      <use xlink:href="#DejaVuSans-61" x="163.183594"/>
      <use xlink:href="#DejaVuSans-79" x="224.462891"/>
      <use xlink:href="#DejaVuSans-20" x="283.642578"/>
      <use xlink:href="#DejaVuSans-73" x="315.429688"/>
      <use xlink:href="#DejaVuSans-6d" x="367.529297"/>
      <use xlink:href="#DejaVuSans-6f" x="464.941406"/>
      <use xlink:href="#DejaVuSans-6f" x="526.123047"/>
      <use xlink:href="#DejaVuSans-74" x="587.304688"/>
      <use xlink:href="#DejaVuSans-68" x="626.513672"/>
      <use xlink:href="#DejaVuSans-65" x="689.892578"/>
      <use xlink:href="#DejaVuSans-64" x="751.416016"/>
      <use xlink:href="#DejaVuSans-20" x="814.892578"/>
      <use xlink:href="#DejaVuSans-6e" x="846.679688"/>
      <use xlink:href="#DejaVuSans-65" x="910.058594"/>
      <use xlink:href="#DejaVuSans-77" x="971.582031"/>
      <use xlink:href="#DejaVuSans-20" x="1053.369141"/>
      <use xlink:href="#DejaVuSans-63" x="1085.15625"/>
      <use xlink:href="#DejaVuSans-61" x="1140.136719"/>
      <use xlink:href="#DejaVuSans-73" x="1201.416016"/>
      <use xlink:href="#DejaVuSans-65" x="1253.515625"/>
      <use xlink:href="#DejaVuSans-73" x="1315.039062"/>
     </g>
    </g>
   </g>
   <g id="patch_10">
    <path d="M 986.445662 660.230081 
L 986.445662 116 
L 1343.032634 116 
L 1343.032634 660.230081 
z
" clip-path="url(#pc5b625a12b)" style="fill: #d55e00; opacity: 0.07; stroke: #d55e00; stroke-linejoin: miter"/>
   </g>
   <g id="PolyCollection_2">
    <defs>
     <path id="m787a09c13b" d="M 1347.917387 -378.755412 
L 1347.917387 -330.847189 
L 1352.80214 -324.489291 
L 1357.686893 -320.440002 
L 1362.571646 -317.585737 
L 1367.456399 -315.495158 
L 1372.341152 -313.947049 
L 1377.225905 -312.809997 
L 1382.110658 -311.99838 
L 1386.995411 -311.452724 
L 1391.880164 -311.129727 
L 1396.764917 -310.996698 
L 1401.64967 -311.028242 
L 1406.534424 -311.204161 
L 1411.419177 -311.50808 
L 1416.30393 -311.926503 
L 1421.188683 -312.448152 
L 1426.073436 -313.063486 
L 1430.958189 -313.764349 
L 1435.842942 -314.543706 
L 1440.727695 -315.395434 
L 1445.612448 -316.314168 
L 1450.497201 -317.295175 
L 1455.381954 -318.334253 
L 1460.266707 -319.427656 
L 1465.15146 -320.572019 
L 1470.036213 -321.764314 
L 1474.920966 -323.001801 
L 1479.805719 -324.281992 
L 1484.690472 -325.602617 
L 1489.575225 -326.961603 
L 1489.575225 -589.365747 
L 1489.575225 -589.365747 
L 1484.690472 -583.596294 
L 1479.805719 -577.788479 
L 1474.920966 -571.94023 
L 1470.036213 -566.049278 
L 1465.15146 -560.113134 
L 1460.266707 -554.129057 
L 1455.381954 -548.094019 
L 1450.497201 -542.004659 
L 1445.612448 -535.857226 
L 1440.727695 -529.64752 
L 1435.842942 -523.370808 
L 1430.958189 -517.021725 
L 1426.073436 -510.594149 
L 1421.188683 -504.081044 
L 1416.30393 -497.474253 
L 1411.419177 -490.764236 
L 1406.534424 -483.939715 
L 1401.64967 -476.987195 
L 1396.764917 -469.890298 
L 1391.880164 -462.62883 
L 1386.995411 -455.177393 
L 1382.110658 -447.503298 
L 1377.225905 -439.563241 
L 1372.341152 -431.29775 
L 1367.456399 -422.621201 
L 1362.571646 -413.402183 
L 1357.686893 -403.419478 
L 1352.80214 -392.241749 
L 1347.917387 -378.755412 
z
" style="stroke: #d55e00; stroke-opacity: 0.22"/>
    </defs>
    <g clip-path="url(#pc5b625a12b)">
     <use xlink:href="#m787a09c13b" x="0" y="730.103478" style="fill: #d55e00; fill-opacity: 0.22; stroke: #d55e00; stroke-opacity: 0.22"/>
    </g>
   </g>
   <g id="line2d_46">
    <path d="M 1343.032634 660.230081 
L 1343.032634 116 
" clip-path="url(#pc5b625a12b)" style="fill: none; stroke-dasharray: 1.2,1.98; stroke-dashoffset: 0; stroke: #6b7280; stroke-width: 1.2"/>
   </g>
   <g id="patch_11">
    <path d="M 887.040938 660.230081 
L 887.040938 116 
" style="fill: none; stroke: #9ca3af; stroke-linejoin: miter; stroke-linecap: square"/>
   </g>
   <g id="patch_12">
    <path d="M 887.040938 660.230081 
L 1569.440938 660.230081 
" style="fill: none; stroke: #9ca3af; stroke-linejoin: miter; stroke-linecap: square"/>
   </g>
   <g id="line2d_47">
    <path d="M 918.059119 605.193623 
L 922.943872 618.749411 
L 952.252391 618.749411 
L 957.137144 635.49235 
L 986.445662 635.49235 
L 991.330415 632.368666 
L 1020.638933 632.368666 
L 1025.523686 605.220102 
L 1054.832205 605.220102 
L 1059.716958 574.0669 
L 1089.025476 574.0669 
L 1093.910229 508.774883 
L 1123.218747 508.774883 
L 1128.1035 442.044171 
L 1157.412018 442.044171 
L 1162.296771 404.555759 
L 1191.60529 404.555759 
L 1196.490043 400.961126 
L 1225.798561 400.961126 
L 1230.683314 425.459266 
L 1259.991832 425.459266 
L 1264.876585 446.511771 
L 1294.185104 446.511771 
L 1299.069857 437.913234 
L 1328.378375 437.913234 
L 1333.263128 379.105214 
L 1362.571646 379.105214 
L 1367.456399 343.661571 
L 1396.764917 343.661571 
L 1401.64967 342.319336 
L 1430.958189 342.319336 
L 1435.842942 404.054549 
L 1465.15146 404.054549 
L 1470.036213 469.311681 
L 1499.344731 469.311681 
L 1504.229484 512.52965 
L 1533.538003 512.52965 
L 1538.422756 522.501104 
L 1538.422756 522.501104 
" clip-path="url(#pc5b625a12b)" style="fill: none; stroke: #9ca3af; stroke-width: 2.2; stroke-linecap: square"/>
   </g>
   <g id="text_32">
    <!-- Wave 5 — Omicron 2022 -->
    <g style="fill: #111827" transform="translate(1023.296406 90) scale(0.3 -0.3)">
     <defs>
      <path id="DejaVuSans-Bold-35" d="M 678 4666 
L 3669 4666 
L 3669 3781 
L 1638 3781 
L 1638 3059 
Q 1775 3097 1914 3117 
Q 2053 3138 2203 3138 
Q 3056 3138 3531 2711 
Q 4006 2284 4006 1522 
Q 4006 766 3489 337 
Q 2972 -91 2053 -91 
Q 1656 -91 1267 -14 
Q 878 63 494 219 
L 494 1166 
Q 875 947 1217 837 
Q 1559 728 1863 728 
Q 2300 728 2551 942 
Q 2803 1156 2803 1522 
Q 2803 1891 2551 2103 
Q 2300 2316 1863 2316 
Q 1603 2316 1309 2248 
Q 1016 2181 678 2041 
L 678 4666 
z
" transform="scale(0.015625)"/>
      <path id="DejaVuSans-Bold-4f" d="M 2719 3878 
Q 2169 3878 1866 3472 
Q 1563 3066 1563 2328 
Q 1563 1594 1866 1187 
Q 2169 781 2719 781 
Q 3272 781 3575 1187 
Q 3878 1594 3878 2328 
Q 3878 3066 3575 3472 
Q 3272 3878 2719 3878 
z
M 2719 4750 
Q 3844 4750 4481 4106 
Q 5119 3463 5119 2328 
Q 5119 1197 4481 553 
Q 3844 -91 2719 -91 
Q 1597 -91 958 553 
Q 319 1197 319 2328 
Q 319 3463 958 4106 
Q 1597 4750 2719 4750 
z
" transform="scale(0.015625)"/>
      <path id="DejaVuSans-Bold-6d" d="M 3781 2919 
Q 3994 3244 4286 3414 
Q 4578 3584 4928 3584 
Q 5531 3584 5847 3212 
Q 6163 2841 6163 2131 
L 6163 0 
L 5038 0 
L 5038 1825 
Q 5041 1866 5042 1909 
Q 5044 1953 5044 2034 
Q 5044 2406 4934 2573 
Q 4825 2741 4581 2741 
Q 4263 2741 4089 2478 
Q 3916 2216 3909 1719 
L 3909 0 
L 2784 0 
L 2784 1825 
Q 2784 2406 2684 2573 
Q 2584 2741 2328 2741 
Q 2006 2741 1831 2477 
Q 1656 2213 1656 1722 
L 1656 0 
L 531 0 
L 531 3500 
L 1656 3500 
L 1656 2988 
Q 1863 3284 2130 3434 
Q 2397 3584 2719 3584 
Q 3081 3584 3359 3409 
Q 3638 3234 3781 2919 
z
" transform="scale(0.015625)"/>
      <path id="DejaVuSans-Bold-63" d="M 3366 3391 
L 3366 2478 
Q 3138 2634 2908 2709 
Q 2678 2784 2431 2784 
Q 1963 2784 1702 2511 
Q 1441 2238 1441 1747 
Q 1441 1256 1702 982 
Q 1963 709 2431 709 
Q 2694 709 2930 787 
Q 3166 866 3366 1019 
L 3366 103 
Q 3103 6 2833 -42 
Q 2563 -91 2291 -91 
Q 1344 -91 809 395 
Q 275 881 275 1747 
Q 275 2613 809 3098 
Q 1344 3584 2291 3584 
Q 2566 3584 2833 3536 
Q 3100 3488 3366 3391 
z
" transform="scale(0.015625)"/>
      <path id="DejaVuSans-Bold-6f" d="M 2203 2784 
Q 1831 2784 1636 2517 
Q 1441 2250 1441 1747 
Q 1441 1244 1636 976 
Q 1831 709 2203 709 
Q 2569 709 2762 976 
Q 2956 1244 2956 1747 
Q 2956 2250 2762 2517 
Q 2569 2784 2203 2784 
z
M 2203 3584 
Q 3106 3584 3614 3096 
Q 4122 2609 4122 1747 
Q 4122 884 3614 396 
Q 3106 -91 2203 -91 
Q 1297 -91 786 396 
Q 275 884 275 1747 
Q 275 2609 786 3096 
Q 1297 3584 2203 3584 
z
" transform="scale(0.015625)"/>
     </defs>
     <use xlink:href="#DejaVuSans-Bold-57"/>
     <use xlink:href="#DejaVuSans-Bold-61" x="106.677734"/>
     <use xlink:href="#DejaVuSans-Bold-76" x="174.158203"/>
     <use xlink:href="#DejaVuSans-Bold-65" x="239.34375"/>
     <use xlink:href="#DejaVuSans-Bold-20" x="307.166016"/>
     <use xlink:href="#DejaVuSans-Bold-35" x="341.980469"/>
     <use xlink:href="#DejaVuSans-Bold-20" x="411.560547"/>
     <use xlink:href="#DejaVuSans-Bold-2014" x="446.375"/>
     <use xlink:href="#DejaVuSans-Bold-20" x="546.375"/>
     <use xlink:href="#DejaVuSans-Bold-4f" x="581.189453"/>
     <use xlink:href="#DejaVuSans-Bold-6d" x="666.199219"/>
     <use xlink:href="#DejaVuSans-Bold-69" x="770.398438"/>
     <use xlink:href="#DejaVuSans-Bold-63" x="804.675781"/>
     <use xlink:href="#DejaVuSans-Bold-72" x="863.953125"/>
     <use xlink:href="#DejaVuSans-Bold-6f" x="913.269531"/>
     <use xlink:href="#DejaVuSans-Bold-6e" x="981.970703"/>
     <use xlink:href="#DejaVuSans-Bold-20" x="1053.162109"/>
     <use xlink:href="#DejaVuSans-Bold-32" x="1087.976562"/>
     <use xlink:href="#DejaVuSans-Bold-30" x="1157.556641"/>
     <use xlink:href="#DejaVuSans-Bold-32" x="1227.136719"/>
     <use xlink:href="#DejaVuSans-Bold-32" x="1296.716797"/>
    </g>
   </g>
   <g id="line2d_48">
    <path d="M 1347.917387 375.302178 
L 1352.80214 371.737958 
L 1357.686893 368.173739 
L 1362.571646 364.609519 
L 1367.456399 361.045299 
L 1372.341152 357.481079 
L 1377.225905 353.916859 
L 1382.110658 350.352639 
L 1386.995411 346.78842 
L 1391.880164 343.2242 
L 1396.764917 339.65998 
L 1401.64967 336.09576 
L 1406.534424 332.53154 
L 1411.419177 328.96732 
L 1416.30393 325.403101 
L 1421.188683 321.838881 
L 1426.073436 318.274661 
L 1430.958189 314.710441 
L 1435.842942 311.146221 
L 1440.727695 307.582001 
L 1445.612448 304.017782 
L 1450.497201 300.453562 
L 1455.381954 296.889342 
L 1460.266707 293.325122 
L 1465.15146 289.760902 
L 1470.036213 286.196682 
L 1474.920966 282.632463 
L 1479.805719 279.068243 
L 1484.690472 275.504023 
L 1489.575225 271.939803 
" clip-path="url(#pc5b625a12b)" style="fill: none; stroke-dasharray: 10.36,4.48; stroke-dashoffset: 0; stroke: #d55e00; stroke-width: 2.8"/>
   </g>
   <g id="legend_2">
    <g id="patch_13">
     <path d="M 896.140938 202.72625 
L 1042.480313 202.72625 
Q 1045.080312 202.72625 1045.080312 200.12625 
L 1045.080312 125.1 
Q 1045.080312 122.5 1042.480313 122.5 
L 896.140938 122.5 
Q 893.540938 122.5 893.540938 125.1 
L 893.540938 200.12625 
Q 893.540938 202.72625 896.140938 202.72625 
z
" style="fill: #ffffff; opacity: 0.8; stroke: #cccccc; stroke-linejoin: miter"/>
    </g>
    <g id="line2d_49">
     <path d="M 898.740938 133.027969 
L 911.740938 133.027969 
L 924.740938 133.027969 
" style="fill: none; stroke: #9ca3af; stroke-width: 2.2; stroke-linecap: square"/>
    </g>
    <g id="text_33">
     <!-- Observed -->
     <g transform="translate(935.140938 137.577969) scale(0.13 -0.13)">
      <use xlink:href="#DejaVuSans-4f"/>
      <use xlink:href="#DejaVuSans-62" x="78.710938"/>
      <use xlink:href="#DejaVuSans-73" x="142.1875"/>
      <use xlink:href="#DejaVuSans-65" x="194.287109"/>
      <use xlink:href="#DejaVuSans-72" x="255.810547"/>
      <use xlink:href="#DejaVuSans-76" x="296.923828"/>
      <use xlink:href="#DejaVuSans-65" x="356.103516"/>
      <use xlink:href="#DejaVuSans-64" x="417.626953"/>
     </g>
    </g>
    <g id="patch_14">
     <path d="M 898.740938 156.659531 
L 924.740938 156.659531 
L 924.740938 147.559531 
L 898.740938 147.559531 
z
" style="fill: #d55e00; opacity: 0.07; stroke: #d55e00; stroke-linejoin: miter"/>
    </g>
    <g id="text_34">
     <!-- Training window -->
     <g transform="translate(935.140938 156.659531) scale(0.13 -0.13)">
      <use xlink:href="#DejaVuSans-54"/>
      <use xlink:href="#DejaVuSans-72" x="46.333984"/>
      <use xlink:href="#DejaVuSans-61" x="87.447266"/>
      <use xlink:href="#DejaVuSans-69" x="148.726562"/>
      <use xlink:href="#DejaVuSans-6e" x="176.509766"/>
      <use xlink:href="#DejaVuSans-69" x="239.888672"/>
      <use xlink:href="#DejaVuSans-6e" x="267.671875"/>
      <use xlink:href="#DejaVuSans-67" x="331.050781"/>
      <use xlink:href="#DejaVuSans-20" x="394.527344"/>
      <use xlink:href="#DejaVuSans-77" x="426.314453"/>
      <use xlink:href="#DejaVuSans-69" x="508.101562"/>
      <use xlink:href="#DejaVuSans-6e" x="535.884766"/>
      <use xlink:href="#DejaVuSans-64" x="599.263672"/>
      <use xlink:href="#DejaVuSans-6f" x="662.740234"/>
      <use xlink:href="#DejaVuSans-77" x="723.921875"/>
     </g>
    </g>
    <g id="line2d_50">
     <path d="M 898.740938 171.191094 
L 911.740938 171.191094 
L 924.740938 171.191094 
" style="fill: none; stroke-dasharray: 10.36,4.48; stroke-dashoffset: 0; stroke: #d55e00; stroke-width: 2.8"/>
    </g>
    <g id="text_35">
     <!-- Forecast -->
     <g transform="translate(935.140938 175.741094) scale(0.13 -0.13)">
      <use xlink:href="#DejaVuSans-46"/>
      <use xlink:href="#DejaVuSans-6f" x="53.894531"/>
      <use xlink:href="#DejaVuSans-72" x="115.076172"/>
      <use xlink:href="#DejaVuSans-65" x="153.939453"/>
      <use xlink:href="#DejaVuSans-63" x="215.462891"/>
      <use xlink:href="#DejaVuSans-61" x="270.443359"/>
      <use xlink:href="#DejaVuSans-73" x="331.722656"/>
      <use xlink:href="#DejaVuSans-74" x="383.822266"/>
     </g>
    </g>
    <g id="patch_15">
     <path d="M 898.740938 194.822656 
L 924.740938 194.822656 
L 924.740938 185.722656 
L 898.740938 185.722656 
z
" style="fill: #d55e00; fill-opacity: 0.22; stroke: #d55e00; stroke-opacity: 0.22; stroke-linejoin: miter"/>
    </g>
    <g id="text_36">
     <!-- 90 % CI -->
     <g transform="translate(935.140938 194.822656) scale(0.13 -0.13)">
      <use xlink:href="#DejaVuSans-39"/>
      <use xlink:href="#DejaVuSans-30" x="63.623047"/>
      <use xlink:href="#DejaVuSans-20" x="127.246094"/>
      <use xlink:href="#DejaVuSans-25" x="159.033203"/>
      <use xlink:href="#DejaVuSans-20" x="254.052734"/>
      <use xlink:href="#DejaVuSans-43" x="285.839844"/>
      <use xlink:href="#DejaVuSans-49" x="355.664062"/>
     </g>
    </g>
   </g>
  </g>
  <g id="text_37">
   <!-- Short-term forecasts: Holt-Winters exponential smoothing -->
   <g style="fill: #111827" transform="translate(293.641719 29.995312) scale(0.3 -0.3)">
    <defs>
     <path id="DejaVuSans-Bold-53" d="M 3834 4519 
L 3834 3531 
Q 3450 3703 3084 3790 
Q 2719 3878 2394 3878 
Q 1963 3878 1756 3759 
Q 1550 3641 1550 3391 
Q 1550 3203 1689 3098 
Q 1828 2994 2194 2919 
L 2706 2816 
Q 3484 2659 3812 2340 
Q 4141 2022 4141 1434 
Q 4141 663 3683 286 
Q 3225 -91 2284 -91 
Q 1841 -91 1394 -6 
Q 947 78 500 244 
L 500 1259 
Q 947 1022 1364 901 
Q 1781 781 2169 781 
Q 2563 781 2772 912 
Q 2981 1044 2981 1288 
Q 2981 1506 2839 1625 
Q 2697 1744 2272 1838 
L 1806 1941 
Q 1106 2091 782 2419 
Q 459 2747 459 3303 
Q 459 4000 909 4375 
Q 1359 4750 2203 4750 
Q 2588 4750 2994 4692 
Q 3400 4634 3834 4519 
z
" transform="scale(0.015625)"/>
     <path id="DejaVuSans-Bold-68" d="M 4056 2131 
L 4056 0 
L 2931 0 
L 2931 347 
L 2931 1625 
Q 2931 2084 2911 2256 
Q 2891 2428 2841 2509 
Q 2775 2619 2662 2680 
Q 2550 2741 2406 2741 
Q 2056 2741 1856 2470 
Q 1656 2200 1656 1722 
L 1656 0 
L 538 0 
L 538 4863 
L 1656 4863 
L 1656 2988 
Q 1909 3294 2193 3439 
Q 2478 3584 2822 3584 
Q 3428 3584 3742 3212 
Q 4056 2841 4056 2131 
z
" transform="scale(0.015625)"/>
     <path id="DejaVuSans-Bold-2d" d="M 347 2297 
L 2309 2297 
L 2309 1388 
L 347 1388 
L 347 2297 
z
" transform="scale(0.015625)"/>
     <path id="DejaVuSans-Bold-66" d="M 2841 4863 
L 2841 4128 
L 2222 4128 
Q 1984 4128 1890 4042 
Q 1797 3956 1797 3744 
L 1797 3500 
L 2753 3500 
L 2753 2700 
L 1797 2700 
L 1797 0 
L 678 0 
L 678 2700 
L 122 2700 
L 122 3500 
L 678 3500 
L 678 3744 
Q 678 4316 997 4589 
Q 1316 4863 1984 4863 
L 2841 4863 
z
" transform="scale(0.015625)"/>
     <path id="DejaVuSans-Bold-73" d="M 3272 3391 
L 3272 2541 
Q 2913 2691 2578 2766 
Q 2244 2841 1947 2841 
Q 1628 2841 1473 2761 
Q 1319 2681 1319 2516 
Q 1319 2381 1436 2309 
Q 1553 2238 1856 2203 
L 2053 2175 
Q 2913 2066 3209 1816 
Q 3506 1566 3506 1031 
Q 3506 472 3093 190 
Q 2681 -91 1863 -91 
Q 1516 -91 1145 -36 
Q 775 19 384 128 
L 384 978 
Q 719 816 1070 734 
Q 1422 653 1784 653 
Q 2113 653 2278 743 
Q 2444 834 2444 1013 
Q 2444 1163 2330 1236 
Q 2216 1309 1875 1350 
L 1678 1375 
Q 931 1469 631 1722 
Q 331 1975 331 2491 
Q 331 3047 712 3315 
Q 1094 3584 1881 3584 
Q 2191 3584 2531 3537 
Q 2872 3491 3272 3391 
z
" transform="scale(0.015625)"/>
     <path id="DejaVuSans-Bold-3a" d="M 716 3500 
L 1844 3500 
L 1844 2291 
L 716 2291 
L 716 3500 
z
M 716 1209 
L 1844 1209 
L 1844 0 
L 716 0 
L 716 1209 
z
" transform="scale(0.015625)"/>
     <path id="DejaVuSans-Bold-48" d="M 588 4666 
L 1791 4666 
L 1791 2888 
L 3566 2888 
L 3566 4666 
L 4769 4666 
L 4769 0 
L 3566 0 
L 3566 1978 
L 1791 1978 
L 1791 0 
L 588 0 
L 588 4666 
z
" transform="scale(0.015625)"/>
     <path id="DejaVuSans-Bold-6c" d="M 538 4863 
L 1656 4863 
L 1656 0 
L 538 0 
L 538 4863 
z
" transform="scale(0.015625)"/>
     <path id="DejaVuSans-Bold-78" d="M 1422 1791 
L 159 3500 
L 1344 3500 
L 2059 2463 
L 2784 3500 
L 3969 3500 
L 2706 1797 
L 4031 0 
L 2847 0 
L 2059 1106 
L 1281 0 
L 97 0 
L 1422 1791 
z
" transform="scale(0.015625)"/>
     <path id="DejaVuSans-Bold-70" d="M 1656 506 
L 1656 -1331 
L 538 -1331 
L 538 3500 
L 1656 3500 
L 1656 2988 
Q 1888 3294 2169 3439 
Q 2450 3584 2816 3584 
Q 3463 3584 3878 3070 
Q 4294 2556 4294 1747 
Q 4294 938 3878 423 
Q 3463 -91 2816 -91 
Q 2450 -91 2169 54 
Q 1888 200 1656 506 
z
M 2400 2772 
Q 2041 2772 1848 2508 
Q 1656 2244 1656 1747 
Q 1656 1250 1848 986 
Q 2041 722 2400 722 
Q 2759 722 2948 984 
Q 3138 1247 3138 1747 
Q 3138 2247 2948 2509 
Q 2759 2772 2400 2772 
z
" transform="scale(0.015625)"/>
     <path id="DejaVuSans-Bold-67" d="M 2919 594 
Q 2688 288 2409 144 
Q 2131 0 1766 0 
Q 1125 0 706 504 
Q 288 1009 288 1791 
Q 288 2575 706 3076 
Q 1125 3578 1766 3578 
Q 2131 3578 2409 3434 
Q 2688 3291 2919 2981 
L 2919 3500 
L 4044 3500 
L 4044 353 
Q 4044 -491 3511 -936 
Q 2978 -1381 1966 -1381 
Q 1638 -1381 1331 -1331 
Q 1025 -1281 716 -1178 
L 716 -306 
Q 1009 -475 1290 -558 
Q 1572 -641 1856 -641 
Q 2406 -641 2662 -400 
Q 2919 -159 2919 353 
L 2919 594 
z
M 2181 2772 
Q 1834 2772 1640 2515 
Q 1447 2259 1447 1791 
Q 1447 1309 1634 1061 
Q 1822 813 2181 813 
Q 2531 813 2725 1069 
Q 2919 1325 2919 1791 
Q 2919 2259 2725 2515 
Q 2531 2772 2181 2772 
z
" transform="scale(0.015625)"/>
    </defs>
    <use xlink:href="#DejaVuSans-Bold-53"/>
    <use xlink:href="#DejaVuSans-Bold-68" x="72.021484"/>
    <use xlink:href="#DejaVuSans-Bold-6f" x="143.212891"/>
    <use xlink:href="#DejaVuSans-Bold-72" x="211.914062"/>
    <use xlink:href="#DejaVuSans-Bold-74" x="261.230469"/>
    <use xlink:href="#DejaVuSans-Bold-2d" x="309.033203"/>
    <use xlink:href="#DejaVuSans-Bold-74" x="350.537109"/>
    <use xlink:href="#DejaVuSans-Bold-65" x="398.339844"/>
    <use xlink:href="#DejaVuSans-Bold-72" x="466.162109"/>
    <use xlink:href="#DejaVuSans-Bold-6d" x="515.478516"/>
    <use xlink:href="#DejaVuSans-Bold-20" x="619.677734"/>
    <use xlink:href="#DejaVuSans-Bold-66" x="654.492188"/>
    <use xlink:href="#DejaVuSans-Bold-6f" x="697.998047"/>
    <use xlink:href="#DejaVuSans-Bold-72" x="766.699219"/>
    <use xlink:href="#DejaVuSans-Bold-65" x="816.015625"/>
    <use xlink:href="#DejaVuSans-Bold-63" x="883.837891"/>
    <use xlink:href="#DejaVuSans-Bold-61" x="943.115234"/>
    <use xlink:href="#DejaVuSans-Bold-73" x="1010.595703"/>
    <use xlink:href="#DejaVuSans-Bold-74" x="1070.117188"/>
    <use xlink:href="#DejaVuSans-Bold-73" x="1117.919922"/>
    <use xlink:href="#DejaVuSans-Bold-3a" x="1177.441406"/>
    <use xlink:href="#DejaVuSans-Bold-20" x="1217.431641"/>
    <use xlink:href="#DejaVuSans-Bold-48" x="1252.246094"/>
    <use xlink:href="#DejaVuSans-Bold-6f" x="1335.9375"/>
    <use xlink:href="#DejaVuSans-Bold-6c" x="1404.638672"/>
    <use xlink:href="#DejaVuSans-Bold-74" x="1438.916016"/>
    <use xlink:href="#DejaVuSans-Bold-2d" x="1486.71875"/>
    <use xlink:href="#DejaVuSans-Bold-57" x="1523.722656"/>
    <use xlink:href="#DejaVuSans-Bold-69" x="1634.025391"/>
    <use xlink:href="#DejaVuSans-Bold-6e" x="1668.302734"/>
    <use xlink:href="#DejaVuSans-Bold-74" x="1739.494141"/>
    <use xlink:href="#DejaVuSans-Bold-65" x="1787.296875"/>
    <use xlink:href="#DejaVuSans-Bold-72" x="1855.119141"/>
    <use xlink:href="#DejaVuSans-Bold-73" x="1904.435547"/>
    <use xlink:href="#DejaVuSans-Bold-20" x="1963.957031"/>
    <use xlink:href="#DejaVuSans-Bold-65" x="1998.771484"/>
    <use xlink:href="#DejaVuSans-Bold-78" x="2066.59375"/>
    <use xlink:href="#DejaVuSans-Bold-70" x="2131.095703"/>
    <use xlink:href="#DejaVuSans-Bold-6f" x="2202.677734"/>
    <use xlink:href="#DejaVuSans-Bold-6e" x="2271.378906"/>
    <use xlink:href="#DejaVuSans-Bold-65" x="2342.570312"/>
    <use xlink:href="#DejaVuSans-Bold-6e" x="2410.392578"/>
    <use xlink:href="#DejaVuSans-Bold-74" x="2481.583984"/>
    <use xlink:href="#DejaVuSans-Bold-69" x="2529.386719"/>
    <use xlink:href="#DejaVuSans-Bold-61" x="2563.664062"/>
    <use xlink:href="#DejaVuSans-Bold-6c" x="2631.144531"/>
    <use xlink:href="#DejaVuSans-Bold-20" x="2665.421875"/>
    <use xlink:href="#DejaVuSans-Bold-73" x="2700.236328"/>
    <use xlink:href="#DejaVuSans-Bold-6d" x="2759.757812"/>
    <use xlink:href="#DejaVuSans-Bold-6f" x="2863.957031"/>
    <use xlink:href="#DejaVuSans-Bold-6f" x="2932.658203"/>
    <use xlink:href="#DejaVuSans-Bold-74" x="3001.359375"/>
    <use xlink:href="#DejaVuSans-Bold-68" x="3049.162109"/>
    <use xlink:href="#DejaVuSans-Bold-69" x="3120.353516"/>
    <use xlink:href="#DejaVuSans-Bold-6e" x="3154.630859"/>
    <use xlink:href="#DejaVuSans-Bold-67" x="3225.822266"/>
   </g>
  </g>
 </g>
 <defs>
  <clipPath id="p21ebe920a1">
   <rect x="95.040938" y="116" width="682.4" height="544.230081"/>
  </clipPath>
  <clipPath id="pc5b625a12b">
   <rect x="887.040938" y="116" width="682.4" height="544.230081"/>
  </clipPath>
 </defs>
</svg>
