<?xml version="1.0" encoding="utf-8" standalone="no"?>
<!DOCTYPE svg PUBLIC "-//W3C//DTD SVG 1.1//EN"
  "http://www.w3.org/Graphics/SVG/1.1/DTD/svg11.dtd">
<svg xmlns:xlink="http://www.w3.org/1999/xlink" width="1288.714688pt" height="875.3525pt" viewBox="0 0 1288.714688 875.3525" xmlns="http://www.w3.org/2000/svg" version="1.1">
 <metadata>
  <rdf:RDF xmlns:dc="http://purl.org/dc/elements/1.1/" xmlns:cc="http://creativecommons.org/ns#" xmlns:rdf="http://www.w3.org/1999/02/22-rdf-syntax-ns#">
   <cc:Work>
    <dc:type rdf:resource="http://purl.org/dc/dcmitype/StillImage"/>
    <dc:date>2026-05-27T21:05:57.220704</dc:date>
    <dc:format>image/svg+xml</dc:format>
    <dc:creator>
     <cc:Agent>
      <dc:title>Matplotlib v3.8.2, https://matplotlib.org/</dc:title>
     </cc:Agent>
    </dc:creator>
   </cc:Work>
  </rdf:RDF>
 </metadata>
 <defs>
  <style type="text/css">*{stroke-linejoin: round; stroke-linecap: butt}</style>
 </defs>
 <g id="figure_1">
  <g id="patch_1">
   <path d="M 0 875.3525 
L 1288.714688 875.3525 
L 1288.714688 -0 
L 0 -0 
z
" style="fill: #ffffff"/>
  </g>
  <g id="axes_1">
   <g id="patch_2">
    <path d="M 84.224688 438.748789 
L 1281.514688 438.748789 
L 1281.514688 74.357578 
L 84.224688 74.357578 
z
" style="fill: #ffffff"/>
   </g>
   <g id="matplotlib.axis_1">
    <g id="xtick_1">
     <g id="line2d_1">
      <defs>
       <path id="m79853b45cb" d="M 0 0 
L 0 4 
" style="stroke: #111827; stroke-width: 0.8"/>
      </defs>
      <g>
       <use xlink:href="#m79853b45cb" x="118.147684" y="438.748789" style="fill: #111827; stroke: #111827; stroke-width: 0.8"/>
      </g>
     </g>
    </g>
    <g id="xtick_2">
     <g id="line2d_2">
      <g>
       <use xlink:href="#m79853b45cb" x="360.1714" y="438.748789" style="fill: #111827; stroke: #111827; stroke-width: 0.8"/>
      </g>
     </g>
    </g>
    <g id="xtick_3">
     <g id="line2d_3">
      <g>
       <use xlink:href="#m79853b45cb" x="601.533849" y="438.748789" style="fill: #111827; stroke: #111827; stroke-width: 0.8"/>
      </g>
     </g>
    </g>
    <g id="xtick_4">
     <g id="line2d_4">
      <g>
       <use xlink:href="#m79853b45cb" x="842.896297" y="438.748789" style="fill: #111827; stroke: #111827; stroke-width: 0.8"/>
      </g>
     </g>
    </g>
    <g id="xtick_5">
     <g id="line2d_5">
      <g>
       <use xlink:href="#m79853b45cb" x="1084.258746" y="438.748789" style="fill: #111827; stroke: #111827; stroke-width: 0.8"/>
      </g>
     </g>
    </g>
   </g>
   <g id="matplotlib.axis_2">
    <g id="ytick_1">
     <g id="line2d_6">
      <path d="M 84.224688 422.185552 
L 1281.514688 422.185552 
" clip-path="url(#p9977a39b43)" style="fill: none; stroke: #d1d5db; stroke-opacity: 0.55; stroke-width: 0.9; stroke-linecap: square"/>
     </g>
     <g id="line2d_7">
      <defs>
       <path id="m85979b1618" d="M 0 0 
L -4 0 
" style="stroke: #111827; stroke-width: 0.8"/>
      </defs>
      <g>
       <use xlink:href="#m85979b1618" x="84.224688" y="422.185552" style="fill: #111827; stroke: #111827; stroke-width: 0.8"/>
      </g>
     </g>
     <g id="text_1">
      <!-- 0 -->
      <g style="fill: #111827" transform="translate(65.908438 428.644224) scale(0.17 -0.17)">
       <defs>
        <path id="DejaVuSans-30" d="M 2034 4250 
Q 1547 4250 1301 3770 
Q 1056 3291 1056 2328 
Q 1056 1369 1301 889 
Q 1547 409 2034 409 
Q 2525 409 2770 889 
Q 3016 1369 3016 2328 
Q 3016 3291 2770 3770 
Q 2525 4250 2034 4250 
z
M 2034 4750 
Q 2819 4750 3233 4129 
Q 3647 3509 3647 2328 
Q 3647 1150 3233 529 
Q 2819 -91 2034 -91 
Q 1250 -91 836 529 
Q 422 1150 422 2328 
Q 422 3509 836 4129 
Q 1250 4750 2034 4750 
z
" transform="scale(0.015625)"/>
       </defs>
       <use xlink:href="#DejaVuSans-30"/>
      </g>
     </g>
    </g>
    <g id="ytick_2">
     <g id="line2d_8">
      <path d="M 84.224688 378.73152 
L 1281.514688 378.73152 
" clip-path="url(#p9977a39b43)" style="fill: none; stroke: #d1d5db; stroke-opacity: 0.55; stroke-width: 0.9; stroke-linecap: square"/>
     </g>
     <g id="line2d_9">
      <g>
       <use xlink:href="#m85979b1618" x="84.224688" y="378.73152" style="fill: #111827; stroke: #111827; stroke-width: 0.8"/>
      </g>
     </g>
     <g id="text_2">
      <!-- 250 -->
      <g style="fill: #111827" transform="translate(44.275938 385.190192) scale(0.17 -0.17)">
       <defs>
        <path id="DejaVuSans-32" d="M 1228 531 
L 3431 531 
L 3431 0 
L 469 0 
L 469 531 
Q 828 903 1448 1529 
Q 2069 2156 2228 2338 
Q 2531 2678 2651 2914 
Q 2772 3150 2772 3378 
Q 2772 3750 2511 3984 
Q 2250 4219 1831 4219 
Q 1534 4219 1204 4116 
Q 875 4013 500 3803 
L 500 4441 
Q 881 4594 1212 4672 
Q 1544 4750 1819 4750 
Q 2544 4750 2975 4387 
Q 3406 4025 3406 3419 
Q 3406 3131 3298 2873 
Q 3191 2616 2906 2266 
Q 2828 2175 2409 1742 
Q 1991 1309 1228 531 
z
" transform="scale(0.015625)"/>
        <path id="DejaVuSans-35" d="M 691 4666 
L 3169 4666 
L 3169 4134 
L 1269 4134 
L 1269 2991 
Q 1406 3038 1543 3061 
Q 1681 3084 1819 3084 
Q 2600 3084 3056 2656 
Q 3513 2228 3513 1497 
Q 3513 744 3044 326 
Q 2575 -91 1722 -91 
Q 1428 -91 1123 -41 
Q 819 9 494 109 
L 494 744 
Q 775 591 1075 516 
Q 1375 441 1709 441 
Q 2250 441 2565 725 
Q 2881 1009 2881 1497 
Q 2881 1984 2565 2268 
Q 2250 2553 1709 2553 
Q 1456 2553 1204 2497 
Q 953 2441 691 2322 
L 691 4666 
z
" transform="scale(0.015625)"/>
       </defs>
       <use xlink:href="#DejaVuSans-32"/>
       <use xlink:href="#DejaVuSans-35" x="63.623047"/>
       <use xlink:href="#DejaVuSans-30" x="127.246094"/>
      </g>
     </g>
    </g>
    <g id="ytick_3">
     <g id="line2d_10">
      <path d="M 84.224688 335.277488 
L 1281.514688 335.277488 
" clip-path="url(#p9977a39b43)" style="fill: none; stroke: #d1d5db; stroke-opacity: 0.55; stroke-width: 0.9; stroke-linecap: square"/>
     </g>
     <g id="line2d_11">
      <g>
       <use xlink:href="#m85979b1618" x="84.224688" y="335.277488" style="fill: #111827; stroke: #111827; stroke-width: 0.8"/>
      </g>
     </g>
     <g id="text_3">
      <!-- 500 -->
      <g style="fill: #111827" transform="translate(44.275938 341.73616) scale(0.17 -0.17)">
       <use xlink:href="#DejaVuSans-35"/>
       <use xlink:href="#DejaVuSans-30" x="63.623047"/>
       <use xlink:href="#DejaVuSans-30" x="127.246094"/>
      </g>
     </g>
    </g>
    <g id="ytick_4">
     <g id="line2d_12">
      <path d="M 84.224688 291.823456 
L 1281.514688 291.823456 
" clip-path="url(#p9977a39b43)" style="fill: none; stroke: #d1d5db; stroke-opacity: 0.55; stroke-width: 0.9; stroke-linecap: square"/>
     </g>
     <g id="line2d_13">
      <g>
       <use xlink:href="#m85979b1618" x="84.224688" y="291.823456" style="fill: #111827; stroke: #111827; stroke-width: 0.8"/>
      </g>
     </g>
     <g id="text_4">
      <!-- 750 -->
      <g style="fill: #111827" transform="translate(44.275938 298.282128) scale(0.17 -0.17)">
       <defs>
        <path id="DejaVuSans-37" d="M 525 4666 
L 3525 4666 
L 3525 4397 
L 1831 0 
L 1172 0 
L 2766 4134 
L 525 4134 
L 525 4666 
z
" transform="scale(0.015625)"/>
       </defs>
       <use xlink:href="#DejaVuSans-37"/>
       <use xlink:href="#DejaVuSans-35" x="63.623047"/>
       <use xlink:href="#DejaVuSans-30" x="127.246094"/>
      </g>
     </g>
    </g>
    <g id="ytick_5">
     <g id="line2d_14">
      <path d="M 84.224688 248.369424 
L 1281.514688 248.369424 
" clip-path="url(#p9977a39b43)" style="fill: none; stroke: #d1d5db; stroke-opacity: 0.55; stroke-width: 0.9; stroke-linecap: square"/>
     </g>
     <g id="line2d_15">
      <g>
       <use xlink:href="#m85979b1618" x="84.224688" y="248.369424" style="fill: #111827; stroke: #111827; stroke-width: 0.8"/>
      </g>
     </g>
     <g id="text_5">
      <!-- 1000 -->
      <g style="fill: #111827" transform="translate(33.459688 254.828096) scale(0.17 -0.17)">
       <defs>
        <path id="DejaVuSans-31" d="M 794 531 
L 1825 531 
L 1825 4091 
L 703 3866 
L 703 4441 
L 1819 4666 
L 2450 4666 
L 2450 531 
L 3481 531 
L 3481 0 
L 794 0 
L 794 531 
z
" transform="scale(0.015625)"/>
       </defs>
       <use xlink:href="#DejaVuSans-31"/>
       <use xlink:href="#DejaVuSans-30" x="63.623047"/>
       <use xlink:href="#DejaVuSans-30" x="127.246094"/>
       <use xlink:href="#DejaVuSans-30" x="190.869141"/>
      </g>
     </g>
    </g>
    <g id="ytick_6">
     <g id="line2d_16">
      <path d="M 84.224688 204.915392 
L 1281.514688 204.915392 
" clip-path="url(#p9977a39b43)" style="fill: none; stroke: #d1d5db; stroke-opacity: 0.55; stroke-width: 0.9; stroke-linecap: square"/>
     </g>
     <g id="line2d_17">
      <g>
       <use xlink:href="#m85979b1618" x="84.224688" y="204.915392" style="fill: #111827; stroke: #111827; stroke-width: 0.8"/>
      </g>
     </g>
     <g id="text_6">
      <!-- 1250 -->
      <g style="fill: #111827" transform="translate(33.459688 211.374064) scale(0.17 -0.17)">
       <use xlink:href="#DejaVuSans-31"/>
       <use xlink:href="#DejaVuSans-32" x="63.623047"/>
       <use xlink:href="#DejaVuSans-35" x="127.246094"/>
       <use xlink:href="#DejaVuSans-30" x="190.869141"/>
      </g>
     </g>
    </g>
    <g id="ytick_7">
     <g id="line2d_18">
      <path d="M 84.224688 161.46136 
L 1281.514688 161.46136 
" clip-path="url(#p9977a39b43)" style="fill: none; stroke: #d1d5db; stroke-opacity: 0.55; stroke-width: 0.9; stroke-linecap: square"/>
     </g>
     <g id="line2d_19">
      <g>
       <use xlink:href="#m85979b1618" x="84.224688" y="161.46136" style="fill: #111827; stroke: #111827; stroke-width: 0.8"/>
      </g>
     </g>
     <g id="text_7">
      <!-- 1500 -->
      <g style="fill: #111827" transform="translate(33.459688 167.920032) scale(0.17 -0.17)">
       <use xlink:href="#DejaVuSans-31"/>
       <use xlink:href="#DejaVuSans-35" x="63.623047"/>
       <use xlink:href="#DejaVuSans-30" x="127.246094"/>
       <use xlink:href="#DejaVuSans-30" x="190.869141"/>
      </g>
     </g>
    </g>
    <g id="ytick_8">
     <g id="line2d_20">
      <path d="M 84.224688 118.007328 
L 1281.514688 118.007328 
" clip-path="url(#p9977a39b43)" style="fill: none; stroke: #d1d5db; stroke-opacity: 0.55; stroke-width: 0.9; stroke-linecap: square"/>
     </g>
     <g id="line2d_21">
      <g>
       <use xlink:href="#m85979b1618" x="84.224688" y="118.007328" style="fill: #111827; stroke: #111827; stroke-width: 0.8"/>
      </g>
     </g>
     <g id="text_8">
      <!-- 1750 -->
      <g style="fill: #111827" transform="translate(33.459688 124.466) scale(0.17 -0.17)">
       <use xlink:href="#DejaVuSans-31"/>
       <use xlink:href="#DejaVuSans-37" x="63.623047"/>
       <use xlink:href="#DejaVuSans-35" x="127.246094"/>
       <use xlink:href="#DejaVuSans-30" x="190.869141"/>
      </g>
     </g>
    </g>
    <g id="ytick_9">
     <g id="line2d_22">
      <path d="M 84.224688 74.553296 
L 1281.514688 74.553296 
" clip-path="url(#p9977a39b43)" style="fill: none; stroke: #d1d5db; stroke-opacity: 0.55; stroke-width: 0.9; stroke-linecap: square"/>
     </g>
     <g id="line2d_23">
      <g>
       <use xlink:href="#m85979b1618" x="84.224688" y="74.553296" style="fill: #111827; stroke: #111827; stroke-width: 0.8"/>
      </g>
     </g>
     <g id="text_9">
      <!-- 2000 -->
      <g style="fill: #111827" transform="translate(33.459688 81.011968) scale(0.17 -0.17)">
       <use xlink:href="#DejaVuSans-32"/>
       <use xlink:href="#DejaVuSans-30" x="63.623047"/>
       <use xlink:href="#DejaVuSans-30" x="127.246094"/>
       <use xlink:href="#DejaVuSans-30" x="190.869141"/>
      </g>
     </g>
    </g>
    <g id="text_10">
     <!-- 7-day incidence per 100k -->
     <g style="fill: #1f2937" transform="translate(24.676406 402.917637) rotate(-90) scale(0.23 -0.23)">
      <defs>
       <path id="DejaVuSans-2d" d="M 313 2009 
L 1997 2009 
L 1997 1497 
L 313 1497 
L 313 2009 
z
" transform="scale(0.015625)"/>
       <path id="DejaVuSans-64" d="M 2906 2969 
L 2906 4863 
L 3481 4863 
L 3481 0 
L 2906 0 
L 2906 525 
Q 2725 213 2448 61 
Q 2172 -91 1784 -91 
Q 1150 -91 751 415 
Q 353 922 353 1747 
Q 353 2572 751 3078 
Q 1150 3584 1784 3584 
Q 2172 3584 2448 3432 
Q 2725 3281 2906 2969 
z
M 947 1747 
Q 947 1113 1208 752 
Q 1469 391 1925 391 
Q 2381 391 2643 752 
Q 2906 1113 2906 1747 
Q 2906 2381 2643 2742 
Q 2381 3103 1925 3103 
Q 1469 3103 1208 2742 
Q 947 2381 947 1747 
z
" transform="scale(0.015625)"/>
       <path id="DejaVuSans-61" d="M 2194 1759 
Q 1497 1759 1228 1600 
Q 959 1441 959 1056 
Q 959 750 1161 570 
Q 1363 391 1709 391 
Q 2188 391 2477 730 
Q 2766 1069 2766 1631 
L 2766 1759 
L 2194 1759 
z
M 3341 1997 
L 3341 0 
L 2766 0 
L 2766 531 
Q 2569 213 2275 61 
Q 1981 -91 1556 -91 
Q 1019 -91 701 211 
Q 384 513 384 1019 
Q 384 1609 779 1909 
Q 1175 2209 1959 2209 
L 2766 2209 
L 2766 2266 
Q 2766 2663 2505 2880 
Q 2244 3097 1772 3097 
Q 1472 3097 1187 3025 
Q 903 2953 641 2809 
L 641 3341 
Q 956 3463 1253 3523 
Q 1550 3584 1831 3584 
Q 2591 3584 2966 3190 
Q 3341 2797 3341 1997 
z
" transform="scale(0.015625)"/>
       <path id="DejaVuSans-79" d="M 2059 -325 
Q 1816 -950 1584 -1140 
Q 1353 -1331 966 -1331 
L 506 -1331 
L 506 -850 
L 844 -850 
Q 1081 -850 1212 -737 
Q 1344 -625 1503 -206 
L 1606 56 
L 191 3500 
L 800 3500 
L 1894 763 
L 2988 3500 
L 3597 3500 
L 2059 -325 
z
" transform="scale(0.015625)"/>
       <path id="DejaVuSans-20" transform="scale(0.015625)"/>
       <path id="DejaVuSans-69" d="M 603 3500 
L 1178 3500 
L 1178 0 
L 603 0 
L 603 3500 
z
M 603 4863 
L 1178 4863 
L 1178 4134 
L 603 4134 
L 603 4863 
z
" transform="scale(0.015625)"/>
       <path id="DejaVuSans-6e" d="M 3513 2113 
L 3513 0 
L 2938 0 
L 2938 2094 
Q 2938 2591 2744 2837 
Q 2550 3084 2163 3084 
Q 1697 3084 1428 2787 
Q 1159 2491 1159 1978 
L 1159 0 
L 581 0 
L 581 3500 
L 1159 3500 
L 1159 2956 
Q 1366 3272 1645 3428 
Q 1925 3584 2291 3584 
Q 2894 3584 3203 3211 
Q 3513 2838 3513 2113 
z
" transform="scale(0.015625)"/>
       <path id="DejaVuSans-63" d="M 3122 3366 
L 3122 2828 
Q 2878 2963 2633 3030 
Q 2388 3097 2138 3097 
Q 1578 3097 1268 2742 
Q 959 2388 959 1747 
Q 959 1106 1268 751 
Q 1578 397 2138 397 
Q 2388 397 2633 464 
Q 2878 531 3122 666 
L 3122 134 
Q 2881 22 2623 -34 
Q 2366 -91 2075 -91 
Q 1284 -91 818 406 
Q 353 903 353 1747 
Q 353 2603 823 3093 
Q 1294 3584 2113 3584 
Q 2378 3584 2631 3529 
Q 2884 3475 3122 3366 
z
" transform="scale(0.015625)"/>
       <path id="DejaVuSans-65" d="M 3597 1894 
L 3597 1613 
L 953 1613 
Q 991 1019 1311 708 
Q 1631 397 2203 397 
Q 2534 397 2845 478 
Q 3156 559 3463 722 
L 3463 178 
Q 3153 47 2828 -22 
Q 2503 -91 2169 -91 
Q 1331 -91 842 396 
Q 353 884 353 1716 
Q 353 2575 817 3079 
Q 1281 3584 2069 3584 
Q 2775 3584 3186 3129 
Q 3597 2675 3597 1894 
z
M 3022 2063 
Q 3016 2534 2758 2815 
Q 2500 3097 2075 3097 
Q 1594 3097 1305 2825 
Q 1016 2553 972 2059 
L 3022 2063 
z
" transform="scale(0.015625)"/>
       <path id="DejaVuSans-70" d="M 1159 525 
L 1159 -1331 
L 581 -1331 
L 581 3500 
L 1159 3500 
L 1159 2969 
Q 1341 3281 1617 3432 
Q 1894 3584 2278 3584 
Q 2916 3584 3314 3078 
Q 3713 2572 3713 1747 
Q 3713 922 3314 415 
Q 2916 -91 2278 -91 
Q 1894 -91 1617 61 
Q 1341 213 1159 525 
z
M 3116 1747 
Q 3116 2381 2855 2742 
Q 2594 3103 2138 3103 
Q 1681 3103 1420 2742 
Q 1159 2381 1159 1747 
Q 1159 1113 1420 752 
Q 1681 391 2138 391 
Q 2594 391 2855 752 
Q 3116 1113 3116 1747 
z
" transform="scale(0.015625)"/>
       <path id="DejaVuSans-72" d="M 2631 2963 
Q 2534 3019 2420 3045 
Q 2306 3072 2169 3072 
Q 1681 3072 1420 2755 
Q 1159 2438 1159 1844 
L 1159 0 
L 581 0 
L 581 3500 
L 1159 3500 
L 1159 2956 
Q 1341 3275 1631 3429 
Q 1922 3584 2338 3584 
Q 2397 3584 2469 3576 
Q 2541 3569 2628 3553 
L 2631 2963 
z
" transform="scale(0.015625)"/>
       <path id="DejaVuSans-6b" d="M 581 4863 
L 1159 4863 
L 1159 1991 
L 2875 3500 
L 3609 3500 
L 1753 1863 
L 3688 0 
L 2938 0 
L 1159 1709 
L 1159 0 
L 581 0 
L 581 4863 
z
" transform="scale(0.015625)"/>
      </defs>
      <use xlink:href="#DejaVuSans-37"/>
      <use xlink:href="#DejaVuSans-2d" x="63.623047"/>
      <use xlink:href="#DejaVuSans-64" x="99.707031"/>
      <use xlink:href="#DejaVuSans-61" x="163.183594"/>
      <use xlink:href="#DejaVuSans-79" x="224.462891"/>
      <use xlink:href="#DejaVuSans-20" x="283.642578"/>
      <use xlink:href="#DejaVuSans-69" x="315.429688"/>
      <use xlink:href="#DejaVuSans-6e" x="343.212891"/>
      <use xlink:href="#DejaVuSans-63" x="406.591797"/>
      <use xlink:href="#DejaVuSans-69" x="461.572266"/>
      <use xlink:href="#DejaVuSans-64" x="489.355469"/>
      <use xlink:href="#DejaVuSans-65" x="552.832031"/>
      <use xlink:href="#DejaVuSans-6e" x="614.355469"/>
      <use xlink:href="#DejaVuSans-63" x="677.734375"/>
      <use xlink:href="#DejaVuSans-65" x="732.714844"/>
      <use xlink:href="#DejaVuSans-20" x="794.238281"/>
      <use xlink:href="#DejaVuSans-70" x="826.025391"/>
      <use xlink:href="#DejaVuSans-65" x="889.501953"/>
      <use xlink:href="#DejaVuSans-72" x="951.025391"/>
      <use xlink:href="#DejaVuSans-20" x="992.138672"/>
      <use xlink:href="#DejaVuSans-31" x="1023.925781"/>
      <use xlink:href="#DejaVuSans-30" x="1087.548828"/>
      <use xlink:href="#DejaVuSans-30" x="1151.171875"/>
      <use xlink:href="#DejaVuSans-6b" x="1214.794922"/>
     </g>
    </g>
   </g>
   <g id="line2d_24">
    <path d="M 138.64696 422.185344 
L 161.791305 422.156572 
L 162.452572 421.99687 
L 166.420174 421.99687 
L 167.081441 420.842681 
L 171.049042 420.842681 
L 171.710309 417.513961 
L 175.677911 417.513961 
L 176.339178 415.100921 
L 180.30678 415.100921 
L 180.968047 414.666015 
L 184.935649 414.666015 
L 185.596916 416.526145 
L 189.564518 416.526145 
L 190.225785 418.569327 
L 194.193387 418.569327 
L 194.854654 419.610517 
L 198.822256 419.610517 
L 199.483523 420.633984 
L 203.451125 420.633984 
L 204.112392 420.883961 
L 208.079993 420.883961 
L 208.74126 421.190022 
L 212.708862 421.190022 
L 213.370129 421.434161 
L 221.9666 421.51714 
L 222.627867 421.694771 
L 231.224338 421.696022 
L 231.885605 421.31157 
L 235.853207 421.31157 
L 236.514474 421.525271 
L 245.110945 421.624511 
L 247.094745 421.679135 
L 249.739813 421.679135 
L 250.40108 421.550915 
L 254.368682 421.550915 
L 255.029949 421.364943 
L 258.997551 421.364943 
L 259.658818 421.175845 
L 263.62642 421.175845 
L 264.287687 420.920655 
L 268.255289 420.920655 
L 268.916556 420.523694 
L 272.884158 420.523694 
L 273.545425 420.188237 
L 277.513027 420.188237 
L 278.174294 420.341684 
L 286.770764 420.390679 
L 287.432031 420.145497 
L 291.399633 420.145497 
L 292.0609 419.624277 
L 296.028502 419.624277 
L 296.689769 419.461865 
L 300.657371 419.461865 
L 301.318638 418.861002 
L 305.28624 418.861002 
L 305.947507 416.734633 
L 309.915109 416.734633 
L 310.576376 413.422592 
L 314.543978 413.422592 
L 315.205245 406.592316 
L 319.172847 406.592316 
L 319.834114 399.041506 
L 323.801716 399.041506 
L 324.462983 395.980276 
L 328.430584 395.980276 
L 329.091851 395.527857 
L 333.059453 395.527857 
L 334.381987 395.41569 
L 337.688322 395.41569 
L 338.349589 396.51609 
L 342.317191 396.51609 
L 342.978458 395.445296 
L 346.94606 395.445296 
L 347.607327 389.617013 
L 351.574929 389.617013 
L 352.236196 385.785837 
L 356.203798 385.785837 
L 356.865065 393.241577 
L 360.832667 393.241577 
L 361.493934 396.551325 
L 365.461536 396.551325 
L 366.122802 391.849503 
L 370.090404 391.849503 
L 370.751671 397.39028 
L 374.719273 397.39028 
L 375.38054 402.263896 
L 379.348142 402.263896 
L 380.009409 405.887627 
L 383.977011 405.887627 
L 384.638278 408.71806 
L 388.60588 408.71806 
L 389.267147 411.588732 
L 393.234749 411.588732 
L 393.896016 411.275583 
L 397.863618 411.275583 
L 398.524885 410.436001 
L 402.492487 410.436001 
L 403.153754 410.00464 
L 407.121355 410.00464 
L 407.782622 407.301384 
L 411.750224 407.301384 
L 412.411491 402.877477 
L 416.379093 402.877477 
L 417.04036 397.936519 
L 421.007962 397.936519 
L 421.669229 399.250411 
L 425.636831 399.250411 
L 426.298098 397.54477 
L 430.2657 397.54477 
L 430.926967 392.575875 
L 434.894569 392.575875 
L 435.555836 392.021922 
L 439.523438 392.021922 
L 440.184705 396.190432 
L 444.152307 396.190432 
L 444.813574 401.160161 
L 448.781175 401.160161 
L 449.442442 407.435859 
L 453.410044 407.435859 
L 454.071311 411.204488 
L 458.038913 411.204488 
L 458.70018 415.95864 
L 462.667782 415.95864 
L 463.329049 417.87402 
L 467.296651 417.87402 
L 467.957918 419.253794 
L 471.92552 419.253794 
L 472.586787 420.666717 
L 476.554389 420.666717 
L 477.215656 421.172509 
L 485.812126 421.270707 
L 486.473393 421.018645 
L 490.440995 421.018645 
L 491.102262 420.285601 
L 495.069864 420.285601 
L 495.731131 419.549013 
L 499.698733 419.549013 
L 500.36 418.949401 
L 504.327602 418.949401 
L 504.988869 417.927601 
L 508.956471 417.927601 
L 509.617738 415.497882 
L 513.58534 415.497882 
L 514.246607 411.833705 
L 518.214209 411.833705 
L 518.875476 408.347994 
L 522.843078 408.347994 
L 523.504345 406.603783 
L 527.471946 406.603783 
L 528.133213 407.246135 
L 532.100815 407.246135 
L 532.762082 409.369585 
L 536.729684 409.369585 
L 537.390951 411.005799 
L 541.358553 411.005799 
L 542.01982 410.40994 
L 545.987422 410.40994 
L 546.648689 410.088035 
L 550.616291 410.088035 
L 551.277558 408.558984 
L 555.24516 408.558984 
L 555.906427 401.811477 
L 559.874029 401.811477 
L 560.535296 393.6204 
L 564.502897 393.6204 
L 565.164164 385.102205 
L 569.131766 385.102205 
L 569.793033 365.649022 
L 573.760635 365.649022 
L 574.421902 348.869906 
L 578.389504 348.869906 
L 579.050771 338.092327 
L 583.018373 338.092327 
L 583.67964 341.280942 
L 587.647242 341.280942 
L 588.308509 351.714934 
L 592.276111 351.714934 
L 592.937378 365.163453 
L 596.90498 365.163453 
L 597.566247 381.773902 
L 601.533849 381.773902 
L 602.195116 378.674936 
L 606.162717 378.674936 
L 606.823984 351.741203 
L 610.791586 351.741203 
L 611.452853 320.834522 
L 615.420455 320.834522 
L 616.081722 256.059171 
L 620.049324 256.059171 
L 620.710591 189.856511 
L 624.678193 189.856511 
L 625.33946 152.66475 
L 629.307062 152.66475 
L 629.968329 149.098563 
L 633.935931 149.098563 
L 634.597198 173.402845 
L 638.5648 173.402845 
L 639.226067 194.288758 
L 643.193669 194.288758 
L 643.854935 185.758262 
L 647.822537 185.758262 
L 648.483804 127.4156 
L 652.451406 127.4156 
L 653.112673 92.252428 
L 657.080275 92.252428 
L 657.741542 90.920815 
L 661.709144 90.920815 
L 662.370411 152.167506 
L 666.338013 152.167506 
L 666.99928 216.908248 
L 670.966882 216.908248 
L 671.628149 259.784227 
L 675.595751 259.784227 
L 676.257018 269.676775 
L 680.22462 269.676775 
L 680.885887 297.735509 
L 684.853488 297.735509 
L 685.514755 323.89596 
L 689.482357 323.89596 
L 690.143624 336.967117 
L 694.111226 336.967117 
L 694.772493 361.201764 
L 698.740095 361.201764 
L 699.401362 383.165143 
L 703.368964 383.165143 
L 704.030231 371.076591 
L 707.997833 371.076591 
L 708.6591 353.085534 
L 712.626702 353.085534 
L 713.287969 335.915086 
L 717.255571 335.915086 
L 717.916838 302.466519 
L 721.88444 302.466519 
L 722.545706 292.344217 
L 726.513308 292.344217 
L 727.174575 290.973826 
L 731.142177 290.973826 
L 731.803444 281.429036 
L 735.771046 281.429036 
L 736.432313 291.426245 
L 740.399915 291.426245 
L 741.061182 318.831995 
L 745.028784 318.831995 
L 745.690051 346.517744 
L 749.657653 346.517744 
L 750.31892 359.995244 
L 754.286522 359.995244 
L 754.947789 367.284611 
L 758.915391 367.284611 
L 759.576658 374.654662 
L 763.544259 374.654662 
L 764.205526 380.121635 
L 768.173128 380.121635 
L 768.834395 379.636483 
L 772.801997 379.636483 
L 773.463264 374.459934 
L 777.430866 374.459934 
L 778.092133 362.446438 
L 782.059735 362.446438 
L 782.721002 326.520408 
L 786.688604 326.520408 
L 787.349871 298.328449 
L 791.317473 298.328449 
L 791.97874 287.713699 
L 795.946342 287.713699 
L 796.607609 308.639641 
L 800.575211 308.639641 
L 801.236478 344.231256 
L 805.204079 344.231256 
L 805.865346 371.402457 
L 809.832948 371.402457 
L 810.494215 380.067845 
L 814.461817 380.067845 
L 815.123084 386.812015 
L 819.090686 386.812015 
L 819.751953 386.619789 
L 823.719555 386.619789 
L 824.380822 383.651754 
L 828.348424 383.651754 
L 829.009691 380.59115 
L 832.977293 380.59115 
L 833.63856 375.702523 
L 837.606162 375.702523 
L 838.267429 374.077776 
L 842.23503 374.077776 
L 842.896297 390.585649 
L 846.863899 390.585649 
L 847.525166 395.016227 
L 851.492768 395.016227 
L 852.154035 403.611563 
L 856.121637 403.611563 
L 856.782904 409.078536 
L 860.750506 409.078536 
L 861.411773 406.903797 
L 865.379375 406.903797 
L 866.040642 404.621896 
L 870.008244 404.621896 
L 870.669511 404.131532 
L 874.637113 404.131532 
L 875.29838 401.784999 
L 879.265982 401.784999 
L 879.927249 398.535922 
L 883.89485 398.535922 
L 884.556117 404.188658 
L 888.523719 404.188658 
L 889.184986 413.062533 
L 893.152588 413.062533 
L 893.813855 413.782026 
L 897.781457 413.782026 
L 898.442724 415.380712 
L 902.410326 415.380712 
L 903.071593 417.462882 
L 907.039195 417.462882 
L 907.700462 419.125156 
L 911.668064 419.125156 
L 912.329331 419.465826 
L 916.296933 419.465826 
L 916.9582 419.794612 
L 920.925801 419.794612 
L 921.587068 420.268922 
L 925.55467 420.268922 
L 926.215937 420.65108 
L 930.183539 420.65108 
L 930.844806 420.787014 
L 934.812408 420.787014 
L 935.473675 421.276753 
L 944.070146 421.294891 
L 944.731413 421.608666 
L 953.327884 421.686849 
L 954.650418 421.765657 
L 962.585621 421.866982 
L 963.908155 421.956424 
L 967.21449 421.956424 
L 967.875757 422.185552 
L 971.843359 422.185552 
L 971.843359 422.185552 
" clip-path="url(#p9977a39b43)" style="fill: none; stroke: #0072b2; stroke-width: 2.6; stroke-linecap: square"/>
   </g>
   <g id="line2d_25">
    <path d="M 138.64696 422.185552 
L 171.049042 422.143251 
L 171.710309 421.997594 
L 175.677911 421.997594 
L 176.339178 421.7041 
L 180.30678 421.7041 
L 180.968047 421.318154 
L 184.935649 421.318154 
L 185.596916 420.995877 
L 189.564518 420.995877 
L 190.225785 421.144587 
L 198.822256 421.081789 
L 199.483523 421.268875 
L 208.079993 421.192994 
L 208.74126 421.049081 
L 226.595469 421.132376 
L 227.256736 420.86374 
L 231.224338 420.86374 
L 231.885605 421.05039 
L 235.853207 421.05039 
L 236.514474 421.272363 
L 245.110945 421.311176 
L 246.433479 421.399704 
L 249.739813 421.399704 
L 250.40108 421.215235 
L 254.368682 421.215235 
L 255.029949 420.931335 
L 258.997551 420.931335 
L 259.658818 420.561524 
L 263.62642 420.561524 
L 264.287687 420.083125 
L 272.884158 420.038643 
L 274.206692 419.965378 
L 282.141896 419.979769 
L 282.803163 420.376618 
L 286.770764 420.376618 
L 287.432031 420.762565 
L 291.399633 420.762565 
L 292.0609 420.144614 
L 296.028502 420.144614 
L 296.689769 418.849404 
L 300.657371 418.849404 
L 301.318638 416.882603 
L 305.28624 416.882603 
L 305.947507 411.938126 
L 309.915109 411.938126 
L 310.576376 402.302981 
L 314.543978 402.302981 
L 315.205245 389.602069 
L 319.172847 389.602069 
L 319.834114 367.767088 
L 323.801716 367.767088 
L 324.462983 346.780318 
L 328.430584 346.780318 
L 329.091851 342.1712 
L 333.059453 342.1712 
L 333.72072 352.327918 
L 337.688322 352.327918 
L 338.349589 376.86278 
L 342.317191 376.86278 
L 342.978458 388.020342 
L 346.94606 388.020342 
L 347.607327 390.685772 
L 351.574929 390.685772 
L 352.236196 392.961766 
L 356.203798 392.961766 
L 356.865065 398.155255 
L 360.832667 398.155255 
L 361.493934 395.509886 
L 365.461536 395.509886 
L 366.122802 392.963075 
L 370.090404 392.963075 
L 370.751671 400.405956 
L 374.719273 400.405956 
L 375.38054 404.819266 
L 379.348142 404.819266 
L 380.009409 405.752515 
L 383.977011 405.752515 
L 384.638278 406.105318 
L 388.60588 406.105318 
L 389.267147 405.309876 
L 393.234749 405.309876 
L 393.896016 400.462212 
L 397.863618 400.462212 
L 398.524885 392.432344 
L 402.492487 392.432344 
L 403.153754 383.839036 
L 407.121355 383.839036 
L 407.782622 373.555414 
L 411.750224 373.555414 
L 412.411491 355.953635 
L 416.379093 355.953635 
L 417.04036 338.628778 
L 421.007962 338.628778 
L 421.669229 340.405876 
L 425.636831 340.405876 
L 426.298098 362.880612 
L 430.2657 362.880612 
L 430.926967 372.725084 
L 434.894569 372.725084 
L 435.555836 391.310264 
L 439.523438 391.310264 
L 440.184705 402.84069 
L 444.152307 402.84069 
L 444.813574 409.184605 
L 448.781175 409.184605 
L 449.442442 412.824277 
L 453.410044 412.824277 
L 454.071311 417.151675 
L 458.038913 417.151675 
L 458.70018 419.413715 
L 462.667782 419.413715 
L 463.329049 420.788731 
L 467.296651 420.788731 
L 467.957918 421.22134 
L 471.92552 421.22134 
L 472.586787 421.616444 
L 476.554389 421.616444 
L 477.215656 421.803094 
L 485.812126 421.909066 
L 488.457194 421.94221 
L 499.698733 421.865892 
L 501.021267 421.800914 
L 508.956471 421.718927 
L 510.279005 421.644791 
L 518.214209 421.58679 
L 519.536743 421.497826 
L 522.843078 421.497826 
L 523.504345 421.202588 
L 527.471946 421.202588 
L 528.133213 420.804866 
L 532.100815 420.804866 
L 532.762082 420.317309 
L 536.729684 420.317309 
L 537.390951 419.872925 
L 541.358553 419.872925 
L 542.01982 418.856382 
L 545.987422 418.856382 
L 546.648689 417.155164 
L 550.616291 417.155164 
L 551.277558 414.688595 
L 555.24516 414.688595 
L 555.906427 407.651721 
L 559.874029 407.651721 
L 560.535296 399.384615 
L 564.502897 399.384615 
L 565.164164 387.760428 
L 569.131766 387.760428 
L 569.793033 378.452356 
L 573.760635 378.452356 
L 574.421902 360.799554 
L 578.389504 360.799554 
L 579.050771 351.419526 
L 583.018373 351.419526 
L 583.67964 350.866554 
L 587.647242 350.866554 
L 588.308509 353.795387 
L 592.276111 353.795387 
L 592.937378 365.230307 
L 596.90498 365.230307 
L 597.566247 382.490186 
L 601.533849 382.490186 
L 602.195116 388.353085 
L 606.162717 388.353085 
L 606.823984 384.780572 
L 610.791586 384.780572 
L 611.452853 378.640315 
L 615.420455 378.640315 
L 616.081722 332.721397 
L 620.049324 332.721397 
L 620.710591 276.362298 
L 624.678193 276.362298 
L 625.33946 286.512038 
L 629.307062 286.512038 
L 629.968329 319.229403 
L 633.935931 319.229403 
L 634.597198 355.721195 
L 638.5648 355.721195 
L 639.226067 375.651736 
L 643.193669 375.651736 
L 643.854935 386.743884 
L 647.822537 386.743884 
L 648.483804 388.639601 
L 652.451406 388.639601 
L 653.112673 390.576311 
L 657.080275 390.576311 
L 657.741542 399.459187 
L 661.709144 399.459187 
L 662.370411 410.660359 
L 666.338013 410.660359 
L 666.99928 418.423772 
L 670.966882 418.423772 
L 671.628149 419.111063 
L 675.595751 419.111063 
L 676.257018 419.588154 
L 680.22462 419.588154 
L 680.885887 419.763029 
L 684.853488 419.763029 
L 685.514755 420.582021 
L 689.482357 420.582021 
L 690.143624 420.868973 
L 694.111226 420.868973 
L 694.772493 421.269747 
L 698.740095 421.269747 
L 699.401362 421.476021 
L 712.626702 421.559316 
L 713.949236 421.663979 
L 717.255571 421.663979 
L 717.916838 421.383132 
L 721.88444 421.383132 
L 722.545706 420.731166 
L 726.513308 420.731166 
L 727.174575 419.647463 
L 731.142177 419.647463 
L 731.803444 417.715114 
L 735.771046 417.715114 
L 736.432313 414.948509 
L 740.399915 414.948509 
L 741.061182 413.175335 
L 745.028784 413.175335 
L 745.690051 411.444463 
L 749.657653 411.444463 
L 750.31892 411.279182 
L 754.286522 411.279182 
L 754.947789 411.52863 
L 758.915391 411.52863 
L 759.576658 411.919374 
L 763.544259 411.919374 
L 764.205526 413.343669 
L 768.173128 413.343669 
L 768.834395 411.205046 
L 772.801997 411.205046 
L 773.463264 408.19946 
L 777.430866 408.19946 
L 778.092133 409.673034 
L 782.059735 409.673034 
L 782.721002 411.660332 
L 786.688604 411.660332 
L 787.349871 414.439147 
L 791.317473 414.439147 
L 791.97874 417.12769 
L 795.946342 417.12769 
L 796.607609 418.632663 
L 800.575211 418.632663 
L 801.236478 419.82888 
L 805.204079 419.82888 
L 805.865346 420.663135 
L 809.832948 420.663135 
L 810.494215 421.0783 
L 823.719555 421.10621 
L 824.380822 420.837574 
L 832.977293 420.838446 
L 833.63856 420.395371 
L 842.23503 420.488696 
L 842.896297 420.807483 
L 846.863899 420.807483 
L 847.525166 421.037307 
L 851.492768 421.037307 
L 852.154035 421.287191 
L 860.750506 421.27716 
L 861.411773 420.926102 
L 865.379375 420.926102 
L 866.040642 420.112343 
L 870.008244 420.112343 
L 870.669511 419.283321 
L 874.637113 419.283321 
L 875.29838 417.561607 
L 879.265982 417.561607 
L 879.927249 415.656732 
L 883.89485 415.656732 
L 884.556117 414.744851 
L 888.523719 414.744851 
L 889.184986 413.295698 
L 897.781457 413.31227 
L 898.442724 415.47706 
L 902.410326 415.47706 
L 903.071593 418.104549 
L 907.039195 418.104549 
L 907.700462 419.407609 
L 911.668064 419.407609 
L 912.329331 420.148539 
L 916.296933 420.148539 
L 916.9582 420.783498 
L 920.925801 420.783498 
L 921.587068 421.35653 
L 925.55467 421.35653 
L 926.215937 421.778673 
L 934.812408 421.834493 
L 936.134942 421.901216 
L 944.070146 421.963142 
L 946.053947 422.017218 
L 962.585621 422.107491 
L 965.230689 422.140634 
L 1004.245441 422.075655 
L 1006.229242 422.024632 
L 1013.503179 421.950495 
L 1014.164446 421.778673 
L 1018.132048 421.778673 
L 1018.793315 421.652641 
L 1032.018655 421.561496 
L 1032.679922 421.426742 
L 1036.647524 421.426742 
L 1037.308791 421.097488 
L 1041.276392 421.097488 
L 1041.937659 420.468199 
L 1045.905261 420.468199 
L 1046.566528 420.327339 
L 1050.53413 420.327339 
L 1051.195397 419.469971 
L 1055.162999 419.469971 
L 1055.824266 418.930954 
L 1059.791868 418.930954 
L 1060.453135 417.951042 
L 1064.420737 417.951042 
L 1065.082004 416.467874 
L 1069.049606 416.467874 
L 1069.710873 414.768837 
L 1073.678475 414.768837 
L 1074.339742 414.172691 
L 1078.307344 414.172691 
L 1078.968611 415.402487 
L 1082.936212 415.402487 
L 1083.597479 418.950143 
L 1087.565081 418.950143 
L 1088.226348 418.429442 
L 1092.19395 418.429442 
L 1092.855217 420.016402 
L 1096.822819 420.016402 
L 1097.484086 420.325595 
L 1101.451688 420.325595 
L 1102.112955 420.681887 
L 1106.080557 420.681887 
L 1106.741824 421.141534 
L 1110.709426 421.141534 
L 1111.370693 421.403629 
L 1115.338295 421.403629 
L 1115.999562 421.618625 
L 1124.596032 421.702792 
L 1125.257299 421.887697 
L 1133.85377 421.981894 
L 1135.837571 422.019835 
L 1156.998115 422.126243 
L 1160.304449 422.148484 
L 1198.657934 422.074347 
L 1199.980468 422.017654 
L 1212.544541 421.959217 
L 1213.205808 421.841907 
L 1221.802279 421.786959 
L 1222.463546 421.444622 
L 1226.431148 421.444622 
L 1227.092415 421.111443 
L 1227.092415 421.111443 
" clip-path="url(#p9977a39b43)" style="fill: none; stroke: #d55e00; stroke-width: 2.6; stroke-linecap: square"/>
   </g>
   <g id="patch_3">
    <path d="M 84.224688 438.748789 
L 84.224688 74.357578 
" style="fill: none; stroke: #9ca3af; stroke-linejoin: miter; stroke-linecap: square"/>
   </g>
   <g id="patch_4">
    <path d="M 84.224688 438.748789 
L 1281.514688 438.748789 
" style="fill: none; stroke: #9ca3af; stroke-linejoin: miter; stroke-linecap: square"/>
   </g>
   <g id="legend_1">
    <g id="patch_5">
     <path d="M 1154.070938 130.391953 
L 1271.014688 130.391953 
Q 1274.014688 130.391953 1274.014688 127.391953 
L 1274.014688 84.857578 
Q 1274.014688 81.857578 1271.014688 81.857578 
L 1154.070938 81.857578 
Q 1151.070938 81.857578 1151.070938 84.857578 
L 1151.070938 127.391953 
Q 1151.070938 130.391953 1154.070938 130.391953 
z
" style="fill: #ffffff; opacity: 0.8; stroke: #cccccc; stroke-linejoin: miter"/>
    </g>
    <g id="line2d_26">
     <path d="M 1157.070938 94.005234 
L 1172.070938 94.005234 
L 1187.070938 94.005234 
" style="fill: none; stroke: #0072b2; stroke-width: 2.6; stroke-linecap: square"/>
    </g>
    <g id="text_11">
     <!-- Germany -->
     <g transform="translate(1199.070938 99.255234) scale(0.15 -0.15)">
      <defs>
       <path id="DejaVuSans-47" d="M 3809 666 
L 3809 1919 
L 2778 1919 
L 2778 2438 
L 4434 2438 
L 4434 434 
Q 4069 175 3628 42 
Q 3188 -91 2688 -91 
Q 1594 -91 976 548 
Q 359 1188 359 2328 
Q 359 3472 976 4111 
Q 1594 4750 2688 4750 
Q 3144 4750 3555 4637 
Q 3966 4525 4313 4306 
L 4313 3634 
Q 3963 3931 3569 4081 
Q 3175 4231 2741 4231 
Q 1884 4231 1454 3753 
Q 1025 3275 1025 2328 
Q 1025 1384 1454 906 
Q 1884 428 2741 428 
Q 3075 428 3337 486 
Q 3600 544 3809 666 
z
" transform="scale(0.015625)"/>
       <path id="DejaVuSans-6d" d="M 3328 2828 
Q 3544 3216 3844 3400 
Q 4144 3584 4550 3584 
Q 5097 3584 5394 3201 
Q 5691 2819 5691 2113 
L 5691 0 
L 5113 0 
L 5113 2094 
Q 5113 2597 4934 2840 
Q 4756 3084 4391 3084 
Q 3944 3084 3684 2787 
Q 3425 2491 3425 1978 
L 3425 0 
L 2847 0 
L 2847 2094 
Q 2847 2600 2669 2842 
Q 2491 3084 2119 3084 
Q 1678 3084 1418 2786 
Q 1159 2488 1159 1978 
L 1159 0 
L 581 0 
L 581 3500 
L 1159 3500 
L 1159 2956 
Q 1356 3278 1631 3431 
Q 1906 3584 2284 3584 
Q 2666 3584 2933 3390 
Q 3200 3197 3328 2828 
z
" transform="scale(0.015625)"/>
      </defs>
      <use xlink:href="#DejaVuSans-47"/>
      <use xlink:href="#DejaVuSans-65" x="77.490234"/>
      <use xlink:href="#DejaVuSans-72" x="139.013672"/>
      <use xlink:href="#DejaVuSans-6d" x="178.376953"/>
      <use xlink:href="#DejaVuSans-61" x="275.789062"/>
      <use xlink:href="#DejaVuSans-6e" x="337.068359"/>
      <use xlink:href="#DejaVuSans-79" x="400.447266"/>
     </g>
    </g>
    <g id="line2d_27">
     <path d="M 1157.070938 116.022422 
L 1172.070938 116.022422 
L 1187.070938 116.022422 
" style="fill: none; stroke: #d55e00; stroke-width: 2.6; stroke-linecap: square"/>
    </g>
    <g id="text_12">
     <!-- Poland -->
     <g transform="translate(1199.070938 121.272422) scale(0.15 -0.15)">
      <defs>
       <path id="DejaVuSans-50" d="M 1259 4147 
L 1259 2394 
L 2053 2394 
Q 2494 2394 2734 2622 
Q 2975 2850 2975 3272 
Q 2975 3691 2734 3919 
Q 2494 4147 2053 4147 
L 1259 4147 
z
M 628 4666 
L 2053 4666 
Q 2838 4666 3239 4311 
Q 3641 3956 3641 3272 
Q 3641 2581 3239 2228 
Q 2838 1875 2053 1875 
L 1259 1875 
L 1259 0 
L 628 0 
L 628 4666 
z
" transform="scale(0.015625)"/>
       <path id="DejaVuSans-6f" d="M 1959 3097 
Q 1497 3097 1228 2736 
Q 959 2375 959 1747 
Q 959 1119 1226 758 
Q 1494 397 1959 397 
Q 2419 397 2687 759 
Q 2956 1122 2956 1747 
Q 2956 2369 2687 2733 
Q 2419 3097 1959 3097 
z
M 1959 3584 
Q 2709 3584 3137 3096 
Q 3566 2609 3566 1747 
Q 3566 888 3137 398 
Q 2709 -91 1959 -91 
Q 1206 -91 779 398 
Q 353 888 353 1747 
Q 353 2609 779 3096 
Q 1206 3584 1959 3584 
z
" transform="scale(0.015625)"/>
       <path id="DejaVuSans-6c" d="M 603 4863 
L 1178 4863 
L 1178 0 
L 603 0 
L 603 4863 
z
" transform="scale(0.015625)"/>
      </defs>
      <use xlink:href="#DejaVuSans-50"/>
      <use xlink:href="#DejaVuSans-6f" x="56.677734"/>
      <use xlink:href="#DejaVuSans-6c" x="117.859375"/>
      <use xlink:href="#DejaVuSans-61" x="145.642578"/>
      <use xlink:href="#DejaVuSans-6e" x="206.921875"/>
      <use xlink:href="#DejaVuSans-64" x="270.300781"/>
     </g>
    </g>
   </g>
  </g>
  <g id="axes_2">
   <g id="patch_6">
    <path d="M 84.224688 817.94 
L 1281.514688 817.94 
L 1281.514688 453.548789 
L 84.224688 453.548789 
z
" style="fill: #ffffff"/>
   </g>
   <g id="matplotlib.axis_3">
    <g id="xtick_6">
     <g id="line2d_28">
      <g>
       <use xlink:href="#m79853b45cb" x="118.147684" y="817.94" style="fill: #111827; stroke: #111827; stroke-width: 0.8"/>
      </g>
     </g>
     <g id="text_13">
      <!-- 2020 -->
      <g style="fill: #111827" transform="translate(96.515184 838.357344) scale(0.17 -0.17)">
       <use xlink:href="#DejaVuSans-32"/>
       <use xlink:href="#DejaVuSans-30" x="63.623047"/>
       <use xlink:href="#DejaVuSans-32" x="127.246094"/>
       <use xlink:href="#DejaVuSans-30" x="190.869141"/>
      </g>
     </g>
    </g>
    <g id="xtick_7">
     <g id="line2d_29">
      <g>
       <use xlink:href="#m79853b45cb" x="360.1714" y="817.94" style="fill: #111827; stroke: #111827; stroke-width: 0.8"/>
      </g>
     </g>
     <g id="text_14">
      <!-- 2021 -->
      <g style="fill: #111827" transform="translate(338.5389 838.357344) scale(0.17 -0.17)">
       <use xlink:href="#DejaVuSans-32"/>
       <use xlink:href="#DejaVuSans-30" x="63.623047"/>
       <use xlink:href="#DejaVuSans-32" x="127.246094"/>
       <use xlink:href="#DejaVuSans-31" x="190.869141"/>
      </g>
     </g>
    </g>
    <g id="xtick_8">
     <g id="line2d_30">
      <g>
       <use xlink:href="#m79853b45cb" x="601.533849" y="817.94" style="fill: #111827; stroke: #111827; stroke-width: 0.8"/>
      </g>
     </g>
     <g id="text_15">
      <!-- 2022 -->
      <g style="fill: #111827" transform="translate(579.901349 838.357344) scale(0.17 -0.17)">
       <use xlink:href="#DejaVuSans-32"/>
       <use xlink:href="#DejaVuSans-30" x="63.623047"/>
       <use xlink:href="#DejaVuSans-32" x="127.246094"/>
       <use xlink:href="#DejaVuSans-32" x="190.869141"/>
      </g>
     </g>
    </g>
    <g id="xtick_9">
     <g id="line2d_31">
      <g>
       <use xlink:href="#m79853b45cb" x="842.896297" y="817.94" style="fill: #111827; stroke: #111827; stroke-width: 0.8"/>
      </g>
     </g>
     <g id="text_16">
      <!-- 2023 -->
      <g style="fill: #111827" transform="translate(821.263797 838.357344) scale(0.17 -0.17)">
       <defs>
        <path id="DejaVuSans-33" d="M 2597 2516 
Q 3050 2419 3304 2112 
Q 3559 1806 3559 1356 
Q 3559 666 3084 287 
Q 2609 -91 1734 -91 
Q 1441 -91 1130 -33 
Q 819 25 488 141 
L 488 750 
Q 750 597 1062 519 
Q 1375 441 1716 441 
Q 2309 441 2620 675 
Q 2931 909 2931 1356 
Q 2931 1769 2642 2001 
Q 2353 2234 1838 2234 
L 1294 2234 
L 1294 2753 
L 1863 2753 
Q 2328 2753 2575 2939 
Q 2822 3125 2822 3475 
Q 2822 3834 2567 4026 
Q 2313 4219 1838 4219 
Q 1578 4219 1281 4162 
Q 984 4106 628 3988 
L 628 4550 
Q 988 4650 1302 4700 
Q 1616 4750 1894 4750 
Q 2613 4750 3031 4423 
Q 3450 4097 3450 3541 
Q 3450 3153 3228 2886 
Q 3006 2619 2597 2516 
z
" transform="scale(0.015625)"/>
       </defs>
       <use xlink:href="#DejaVuSans-32"/>
       <use xlink:href="#DejaVuSans-30" x="63.623047"/>
       <use xlink:href="#DejaVuSans-32" x="127.246094"/>
       <use xlink:href="#DejaVuSans-33" x="190.869141"/>
      </g>
     </g>
    </g>
    <g id="xtick_10">
     <g id="line2d_32">
      <g>
       <use xlink:href="#m79853b45cb" x="1084.258746" y="817.94" style="fill: #111827; stroke: #111827; stroke-width: 0.8"/>
      </g>
     </g>
     <g id="text_17">
      <!-- 2024 -->
      <g style="fill: #111827" transform="translate(1062.626246 838.357344) scale(0.17 -0.17)">
       <defs>
        <path id="DejaVuSans-34" d="M 2419 4116 
L 825 1625 
L 2419 1625 
L 2419 4116 
z
M 2253 4666 
L 3047 4666 
L 3047 1625 
L 3713 1625 
L 3713 1100 
L 3047 1100 
L 3047 0 
L 2419 0 
L 2419 1100 
L 313 1100 
L 313 1709 
L 2253 4666 
z
" transform="scale(0.015625)"/>
       </defs>
       <use xlink:href="#DejaVuSans-32"/>
       <use xlink:href="#DejaVuSans-30" x="63.623047"/>
       <use xlink:href="#DejaVuSans-32" x="127.246094"/>
       <use xlink:href="#DejaVuSans-34" x="190.869141"/>
      </g>
     </g>
    </g>
    <g id="text_18">
     <!-- Date -->
     <g style="fill: #1f2937" transform="translate(655.382891 863.369219) scale(0.23 -0.23)">
      <defs>
       <path id="DejaVuSans-44" d="M 1259 4147 
L 1259 519 
L 2022 519 
Q 2988 519 3436 956 
Q 3884 1394 3884 2338 
Q 3884 3275 3436 3711 
Q 2988 4147 2022 4147 
L 1259 4147 
z
M 628 4666 
L 1925 4666 
Q 3281 4666 3915 4102 
Q 4550 3538 4550 2338 
Q 4550 1131 3912 565 
Q 3275 0 1925 0 
L 628 0 
L 628 4666 
z
" transform="scale(0.015625)"/>
       <path id="DejaVuSans-74" d="M 1172 4494 
L 1172 3500 
L 2356 3500 
L 2356 3053 
L 1172 3053 
L 1172 1153 
Q 1172 725 1289 603 
Q 1406 481 1766 481 
L 2356 481 
L 2356 0 
L 1766 0 
Q 1100 0 847 248 
Q 594 497 594 1153 
L 594 3053 
L 172 3053 
L 172 3500 
L 594 3500 
L 594 4494 
L 1172 4494 
z
" transform="scale(0.015625)"/>
      </defs>
      <use xlink:href="#DejaVuSans-44"/>
      <use xlink:href="#DejaVuSans-61" x="77.001953"/>
      <use xlink:href="#DejaVuSans-74" x="138.28125"/>
      <use xlink:href="#DejaVuSans-65" x="177.490234"/>
     </g>
    </g>
   </g>
   <g id="matplotlib.axis_4">
    <g id="ytick_10">
     <g id="line2d_33">
      <path d="M 84.224688 801.376763 
L 1281.514688 801.376763 
" clip-path="url(#p2889741ce3)" style="fill: none; stroke: #d1d5db; stroke-opacity: 0.55; stroke-width: 0.9; stroke-linecap: square"/>
     </g>
     <g id="line2d_34">
      <g>
       <use xlink:href="#m85979b1618" x="84.224688" y="801.376763" style="fill: #111827; stroke: #111827; stroke-width: 0.8"/>
      </g>
     </g>
     <g id="text_19">
      <!-- 0 -->
      <g style="fill: #111827" transform="translate(65.908438 807.835435) scale(0.17 -0.17)">
       <use xlink:href="#DejaVuSans-30"/>
      </g>
     </g>
    </g>
    <g id="ytick_11">
     <g id="line2d_35">
      <path d="M 84.224688 731.388603 
L 1281.514688 731.388603 
" clip-path="url(#p2889741ce3)" style="fill: none; stroke: #d1d5db; stroke-opacity: 0.55; stroke-width: 0.9; stroke-linecap: square"/>
     </g>
     <g id="line2d_36">
      <g>
       <use xlink:href="#m85979b1618" x="84.224688" y="731.388603" style="fill: #111827; stroke: #111827; stroke-width: 0.8"/>
      </g>
     </g>
     <g id="text_20">
      <!-- 2 -->
      <g style="fill: #111827" transform="translate(65.908438 737.847275) scale(0.17 -0.17)">
       <use xlink:href="#DejaVuSans-32"/>
      </g>
     </g>
    </g>
    <g id="ytick_12">
     <g id="line2d_37">
      <path d="M 84.224688 661.400444 
L 1281.514688 661.400444 
" clip-path="url(#p2889741ce3)" style="fill: none; stroke: #d1d5db; stroke-opacity: 0.55; stroke-width: 0.9; stroke-linecap: square"/>
     </g>
     <g id="line2d_38">
      <g>
       <use xlink:href="#m85979b1618" x="84.224688" y="661.400444" style="fill: #111827; stroke: #111827; stroke-width: 0.8"/>
      </g>
     </g>
     <g id="text_21">
      <!-- 4 -->
      <g style="fill: #111827" transform="translate(65.908438 667.859116) scale(0.17 -0.17)">
       <use xlink:href="#DejaVuSans-34"/>
      </g>
     </g>
    </g>
    <g id="ytick_13">
     <g id="line2d_39">
      <path d="M 84.224688 591.412284 
L 1281.514688 591.412284 
" clip-path="url(#p2889741ce3)" style="fill: none; stroke: #d1d5db; stroke-opacity: 0.55; stroke-width: 0.9; stroke-linecap: square"/>
     </g>
     <g id="line2d_40">
      <g>
       <use xlink:href="#m85979b1618" x="84.224688" y="591.412284" style="fill: #111827; stroke: #111827; stroke-width: 0.8"/>
      </g>
     </g>
     <g id="text_22">
      <!-- 6 -->
      <g style="fill: #111827" transform="translate(65.908438 597.870956) scale(0.17 -0.17)">
       <defs>
        <path id="DejaVuSans-36" d="M 2113 2584 
Q 1688 2584 1439 2293 
Q 1191 2003 1191 1497 
Q 1191 994 1439 701 
Q 1688 409 2113 409 
Q 2538 409 2786 701 
Q 3034 994 3034 1497 
Q 3034 2003 2786 2293 
Q 2538 2584 2113 2584 
z
M 3366 4563 
L 3366 3988 
Q 3128 4100 2886 4159 
Q 2644 4219 2406 4219 
Q 1781 4219 1451 3797 
Q 1122 3375 1075 2522 
Q 1259 2794 1537 2939 
Q 1816 3084 2150 3084 
Q 2853 3084 3261 2657 
Q 3669 2231 3669 1497 
Q 3669 778 3244 343 
Q 2819 -91 2113 -91 
Q 1303 -91 875 529 
Q 447 1150 447 2328 
Q 447 3434 972 4092 
Q 1497 4750 2381 4750 
Q 2619 4750 2861 4703 
Q 3103 4656 3366 4563 
z
" transform="scale(0.015625)"/>
       </defs>
       <use xlink:href="#DejaVuSans-36"/>
      </g>
     </g>
    </g>
    <g id="ytick_14">
     <g id="line2d_41">
      <path d="M 84.224688 521.424124 
L 1281.514688 521.424124 
" clip-path="url(#p2889741ce3)" style="fill: none; stroke: #d1d5db; stroke-opacity: 0.55; stroke-width: 0.9; stroke-linecap: square"/>
     </g>
     <g id="line2d_42">
      <g>
       <use xlink:href="#m85979b1618" x="84.224688" y="521.424124" style="fill: #111827; stroke: #111827; stroke-width: 0.8"/>
      </g>
     </g>
     <g id="text_23">
      <!-- 8 -->
      <g style="fill: #111827" transform="translate(65.908438 527.882796) scale(0.17 -0.17)">
       <defs>
        <path id="DejaVuSans-38" d="M 2034 2216 
Q 1584 2216 1326 1975 
Q 1069 1734 1069 1313 
Q 1069 891 1326 650 
Q 1584 409 2034 409 
Q 2484 409 2743 651 
Q 3003 894 3003 1313 
Q 3003 1734 2745 1975 
Q 2488 2216 2034 2216 
z
M 1403 2484 
Q 997 2584 770 2862 
Q 544 3141 544 3541 
Q 544 4100 942 4425 
Q 1341 4750 2034 4750 
Q 2731 4750 3128 4425 
Q 3525 4100 3525 3541 
Q 3525 3141 3298 2862 
Q 3072 2584 2669 2484 
Q 3125 2378 3379 2068 
Q 3634 1759 3634 1313 
Q 3634 634 3220 271 
Q 2806 -91 2034 -91 
Q 1263 -91 848 271 
Q 434 634 434 1313 
Q 434 1759 690 2068 
Q 947 2378 1403 2484 
z
M 1172 3481 
Q 1172 3119 1398 2916 
Q 1625 2713 2034 2713 
Q 2441 2713 2670 2916 
Q 2900 3119 2900 3481 
Q 2900 3844 2670 4047 
Q 2441 4250 2034 4250 
Q 1625 4250 1398 4047 
Q 1172 3844 1172 3481 
z
" transform="scale(0.015625)"/>
       </defs>
       <use xlink:href="#DejaVuSans-38"/>
      </g>
     </g>
    </g>
    <g id="text_24">
     <!-- 7-day deaths per 100k -->
     <g style="fill: #1f2937" transform="translate(57.125156 766.255019) rotate(-90) scale(0.23 -0.23)">
      <defs>
       <path id="DejaVuSans-68" d="M 3513 2113 
L 3513 0 
L 2938 0 
L 2938 2094 
Q 2938 2591 2744 2837 
Q 2550 3084 2163 3084 
Q 1697 3084 1428 2787 
Q 1159 2491 1159 1978 
L 1159 0 
L 581 0 
L 581 4863 
L 1159 4863 
L 1159 2956 
Q 1366 3272 1645 3428 
Q 1925 3584 2291 3584 
Q 2894 3584 3203 3211 
Q 3513 2838 3513 2113 
z
" transform="scale(0.015625)"/>
       <path id="DejaVuSans-73" d="M 2834 3397 
L 2834 2853 
Q 2591 2978 2328 3040 
Q 2066 3103 1784 3103 
Q 1356 3103 1142 2972 
Q 928 2841 928 2578 
Q 928 2378 1081 2264 
Q 1234 2150 1697 2047 
L 1894 2003 
Q 2506 1872 2764 1633 
Q 3022 1394 3022 966 
Q 3022 478 2636 193 
Q 2250 -91 1575 -91 
Q 1294 -91 989 -36 
Q 684 19 347 128 
L 347 722 
Q 666 556 975 473 
Q 1284 391 1588 391 
Q 1994 391 2212 530 
Q 2431 669 2431 922 
Q 2431 1156 2273 1281 
Q 2116 1406 1581 1522 
L 1381 1569 
Q 847 1681 609 1914 
Q 372 2147 372 2553 
Q 372 3047 722 3315 
Q 1072 3584 1716 3584 
Q 2034 3584 2315 3537 
Q 2597 3491 2834 3397 
z
" transform="scale(0.015625)"/>
      </defs>
      <use xlink:href="#DejaVuSans-37"/>
      <use xlink:href="#DejaVuSans-2d" x="63.623047"/>
      <use xlink:href="#DejaVuSans-64" x="99.707031"/>
      <use xlink:href="#DejaVuSans-61" x="163.183594"/>
      <use xlink:href="#DejaVuSans-79" x="224.462891"/>
      <use xlink:href="#DejaVuSans-20" x="283.642578"/>
      <use xlink:href="#DejaVuSans-64" x="315.429688"/>
      <use xlink:href="#DejaVuSans-65" x="378.90625"/>
      <use xlink:href="#DejaVuSans-61" x="440.429688"/>
      <use xlink:href="#DejaVuSans-74" x="501.708984"/>
      <use xlink:href="#DejaVuSans-68" x="540.917969"/>
      <use xlink:href="#DejaVuSans-73" x="604.296875"/>
      <use xlink:href="#DejaVuSans-20" x="656.396484"/>
      <use xlink:href="#DejaVuSans-70" x="688.183594"/>
      <use xlink:href="#DejaVuSans-65" x="751.660156"/>
      <use xlink:href="#DejaVuSans-72" x="813.183594"/>
      <use xlink:href="#DejaVuSans-20" x="854.296875"/>
      <use xlink:href="#DejaVuSans-31" x="886.083984"/>
      <use xlink:href="#DejaVuSans-30" x="949.707031"/>
      <use xlink:href="#DejaVuSans-30" x="1013.330078"/>
      <use xlink:href="#DejaVuSans-6b" x="1076.953125"/>
     </g>
    </g>
   </g>
   <g id="line2d_43">
    <path d="M 138.64696 801.25084 
L 143.275829 801.25084 
L 143.937096 801.376763 
L 161.791305 801.334789 
L 162.452572 800.873069 
L 166.420174 800.873069 
L 167.081441 797.850904 
L 171.049042 797.850904 
L 171.710309 781.270974 
L 175.677911 781.270974 
L 176.339178 740.135956 
L 180.30678 740.135956 
L 180.968047 705.968707 
L 184.935649 705.968707 
L 185.596916 722.548638 
L 189.564518 722.548638 
L 190.225785 749.916017 
L 194.193387 749.916017 
L 194.854654 770.861296 
L 198.822256 770.861296 
L 199.483523 785.090654 
L 203.451125 785.090654 
L 204.112392 790.54734 
L 208.079993 790.54734 
L 208.74126 794.450969 
L 212.708862 794.450969 
L 213.370129 796.717593 
L 217.337731 796.717593 
L 217.998998 798.64842 
L 221.9666 798.64842 
L 222.627867 799.529885 
L 226.595469 799.529885 
L 227.256736 799.907655 
L 231.224338 799.907655 
L 231.885605 799.655808 
L 235.853207 799.655808 
L 236.514474 800.495298 
L 240.482076 800.495298 
L 241.143343 800.285426 
L 249.739813 800.3274 
L 250.40108 800.075553 
L 258.997551 799.991604 
L 259.658818 799.823706 
L 263.62642 799.823706 
L 264.287687 799.94963 
L 268.255289 799.94963 
L 268.916556 800.075553 
L 277.513027 800.075553 
L 278.174294 800.621222 
L 282.141896 800.621222 
L 282.803163 799.907655 
L 286.770764 799.907655 
L 287.432031 798.522497 
L 291.399633 798.522497 
L 292.0609 797.934854 
L 296.028502 797.934854 
L 296.689769 796.759567 
L 300.657371 796.759567 
L 301.318638 796.297848 
L 305.28624 796.297848 
L 305.947507 791.00906 
L 309.915109 791.00906 
L 310.576376 781.900592 
L 314.543978 781.900592 
L 315.205245 758.772638 
L 319.172847 758.772638 
L 319.834114 733.336086 
L 323.801716 733.336086 
L 324.462983 721.205454 
L 328.430584 721.205454 
L 329.091851 694.929412 
L 333.059453 694.929412 
L 333.72072 665.967001 
L 337.688322 665.967001 
L 338.349589 650.226561 
L 342.317191 650.226561 
L 342.978458 613.330969 
L 346.94606 613.330969 
L 347.607327 559.51965 
L 351.574929 559.51965 
L 352.236196 530.221444 
L 356.203798 530.221444 
L 356.865065 560.946783 
L 360.832667 560.946783 
L 361.493934 560.275191 
L 365.461536 560.275191 
L 366.122802 559.645574 
L 370.090404 559.645574 
L 370.751671 587.474672 
L 374.719273 587.474672 
L 375.38054 628.98746 
L 379.348142 628.98746 
L 380.009409 671.17184 
L 383.977011 671.17184 
L 384.638278 706.17858 
L 388.60588 706.17858 
L 389.267147 730.85959 
L 393.234749 730.85959 
L 393.896016 739.338441 
L 397.863618 739.338441 
L 398.524885 749.874042 
L 402.492487 749.874042 
L 403.153754 757.345505 
L 407.121355 757.345505 
L 407.782622 755.036907 
L 411.750224 755.036907 
L 412.411491 747.775317 
L 416.379093 747.775317 
L 417.04036 737.323664 
L 421.007962 737.323664 
L 421.669229 734.637296 
L 425.636831 734.637296 
L 426.298098 734.973092 
L 430.2657 734.973092 
L 430.926967 733.084239 
L 434.894569 733.084239 
L 435.555836 733.294112 
L 439.523438 733.294112 
L 440.184705 746.516082 
L 444.152307 746.516082 
L 444.813574 758.98251 
L 448.781175 758.98251 
L 449.442442 773.001996 
L 453.410044 773.001996 
L 454.071311 782.572184 
L 458.038913 782.572184 
L 458.70018 790.421417 
L 462.667782 790.421417 
L 463.329049 795.458358 
L 467.296651 795.458358 
L 467.957918 798.564471 
L 471.92552 798.564471 
L 472.586787 799.403961 
L 476.554389 799.403961 
L 477.215656 800.117528 
L 481.183258 800.117528 
L 481.844525 800.3274 
L 490.440995 800.3274 
L 491.102262 800.117528 
L 495.069864 800.117528 
L 495.731131 799.697783 
L 499.698733 799.697783 
L 500.36 798.354599 
L 504.327602 798.354599 
L 504.988869 797.641032 
L 508.956471 797.641032 
L 509.617738 795.332434 
L 513.58534 795.332434 
L 514.246607 791.974473 
L 518.214209 791.974473 
L 518.875476 786.643711 
L 522.843078 786.643711 
L 523.504345 783.243776 
L 527.471946 783.243776 
L 528.133213 782.530209 
L 532.100815 782.530209 
L 532.762082 785.216578 
L 536.729684 785.216578 
L 537.390951 786.517787 
L 541.358553 786.517787 
L 542.01982 783.621546 
L 545.987422 783.621546 
L 546.648689 780.851229 
L 550.616291 780.851229 
L 551.277558 776.989574 
L 555.24516 776.989574 
L 555.906427 757.261556 
L 559.874029 757.261556 
L 560.535296 747.90124 
L 564.502897 747.90124 
L 565.164164 731.195386 
L 569.131766 731.195386 
L 569.793033 705.423039 
L 573.760635 705.423039 
L 574.421902 687.625847 
L 578.389504 687.625847 
L 579.050771 671.549611 
L 583.018373 671.549611 
L 583.67964 681.119799 
L 587.647242 681.119799 
L 588.308509 695.894825 
L 592.276111 695.894825 
L 592.937378 717.679595 
L 596.90498 717.679595 
L 597.566247 747.355572 
L 601.533849 747.355572 
L 602.195116 758.184995 
L 606.162717 758.184995 
L 606.823984 764.858941 
L 610.791586 764.858941 
L 611.452853 772.288429 
L 615.420455 772.288429 
L 616.081722 764.984865 
L 620.049324 764.984865 
L 620.710591 754.491238 
L 624.678193 754.491238 
L 625.33946 738.247104 
L 629.307062 738.247104 
L 629.968329 729.810228 
L 633.935931 729.810228 
L 634.597198 726.410292 
L 638.5648 726.410292 
L 639.226067 732.328698 
L 643.193669 732.328698 
L 643.854935 733.965704 
L 647.822537 733.965704 
L 648.483804 726.746089 
L 652.451406 726.746089 
L 653.112673 720.198065 
L 657.080275 720.198065 
L 657.741542 722.422714 
L 661.709144 722.422714 
L 662.370411 736.903919 
L 666.338013 736.903919 
L 666.99928 747.145699 
L 670.966882 747.145699 
L 671.628149 760.031873 
L 675.595751 760.031873 
L 676.257018 767.461361 
L 680.22462 767.461361 
L 680.885887 772.918047 
L 684.853488 772.918047 
L 685.514755 778.668554 
L 689.482357 778.668554 
L 690.143624 783.831419 
L 694.111226 783.831419 
L 694.772493 787.525176 
L 698.740095 787.525176 
L 699.401362 792.436193 
L 703.368964 792.436193 
L 704.030231 792.016448 
L 707.997833 792.016448 
L 708.6591 789.414028 
L 712.626702 789.414028 
L 713.287969 784.503011 
L 717.255571 784.503011 
L 717.916838 777.619192 
L 721.88444 777.619192 
L 722.545706 775.772313 
L 726.513308 775.772313 
L 727.174575 771.910659 
L 731.142177 771.910659 
L 731.803444 761.081236 
L 735.771046 761.081236 
L 736.432313 753.987544 
L 740.399915 753.987544 
L 741.061182 757.807224 
L 745.028784 757.807224 
L 745.690051 768.174928 
L 749.657653 768.174928 
L 750.31892 775.226645 
L 754.286522 775.226645 
L 754.947789 776.48588 
L 758.915391 776.48588 
L 759.576658 784.712884 
L 763.544259 784.712884 
L 764.205526 786.643711 
L 768.173128 786.643711 
L 768.834395 788.070844 
L 772.801997 788.070844 
L 773.463264 786.517787 
L 777.430866 786.517787 
L 778.092133 779.550019 
L 782.059735 779.550019 
L 782.721002 764.439196 
L 786.688604 764.439196 
L 787.349871 747.481495 
L 791.317473 747.481495 
L 791.97874 735.896531 
L 795.946342 735.896531 
L 796.607609 739.380415 
L 800.575211 739.380415 
L 801.236478 757.345505 
L 805.204079 757.345505 
L 805.865346 772.078557 
L 809.832948 772.078557 
L 810.494215 774.513078 
L 814.461817 774.513078 
L 815.123084 778.16486 
L 819.090686 778.16486 
L 819.751953 774.513078 
L 823.719555 774.513078 
L 824.380822 767.797157 
L 828.348424 767.797157 
L 829.009691 761.039261 
L 832.977293 761.039261 
L 833.63856 753.567799 
L 837.606162 753.567799 
L 838.267429 747.313597 
L 842.23503 747.313597 
L 842.896297 760.661491 
L 846.863899 760.661491 
L 847.525166 766.579896 
L 851.492768 766.579896 
L 852.154035 779.675943 
L 856.121637 779.675943 
L 856.782904 787.18938 
L 860.750506 787.18938 
L 861.411773 787.483201 
L 865.379375 787.483201 
L 866.040642 786.937533 
L 870.008244 786.937533 
L 870.669511 782.278362 
L 874.637113 782.278362 
L 875.29838 776.150084 
L 883.89485 776.234033 
L 884.556117 778.920402 
L 888.523719 778.920402 
L 889.184986 777.367345 
L 893.152588 777.367345 
L 893.813855 775.100721 
L 897.781457 775.100721 
L 898.442724 778.500656 
L 902.410326 778.500656 
L 903.071593 783.28575 
L 907.039195 783.28575 
L 907.700462 789.70785 
L 911.668064 789.70785 
L 912.329331 788.616513 
L 916.296933 788.616513 
L 916.9582 791.680652 
L 920.925801 791.680652 
L 921.587068 794.576893 
L 925.55467 794.576893 
L 926.215937 794.36702 
L 930.183539 794.36702 
L 930.844806 796.801542 
L 934.812408 796.801542 
L 935.473675 797.80893 
L 939.441277 797.80893 
L 940.102544 798.354599 
L 944.070146 798.354599 
L 944.731413 799.068165 
L 948.699015 799.068165 
L 949.360282 800.033579 
L 957.956753 800.117528 
L 958.61802 800.747146 
L 962.585621 800.747146 
L 963.246888 801.040967 
L 967.21449 801.040967 
L 967.875757 801.376763 
L 971.843359 801.376763 
L 971.843359 801.376763 
" clip-path="url(#p2889741ce3)" style="fill: none; stroke: #0072b2; stroke-width: 2.6; stroke-linecap: square"/>
   </g>
   <g id="line2d_44">
    <path d="M 138.64696 801.376763 
L 166.420174 801.376763 
L 167.081441 801.113367 
L 175.677911 801.201166 
L 176.339178 800.235379 
L 180.30678 800.235379 
L 180.968047 796.021039 
L 184.935649 796.021039 
L 185.596916 790.050723 
L 189.564518 790.050723 
L 190.225785 789.348332 
L 194.193387 789.348332 
L 194.854654 785.924181 
L 198.822256 785.924181 
L 199.483523 789.084936 
L 203.451125 789.084936 
L 204.112392 790.665314 
L 208.079993 790.665314 
L 208.74126 789.875125 
L 212.708862 789.875125 
L 213.370129 794.52846 
L 217.337731 794.52846 
L 217.998998 795.406447 
L 221.9666 795.406447 
L 222.627867 793.474874 
L 226.595469 793.474874 
L 227.256736 793.826069 
L 231.224338 793.826069 
L 231.885605 791.806698 
L 235.853207 791.806698 
L 236.514474 793.562673 
L 240.482076 793.562673 
L 241.143343 794.616258 
L 245.110945 794.616258 
L 245.772212 796.372234 
L 249.739813 796.372234 
L 250.40108 797.074624 
L 254.368682 797.074624 
L 255.029949 797.250221 
L 258.997551 797.250221 
L 259.658818 796.372234 
L 263.62642 796.372234 
L 264.287687 794.440661 
L 268.255289 794.440661 
L 268.916556 795.318648 
L 272.884158 795.318648 
L 273.545425 794.177264 
L 286.770764 794.265063 
L 287.432031 795.406447 
L 291.399633 795.406447 
L 292.0609 792.596887 
L 296.028502 792.596887 
L 296.689769 788.909339 
L 300.657371 788.909339 
L 301.318638 785.572986 
L 305.28624 785.572986 
L 305.947507 768.979019 
L 309.915109 768.979019 
L 310.576376 752.824047 
L 314.543978 752.824047 
L 315.205245 732.015739 
L 319.172847 732.015739 
L 319.834114 685.833589 
L 323.801716 685.833589 
L 324.462983 625.340241 
L 328.430584 625.340241 
L 329.091851 589.86954 
L 333.059453 589.86954 
L 333.72072 516.645371 
L 337.688322 516.645371 
L 338.349589 470.112026 
L 342.317191 470.112026 
L 342.978458 532.712545 
L 346.94606 532.712545 
L 347.607327 557.735193 
L 351.574929 557.735193 
L 352.236196 578.982493 
L 356.203798 578.982493 
L 356.865065 645.27056 
L 360.832667 645.27056 
L 361.493934 625.954832 
L 365.461536 625.954832 
L 366.122802 619.72112 
L 370.090404 619.72112 
L 370.751671 611.731432 
L 374.719273 611.731432 
L 375.38054 625.164643 
L 379.348142 625.164643 
L 380.009409 641.846409 
L 383.977011 641.846409 
L 384.638278 634.207916 
L 388.60588 634.207916 
L 389.267147 650.626285 
L 393.234749 650.626285 
L 393.896016 681.794846 
L 397.863618 681.794846 
L 398.524885 661.074338 
L 402.492487 661.074338 
L 403.153754 672.136982 
L 407.121355 672.136982 
L 407.782622 635.3493 
L 411.750224 635.3493 
L 412.411491 615.506779 
L 416.379093 615.506779 
L 417.04036 575.031549 
L 421.007962 575.031549 
L 421.669229 533.151539 
L 425.636831 533.151539 
L 426.298098 496.012661 
L 430.2657 496.012661 
L 430.926967 484.598822 
L 434.894569 484.598822 
L 435.555836 504.529141 
L 439.523438 504.529141 
L 440.184705 568.271044 
L 444.152307 568.271044 
L 444.813574 630.608167 
L 448.781175 630.608167 
L 449.442442 654.928424 
L 453.410044 654.928424 
L 454.071311 690.486924 
L 458.038913 690.486924 
L 458.70018 730.259764 
L 462.667782 730.259764 
L 463.329049 765.028075 
L 467.296651 765.028075 
L 467.957918 764.413483 
L 471.92552 764.413483 
L 472.586787 778.988078 
L 476.554389 778.988078 
L 477.215656 788.11915 
L 481.183258 788.11915 
L 481.844525 792.157893 
L 485.812126 792.157893 
L 486.473393 795.055252 
L 490.440995 795.055252 
L 491.102262 796.547831 
L 495.069864 796.547831 
L 495.731131 799.006197 
L 499.698733 799.006197 
L 500.36 799.708587 
L 504.327602 799.708587 
L 504.988869 799.269593 
L 508.956471 799.269593 
L 509.617738 800.14758 
L 513.58534 800.14758 
L 514.246607 799.884184 
L 518.214209 799.884184 
L 518.875476 799.269593 
L 522.843078 799.269593 
L 523.504345 798.128209 
L 527.471946 798.128209 
L 528.133213 797.33802 
L 532.100815 797.33802 
L 532.762082 795.93324 
L 536.729684 795.93324 
L 537.390951 794.001667 
L 541.358553 794.001667 
L 542.01982 790.577515 
L 545.987422 790.577515 
L 546.648689 786.187577 
L 550.616291 786.187577 
L 551.277558 780.041663 
L 555.24516 780.041663 
L 555.906427 771.964177 
L 559.874029 771.964177 
L 560.535296 752.824047 
L 564.502897 752.824047 
L 565.164164 734.8253 
L 569.131766 734.8253 
L 569.793033 704.007934 
L 573.760635 704.007934 
L 574.421902 629.905777 
L 578.389504 629.905777 
L 579.050771 607.078098 
L 583.018373 607.078098 
L 583.67964 570.202617 
L 587.647242 570.202617 
L 588.308509 555.10123 
L 592.276111 555.10123 
L 592.937378 537.453678 
L 596.90498 537.453678 
L 597.566247 552.116072 
L 601.533849 552.116072 
L 602.195116 514.625999 
L 606.162717 514.625999 
L 606.823984 612.521621 
L 610.791586 612.521621 
L 611.452853 576.260732 
L 615.420455 576.260732 
L 616.081722 666.430063 
L 620.049324 666.430063 
L 620.710591 685.745791 
L 624.678193 685.745791 
L 625.33946 675.473335 
L 629.307062 675.473335 
L 629.968329 667.747044 
L 633.935931 667.747044 
L 634.597198 652.557858 
L 638.5648 652.557858 
L 639.226067 669.590818 
L 643.193669 669.590818 
L 643.854935 693.559881 
L 647.822537 693.559881 
L 648.483804 722.445674 
L 652.451406 722.445674 
L 653.112673 733.332721 
L 657.080275 733.332721 
L 657.741542 747.995115 
L 661.709144 747.995115 
L 662.370411 755.984802 
L 666.338013 755.984802 
L 666.99928 775.915122 
L 670.966882 775.915122 
L 671.628149 783.553614 
L 675.595751 783.553614 
L 676.257018 791.718899 
L 684.853488 791.6311 
L 685.514755 794.440661 
L 689.482357 794.440661 
L 690.143624 795.23085 
L 694.111226 795.23085 
L 694.772493 796.021039 
L 698.740095 796.021039 
L 699.401362 797.601416 
L 703.368964 797.601416 
L 704.030231 798.216008 
L 707.997833 798.216008 
L 708.6591 799.44519 
L 717.255571 799.44519 
L 717.916838 799.269593 
L 721.88444 799.269593 
L 722.545706 799.796385 
L 735.771046 799.884184 
L 736.432313 797.864813 
L 740.399915 797.864813 
L 741.061182 796.108837 
L 745.028784 796.108837 
L 745.690051 793.474874 
L 749.657653 793.474874 
L 750.31892 791.455503 
L 754.286522 791.455503 
L 754.947789 791.894497 
L 758.915391 791.894497 
L 759.576658 788.294747 
L 763.544259 788.294747 
L 764.205526 790.577515 
L 768.173128 790.577515 
L 768.834395 792.684685 
L 777.430866 792.684685 
L 778.092133 792.070094 
L 782.059735 792.070094 
L 782.721002 788.909339 
L 786.688604 788.909339 
L 787.349871 787.504558 
L 791.317473 787.504558 
L 791.97874 788.733741 
L 795.946342 788.733741 
L 796.607609 790.050723 
L 800.575211 790.050723 
L 801.236478 793.035881 
L 805.204079 793.035881 
L 805.865346 797.33802 
L 809.832948 797.33802 
L 810.494215 797.864813 
L 814.461817 797.864813 
L 815.123084 795.757642 
L 819.090686 795.757642 
L 819.751953 798.567203 
L 823.719555 798.567203 
L 824.380822 798.391605 
L 828.348424 798.391605 
L 829.009691 797.601416 
L 832.977293 797.601416 
L 833.63856 797.250221 
L 842.23503 797.33802 
L 842.896297 796.284435 
L 846.863899 796.284435 
L 847.525166 796.723429 
L 851.492768 796.723429 
L 852.154035 795.669843 
L 856.121637 795.669843 
L 856.782904 798.7428 
L 860.750506 798.7428 
L 861.411773 798.391605 
L 870.008244 798.479404 
L 870.669511 798.655001 
L 874.637113 798.655001 
L 875.29838 797.250221 
L 879.265982 797.250221 
L 879.927249 797.689215 
L 883.89485 797.689215 
L 884.556117 794.001667 
L 888.523719 794.001667 
L 889.184986 794.52846 
L 893.152588 794.52846 
L 893.813855 792.070094 
L 897.781457 792.070094 
L 898.442724 791.806698 
L 902.410326 791.806698 
L 903.071593 791.192106 
L 907.039195 791.192106 
L 907.700462 795.93324 
L 911.668064 795.93324 
L 912.329331 796.196636 
L 916.296933 796.196636 
L 916.9582 798.04041 
L 920.925801 798.04041 
L 921.587068 798.303806 
L 925.55467 798.303806 
L 926.215937 800.674373 
L 930.183539 800.674373 
L 930.844806 799.44519 
L 934.812408 799.44519 
L 935.473675 800.410977 
L 939.441277 800.410977 
L 940.102544 800.235379 
L 944.070146 800.235379 
L 944.731413 800.674373 
L 948.699015 800.674373 
L 949.360282 800.937769 
L 953.327884 800.937769 
L 953.989151 801.288964 
L 962.585621 801.288964 
L 963.246888 801.113367 
L 976.472228 801.201166 
L 977.133495 801.376763 
L 981.101097 801.376763 
L 981.762364 801.113367 
L 985.729966 801.113367 
L 986.391233 801.376763 
L 994.987704 801.376763 
L 995.648971 801.201166 
L 1022.760917 801.201166 
L 1023.422184 800.762172 
L 1027.389786 800.762172 
L 1028.051053 801.288964 
L 1036.647524 801.201166 
L 1037.308791 800.674373 
L 1041.276392 800.674373 
L 1041.937659 799.532989 
L 1045.905261 799.532989 
L 1046.566528 800.586574 
L 1050.53413 800.586574 
L 1051.195397 799.093995 
L 1055.162999 799.093995 
L 1055.824266 799.269593 
L 1059.791868 799.269593 
L 1060.453135 795.757642 
L 1064.420737 795.757642 
L 1065.082004 798.7428 
L 1069.049606 798.7428 
L 1069.710873 797.250221 
L 1073.678475 797.250221 
L 1074.339742 789.787326 
L 1078.307344 789.787326 
L 1078.968611 788.997137 
L 1082.936212 788.997137 
L 1083.597479 794.440661 
L 1087.565081 794.440661 
L 1088.226348 784.607199 
L 1092.19395 784.607199 
L 1092.855217 795.406447 
L 1096.822819 795.406447 
L 1097.484086 796.723429 
L 1101.451688 796.723429 
L 1102.112955 799.006197 
L 1106.080557 799.006197 
L 1106.741824 797.777014 
L 1110.709426 797.777014 
L 1111.370693 799.269593 
L 1119.967163 799.357392 
L 1120.62843 800.323178 
L 1124.596032 800.323178 
L 1125.257299 800.498775 
L 1129.224901 800.498775 
L 1129.886168 801.113367 
L 1133.85377 801.113367 
L 1134.515037 800.410977 
L 1138.482639 800.410977 
L 1139.143906 800.937769 
L 1143.111508 800.937769 
L 1143.772775 801.376763 
L 1152.369246 801.288964 
L 1153.69178 801.201166 
L 1156.998115 801.201166 
L 1157.659382 801.376763 
L 1161.626983 801.376763 
L 1162.28825 801.201166 
L 1166.255852 801.201166 
L 1166.917119 801.376763 
L 1203.286803 801.376763 
L 1203.94807 801.201166 
L 1217.17341 801.288964 
L 1218.495944 801.376763 
L 1221.802279 801.376763 
L 1222.463546 801.025568 
L 1227.092415 801.025568 
L 1227.092415 801.025568 
" clip-path="url(#p2889741ce3)" style="fill: none; stroke: #d55e00; stroke-width: 2.6; stroke-linecap: square"/>
   </g>
   <g id="patch_7">
    <path d="M 84.224688 817.94 
L 84.224688 453.548789 
" style="fill: none; stroke: #9ca3af; stroke-linejoin: miter; stroke-linecap: square"/>
   </g>
   <g id="patch_8">
    <path d="M 84.224688 817.94 
L 1281.514688 817.94 
" style="fill: none; stroke: #9ca3af; stroke-linejoin: miter; stroke-linecap: square"/>
   </g>
   <g id="legend_2">
    <g id="patch_9">
     <path d="M 1154.070938 509.583164 
L 1271.014688 509.583164 
Q 1274.014688 509.583164 1274.014688 506.583164 
L 1274.014688 464.048789 
Q 1274.014688 461.048789 1271.014688 461.048789 
L 1154.070938 461.048789 
Q 1151.070938 461.048789 1151.070938 464.048789 
L 1151.070938 506.583164 
Q 1151.070938 509.583164 1154.070938 509.583164 
z
" style="fill: #ffffff; opacity: 0.8; stroke: #cccccc; stroke-linejoin: miter"/>
    </g>
    <g id="line2d_45">
     <path d="M 1157.070938 473.196445 
L 1172.070938 473.196445 
L 1187.070938 473.196445 
" style="fill: none; stroke: #0072b2; stroke-width: 2.6; stroke-linecap: square"/>
    </g>
    <g id="text_25">
     <!-- Germany -->
     <g transform="translate(1199.070938 478.446445) scale(0.15 -0.15)">
      <use xlink:href="#DejaVuSans-47"/>
      <use xlink:href="#DejaVuSans-65" x="77.490234"/>
      <use xlink:href="#DejaVuSans-72" x="139.013672"/>
      <use xlink:href="#DejaVuSans-6d" x="178.376953"/>
      <use xlink:href="#DejaVuSans-61" x="275.789062"/>
      <use xlink:href="#DejaVuSans-6e" x="337.068359"/>
      <use xlink:href="#DejaVuSans-79" x="400.447266"/>
     </g>
    </g>
    <g id="line2d_46">
     <path d="M 1157.070938 495.213633 
L 1172.070938 495.213633 
L 1187.070938 495.213633 
" style="fill: none; stroke: #d55e00; stroke-width: 2.6; stroke-linecap: square"/>
    </g>
    <g id="text_26">
     <!-- Poland -->
     <g transform="translate(1199.070938 500.463633) scale(0.15 -0.15)">
      <use xlink:href="#DejaVuSans-50"/>
      <use xlink:href="#DejaVuSans-6f" x="56.677734"/>
      <use xlink:href="#DejaVuSans-6c" x="117.859375"/>
      <use xlink:href="#DejaVuSans-61" x="145.642578"/>
      <use xlink:href="#DejaVuSans-6e" x="206.921875"/>
      <use xlink:href="#DejaVuSans-64" x="270.300781"/>
     </g>
    </g>
   </g>
  </g>
  <g id="text_27">
   <!-- COVID-19: Germany vs Poland (2020–2024) -->
   <g style="fill: #111827" transform="translate(279.559219 29.995312) scale(0.3 -0.3)">
    <defs>
     <path id="DejaVuSans-Bold-43" d="M 4288 256 
Q 3956 84 3597 -3 
Q 3238 -91 2847 -91 
Q 1681 -91 1000 561 
Q 319 1213 319 2328 
Q 319 3447 1000 4098 
Q 1681 4750 2847 4750 
Q 3238 4750 3597 4662 
Q 3956 4575 4288 4403 
L 4288 3438 
Q 3953 3666 3628 3772 
Q 3303 3878 2944 3878 
Q 2300 3878 1931 3465 
Q 1563 3053 1563 2328 
Q 1563 1606 1931 1193 
Q 2300 781 2944 781 
Q 3303 781 3628 887 
Q 3953 994 4288 1222 
L 4288 256 
z
" transform="scale(0.015625)"/>
     <path id="DejaVuSans-Bold-4f" d="M 2719 3878 
Q 2169 3878 1866 3472 
Q 1563 3066 1563 2328 
Q 1563 1594 1866 1187 
Q 2169 781 2719 781 
Q 3272 781 3575 1187 
Q 3878 1594 3878 2328 
Q 3878 3066 3575 3472 
Q 3272 3878 2719 3878 
z
M 2719 4750 
Q 3844 4750 4481 4106 
Q 5119 3463 5119 2328 
Q 5119 1197 4481 553 
Q 3844 -91 2719 -91 
Q 1597 -91 958 553 
Q 319 1197 319 2328 
Q 319 3463 958 4106 
Q 1597 4750 2719 4750 
z
" transform="scale(0.015625)"/>
     <path id="DejaVuSans-Bold-56" d="M 31 4666 
L 1241 4666 
L 2478 1222 
L 3713 4666 
L 4922 4666 
L 3194 0 
L 1759 0 
L 31 4666 
z
" transform="scale(0.015625)"/>
     <path id="DejaVuSans-Bold-49" d="M 588 4666 
L 1791 4666 
L 1791 0 
L 588 0 
L 588 4666 
z
" transform="scale(0.015625)"/>
     <path id="DejaVuSans-Bold-44" d="M 1791 3756 
L 1791 909 
L 2222 909 
Q 2959 909 3348 1275 
Q 3738 1641 3738 2338 
Q 3738 3031 3350 3393 
Q 2963 3756 2222 3756 
L 1791 3756 
z
M 588 4666 
L 1856 4666 
Q 2919 4666 3439 4514 
Q 3959 4363 4331 4000 
Q 4659 3684 4818 3271 
Q 4978 2859 4978 2338 
Q 4978 1809 4818 1395 
Q 4659 981 4331 666 
Q 3956 303 3431 151 
Q 2906 0 1856 0 
L 588 0 
L 588 4666 
z
" transform="scale(0.015625)"/>
     <path id="DejaVuSans-Bold-2d" d="M 347 2297 
L 2309 2297 
L 2309 1388 
L 347 1388 
L 347 2297 
z
" transform="scale(0.015625)"/>
     <path id="DejaVuSans-Bold-31" d="M 750 831 
L 1813 831 
L 1813 3847 
L 722 3622 
L 722 4441 
L 1806 4666 
L 2950 4666 
L 2950 831 
L 4013 831 
L 4013 0 
L 750 0 
L 750 831 
z
" transform="scale(0.015625)"/>
     <path id="DejaVuSans-Bold-39" d="M 641 103 
L 641 966 
Q 928 831 1190 764 
Q 1453 697 1709 697 
Q 2247 697 2547 995 
Q 2847 1294 2900 1881 
Q 2688 1725 2447 1647 
Q 2206 1569 1925 1569 
Q 1209 1569 770 1986 
Q 331 2403 331 3084 
Q 331 3838 820 4291 
Q 1309 4744 2131 4744 
Q 3044 4744 3544 4128 
Q 4044 3513 4044 2388 
Q 4044 1231 3459 570 
Q 2875 -91 1856 -91 
Q 1528 -91 1228 -42 
Q 928 6 641 103 
z
M 2125 2350 
Q 2441 2350 2600 2554 
Q 2759 2759 2759 3169 
Q 2759 3575 2600 3781 
Q 2441 3988 2125 3988 
Q 1809 3988 1650 3781 
Q 1491 3575 1491 3169 
Q 1491 2759 1650 2554 
Q 1809 2350 2125 2350 
z
" transform="scale(0.015625)"/>
     <path id="DejaVuSans-Bold-3a" d="M 716 3500 
L 1844 3500 
L 1844 2291 
L 716 2291 
L 716 3500 
z
M 716 1209 
L 1844 1209 
L 1844 0 
L 716 0 
L 716 1209 
z
" transform="scale(0.015625)"/>
     <path id="DejaVuSans-Bold-20" transform="scale(0.015625)"/>
     <path id="DejaVuSans-Bold-47" d="M 4781 347 
Q 4331 128 3847 18 
Q 3363 -91 2847 -91 
Q 1681 -91 1000 561 
Q 319 1213 319 2328 
Q 319 3456 1012 4103 
Q 1706 4750 2913 4750 
Q 3378 4750 3804 4662 
Q 4231 4575 4609 4403 
L 4609 3438 
Q 4219 3659 3833 3768 
Q 3447 3878 3059 3878 
Q 2341 3878 1952 3476 
Q 1563 3075 1563 2328 
Q 1563 1588 1938 1184 
Q 2313 781 3003 781 
Q 3191 781 3352 804 
Q 3513 828 3641 878 
L 3641 1784 
L 2906 1784 
L 2906 2591 
L 4781 2591 
L 4781 347 
z
" transform="scale(0.015625)"/>
     <path id="DejaVuSans-Bold-65" d="M 4031 1759 
L 4031 1441 
L 1416 1441 
Q 1456 1047 1700 850 
Q 1944 653 2381 653 
Q 2734 653 3104 758 
Q 3475 863 3866 1075 
L 3866 213 
Q 3469 63 3072 -14 
Q 2675 -91 2278 -91 
Q 1328 -91 801 392 
Q 275 875 275 1747 
Q 275 2603 792 3093 
Q 1309 3584 2216 3584 
Q 3041 3584 3536 3087 
Q 4031 2591 4031 1759 
z
M 2881 2131 
Q 2881 2450 2695 2645 
Q 2509 2841 2209 2841 
Q 1884 2841 1681 2658 
Q 1478 2475 1428 2131 
L 2881 2131 
z
" transform="scale(0.015625)"/>
     <path id="DejaVuSans-Bold-72" d="M 3138 2547 
Q 2991 2616 2845 2648 
Q 2700 2681 2553 2681 
Q 2122 2681 1889 2404 
Q 1656 2128 1656 1613 
L 1656 0 
L 538 0 
L 538 3500 
L 1656 3500 
L 1656 2925 
Q 1872 3269 2151 3426 
Q 2431 3584 2822 3584 
Q 2878 3584 2943 3579 
Q 3009 3575 3134 3559 
L 3138 2547 
z
" transform="scale(0.015625)"/>
     <path id="DejaVuSans-Bold-6d" d="M 3781 2919 
Q 3994 3244 4286 3414 
Q 4578 3584 4928 3584 
Q 5531 3584 5847 3212 
Q 6163 2841 6163 2131 
L 6163 0 
L 5038 0 
L 5038 1825 
Q 5041 1866 5042 1909 
Q 5044 1953 5044 2034 
Q 5044 2406 4934 2573 
Q 4825 2741 4581 2741 
Q 4263 2741 4089 2478 
Q 3916 2216 3909 1719 
L 3909 0 
L 2784 0 
L 2784 1825 
Q 2784 2406 2684 2573 
Q 2584 2741 2328 2741 
Q 2006 2741 1831 2477 
Q 1656 2213 1656 1722 
L 1656 0 
L 531 0 
L 531 3500 
L 1656 3500 
L 1656 2988 
Q 1863 3284 2130 3434 
Q 2397 3584 2719 3584 
Q 3081 3584 3359 3409 
Q 3638 3234 3781 2919 
z
" transform="scale(0.015625)"/>
     <path id="DejaVuSans-Bold-61" d="M 2106 1575 
Q 1756 1575 1579 1456 
Q 1403 1338 1403 1106 
Q 1403 894 1545 773 
Q 1688 653 1941 653 
Q 2256 653 2472 879 
Q 2688 1106 2688 1447 
L 2688 1575 
L 2106 1575 
z
M 3816 1997 
L 3816 0 
L 2688 0 
L 2688 519 
Q 2463 200 2181 54 
Q 1900 -91 1497 -91 
Q 953 -91 614 226 
Q 275 544 275 1050 
Q 275 1666 698 1953 
Q 1122 2241 2028 2241 
L 2688 2241 
L 2688 2328 
Q 2688 2594 2478 2717 
Q 2269 2841 1825 2841 
Q 1466 2841 1156 2769 
Q 847 2697 581 2553 
L 581 3406 
Q 941 3494 1303 3539 
Q 1666 3584 2028 3584 
Q 2975 3584 3395 3211 
Q 3816 2838 3816 1997 
z
" transform="scale(0.015625)"/>
     <path id="DejaVuSans-Bold-6e" d="M 4056 2131 
L 4056 0 
L 2931 0 
L 2931 347 
L 2931 1631 
Q 2931 2084 2911 2256 
Q 2891 2428 2841 2509 
Q 2775 2619 2662 2680 
Q 2550 2741 2406 2741 
Q 2056 2741 1856 2470 
Q 1656 2200 1656 1722 
L 1656 0 
L 538 0 
L 538 3500 
L 1656 3500 
L 1656 2988 
Q 1909 3294 2193 3439 
Q 2478 3584 2822 3584 
Q 3428 3584 3742 3212 
Q 4056 2841 4056 2131 
z
" transform="scale(0.015625)"/>
     <path id="DejaVuSans-Bold-79" d="M 78 3500 
L 1197 3500 
L 2138 1125 
L 2938 3500 
L 4056 3500 
L 2584 -331 
Q 2363 -916 2067 -1148 
Q 1772 -1381 1288 -1381 
L 641 -1381 
L 641 -647 
L 991 -647 
Q 1275 -647 1404 -556 
Q 1534 -466 1606 -231 
L 1638 -134 
L 78 3500 
z
" transform="scale(0.015625)"/>
     <path id="DejaVuSans-Bold-76" d="M 97 3500 
L 1216 3500 
L 2088 1081 
L 2956 3500 
L 4078 3500 
L 2700 0 
L 1472 0 
L 97 3500 
z
" transform="scale(0.015625)"/>
     <path id="DejaVuSans-Bold-73" d="M 3272 3391 
L 3272 2541 
Q 2913 2691 2578 2766 
Q 2244 2841 1947 2841 
Q 1628 2841 1473 2761 
Q 1319 2681 1319 2516 
Q 1319 2381 1436 2309 
Q 1553 2238 1856 2203 
L 2053 2175 
Q 2913 2066 3209 1816 
Q 3506 1566 3506 1031 
Q 3506 472 3093 190 
Q 2681 -91 1863 -91 
Q 1516 -91 1145 -36 
Q 775 19 384 128 
L 384 978 
Q 719 816 1070 734 
Q 1422 653 1784 653 
Q 2113 653 2278 743 
Q 2444 834 2444 1013 
Q 2444 1163 2330 1236 
Q 2216 1309 1875 1350 
L 1678 1375 
Q 931 1469 631 1722 
Q 331 1975 331 2491 
Q 331 3047 712 3315 
Q 1094 3584 1881 3584 
Q 2191 3584 2531 3537 
Q 2872 3491 3272 3391 
z
" transform="scale(0.015625)"/>
     <path id="DejaVuSans-Bold-50" d="M 588 4666 
L 2584 4666 
Q 3475 4666 3951 4270 
Q 4428 3875 4428 3144 
Q 4428 2409 3951 2014 
Q 3475 1619 2584 1619 
L 1791 1619 
L 1791 0 
L 588 0 
L 588 4666 
z
M 1791 3794 
L 1791 2491 
L 2456 2491 
Q 2806 2491 2997 2661 
Q 3188 2831 3188 3144 
Q 3188 3456 2997 3625 
Q 2806 3794 2456 3794 
L 1791 3794 
z
" transform="scale(0.015625)"/>
     <path id="DejaVuSans-Bold-6f" d="M 2203 2784 
Q 1831 2784 1636 2517 
Q 1441 2250 1441 1747 
Q 1441 1244 1636 976 
Q 1831 709 2203 709 
Q 2569 709 2762 976 
Q 2956 1244 2956 1747 
Q 2956 2250 2762 2517 
Q 2569 2784 2203 2784 
z
M 2203 3584 
Q 3106 3584 3614 3096 
Q 4122 2609 4122 1747 
Q 4122 884 3614 396 
Q 3106 -91 2203 -91 
Q 1297 -91 786 396 
Q 275 884 275 1747 
Q 275 2609 786 3096 
Q 1297 3584 2203 3584 
z
" transform="scale(0.015625)"/>
     <path id="DejaVuSans-Bold-6c" d="M 538 4863 
L 1656 4863 
L 1656 0 
L 538 0 
L 538 4863 
z
" transform="scale(0.015625)"/>
     <path id="DejaVuSans-Bold-64" d="M 2919 2988 
L 2919 4863 
L 4044 4863 
L 4044 0 
L 2919 0 
L 2919 506 
Q 2688 197 2409 53 
Q 2131 -91 1766 -91 
Q 1119 -91 703 423 
Q 288 938 288 1747 
Q 288 2556 703 3070 
Q 1119 3584 1766 3584 
Q 2128 3584 2408 3439 
Q 2688 3294 2919 2988 
z
M 2181 722 
Q 2541 722 2730 984 
Q 2919 1247 2919 1747 
Q 2919 2247 2730 2509 
Q 2541 2772 2181 2772 
Q 1825 2772 1636 2509 
Q 1447 2247 1447 1747 
Q 1447 1247 1636 984 
Q 1825 722 2181 722 
z
" transform="scale(0.015625)"/>
     <path id="DejaVuSans-Bold-28" d="M 2413 -844 
L 1484 -844 
Q 1006 -72 778 623 
Q 550 1319 550 2003 
Q 550 2688 779 3389 
Q 1009 4091 1484 4856 
L 2413 4856 
Q 2013 4116 1813 3408 
Q 1613 2700 1613 2009 
Q 1613 1319 1811 609 
Q 2009 -100 2413 -844 
z
" transform="scale(0.015625)"/>
     <path id="DejaVuSans-Bold-32" d="M 1844 884 
L 3897 884 
L 3897 0 
L 506 0 
L 506 884 
L 2209 2388 
Q 2438 2594 2547 2791 
Q 2656 2988 2656 3200 
Q 2656 3528 2436 3728 
Q 2216 3928 1850 3928 
Q 1569 3928 1234 3808 
Q 900 3688 519 3450 
L 519 4475 
Q 925 4609 1322 4679 
Q 1719 4750 2100 4750 
Q 2938 4750 3402 4381 
Q 3866 4013 3866 3353 
Q 3866 2972 3669 2642 
Q 3472 2313 2841 1759 
L 1844 884 
z
" transform="scale(0.015625)"/>
     <path id="DejaVuSans-Bold-30" d="M 2944 2338 
Q 2944 3213 2780 3570 
Q 2616 3928 2228 3928 
Q 1841 3928 1675 3570 
Q 1509 3213 1509 2338 
Q 1509 1453 1675 1090 
Q 1841 728 2228 728 
Q 2613 728 2778 1090 
Q 2944 1453 2944 2338 
z
M 4147 2328 
Q 4147 1169 3647 539 
Q 3147 -91 2228 -91 
Q 1306 -91 806 539 
Q 306 1169 306 2328 
Q 306 3491 806 4120 
Q 1306 4750 2228 4750 
Q 3147 4750 3647 4120 
Q 4147 3491 4147 2328 
z
" transform="scale(0.015625)"/>
     <path id="DejaVuSans-Bold-2013" d="M 344 2156 
L 2856 2156 
L 2856 1350 
L 344 1350 
L 344 2156 
z
" transform="scale(0.015625)"/>
     <path id="DejaVuSans-Bold-34" d="M 2356 3675 
L 1038 1722 
L 2356 1722 
L 2356 3675 
z
M 2156 4666 
L 3494 4666 
L 3494 1722 
L 4159 1722 
L 4159 850 
L 3494 850 
L 3494 0 
L 2356 0 
L 2356 850 
L 288 850 
L 288 1881 
L 2156 4666 
z
" transform="scale(0.015625)"/>
     <path id="DejaVuSans-Bold-29" d="M 513 -844 
Q 913 -100 1113 609 
Q 1313 1319 1313 2009 
Q 1313 2700 1113 3408 
Q 913 4116 513 4856 
L 1441 4856 
Q 1916 4091 2145 3389 
Q 2375 2688 2375 2003 
Q 2375 1319 2147 623 
Q 1919 -72 1441 -844 
L 513 -844 
z
" transform="scale(0.015625)"/>
    </defs>
    <use xlink:href="#DejaVuSans-Bold-43"/>
    <use xlink:href="#DejaVuSans-Bold-4f" x="73.388672"/>
    <use xlink:href="#DejaVuSans-Bold-56" x="155.773438"/>
    <use xlink:href="#DejaVuSans-Bold-49" x="233.166016"/>
    <use xlink:href="#DejaVuSans-Bold-44" x="270.373047"/>
    <use xlink:href="#DejaVuSans-Bold-2d" x="355.255859"/>
    <use xlink:href="#DejaVuSans-Bold-31" x="396.759766"/>
    <use xlink:href="#DejaVuSans-Bold-39" x="466.339844"/>
    <use xlink:href="#DejaVuSans-Bold-3a" x="535.919922"/>
    <use xlink:href="#DejaVuSans-Bold-20" x="575.910156"/>
    <use xlink:href="#DejaVuSans-Bold-47" x="610.724609"/>
    <use xlink:href="#DejaVuSans-Bold-65" x="692.804688"/>
    <use xlink:href="#DejaVuSans-Bold-72" x="760.626953"/>
    <use xlink:href="#DejaVuSans-Bold-6d" x="809.943359"/>
    <use xlink:href="#DejaVuSans-Bold-61" x="914.142578"/>
    <use xlink:href="#DejaVuSans-Bold-6e" x="981.623047"/>
    <use xlink:href="#DejaVuSans-Bold-79" x="1052.814453"/>
    <use xlink:href="#DejaVuSans-Bold-20" x="1118"/>
    <use xlink:href="#DejaVuSans-Bold-76" x="1152.814453"/>
    <use xlink:href="#DejaVuSans-Bold-73" x="1218"/>
    <use xlink:href="#DejaVuSans-Bold-20" x="1277.521484"/>
    <use xlink:href="#DejaVuSans-Bold-50" x="1312.335938"/>
    <use xlink:href="#DejaVuSans-Bold-6f" x="1385.626953"/>
    <use xlink:href="#DejaVuSans-Bold-6c" x="1454.328125"/>
    <use xlink:href="#DejaVuSans-Bold-61" x="1488.605469"/>
    <use xlink:href="#DejaVuSans-Bold-6e" x="1556.085938"/>
    <use xlink:href="#DejaVuSans-Bold-64" x="1627.277344"/>
    <use xlink:href="#DejaVuSans-Bold-20" x="1698.859375"/>
    <use xlink:href="#DejaVuSans-Bold-28" x="1733.673828"/>
    <use xlink:href="#DejaVuSans-Bold-32" x="1779.376953"/>
    <use xlink:href="#DejaVuSans-Bold-30" x="1848.957031"/>
    <use xlink:href="#DejaVuSans-Bold-32" x="1918.537109"/>
    <use xlink:href="#DejaVuSans-Bold-30" x="1988.117188"/>
    <use xlink:href="#DejaVuSans-Bold-2013" x="2057.697266"/>
    <use xlink:href="#DejaVuSans-Bold-32" x="2107.697266"/>
    <use xlink:href="#DejaVuSans-Bold-30" x="2177.277344"/>
    <use xlink:href="#DejaVuSans-Bold-32" x="2246.857422"/>
    <use xlink:href="#DejaVuSans-Bold-34" x="2316.4375"/>
    <use xlink:href="#DejaVuSans-Bold-29" x="2386.017578"/>
   </g>
  </g>
 </g>
 <defs>
  <clipPath id="p9977a39b43">
   <rect x="84.224688" y="74.357578" width="1197.29" height="364.391211"/>
  </clipPath>
  <clipPath id="p2889741ce3">
   <rect x="84.224688" y="453.548789" width="1197.29" height="364.391211"/>
  </clipPath>
 </defs>
</svg>
