<?xml version="1.0" encoding="utf-8" standalone="no"?>
<!DOCTYPE svg PUBLIC "-//W3C//DTD SVG 1.1//EN"
  "http://www.w3.org/Graphics/SVG/1.1/DTD/svg11.dtd">
<svg xmlns:xlink="http://www.w3.org/1999/xlink" width="1288.797656pt" height="638.947812pt" viewBox="0 0 1288.797656 638.947812" xmlns="http://www.w3.org/2000/svg" version="1.1">
 <metadata>
  <rdf:RDF xmlns:dc="http://purl.org/dc/elements/1.1/" xmlns:cc="http://creativecommons.org/ns#" xmlns:rdf="http://www.w3.org/1999/02/22-rdf-syntax-ns#">
   <cc:Work>
    <dc:type rdf:resource="http://purl.org/dc/dcmitype/StillImage"/>
    <dc:date>2026-05-25T13:00:06.752737</dc:date>
    <dc:format>image/svg+xml</dc:format>
    <dc:creator>
     <cc:Agent>
      <dc:title>Matplotlib v3.8.2, https://matplotlib.org/</dc:title>
     </cc:Agent>
    </dc:creator>
   </cc:Work>
  </rdf:RDF>
 </metadata>
 <defs>
  <style type="text/css">*{stroke-linejoin: round; stroke-linecap: butt}</style>
 </defs>
 <g id="figure_1">
  <g id="patch_1">
   <path d="M -0 638.947812 
L 1288.797656 638.947812 
L 1288.797656 0 
L -0 0 
z
" style="fill: #ffffff"/>
  </g>
  <g id="axes_1">
   <g id="patch_2">
    <path d="M 76.837656 581.535312 
L 1281.597656 581.535312 
L 1281.597656 55.995312 
L 76.837656 55.995312 
z
" style="fill: #ffffff"/>
   </g>
   <g id="matplotlib.axis_1">
    <g id="xtick_1">
     <g id="line2d_1">
      <defs>
       <path id="m9fb0baaa78" d="M 0 0 
L 0 4 
" style="stroke: #111827; stroke-width: 0.8"/>
      </defs>
      <g>
       <use xlink:href="#m9fb0baaa78" x="76.837656" y="581.535312" style="fill: #111827; stroke: #111827; stroke-width: 0.8"/>
      </g>
     </g>
     <g id="text_1">
      <!-- 2020 -->
      <g style="fill: #111827" transform="translate(55.205156 601.952656) scale(0.17 -0.17)">
       <defs>
        <path id="DejaVuSans-32" d="M 1228 531 
L 3431 531 
L 3431 0 
L 469 0 
L 469 531 
Q 828 903 1448 1529 
Q 2069 2156 2228 2338 
Q 2531 2678 2651 2914 
Q 2772 3150 2772 3378 
Q 2772 3750 2511 3984 
Q 2250 4219 1831 4219 
Q 1534 4219 1204 4116 
Q 875 4013 500 3803 
L 500 4441 
Q 881 4594 1212 4672 
Q 1544 4750 1819 4750 
Q 2544 4750 2975 4387 
Q 3406 4025 3406 3419 
Q 3406 3131 3298 2873 
Q 3191 2616 2906 2266 
Q 2828 2175 2409 1742 
Q 1991 1309 1228 531 
z
" transform="scale(0.015625)"/>
        <path id="DejaVuSans-30" d="M 2034 4250 
Q 1547 4250 1301 3770 
Q 1056 3291 1056 2328 
Q 1056 1369 1301 889 
Q 1547 409 2034 409 
Q 2525 409 2770 889 
Q 3016 1369 3016 2328 
Q 3016 3291 2770 3770 
Q 2525 4250 2034 4250 
z
M 2034 4750 
Q 2819 4750 3233 4129 
Q 3647 3509 3647 2328 
Q 3647 1150 3233 529 
Q 2819 -91 2034 -91 
Q 1250 -91 836 529 
Q 422 1150 422 2328 
Q 422 3509 836 4129 
Q 1250 4750 2034 4750 
z
" transform="scale(0.015625)"/>
       </defs>
       <use xlink:href="#DejaVuSans-32"/>
       <use xlink:href="#DejaVuSans-30" x="63.623047"/>
       <use xlink:href="#DejaVuSans-32" x="127.246094"/>
       <use xlink:href="#DejaVuSans-30" x="190.869141"/>
      </g>
     </g>
    </g>
    <g id="xtick_2">
     <g id="line2d_2">
      <g>
       <use xlink:href="#m9fb0baaa78" x="378.852834" y="581.535312" style="fill: #111827; stroke: #111827; stroke-width: 0.8"/>
      </g>
     </g>
     <g id="text_2">
      <!-- 2021 -->
      <g style="fill: #111827" transform="translate(357.220334 601.952656) scale(0.17 -0.17)">
       <defs>
        <path id="DejaVuSans-31" d="M 794 531 
L 1825 531 
L 1825 4091 
L 703 3866 
L 703 4441 
L 1819 4666 
L 2450 4666 
L 2450 531 
L 3481 531 
L 3481 0 
L 794 0 
L 794 531 
z
" transform="scale(0.015625)"/>
       </defs>
       <use xlink:href="#DejaVuSans-32"/>
       <use xlink:href="#DejaVuSans-30" x="63.623047"/>
       <use xlink:href="#DejaVuSans-32" x="127.246094"/>
       <use xlink:href="#DejaVuSans-31" x="190.869141"/>
      </g>
     </g>
    </g>
    <g id="xtick_3">
     <g id="line2d_3">
      <g>
       <use xlink:href="#m9fb0baaa78" x="680.042834" y="581.535312" style="fill: #111827; stroke: #111827; stroke-width: 0.8"/>
      </g>
     </g>
     <g id="text_3">
      <!-- 2022 -->
      <g style="fill: #111827" transform="translate(658.410334 601.952656) scale(0.17 -0.17)">
       <use xlink:href="#DejaVuSans-32"/>
       <use xlink:href="#DejaVuSans-30" x="63.623047"/>
       <use xlink:href="#DejaVuSans-32" x="127.246094"/>
       <use xlink:href="#DejaVuSans-32" x="190.869141"/>
      </g>
     </g>
    </g>
    <g id="xtick_4">
     <g id="line2d_4">
      <g>
       <use xlink:href="#m9fb0baaa78" x="981.232834" y="581.535312" style="fill: #111827; stroke: #111827; stroke-width: 0.8"/>
      </g>
     </g>
     <g id="text_4">
      <!-- 2023 -->
      <g style="fill: #111827" transform="translate(959.600334 601.952656) scale(0.17 -0.17)">
       <defs>
        <path id="DejaVuSans-33" d="M 2597 2516 
Q 3050 2419 3304 2112 
Q 3559 1806 3559 1356 
Q 3559 666 3084 287 
Q 2609 -91 1734 -91 
Q 1441 -91 1130 -33 
Q 819 25 488 141 
L 488 750 
Q 750 597 1062 519 
Q 1375 441 1716 441 
Q 2309 441 2620 675 
Q 2931 909 2931 1356 
Q 2931 1769 2642 2001 
Q 2353 2234 1838 2234 
L 1294 2234 
L 1294 2753 
L 1863 2753 
Q 2328 2753 2575 2939 
Q 2822 3125 2822 3475 
Q 2822 3834 2567 4026 
Q 2313 4219 1838 4219 
Q 1578 4219 1281 4162 
Q 984 4106 628 3988 
L 628 4550 
Q 988 4650 1302 4700 
Q 1616 4750 1894 4750 
Q 2613 4750 3031 4423 
Q 3450 4097 3450 3541 
Q 3450 3153 3228 2886 
Q 3006 2619 2597 2516 
z
" transform="scale(0.015625)"/>
       </defs>
       <use xlink:href="#DejaVuSans-32"/>
       <use xlink:href="#DejaVuSans-30" x="63.623047"/>
       <use xlink:href="#DejaVuSans-32" x="127.246094"/>
       <use xlink:href="#DejaVuSans-33" x="190.869141"/>
      </g>
     </g>
    </g>
    <g id="text_5">
     <!-- Date -->
     <g style="fill: #1f2937" transform="translate(651.730859 626.964531) scale(0.23 -0.23)">
      <defs>
       <path id="DejaVuSans-44" d="M 1259 4147 
L 1259 519 
L 2022 519 
Q 2988 519 3436 956 
Q 3884 1394 3884 2338 
Q 3884 3275 3436 3711 
Q 2988 4147 2022 4147 
L 1259 4147 
z
M 628 4666 
L 1925 4666 
Q 3281 4666 3915 4102 
Q 4550 3538 4550 2338 
Q 4550 1131 3912 565 
Q 3275 0 1925 0 
L 628 0 
L 628 4666 
z
" transform="scale(0.015625)"/>
       <path id="DejaVuSans-61" d="M 2194 1759 
Q 1497 1759 1228 1600 
Q 959 1441 959 1056 
Q 959 750 1161 570 
Q 1363 391 1709 391 
Q 2188 391 2477 730 
Q 2766 1069 2766 1631 
L 2766 1759 
L 2194 1759 
z
M 3341 1997 
L 3341 0 
L 2766 0 
L 2766 531 
Q 2569 213 2275 61 
Q 1981 -91 1556 -91 
Q 1019 -91 701 211 
Q 384 513 384 1019 
Q 384 1609 779 1909 
Q 1175 2209 1959 2209 
L 2766 2209 
L 2766 2266 
Q 2766 2663 2505 2880 
Q 2244 3097 1772 3097 
Q 1472 3097 1187 3025 
Q 903 2953 641 2809 
L 641 3341 
Q 956 3463 1253 3523 
Q 1550 3584 1831 3584 
Q 2591 3584 2966 3190 
Q 3341 2797 3341 1997 
z
" transform="scale(0.015625)"/>
       <path id="DejaVuSans-74" d="M 1172 4494 
L 1172 3500 
L 2356 3500 
L 2356 3053 
L 1172 3053 
L 1172 1153 
Q 1172 725 1289 603 
Q 1406 481 1766 481 
L 2356 481 
L 2356 0 
L 1766 0 
Q 1100 0 847 248 
Q 594 497 594 1153 
L 594 3053 
L 172 3053 
L 172 3500 
L 594 3500 
L 594 4494 
L 1172 4494 
z
" transform="scale(0.015625)"/>
       <path id="DejaVuSans-65" d="M 3597 1894 
L 3597 1613 
L 953 1613 
Q 991 1019 1311 708 
Q 1631 397 2203 397 
Q 2534 397 2845 478 
Q 3156 559 3463 722 
L 3463 178 
Q 3153 47 2828 -22 
Q 2503 -91 2169 -91 
Q 1331 -91 842 396 
Q 353 884 353 1716 
Q 353 2575 817 3079 
Q 1281 3584 2069 3584 
Q 2775 3584 3186 3129 
Q 3597 2675 3597 1894 
z
M 3022 2063 
Q 3016 2534 2758 2815 
Q 2500 3097 2075 3097 
Q 1594 3097 1305 2825 
Q 1016 2553 972 2059 
L 3022 2063 
z
" transform="scale(0.015625)"/>
      </defs>
      <use xlink:href="#DejaVuSans-44"/>
      <use xlink:href="#DejaVuSans-61" x="77.001953"/>
      <use xlink:href="#DejaVuSans-74" x="138.28125"/>
      <use xlink:href="#DejaVuSans-65" x="177.490234"/>
     </g>
    </g>
   </g>
   <g id="matplotlib.axis_2">
    <g id="ytick_1">
     <g id="line2d_5">
      <path d="M 76.837656 571.875315 
L 1281.597656 571.875315 
" clip-path="url(#pfebbc6aa3a)" style="fill: none; stroke: #d1d5db; stroke-opacity: 0.55; stroke-width: 0.9; stroke-linecap: square"/>
     </g>
     <g id="line2d_6">
      <defs>
       <path id="m0b096141dd" d="M 0 0 
L -4 0 
" style="stroke: #111827; stroke-width: 0.8"/>
      </defs>
      <g>
       <use xlink:href="#m0b096141dd" x="76.837656" y="571.875315" style="fill: #111827; stroke: #111827; stroke-width: 0.8"/>
      </g>
     </g>
     <g id="text_6">
      <!-- −20 -->
      <g style="fill: #111827" transform="translate(33.459688 578.333986) scale(0.17 -0.17)">
       <defs>
        <path id="DejaVuSans-2212" d="M 678 2272 
L 4684 2272 
L 4684 1741 
L 678 1741 
L 678 2272 
z
" transform="scale(0.015625)"/>
       </defs>
       <use xlink:href="#DejaVuSans-2212"/>
       <use xlink:href="#DejaVuSans-32" x="83.789062"/>
       <use xlink:href="#DejaVuSans-30" x="147.412109"/>
      </g>
     </g>
    </g>
    <g id="ytick_2">
     <g id="line2d_7">
      <path d="M 76.837656 499.651031 
L 1281.597656 499.651031 
" clip-path="url(#pfebbc6aa3a)" style="fill: none; stroke: #d1d5db; stroke-opacity: 0.55; stroke-width: 0.9; stroke-linecap: square"/>
     </g>
     <g id="line2d_8">
      <g>
       <use xlink:href="#m0b096141dd" x="76.837656" y="499.651031" style="fill: #111827; stroke: #111827; stroke-width: 0.8"/>
      </g>
     </g>
     <g id="text_7">
      <!-- −10 -->
      <g style="fill: #111827" transform="translate(33.459688 506.109703) scale(0.17 -0.17)">
       <use xlink:href="#DejaVuSans-2212"/>
       <use xlink:href="#DejaVuSans-31" x="83.789062"/>
       <use xlink:href="#DejaVuSans-30" x="147.412109"/>
      </g>
     </g>
    </g>
    <g id="ytick_3">
     <g id="line2d_9">
      <path d="M 76.837656 427.426747 
L 1281.597656 427.426747 
" clip-path="url(#pfebbc6aa3a)" style="fill: none; stroke: #d1d5db; stroke-opacity: 0.55; stroke-width: 0.9; stroke-linecap: square"/>
     </g>
     <g id="line2d_10">
      <g>
       <use xlink:href="#m0b096141dd" x="76.837656" y="427.426747" style="fill: #111827; stroke: #111827; stroke-width: 0.8"/>
      </g>
     </g>
     <g id="text_8">
      <!-- 0 -->
      <g style="fill: #111827" transform="translate(58.521406 433.885419) scale(0.17 -0.17)">
       <use xlink:href="#DejaVuSans-30"/>
      </g>
     </g>
    </g>
    <g id="ytick_4">
     <g id="line2d_11">
      <path d="M 76.837656 355.202464 
L 1281.597656 355.202464 
" clip-path="url(#pfebbc6aa3a)" style="fill: none; stroke: #d1d5db; stroke-opacity: 0.55; stroke-width: 0.9; stroke-linecap: square"/>
     </g>
     <g id="line2d_12">
      <g>
       <use xlink:href="#m0b096141dd" x="76.837656" y="355.202464" style="fill: #111827; stroke: #111827; stroke-width: 0.8"/>
      </g>
     </g>
     <g id="text_9">
      <!-- 10 -->
      <g style="fill: #111827" transform="translate(47.705156 361.661135) scale(0.17 -0.17)">
       <use xlink:href="#DejaVuSans-31"/>
       <use xlink:href="#DejaVuSans-30" x="63.623047"/>
      </g>
     </g>
    </g>
    <g id="ytick_5">
     <g id="line2d_13">
      <path d="M 76.837656 282.97818 
L 1281.597656 282.97818 
" clip-path="url(#pfebbc6aa3a)" style="fill: none; stroke: #d1d5db; stroke-opacity: 0.55; stroke-width: 0.9; stroke-linecap: square"/>
     </g>
     <g id="line2d_14">
      <g>
       <use xlink:href="#m0b096141dd" x="76.837656" y="282.97818" style="fill: #111827; stroke: #111827; stroke-width: 0.8"/>
      </g>
     </g>
     <g id="text_10">
      <!-- 20 -->
      <g style="fill: #111827" transform="translate(47.705156 289.436852) scale(0.17 -0.17)">
       <use xlink:href="#DejaVuSans-32"/>
       <use xlink:href="#DejaVuSans-30" x="63.623047"/>
      </g>
     </g>
    </g>
    <g id="ytick_6">
     <g id="line2d_15">
      <path d="M 76.837656 210.753896 
L 1281.597656 210.753896 
" clip-path="url(#pfebbc6aa3a)" style="fill: none; stroke: #d1d5db; stroke-opacity: 0.55; stroke-width: 0.9; stroke-linecap: square"/>
     </g>
     <g id="line2d_16">
      <g>
       <use xlink:href="#m0b096141dd" x="76.837656" y="210.753896" style="fill: #111827; stroke: #111827; stroke-width: 0.8"/>
      </g>
     </g>
     <g id="text_11">
      <!-- 30 -->
      <g style="fill: #111827" transform="translate(47.705156 217.212568) scale(0.17 -0.17)">
       <use xlink:href="#DejaVuSans-33"/>
       <use xlink:href="#DejaVuSans-30" x="63.623047"/>
      </g>
     </g>
    </g>
    <g id="ytick_7">
     <g id="line2d_17">
      <path d="M 76.837656 138.529613 
L 1281.597656 138.529613 
" clip-path="url(#pfebbc6aa3a)" style="fill: none; stroke: #d1d5db; stroke-opacity: 0.55; stroke-width: 0.9; stroke-linecap: square"/>
     </g>
     <g id="line2d_18">
      <g>
       <use xlink:href="#m0b096141dd" x="76.837656" y="138.529613" style="fill: #111827; stroke: #111827; stroke-width: 0.8"/>
      </g>
     </g>
     <g id="text_12">
      <!-- 40 -->
      <g style="fill: #111827" transform="translate(47.705156 144.988285) scale(0.17 -0.17)">
       <defs>
        <path id="DejaVuSans-34" d="M 2419 4116 
L 825 1625 
L 2419 1625 
L 2419 4116 
z
M 2253 4666 
L 3047 4666 
L 3047 1625 
L 3713 1625 
L 3713 1100 
L 3047 1100 
L 3047 0 
L 2419 0 
L 2419 1100 
L 313 1100 
L 313 1709 
L 2253 4666 
z
" transform="scale(0.015625)"/>
       </defs>
       <use xlink:href="#DejaVuSans-34"/>
       <use xlink:href="#DejaVuSans-30" x="63.623047"/>
      </g>
     </g>
    </g>
    <g id="ytick_8">
     <g id="line2d_19">
      <path d="M 76.837656 66.305329 
L 1281.597656 66.305329 
" clip-path="url(#pfebbc6aa3a)" style="fill: none; stroke: #d1d5db; stroke-opacity: 0.55; stroke-width: 0.9; stroke-linecap: square"/>
     </g>
     <g id="line2d_20">
      <g>
       <use xlink:href="#m0b096141dd" x="76.837656" y="66.305329" style="fill: #111827; stroke: #111827; stroke-width: 0.8"/>
      </g>
     </g>
     <g id="text_13">
      <!-- 50 -->
      <g style="fill: #111827" transform="translate(47.705156 72.764001) scale(0.17 -0.17)">
       <defs>
        <path id="DejaVuSans-35" d="M 691 4666 
L 3169 4666 
L 3169 4134 
L 1269 4134 
L 1269 2991 
Q 1406 3038 1543 3061 
Q 1681 3084 1819 3084 
Q 2600 3084 3056 2656 
Q 3513 2228 3513 1497 
Q 3513 744 3044 326 
Q 2575 -91 1722 -91 
Q 1428 -91 1123 -41 
Q 819 9 494 109 
L 494 744 
Q 775 591 1075 516 
Q 1375 441 1709 441 
Q 2250 441 2565 725 
Q 2881 1009 2881 1497 
Q 2881 1984 2565 2268 
Q 2250 2553 1709 2553 
Q 1456 2553 1204 2497 
Q 953 2441 691 2322 
L 691 4666 
z
" transform="scale(0.015625)"/>
       </defs>
       <use xlink:href="#DejaVuSans-35"/>
       <use xlink:href="#DejaVuSans-30" x="63.623047"/>
      </g>
     </g>
    </g>
    <g id="text_14">
     <!-- Excess mortality (%) -->
     <g style="fill: #1f2937" transform="translate(24.676406 437.454297) rotate(-90) scale(0.23 -0.23)">
      <defs>
       <path id="DejaVuSans-45" d="M 628 4666 
L 3578 4666 
L 3578 4134 
L 1259 4134 
L 1259 2753 
L 3481 2753 
L 3481 2222 
L 1259 2222 
L 1259 531 
L 3634 531 
L 3634 0 
L 628 0 
L 628 4666 
z
" transform="scale(0.015625)"/>
       <path id="DejaVuSans-78" d="M 3513 3500 
L 2247 1797 
L 3578 0 
L 2900 0 
L 1881 1375 
L 863 0 
L 184 0 
L 1544 1831 
L 300 3500 
L 978 3500 
L 1906 2253 
L 2834 3500 
L 3513 3500 
z
" transform="scale(0.015625)"/>
       <path id="DejaVuSans-63" d="M 3122 3366 
L 3122 2828 
Q 2878 2963 2633 3030 
Q 2388 3097 2138 3097 
Q 1578 3097 1268 2742 
Q 959 2388 959 1747 
Q 959 1106 1268 751 
Q 1578 397 2138 397 
Q 2388 397 2633 464 
Q 2878 531 3122 666 
L 3122 134 
Q 2881 22 2623 -34 
Q 2366 -91 2075 -91 
Q 1284 -91 818 406 
Q 353 903 353 1747 
Q 353 2603 823 3093 
Q 1294 3584 2113 3584 
Q 2378 3584 2631 3529 
Q 2884 3475 3122 3366 
z
" transform="scale(0.015625)"/>
       <path id="DejaVuSans-73" d="M 2834 3397 
L 2834 2853 
Q 2591 2978 2328 3040 
Q 2066 3103 1784 3103 
Q 1356 3103 1142 2972 
Q 928 2841 928 2578 
Q 928 2378 1081 2264 
Q 1234 2150 1697 2047 
L 1894 2003 
Q 2506 1872 2764 1633 
Q 3022 1394 3022 966 
Q 3022 478 2636 193 
Q 2250 -91 1575 -91 
Q 1294 -91 989 -36 
Q 684 19 347 128 
L 347 722 
Q 666 556 975 473 
Q 1284 391 1588 391 
Q 1994 391 2212 530 
Q 2431 669 2431 922 
Q 2431 1156 2273 1281 
Q 2116 1406 1581 1522 
L 1381 1569 
Q 847 1681 609 1914 
Q 372 2147 372 2553 
Q 372 3047 722 3315 
Q 1072 3584 1716 3584 
Q 2034 3584 2315 3537 
Q 2597 3491 2834 3397 
z
" transform="scale(0.015625)"/>
       <path id="DejaVuSans-20" transform="scale(0.015625)"/>
       <path id="DejaVuSans-6d" d="M 3328 2828 
Q 3544 3216 3844 3400 
Q 4144 3584 4550 3584 
Q 5097 3584 5394 3201 
Q 5691 2819 5691 2113 
L 5691 0 
L 5113 0 
L 5113 2094 
Q 5113 2597 4934 2840 
Q 4756 3084 4391 3084 
Q 3944 3084 3684 2787 
Q 3425 2491 3425 1978 
L 3425 0 
L 2847 0 
L 2847 2094 
Q 2847 2600 2669 2842 
Q 2491 3084 2119 3084 
Q 1678 3084 1418 2786 
Q 1159 2488 1159 1978 
L 1159 0 
L 581 0 
L 581 3500 
L 1159 3500 
L 1159 2956 
Q 1356 3278 1631 3431 
Q 1906 3584 2284 3584 
Q 2666 3584 2933 3390 
Q 3200 3197 3328 2828 
z
" transform="scale(0.015625)"/>
       <path id="DejaVuSans-6f" d="M 1959 3097 
Q 1497 3097 1228 2736 
Q 959 2375 959 1747 
Q 959 1119 1226 758 
Q 1494 397 1959 397 
Q 2419 397 2687 759 
Q 2956 1122 2956 1747 
Q 2956 2369 2687 2733 
Q 2419 3097 1959 3097 
z
M 1959 3584 
Q 2709 3584 3137 3096 
Q 3566 2609 3566 1747 
Q 3566 888 3137 398 
Q 2709 -91 1959 -91 
Q 1206 -91 779 398 
Q 353 888 353 1747 
Q 353 2609 779 3096 
Q 1206 3584 1959 3584 
z
" transform="scale(0.015625)"/>
       <path id="DejaVuSans-72" d="M 2631 2963 
Q 2534 3019 2420 3045 
Q 2306 3072 2169 3072 
Q 1681 3072 1420 2755 
Q 1159 2438 1159 1844 
L 1159 0 
L 581 0 
L 581 3500 
L 1159 3500 
L 1159 2956 
Q 1341 3275 1631 3429 
Q 1922 3584 2338 3584 
Q 2397 3584 2469 3576 
Q 2541 3569 2628 3553 
L 2631 2963 
z
" transform="scale(0.015625)"/>
       <path id="DejaVuSans-6c" d="M 603 4863 
L 1178 4863 
L 1178 0 
L 603 0 
L 603 4863 
z
" transform="scale(0.015625)"/>
       <path id="DejaVuSans-69" d="M 603 3500 
L 1178 3500 
L 1178 0 
L 603 0 
L 603 3500 
z
M 603 4863 
L 1178 4863 
L 1178 4134 
L 603 4134 
L 603 4863 
z
" transform="scale(0.015625)"/>
       <path id="DejaVuSans-79" d="M 2059 -325 
Q 1816 -950 1584 -1140 
Q 1353 -1331 966 -1331 
L 506 -1331 
L 506 -850 
L 844 -850 
Q 1081 -850 1212 -737 
Q 1344 -625 1503 -206 
L 1606 56 
L 191 3500 
L 800 3500 
L 1894 763 
L 2988 3500 
L 3597 3500 
L 2059 -325 
z
" transform="scale(0.015625)"/>
       <path id="DejaVuSans-28" d="M 1984 4856 
Q 1566 4138 1362 3434 
Q 1159 2731 1159 2009 
Q 1159 1288 1364 580 
Q 1569 -128 1984 -844 
L 1484 -844 
Q 1016 -109 783 600 
Q 550 1309 550 2009 
Q 550 2706 781 3412 
Q 1013 4119 1484 4856 
L 1984 4856 
z
" transform="scale(0.015625)"/>
       <path id="DejaVuSans-25" d="M 4653 2053 
Q 4381 2053 4226 1822 
Q 4072 1591 4072 1178 
Q 4072 772 4226 539 
Q 4381 306 4653 306 
Q 4919 306 5073 539 
Q 5228 772 5228 1178 
Q 5228 1588 5073 1820 
Q 4919 2053 4653 2053 
z
M 4653 2450 
Q 5147 2450 5437 2106 
Q 5728 1763 5728 1178 
Q 5728 594 5436 251 
Q 5144 -91 4653 -91 
Q 4153 -91 3862 251 
Q 3572 594 3572 1178 
Q 3572 1766 3864 2108 
Q 4156 2450 4653 2450 
z
M 1428 4353 
Q 1159 4353 1004 4120 
Q 850 3888 850 3481 
Q 850 3069 1003 2837 
Q 1156 2606 1428 2606 
Q 1700 2606 1854 2837 
Q 2009 3069 2009 3481 
Q 2009 3884 1853 4118 
Q 1697 4353 1428 4353 
z
M 4250 4750 
L 4750 4750 
L 1831 -91 
L 1331 -91 
L 4250 4750 
z
M 1428 4750 
Q 1922 4750 2215 4408 
Q 2509 4066 2509 3481 
Q 2509 2891 2217 2550 
Q 1925 2209 1428 2209 
Q 931 2209 642 2551 
Q 353 2894 353 3481 
Q 353 4063 643 4406 
Q 934 4750 1428 4750 
z
" transform="scale(0.015625)"/>
       <path id="DejaVuSans-29" d="M 513 4856 
L 1013 4856 
Q 1481 4119 1714 3412 
Q 1947 2706 1947 2009 
Q 1947 1309 1714 600 
Q 1481 -109 1013 -844 
L 513 -844 
Q 928 -128 1133 580 
Q 1338 1288 1338 2009 
Q 1338 2731 1133 3434 
Q 928 4138 513 4856 
z
" transform="scale(0.015625)"/>
      </defs>
      <use xlink:href="#DejaVuSans-45"/>
      <use xlink:href="#DejaVuSans-78" x="63.183594"/>
      <use xlink:href="#DejaVuSans-63" x="120.613281"/>
      <use xlink:href="#DejaVuSans-65" x="175.59375"/>
      <use xlink:href="#DejaVuSans-73" x="237.117188"/>
      <use xlink:href="#DejaVuSans-73" x="289.216797"/>
      <use xlink:href="#DejaVuSans-20" x="341.316406"/>
      <use xlink:href="#DejaVuSans-6d" x="373.103516"/>
      <use xlink:href="#DejaVuSans-6f" x="470.515625"/>
      <use xlink:href="#DejaVuSans-72" x="531.697266"/>
      <use xlink:href="#DejaVuSans-74" x="572.810547"/>
      <use xlink:href="#DejaVuSans-61" x="612.019531"/>
      <use xlink:href="#DejaVuSans-6c" x="673.298828"/>
      <use xlink:href="#DejaVuSans-69" x="701.082031"/>
      <use xlink:href="#DejaVuSans-74" x="728.865234"/>
      <use xlink:href="#DejaVuSans-79" x="768.074219"/>
      <use xlink:href="#DejaVuSans-20" x="827.253906"/>
      <use xlink:href="#DejaVuSans-28" x="859.041016"/>
      <use xlink:href="#DejaVuSans-25" x="898.054688"/>
      <use xlink:href="#DejaVuSans-29" x="993.074219"/>
     </g>
    </g>
   </g>
   <g id="patch_3">
    <path d="M 78.075423 427.426747 
L 82.201314 427.426747 
L 82.201314 455.377545 
L 78.075423 455.377545 
z
" clip-path="url(#pfebbc6aa3a)" style="fill: #009e73; opacity: 0.78"/>
   </g>
   <g id="patch_4">
    <path d="M 83.85167 427.426747 
L 87.97756 427.426747 
L 87.97756 447.577322 
L 83.85167 447.577322 
z
" clip-path="url(#pfebbc6aa3a)" style="fill: #009e73; opacity: 0.78"/>
   </g>
   <g id="patch_5">
    <path d="M 89.627917 427.426747 
L 93.753807 427.426747 
L 93.753807 463.900011 
L 89.627917 463.900011 
z
" clip-path="url(#pfebbc6aa3a)" style="fill: #009e73; opacity: 0.78"/>
   </g>
   <g id="patch_6">
    <path d="M 95.404163 427.426747 
L 99.530054 427.426747 
L 99.530054 475.889242 
L 95.404163 475.889242 
z
" clip-path="url(#pfebbc6aa3a)" style="fill: #009e73; opacity: 0.78"/>
   </g>
   <g id="patch_7">
    <path d="M 101.18041 427.426747 
L 105.3063 427.426747 
L 105.3063 465.127823 
L 101.18041 465.127823 
z
" clip-path="url(#pfebbc6aa3a)" style="fill: #009e73; opacity: 0.78"/>
   </g>
   <g id="patch_8">
    <path d="M 106.956656 427.426747 
L 111.082547 427.426747 
L 111.082547 490.839668 
L 106.956656 490.839668 
z
" clip-path="url(#pfebbc6aa3a)" style="fill: #009e73; opacity: 0.78"/>
   </g>
   <g id="patch_9">
    <path d="M 112.732903 427.426747 
L 116.858793 427.426747 
L 116.858793 486.939557 
L 112.732903 486.939557 
z
" clip-path="url(#pfebbc6aa3a)" style="fill: #009e73; opacity: 0.78"/>
   </g>
   <g id="patch_10">
    <path d="M 118.509149 427.426747 
L 122.63504 427.426747 
L 122.63504 523.701717 
L 118.509149 523.701717 
z
" clip-path="url(#pfebbc6aa3a)" style="fill: #009e73; opacity: 0.78"/>
   </g>
   <g id="patch_11">
    <path d="M 124.285396 427.426747 
L 128.411286 427.426747 
L 128.411286 520.018279 
L 124.285396 520.018279 
z
" clip-path="url(#pfebbc6aa3a)" style="fill: #009e73; opacity: 0.78"/>
   </g>
   <g id="patch_12">
    <path d="M 130.061643 427.426747 
L 134.187533 427.426747 
L 134.187533 499.939928 
L 130.061643 499.939928 
z
" clip-path="url(#pfebbc6aa3a)" style="fill: #009e73; opacity: 0.78"/>
   </g>
   <g id="patch_13">
    <path d="M 135.837889 427.426747 
L 139.96378 427.426747 
L 139.96378 464.91115 
L 135.837889 464.91115 
z
" clip-path="url(#pfebbc6aa3a)" style="fill: #009e73; opacity: 0.78"/>
   </g>
   <g id="patch_14">
    <path d="M 141.614136 427.426747 
L 145.740026 427.426747 
L 145.740026 439.993773 
L 141.614136 439.993773 
z
" clip-path="url(#pfebbc6aa3a)" style="fill: #009e73; opacity: 0.78"/>
   </g>
   <g id="patch_15">
    <path d="M 147.390382 427.426747 
L 151.516273 427.426747 
L 151.516273 417.170899 
L 147.390382 417.170899 
z
" clip-path="url(#pfebbc6aa3a)" style="fill: #d55e00; opacity: 0.78"/>
   </g>
   <g id="patch_16">
    <path d="M 153.166629 427.426747 
L 157.292519 427.426747 
L 157.292519 362.135995 
L 153.166629 362.135995 
z
" clip-path="url(#pfebbc6aa3a)" style="fill: #d55e00; opacity: 0.78"/>
   </g>
   <g id="patch_17">
    <path d="M 158.942875 427.426747 
L 163.068766 427.426747 
L 163.068766 343.285457 
L 158.942875 343.285457 
z
" clip-path="url(#pfebbc6aa3a)" style="fill: #d55e00; opacity: 0.78"/>
   </g>
   <g id="patch_18">
    <path d="M 164.719122 427.426747 
L 168.845012 427.426747 
L 168.845012 374.269674 
L 164.719122 374.269674 
z
" clip-path="url(#pfebbc6aa3a)" style="fill: #d55e00; opacity: 0.78"/>
   </g>
   <g id="patch_19">
    <path d="M 170.495369 427.426747 
L 174.621259 427.426747 
L 174.621259 400.342641 
L 170.495369 400.342641 
z
" clip-path="url(#pfebbc6aa3a)" style="fill: #d55e00; opacity: 0.78"/>
   </g>
   <g id="patch_20">
    <path d="M 176.271615 427.426747 
L 180.397506 427.426747 
L 180.397506 406.842826 
L 176.271615 406.842826 
z
" clip-path="url(#pfebbc6aa3a)" style="fill: #d55e00; opacity: 0.78"/>
   </g>
   <g id="patch_21">
    <path d="M 182.047862 427.426747 
L 186.173752 427.426747 
L 186.173752 429.232354 
L 182.047862 429.232354 
z
" clip-path="url(#pfebbc6aa3a)" style="fill: #009e73; opacity: 0.78"/>
   </g>
   <g id="patch_22">
    <path d="M 187.824108 427.426747 
L 191.949999 427.426747 
L 191.949999 438.332614 
L 187.824108 438.332614 
z
" clip-path="url(#pfebbc6aa3a)" style="fill: #009e73; opacity: 0.78"/>
   </g>
   <g id="patch_23">
    <path d="M 193.600355 427.426747 
L 197.726245 427.426747 
L 197.726245 418.398712 
L 193.600355 418.398712 
z
" clip-path="url(#pfebbc6aa3a)" style="fill: #d55e00; opacity: 0.78"/>
   </g>
   <g id="patch_24">
    <path d="M 199.376601 427.426747 
L 203.502492 427.426747 
L 203.502492 441.149361 
L 199.376601 441.149361 
z
" clip-path="url(#pfebbc6aa3a)" style="fill: #009e73; opacity: 0.78"/>
   </g>
   <g id="patch_25">
    <path d="M 205.152848 427.426747 
L 209.278738 427.426747 
L 209.278738 413.848582 
L 205.152848 413.848582 
z
" clip-path="url(#pfebbc6aa3a)" style="fill: #d55e00; opacity: 0.78"/>
   </g>
   <g id="patch_26">
    <path d="M 210.929095 427.426747 
L 215.054985 427.426747 
L 215.054985 420.637665 
L 210.929095 420.637665 
z
" clip-path="url(#pfebbc6aa3a)" style="fill: #d55e00; opacity: 0.78"/>
   </g>
   <g id="patch_27">
    <path d="M 216.705341 427.426747 
L 220.831232 427.426747 
L 220.831232 443.893884 
L 216.705341 443.893884 
z
" clip-path="url(#pfebbc6aa3a)" style="fill: #009e73; opacity: 0.78"/>
   </g>
   <g id="patch_28">
    <path d="M 222.481588 427.426747 
L 226.607478 427.426747 
L 226.607478 410.670713 
L 222.481588 410.670713 
z
" clip-path="url(#pfebbc6aa3a)" style="fill: #d55e00; opacity: 0.78"/>
   </g>
   <g id="patch_29">
    <path d="M 228.257834 427.426747 
L 232.383725 427.426747 
L 232.383725 467.94457 
L 228.257834 467.94457 
z
" clip-path="url(#pfebbc6aa3a)" style="fill: #009e73; opacity: 0.78"/>
   </g>
   <g id="patch_30">
    <path d="M 234.034081 427.426747 
L 238.159971 427.426747 
L 238.159971 452.560798 
L 234.034081 452.560798 
z
" clip-path="url(#pfebbc6aa3a)" style="fill: #009e73; opacity: 0.78"/>
   </g>
   <g id="patch_31">
    <path d="M 239.810327 427.426747 
L 243.936218 427.426747 
L 243.936218 452.633022 
L 239.810327 452.633022 
z
" clip-path="url(#pfebbc6aa3a)" style="fill: #009e73; opacity: 0.78"/>
   </g>
   <g id="patch_32">
    <path d="M 245.586574 427.426747 
L 249.712464 427.426747 
L 249.712464 461.011039 
L 245.586574 461.011039 
z
" clip-path="url(#pfebbc6aa3a)" style="fill: #009e73; opacity: 0.78"/>
   </g>
   <g id="patch_33">
    <path d="M 251.362821 427.426747 
L 255.488711 427.426747 
L 255.488711 424.898897 
L 251.362821 424.898897 
z
" clip-path="url(#pfebbc6aa3a)" style="fill: #d55e00; opacity: 0.78"/>
   </g>
   <g id="patch_34">
    <path d="M 257.139067 427.426747 
L 261.264958 427.426747 
L 261.264958 407.709518 
L 257.139067 407.709518 
z
" clip-path="url(#pfebbc6aa3a)" style="fill: #d55e00; opacity: 0.78"/>
   </g>
   <g id="patch_35">
    <path d="M 262.915314 427.426747 
L 267.041204 427.426747 
L 267.041204 303.923222 
L 262.915314 303.923222 
z
" clip-path="url(#pfebbc6aa3a)" style="fill: #d55e00; opacity: 0.78"/>
   </g>
   <g id="patch_36">
    <path d="M 268.69156 427.426747 
L 272.817451 427.426747 
L 272.817451 387.775616 
L 268.69156 387.775616 
z
" clip-path="url(#pfebbc6aa3a)" style="fill: #d55e00; opacity: 0.78"/>
   </g>
   <g id="patch_37">
    <path d="M 274.467807 427.426747 
L 278.593697 427.426747 
L 278.593697 433.71026 
L 274.467807 433.71026 
z
" clip-path="url(#pfebbc6aa3a)" style="fill: #009e73; opacity: 0.78"/>
   </g>
   <g id="patch_38">
    <path d="M 280.244054 427.426747 
L 284.369944 427.426747 
L 284.369944 409.804022 
L 280.244054 409.804022 
z
" clip-path="url(#pfebbc6aa3a)" style="fill: #d55e00; opacity: 0.78"/>
   </g>
   <g id="patch_39">
    <path d="M 286.0203 427.426747 
L 290.14619 427.426747 
L 290.14619 404.676098 
L 286.0203 404.676098 
z
" clip-path="url(#pfebbc6aa3a)" style="fill: #d55e00; opacity: 0.78"/>
   </g>
   <g id="patch_40">
    <path d="M 291.796547 427.426747 
L 295.922437 427.426747 
L 295.922437 389.436774 
L 291.796547 389.436774 
z
" clip-path="url(#pfebbc6aa3a)" style="fill: #d55e00; opacity: 0.78"/>
   </g>
   <g id="patch_41">
    <path d="M 297.572793 427.426747 
L 301.698684 427.426747 
L 301.698684 401.570454 
L 297.572793 401.570454 
z
" clip-path="url(#pfebbc6aa3a)" style="fill: #d55e00; opacity: 0.78"/>
   </g>
   <g id="patch_42">
    <path d="M 303.34904 427.426747 
L 307.47493 427.426747 
L 307.47493 401.859351 
L 303.34904 401.859351 
z
" clip-path="url(#pfebbc6aa3a)" style="fill: #d55e00; opacity: 0.78"/>
   </g>
   <g id="patch_43">
    <path d="M 309.125286 427.426747 
L 313.251177 427.426747 
L 313.251177 434.938073 
L 309.125286 434.938073 
z
" clip-path="url(#pfebbc6aa3a)" style="fill: #009e73; opacity: 0.78"/>
   </g>
   <g id="patch_44">
    <path d="M 314.901533 427.426747 
L 319.027423 427.426747 
L 319.027423 420.637665 
L 314.901533 420.637665 
z
" clip-path="url(#pfebbc6aa3a)" style="fill: #d55e00; opacity: 0.78"/>
   </g>
   <g id="patch_45">
    <path d="M 320.67778 427.426747 
L 324.80367 427.426747 
L 324.80367 386.981148 
L 320.67778 386.981148 
z
" clip-path="url(#pfebbc6aa3a)" style="fill: #d55e00; opacity: 0.78"/>
   </g>
   <g id="patch_46">
    <path d="M 326.454026 427.426747 
L 330.579917 427.426747 
L 330.579917 383.658831 
L 326.454026 383.658831 
z
" clip-path="url(#pfebbc6aa3a)" style="fill: #d55e00; opacity: 0.78"/>
   </g>
   <g id="patch_47">
    <path d="M 332.230273 427.426747 
L 336.356163 427.426747 
L 336.356163 384.742196 
L 332.230273 384.742196 
z
" clip-path="url(#pfebbc6aa3a)" style="fill: #d55e00; opacity: 0.78"/>
   </g>
   <g id="patch_48">
    <path d="M 338.006519 427.426747 
L 342.13241 427.426747 
L 342.13241 357.946986 
L 338.006519 357.946986 
z
" clip-path="url(#pfebbc6aa3a)" style="fill: #d55e00; opacity: 0.78"/>
   </g>
   <g id="patch_49">
    <path d="M 343.782766 427.426747 
L 347.908656 427.426747 
L 347.908656 347.402241 
L 343.782766 347.402241 
z
" clip-path="url(#pfebbc6aa3a)" style="fill: #d55e00; opacity: 0.78"/>
   </g>
   <g id="patch_50">
    <path d="M 349.559012 427.426747 
L 353.684903 427.426747 
L 353.684903 309.701165 
L 349.559012 309.701165 
z
" clip-path="url(#pfebbc6aa3a)" style="fill: #d55e00; opacity: 0.78"/>
   </g>
   <g id="patch_51">
    <path d="M 355.335259 427.426747 
L 359.461149 427.426747 
L 359.461149 278.283602 
L 355.335259 278.283602 
z
" clip-path="url(#pfebbc6aa3a)" style="fill: #d55e00; opacity: 0.78"/>
   </g>
   <g id="patch_52">
    <path d="M 361.111506 427.426747 
L 365.237396 427.426747 
L 365.237396 223.393146 
L 361.111506 223.393146 
z
" clip-path="url(#pfebbc6aa3a)" style="fill: #d55e00; opacity: 0.78"/>
   </g>
   <g id="patch_53">
    <path d="M 366.887752 427.426747 
L 371.013643 427.426747 
L 371.013643 214.076213 
L 366.887752 214.076213 
z
" clip-path="url(#pfebbc6aa3a)" style="fill: #d55e00; opacity: 0.78"/>
   </g>
   <g id="patch_54">
    <path d="M 372.663999 427.426747 
L 376.789889 427.426747 
L 376.789889 166.119289 
L 372.663999 166.119289 
z
" clip-path="url(#pfebbc6aa3a)" style="fill: #d55e00; opacity: 0.78"/>
   </g>
   <g id="patch_55">
    <path d="M 378.440245 427.426747 
L 382.566136 427.426747 
L 382.566136 166.624859 
L 378.440245 166.624859 
z
" clip-path="url(#pfebbc6aa3a)" style="fill: #d55e00; opacity: 0.78"/>
   </g>
   <g id="patch_56">
    <path d="M 384.216492 427.426747 
L 388.342382 427.426747 
L 388.342382 239.932507 
L 384.216492 239.932507 
z
" clip-path="url(#pfebbc6aa3a)" style="fill: #d55e00; opacity: 0.78"/>
   </g>
   <g id="patch_57">
    <path d="M 389.992738 427.426747 
L 394.118629 427.426747 
L 394.118629 268.388875 
L 389.992738 268.388875 
z
" clip-path="url(#pfebbc6aa3a)" style="fill: #d55e00; opacity: 0.78"/>
   </g>
   <g id="patch_58">
    <path d="M 395.768985 427.426747 
L 399.894875 427.426747 
L 399.894875 282.689283 
L 395.768985 282.689283 
z
" clip-path="url(#pfebbc6aa3a)" style="fill: #d55e00; opacity: 0.78"/>
   </g>
   <g id="patch_59">
    <path d="M 401.545232 427.426747 
L 405.671122 427.426747 
L 405.671122 343.791027 
L 401.545232 343.791027 
z
" clip-path="url(#pfebbc6aa3a)" style="fill: #d55e00; opacity: 0.78"/>
   </g>
   <g id="patch_60">
    <path d="M 407.321478 427.426747 
L 411.447369 427.426747 
L 411.447369 400.920435 
L 407.321478 400.920435 
z
" clip-path="url(#pfebbc6aa3a)" style="fill: #d55e00; opacity: 0.78"/>
   </g>
   <g id="patch_61">
    <path d="M 413.097725 427.426747 
L 417.223615 427.426747 
L 417.223615 429.593476 
L 413.097725 429.593476 
z
" clip-path="url(#pfebbc6aa3a)" style="fill: #009e73; opacity: 0.78"/>
   </g>
   <g id="patch_62">
    <path d="M 418.873971 427.426747 
L 422.999862 427.426747 
L 422.999862 462.888871 
L 418.873971 462.888871 
z
" clip-path="url(#pfebbc6aa3a)" style="fill: #009e73; opacity: 0.78"/>
   </g>
   <g id="patch_63">
    <path d="M 424.650218 427.426747 
L 428.776108 427.426747 
L 428.776108 526.807362 
L 424.650218 526.807362 
z
" clip-path="url(#pfebbc6aa3a)" style="fill: #009e73; opacity: 0.78"/>
   </g>
   <g id="patch_64">
    <path d="M 430.426464 427.426747 
L 434.552355 427.426747 
L 434.552355 557.647131 
L 430.426464 557.647131 
z
" clip-path="url(#pfebbc6aa3a)" style="fill: #009e73; opacity: 0.78"/>
   </g>
   <g id="patch_65">
    <path d="M 436.202711 427.426747 
L 440.328601 427.426747 
L 440.328601 538.941041 
L 436.202711 538.941041 
z
" clip-path="url(#pfebbc6aa3a)" style="fill: #009e73; opacity: 0.78"/>
   </g>
   <g id="patch_66">
    <path d="M 441.978958 427.426747 
L 446.104848 427.426747 
L 446.104848 520.018279 
L 441.978958 520.018279 
z
" clip-path="url(#pfebbc6aa3a)" style="fill: #009e73; opacity: 0.78"/>
   </g>
   <g id="patch_67">
    <path d="M 447.755204 427.426747 
L 451.881095 427.426747 
L 451.881095 490.839668 
L 447.755204 490.839668 
z
" clip-path="url(#pfebbc6aa3a)" style="fill: #009e73; opacity: 0.78"/>
   </g>
   <g id="patch_68">
    <path d="M 453.531451 427.426747 
L 457.657341 427.426747 
L 457.657341 465.200048 
L 453.531451 465.200048 
z
" clip-path="url(#pfebbc6aa3a)" style="fill: #009e73; opacity: 0.78"/>
   </g>
   <g id="patch_69">
    <path d="M 459.307697 427.426747 
L 463.433588 427.426747 
L 463.433588 435.588091 
L 459.307697 435.588091 
z
" clip-path="url(#pfebbc6aa3a)" style="fill: #009e73; opacity: 0.78"/>
   </g>
   <g id="patch_70">
    <path d="M 465.083944 427.426747 
L 469.209834 427.426747 
L 469.209834 404.170528 
L 465.083944 404.170528 
z
" clip-path="url(#pfebbc6aa3a)" style="fill: #d55e00; opacity: 0.78"/>
   </g>
   <g id="patch_71">
    <path d="M 470.86019 427.426747 
L 474.986081 427.426747 
L 474.986081 379.397599 
L 470.86019 379.397599 
z
" clip-path="url(#pfebbc6aa3a)" style="fill: #d55e00; opacity: 0.78"/>
   </g>
   <g id="patch_72">
    <path d="M 476.636437 427.426747 
L 480.762327 427.426747 
L 480.762327 366.180555 
L 476.636437 366.180555 
z
" clip-path="url(#pfebbc6aa3a)" style="fill: #d55e00; opacity: 0.78"/>
   </g>
   <g id="patch_73">
    <path d="M 482.412684 427.426747 
L 486.538574 427.426747 
L 486.538574 354.769118 
L 482.412684 354.769118 
z
" clip-path="url(#pfebbc6aa3a)" style="fill: #d55e00; opacity: 0.78"/>
   </g>
   <g id="patch_74">
    <path d="M 488.18893 427.426747 
L 492.314821 427.426747 
L 492.314821 397.309221 
L 488.18893 397.309221 
z
" clip-path="url(#pfebbc6aa3a)" style="fill: #d55e00; opacity: 0.78"/>
   </g>
   <g id="patch_75">
    <path d="M 493.965177 427.426747 
L 498.091067 427.426747 
L 498.091067 410.381816 
L 493.965177 410.381816 
z
" clip-path="url(#pfebbc6aa3a)" style="fill: #d55e00; opacity: 0.78"/>
   </g>
   <g id="patch_76">
    <path d="M 499.741423 427.426747 
L 503.867314 427.426747 
L 503.867314 423.09329 
L 499.741423 423.09329 
z
" clip-path="url(#pfebbc6aa3a)" style="fill: #d55e00; opacity: 0.78"/>
   </g>
   <g id="patch_77">
    <path d="M 505.51767 427.426747 
L 509.64356 427.426747 
L 509.64356 387.558943 
L 505.51767 387.558943 
z
" clip-path="url(#pfebbc6aa3a)" style="fill: #d55e00; opacity: 0.78"/>
   </g>
   <g id="patch_78">
    <path d="M 511.293917 427.426747 
L 515.419807 427.426747 
L 515.419807 412.259648 
L 511.293917 412.259648 
z
" clip-path="url(#pfebbc6aa3a)" style="fill: #d55e00; opacity: 0.78"/>
   </g>
   <g id="patch_79">
    <path d="M 517.070163 427.426747 
L 521.196054 427.426747 
L 521.196054 319.018097 
L 517.070163 319.018097 
z
" clip-path="url(#pfebbc6aa3a)" style="fill: #d55e00; opacity: 0.78"/>
   </g>
   <g id="patch_80">
    <path d="M 522.84641 427.426747 
L 526.9723 427.426747 
L 526.9723 416.01531 
L 522.84641 416.01531 
z
" clip-path="url(#pfebbc6aa3a)" style="fill: #d55e00; opacity: 0.78"/>
   </g>
   <g id="patch_81">
    <path d="M 528.622656 427.426747 
L 532.748547 427.426747 
L 532.748547 428.582336 
L 528.622656 428.582336 
z
" clip-path="url(#pfebbc6aa3a)" style="fill: #009e73; opacity: 0.78"/>
   </g>
   <g id="patch_82">
    <path d="M 534.398903 427.426747 
L 538.524793 427.426747 
L 538.524793 451.260761 
L 534.398903 451.260761 
z
" clip-path="url(#pfebbc6aa3a)" style="fill: #009e73; opacity: 0.78"/>
   </g>
   <g id="patch_83">
    <path d="M 540.175149 427.426747 
L 544.30104 427.426747 
L 544.30104 393.192437 
L 540.175149 393.192437 
z
" clip-path="url(#pfebbc6aa3a)" style="fill: #d55e00; opacity: 0.78"/>
   </g>
   <g id="patch_84">
    <path d="M 545.951396 427.426747 
L 550.077286 427.426747 
L 550.077286 413.270788 
L 545.951396 413.270788 
z
" clip-path="url(#pfebbc6aa3a)" style="fill: #d55e00; opacity: 0.78"/>
   </g>
   <g id="patch_85">
    <path d="M 551.727643 427.426747 
L 555.853533 427.426747 
L 555.853533 453.283041 
L 551.727643 453.283041 
z
" clip-path="url(#pfebbc6aa3a)" style="fill: #009e73; opacity: 0.78"/>
   </g>
   <g id="patch_86">
    <path d="M 557.503889 427.426747 
L 561.62978 427.426747 
L 561.62978 447.649547 
L 557.503889 447.649547 
z
" clip-path="url(#pfebbc6aa3a)" style="fill: #009e73; opacity: 0.78"/>
   </g>
   <g id="patch_87">
    <path d="M 563.280136 427.426747 
L 567.406026 427.426747 
L 567.406026 410.020695 
L 563.280136 410.020695 
z
" clip-path="url(#pfebbc6aa3a)" style="fill: #d55e00; opacity: 0.78"/>
   </g>
   <g id="patch_88">
    <path d="M 569.056382 427.426747 
L 573.182273 427.426747 
L 573.182273 405.253892 
L 569.056382 405.253892 
z
" clip-path="url(#pfebbc6aa3a)" style="fill: #d55e00; opacity: 0.78"/>
   </g>
   <g id="patch_89">
    <path d="M 574.832629 427.426747 
L 578.958519 427.426747 
L 578.958519 411.681853 
L 574.832629 411.681853 
z
" clip-path="url(#pfebbc6aa3a)" style="fill: #d55e00; opacity: 0.78"/>
   </g>
   <g id="patch_90">
    <path d="M 580.608875 427.426747 
L 584.734766 427.426747 
L 584.734766 410.381816 
L 580.608875 410.381816 
z
" clip-path="url(#pfebbc6aa3a)" style="fill: #d55e00; opacity: 0.78"/>
   </g>
   <g id="patch_91">
    <path d="M 586.385122 427.426747 
L 590.511012 427.426747 
L 590.511012 324.723816 
L 586.385122 324.723816 
z
" clip-path="url(#pfebbc6aa3a)" style="fill: #d55e00; opacity: 0.78"/>
   </g>
   <g id="patch_92">
    <path d="M 592.161369 427.426747 
L 596.287259 427.426747 
L 596.287259 372.030722 
L 592.161369 372.030722 
z
" clip-path="url(#pfebbc6aa3a)" style="fill: #d55e00; opacity: 0.78"/>
   </g>
   <g id="patch_93">
    <path d="M 597.937615 427.426747 
L 602.063506 427.426747 
L 602.063506 369.863993 
L 597.937615 369.863993 
z
" clip-path="url(#pfebbc6aa3a)" style="fill: #d55e00; opacity: 0.78"/>
   </g>
   <g id="patch_94">
    <path d="M 603.713862 427.426747 
L 607.839752 427.426747 
L 607.839752 378.675356 
L 603.713862 378.675356 
z
" clip-path="url(#pfebbc6aa3a)" style="fill: #d55e00; opacity: 0.78"/>
   </g>
   <g id="patch_95">
    <path d="M 609.490108 427.426747 
L 613.615999 427.426747 
L 613.615999 382.864364 
L 609.490108 382.864364 
z
" clip-path="url(#pfebbc6aa3a)" style="fill: #d55e00; opacity: 0.78"/>
   </g>
   <g id="patch_96">
    <path d="M 615.266355 427.426747 
L 619.392245 427.426747 
L 619.392245 381.853224 
L 615.266355 381.853224 
z
" clip-path="url(#pfebbc6aa3a)" style="fill: #d55e00; opacity: 0.78"/>
   </g>
   <g id="patch_97">
    <path d="M 621.042601 427.426747 
L 625.168492 427.426747 
L 625.168492 344.585494 
L 621.042601 344.585494 
z
" clip-path="url(#pfebbc6aa3a)" style="fill: #d55e00; opacity: 0.78"/>
   </g>
   <g id="patch_98">
    <path d="M 626.818848 427.426747 
L 630.944738 427.426747 
L 630.944738 319.74034 
L 626.818848 319.74034 
z
" clip-path="url(#pfebbc6aa3a)" style="fill: #d55e00; opacity: 0.78"/>
   </g>
   <g id="patch_99">
    <path d="M 632.595095 427.426747 
L 636.720985 427.426747 
L 636.720985 314.395743 
L 632.595095 314.395743 
z
" clip-path="url(#pfebbc6aa3a)" style="fill: #d55e00; opacity: 0.78"/>
   </g>
   <g id="patch_100">
    <path d="M 638.371341 427.426747 
L 642.497232 427.426747 
L 642.497232 308.256679 
L 638.371341 308.256679 
z
" clip-path="url(#pfebbc6aa3a)" style="fill: #d55e00; opacity: 0.78"/>
   </g>
   <g id="patch_101">
    <path d="M 644.147588 427.426747 
L 648.273478 427.426747 
L 648.273478 259.794185 
L 644.147588 259.794185 
z
" clip-path="url(#pfebbc6aa3a)" style="fill: #d55e00; opacity: 0.78"/>
   </g>
   <g id="patch_102">
    <path d="M 649.923834 427.426747 
L 654.049725 427.426747 
L 654.049725 231.626714 
L 649.923834 231.626714 
z
" clip-path="url(#pfebbc6aa3a)" style="fill: #d55e00; opacity: 0.78"/>
   </g>
   <g id="patch_103">
    <path d="M 655.700081 427.426747 
L 659.825971 427.426747 
L 659.825971 203.314795 
L 655.700081 203.314795 
z
" clip-path="url(#pfebbc6aa3a)" style="fill: #d55e00; opacity: 0.78"/>
   </g>
   <g id="patch_104">
    <path d="M 661.476327 427.426747 
L 665.602218 427.426747 
L 665.602218 230.03778 
L 661.476327 230.03778 
z
" clip-path="url(#pfebbc6aa3a)" style="fill: #d55e00; opacity: 0.78"/>
   </g>
   <g id="patch_105">
    <path d="M 667.252574 427.426747 
L 671.378464 427.426747 
L 671.378464 268.31665 
L 667.252574 268.31665 
z
" clip-path="url(#pfebbc6aa3a)" style="fill: #d55e00; opacity: 0.78"/>
   </g>
   <g id="patch_106">
    <path d="M 673.028821 427.426747 
L 677.154711 427.426747 
L 677.154711 305.223259 
L 673.028821 305.223259 
z
" clip-path="url(#pfebbc6aa3a)" style="fill: #d55e00; opacity: 0.78"/>
   </g>
   <g id="patch_107">
    <path d="M 678.805067 427.426747 
L 682.930958 427.426747 
L 682.930958 302.478737 
L 678.805067 302.478737 
z
" clip-path="url(#pfebbc6aa3a)" style="fill: #d55e00; opacity: 0.78"/>
   </g>
   <g id="patch_108">
    <path d="M 684.581314 427.426747 
L 688.707204 427.426747 
L 688.707204 393.047988 
L 684.581314 393.047988 
z
" clip-path="url(#pfebbc6aa3a)" style="fill: #d55e00; opacity: 0.78"/>
   </g>
   <g id="patch_109">
    <path d="M 690.35756 427.426747 
L 694.483451 427.426747 
L 694.483451 438.910408 
L 690.35756 438.910408 
z
" clip-path="url(#pfebbc6aa3a)" style="fill: #009e73; opacity: 0.78"/>
   </g>
   <g id="patch_110">
    <path d="M 696.133807 427.426747 
L 700.259697 427.426747 
L 700.259697 441.510483 
L 696.133807 441.510483 
z
" clip-path="url(#pfebbc6aa3a)" style="fill: #009e73; opacity: 0.78"/>
   </g>
   <g id="patch_111">
    <path d="M 701.910054 427.426747 
L 706.035944 427.426747 
L 706.035944 435.73254 
L 701.910054 435.73254 
z
" clip-path="url(#pfebbc6aa3a)" style="fill: #009e73; opacity: 0.78"/>
   </g>
   <g id="patch_112">
    <path d="M 707.6863 427.426747 
L 711.81219 427.426747 
L 711.81219 442.593847 
L 707.6863 442.593847 
z
" clip-path="url(#pfebbc6aa3a)" style="fill: #009e73; opacity: 0.78"/>
   </g>
   <g id="patch_113">
    <path d="M 713.462547 427.426747 
L 717.588437 427.426747 
L 717.588437 449.744051 
L 713.462547 449.744051 
z
" clip-path="url(#pfebbc6aa3a)" style="fill: #009e73; opacity: 0.78"/>
   </g>
   <g id="patch_114">
    <path d="M 719.238793 427.426747 
L 723.364684 427.426747 
L 723.364684 444.905024 
L 719.238793 444.905024 
z
" clip-path="url(#pfebbc6aa3a)" style="fill: #009e73; opacity: 0.78"/>
   </g>
   <g id="patch_115">
    <path d="M 725.01504 427.426747 
L 729.14093 427.426747 
L 729.14093 485.206174 
L 725.01504 485.206174 
z
" clip-path="url(#pfebbc6aa3a)" style="fill: #009e73; opacity: 0.78"/>
   </g>
   <g id="patch_116">
    <path d="M 730.791286 427.426747 
L 734.917177 427.426747 
L 734.917177 486.14509 
L 730.791286 486.14509 
z
" clip-path="url(#pfebbc6aa3a)" style="fill: #009e73; opacity: 0.78"/>
   </g>
   <g id="patch_117">
    <path d="M 736.567533 427.426747 
L 740.693423 427.426747 
L 740.693423 456.460909 
L 736.567533 456.460909 
z
" clip-path="url(#pfebbc6aa3a)" style="fill: #009e73; opacity: 0.78"/>
   </g>
   <g id="patch_118">
    <path d="M 742.34378 427.426747 
L 746.46967 427.426747 
L 746.46967 422.58772 
L 742.34378 422.58772 
z
" clip-path="url(#pfebbc6aa3a)" style="fill: #d55e00; opacity: 0.78"/>
   </g>
   <g id="patch_119">
    <path d="M 748.120026 427.426747 
L 752.245917 427.426747 
L 752.245917 396.009184 
L 748.120026 396.009184 
z
" clip-path="url(#pfebbc6aa3a)" style="fill: #d55e00; opacity: 0.78"/>
   </g>
   <g id="patch_120">
    <path d="M 753.896273 427.426747 
L 758.022163 427.426747 
L 758.022163 383.369934 
L 753.896273 383.369934 
z
" clip-path="url(#pfebbc6aa3a)" style="fill: #d55e00; opacity: 0.78"/>
   </g>
   <g id="patch_121">
    <path d="M 759.672519 427.426747 
L 763.79841 427.426747 
L 763.79841 362.569341 
L 759.672519 362.569341 
z
" clip-path="url(#pfebbc6aa3a)" style="fill: #d55e00; opacity: 0.78"/>
   </g>
   <g id="patch_122">
    <path d="M 765.448766 427.426747 
L 769.574656 427.426747 
L 769.574656 364.952742 
L 765.448766 364.952742 
z
" clip-path="url(#pfebbc6aa3a)" style="fill: #d55e00; opacity: 0.78"/>
   </g>
   <g id="patch_123">
    <path d="M 771.225012 427.426747 
L 775.350903 427.426747 
L 775.350903 373.547432 
L 771.225012 373.547432 
z
" clip-path="url(#pfebbc6aa3a)" style="fill: #d55e00; opacity: 0.78"/>
   </g>
   <g id="patch_124">
    <path d="M 777.001259 427.426747 
L 781.127149 427.426747 
L 781.127149 379.903169 
L 777.001259 379.903169 
z
" clip-path="url(#pfebbc6aa3a)" style="fill: #d55e00; opacity: 0.78"/>
   </g>
   <g id="patch_125">
    <path d="M 782.777506 427.426747 
L 786.903396 427.426747 
L 786.903396 365.313863 
L 782.777506 365.313863 
z
" clip-path="url(#pfebbc6aa3a)" style="fill: #d55e00; opacity: 0.78"/>
   </g>
   <g id="patch_126">
    <path d="M 788.553752 427.426747 
L 792.679643 427.426747 
L 792.679643 375.569712 
L 788.553752 375.569712 
z
" clip-path="url(#pfebbc6aa3a)" style="fill: #d55e00; opacity: 0.78"/>
   </g>
   <g id="patch_127">
    <path d="M 794.329999 427.426747 
L 798.455889 427.426747 
L 798.455889 385.247766 
L 794.329999 385.247766 
z
" clip-path="url(#pfebbc6aa3a)" style="fill: #d55e00; opacity: 0.78"/>
   </g>
   <g id="patch_128">
    <path d="M 800.106245 427.426747 
L 804.232136 427.426747 
L 804.232136 427.282299 
L 800.106245 427.282299 
z
" clip-path="url(#pfebbc6aa3a)" style="fill: #d55e00; opacity: 0.78"/>
   </g>
   <g id="patch_129">
    <path d="M 805.882492 427.426747 
L 810.008382 427.426747 
L 810.008382 397.309221 
L 805.882492 397.309221 
z
" clip-path="url(#pfebbc6aa3a)" style="fill: #d55e00; opacity: 0.78"/>
   </g>
   <g id="patch_130">
    <path d="M 811.658738 427.426747 
L 815.784629 427.426747 
L 815.784629 396.514754 
L 811.658738 396.514754 
z
" clip-path="url(#pfebbc6aa3a)" style="fill: #d55e00; opacity: 0.78"/>
   </g>
   <g id="patch_131">
    <path d="M 817.434985 427.426747 
L 821.560875 427.426747 
L 821.560875 350.941231 
L 817.434985 350.941231 
z
" clip-path="url(#pfebbc6aa3a)" style="fill: #d55e00; opacity: 0.78"/>
   </g>
   <g id="patch_132">
    <path d="M 823.211232 427.426747 
L 827.337122 427.426747 
L 827.337122 342.924335 
L 823.211232 342.924335 
z
" clip-path="url(#pfebbc6aa3a)" style="fill: #d55e00; opacity: 0.78"/>
   </g>
   <g id="patch_133">
    <path d="M 828.987478 427.426747 
L 833.113369 427.426747 
L 833.113369 369.358423 
L 828.987478 369.358423 
z
" clip-path="url(#pfebbc6aa3a)" style="fill: #d55e00; opacity: 0.78"/>
   </g>
   <g id="patch_134">
    <path d="M 834.763725 427.426747 
L 838.889615 427.426747 
L 838.889615 409.442901 
L 834.763725 409.442901 
z
" clip-path="url(#pfebbc6aa3a)" style="fill: #d55e00; opacity: 0.78"/>
   </g>
   <g id="patch_135">
    <path d="M 840.539971 427.426747 
L 844.665862 427.426747 
L 844.665862 341.768747 
L 840.539971 341.768747 
z
" clip-path="url(#pfebbc6aa3a)" style="fill: #d55e00; opacity: 0.78"/>
   </g>
   <g id="patch_136">
    <path d="M 846.316218 427.426747 
L 850.442108 427.426747 
L 850.442108 279.222517 
L 846.316218 279.222517 
z
" clip-path="url(#pfebbc6aa3a)" style="fill: #d55e00; opacity: 0.78"/>
   </g>
   <g id="patch_137">
    <path d="M 852.092464 427.426747 
L 856.218355 427.426747 
L 856.218355 334.762991 
L 852.092464 334.762991 
z
" clip-path="url(#pfebbc6aa3a)" style="fill: #d55e00; opacity: 0.78"/>
   </g>
   <g id="patch_138">
    <path d="M 857.868711 427.426747 
L 861.994601 427.426747 
L 861.994601 332.451814 
L 857.868711 332.451814 
z
" clip-path="url(#pfebbc6aa3a)" style="fill: #d55e00; opacity: 0.78"/>
   </g>
   <g id="patch_139">
    <path d="M 863.644958 427.426747 
L 867.770848 427.426747 
L 867.770848 321.040377 
L 863.644958 321.040377 
z
" clip-path="url(#pfebbc6aa3a)" style="fill: #d55e00; opacity: 0.78"/>
   </g>
   <g id="patch_140">
    <path d="M 869.421204 427.426747 
L 873.547095 427.426747 
L 873.547095 308.762249 
L 869.421204 308.762249 
z
" clip-path="url(#pfebbc6aa3a)" style="fill: #d55e00; opacity: 0.78"/>
   </g>
   <g id="patch_141">
    <path d="M 875.197451 427.426747 
L 879.323341 427.426747 
L 879.323341 339.168673 
L 875.197451 339.168673 
z
" clip-path="url(#pfebbc6aa3a)" style="fill: #d55e00; opacity: 0.78"/>
   </g>
   <g id="patch_142">
    <path d="M 880.973697 427.426747 
L 885.099588 427.426747 
L 885.099588 376.147506 
L 880.973697 376.147506 
z
" clip-path="url(#pfebbc6aa3a)" style="fill: #d55e00; opacity: 0.78"/>
   </g>
   <g id="patch_143">
    <path d="M 886.749944 427.426747 
L 890.875834 427.426747 
L 890.875834 336.063028 
L 886.749944 336.063028 
z
" clip-path="url(#pfebbc6aa3a)" style="fill: #d55e00; opacity: 0.78"/>
   </g>
   <g id="patch_144">
    <path d="M 892.52619 427.426747 
L 896.652081 427.426747 
L 896.652081 369.069526 
L 892.52619 369.069526 
z
" clip-path="url(#pfebbc6aa3a)" style="fill: #d55e00; opacity: 0.78"/>
   </g>
   <g id="patch_145">
    <path d="M 898.302437 427.426747 
L 902.428327 427.426747 
L 902.428327 335.268561 
L 898.302437 335.268561 
z
" clip-path="url(#pfebbc6aa3a)" style="fill: #d55e00; opacity: 0.78"/>
   </g>
   <g id="patch_146">
    <path d="M 904.078684 427.426747 
L 908.204574 427.426747 
L 908.204574 289.04502 
L 904.078684 289.04502 
z
" clip-path="url(#pfebbc6aa3a)" style="fill: #d55e00; opacity: 0.78"/>
   </g>
   <g id="patch_147">
    <path d="M 909.85493 427.426747 
L 913.980821 427.426747 
L 913.980821 288.03388 
L 909.85493 288.03388 
z
" clip-path="url(#pfebbc6aa3a)" style="fill: #d55e00; opacity: 0.78"/>
   </g>
   <g id="patch_148">
    <path d="M 915.631177 427.426747 
L 919.757067 427.426747 
L 919.757067 273.589023 
L 915.631177 273.589023 
z
" clip-path="url(#pfebbc6aa3a)" style="fill: #d55e00; opacity: 0.78"/>
   </g>
   <g id="patch_149">
    <path d="M 921.407423 427.426747 
L 925.533314 427.426747 
L 925.533314 267.738856 
L 921.407423 267.738856 
z
" clip-path="url(#pfebbc6aa3a)" style="fill: #d55e00; opacity: 0.78"/>
   </g>
   <g id="patch_150">
    <path d="M 927.18367 427.426747 
L 931.30956 427.426747 
L 931.30956 283.339301 
L 927.18367 283.339301 
z
" clip-path="url(#pfebbc6aa3a)" style="fill: #d55e00; opacity: 0.78"/>
   </g>
   <g id="patch_151">
    <path d="M 932.959917 427.426747 
L 937.085807 427.426747 
L 937.085807 340.97428 
L 932.959917 340.97428 
z
" clip-path="url(#pfebbc6aa3a)" style="fill: #d55e00; opacity: 0.78"/>
   </g>
   <g id="patch_152">
    <path d="M 938.736163 427.426747 
L 942.862054 427.426747 
L 942.862054 349.641194 
L 938.736163 349.641194 
z
" clip-path="url(#pfebbc6aa3a)" style="fill: #d55e00; opacity: 0.78"/>
   </g>
   <g id="patch_153">
    <path d="M 944.51241 427.426747 
L 948.6383 427.426747 
L 948.6383 326.673872 
L 944.51241 326.673872 
z
" clip-path="url(#pfebbc6aa3a)" style="fill: #d55e00; opacity: 0.78"/>
   </g>
   <g id="patch_154">
    <path d="M 950.288656 427.426747 
L 954.414547 427.426747 
L 954.414547 309.917838 
L 950.288656 309.917838 
z
" clip-path="url(#pfebbc6aa3a)" style="fill: #d55e00; opacity: 0.78"/>
   </g>
   <g id="patch_155">
    <path d="M 956.064903 427.426747 
L 960.190793 427.426747 
L 960.190793 284.639338 
L 956.064903 284.639338 
z
" clip-path="url(#pfebbc6aa3a)" style="fill: #d55e00; opacity: 0.78"/>
   </g>
   <g id="patch_156">
    <path d="M 961.841149 427.426747 
L 965.96704 427.426747 
L 965.96704 233.287873 
L 961.841149 233.287873 
z
" clip-path="url(#pfebbc6aa3a)" style="fill: #d55e00; opacity: 0.78"/>
   </g>
   <g id="patch_157">
    <path d="M 967.617396 427.426747 
L 971.743286 427.426747 
L 971.743286 161.930281 
L 967.617396 161.930281 
z
" clip-path="url(#pfebbc6aa3a)" style="fill: #d55e00; opacity: 0.78"/>
   </g>
   <g id="patch_158">
    <path d="M 973.393643 427.426747 
L 977.519533 427.426747 
L 977.519533 79.883494 
L 973.393643 79.883494 
z
" clip-path="url(#pfebbc6aa3a)" style="fill: #d55e00; opacity: 0.78"/>
   </g>
   <g id="patch_159">
    <path d="M 979.169889 427.426747 
L 983.29578 427.426747 
L 983.29578 114.623375 
L 979.169889 114.623375 
z
" clip-path="url(#pfebbc6aa3a)" style="fill: #d55e00; opacity: 0.78"/>
   </g>
   <g id="patch_160">
    <path d="M 984.946136 427.426747 
L 989.072026 427.426747 
L 989.072026 232.926751 
L 984.946136 232.926751 
z
" clip-path="url(#pfebbc6aa3a)" style="fill: #d55e00; opacity: 0.78"/>
   </g>
   <g id="patch_161">
    <path d="M 990.722382 427.426747 
L 994.848273 427.426747 
L 994.848273 344.874391 
L 990.722382 344.874391 
z
" clip-path="url(#pfebbc6aa3a)" style="fill: #d55e00; opacity: 0.78"/>
   </g>
   <g id="patch_162">
    <path d="M 996.498629 427.426747 
L 1000.624519 427.426747 
L 1000.624519 396.44253 
L 996.498629 396.44253 
z
" clip-path="url(#pfebbc6aa3a)" style="fill: #d55e00; opacity: 0.78"/>
   </g>
   <g id="patch_163">
    <path d="M 1002.274875 427.426747 
L 1006.400766 427.426747 
L 1006.400766 425.404467 
L 1002.274875 425.404467 
z
" clip-path="url(#pfebbc6aa3a)" style="fill: #d55e00; opacity: 0.78"/>
   </g>
   <g id="patch_164">
    <path d="M 1008.051122 427.426747 
L 1012.177012 427.426747 
L 1012.177012 434.143606 
L 1008.051122 434.143606 
z
" clip-path="url(#pfebbc6aa3a)" style="fill: #009e73; opacity: 0.78"/>
   </g>
   <g id="patch_165">
    <path d="M 1013.827369 427.426747 
L 1017.953259 427.426747 
L 1017.953259 452.560798 
L 1013.827369 452.560798 
z
" clip-path="url(#pfebbc6aa3a)" style="fill: #009e73; opacity: 0.78"/>
   </g>
   <g id="patch_166">
    <path d="M 1019.603615 427.426747 
L 1023.729506 427.426747 
L 1023.729506 455.016424 
L 1019.603615 455.016424 
z
" clip-path="url(#pfebbc6aa3a)" style="fill: #009e73; opacity: 0.78"/>
   </g>
   <g id="patch_167">
    <path d="M 1025.379862 427.426747 
L 1029.505752 427.426747 
L 1029.505752 472.278027 
L 1025.379862 472.278027 
z
" clip-path="url(#pfebbc6aa3a)" style="fill: #009e73; opacity: 0.78"/>
   </g>
   <g id="patch_168">
    <path d="M 1031.156108 427.426747 
L 1035.281999 427.426747 
L 1035.281999 482.533876 
L 1031.156108 482.533876 
z
" clip-path="url(#pfebbc6aa3a)" style="fill: #009e73; opacity: 0.78"/>
   </g>
   <g id="patch_169">
    <path d="M 1036.932355 427.426747 
L 1041.058245 427.426747 
L 1041.058245 438.621511 
L 1036.932355 438.621511 
z
" clip-path="url(#pfebbc6aa3a)" style="fill: #009e73; opacity: 0.78"/>
   </g>
   <g id="patch_170">
    <path d="M 1042.708601 427.426747 
L 1046.834492 427.426747 
L 1046.834492 411.392956 
L 1042.708601 411.392956 
z
" clip-path="url(#pfebbc6aa3a)" style="fill: #d55e00; opacity: 0.78"/>
   </g>
   <g id="patch_171">
    <path d="M 1048.484848 427.426747 
L 1052.610738 427.426747 
L 1052.610738 397.742567 
L 1048.484848 397.742567 
z
" clip-path="url(#pfebbc6aa3a)" style="fill: #d55e00; opacity: 0.78"/>
   </g>
   <g id="patch_172">
    <path d="M 1054.261095 427.426747 
L 1058.386985 427.426747 
L 1058.386985 394.348025 
L 1054.261095 394.348025 
z
" clip-path="url(#pfebbc6aa3a)" style="fill: #d55e00; opacity: 0.78"/>
   </g>
   <g id="patch_173">
    <path d="M 1060.037341 427.426747 
L 1064.163232 427.426747 
L 1064.163232 404.748322 
L 1060.037341 404.748322 
z
" clip-path="url(#pfebbc6aa3a)" style="fill: #d55e00; opacity: 0.78"/>
   </g>
   <g id="patch_174">
    <path d="M 1065.813588 427.426747 
L 1069.939478 427.426747 
L 1069.939478 374.486347 
L 1065.813588 374.486347 
z
" clip-path="url(#pfebbc6aa3a)" style="fill: #d55e00; opacity: 0.78"/>
   </g>
   <g id="patch_175">
    <path d="M 1071.589834 427.426747 
L 1075.715725 427.426747 
L 1075.715725 368.347283 
L 1071.589834 368.347283 
z
" clip-path="url(#pfebbc6aa3a)" style="fill: #d55e00; opacity: 0.78"/>
   </g>
   <g id="patch_176">
    <path d="M 1077.366081 427.426747 
L 1081.491971 427.426747 
L 1081.491971 387.775616 
L 1077.366081 387.775616 
z
" clip-path="url(#pfebbc6aa3a)" style="fill: #d55e00; opacity: 0.78"/>
   </g>
   <g id="patch_177">
    <path d="M 1083.142327 427.426747 
L 1087.268218 427.426747 
L 1087.268218 378.314234 
L 1083.142327 378.314234 
z
" clip-path="url(#pfebbc6aa3a)" style="fill: #d55e00; opacity: 0.78"/>
   </g>
   <g id="patch_178">
    <path d="M 1088.918574 427.426747 
L 1093.044464 427.426747 
L 1093.044464 396.298081 
L 1088.918574 396.298081 
z
" clip-path="url(#pfebbc6aa3a)" style="fill: #d55e00; opacity: 0.78"/>
   </g>
   <g id="patch_179">
    <path d="M 1094.694821 427.426747 
L 1098.820711 427.426747 
L 1098.820711 398.609258 
L 1094.694821 398.609258 
z
" clip-path="url(#pfebbc6aa3a)" style="fill: #d55e00; opacity: 0.78"/>
   </g>
   <g id="patch_180">
    <path d="M 1100.471067 427.426747 
L 1104.596958 427.426747 
L 1104.596958 383.875504 
L 1100.471067 383.875504 
z
" clip-path="url(#pfebbc6aa3a)" style="fill: #d55e00; opacity: 0.78"/>
   </g>
   <g id="patch_181">
    <path d="M 1106.247314 427.426747 
L 1110.373204 427.426747 
L 1110.373204 406.265032 
L 1106.247314 406.265032 
z
" clip-path="url(#pfebbc6aa3a)" style="fill: #d55e00; opacity: 0.78"/>
   </g>
   <g id="patch_182">
    <path d="M 1112.02356 427.426747 
L 1116.149451 427.426747 
L 1116.149451 384.742196 
L 1112.02356 384.742196 
z
" clip-path="url(#pfebbc6aa3a)" style="fill: #d55e00; opacity: 0.78"/>
   </g>
   <g id="patch_183">
    <path d="M 1117.799807 427.426747 
L 1121.925697 427.426747 
L 1121.925697 384.958868 
L 1117.799807 384.958868 
z
" clip-path="url(#pfebbc6aa3a)" style="fill: #d55e00; opacity: 0.78"/>
   </g>
   <g id="patch_184">
    <path d="M 1123.576054 427.426747 
L 1127.701944 427.426747 
L 1127.701944 389.87012 
L 1123.576054 389.87012 
z
" clip-path="url(#pfebbc6aa3a)" style="fill: #d55e00; opacity: 0.78"/>
   </g>
   <g id="patch_185">
    <path d="M 1129.3523 427.426747 
L 1133.47819 427.426747 
L 1133.47819 438.332614 
L 1129.3523 438.332614 
z
" clip-path="url(#pfebbc6aa3a)" style="fill: #009e73; opacity: 0.78"/>
   </g>
   <g id="patch_186">
    <path d="M 1135.128547 427.426747 
L 1139.254437 427.426747 
L 1139.254437 455.160872 
L 1135.128547 455.160872 
z
" clip-path="url(#pfebbc6aa3a)" style="fill: #009e73; opacity: 0.78"/>
   </g>
   <g id="patch_187">
    <path d="M 1140.904793 427.426747 
L 1145.030684 427.426747 
L 1145.030684 401.498229 
L 1140.904793 401.498229 
z
" clip-path="url(#pfebbc6aa3a)" style="fill: #d55e00; opacity: 0.78"/>
   </g>
   <g id="patch_188">
    <path d="M 1146.68104 427.426747 
L 1150.80693 427.426747 
L 1150.80693 459.277656 
L 1146.68104 459.277656 
z
" clip-path="url(#pfebbc6aa3a)" style="fill: #009e73; opacity: 0.78"/>
   </g>
   <g id="patch_189">
    <path d="M 1152.457286 427.426747 
L 1156.583177 427.426747 
L 1156.583177 473.361392 
L 1152.457286 473.361392 
z
" clip-path="url(#pfebbc6aa3a)" style="fill: #009e73; opacity: 0.78"/>
   </g>
   <g id="patch_190">
    <path d="M 1158.233533 427.426747 
L 1162.359423 427.426747 
L 1162.359423 464.188908 
L 1158.233533 464.188908 
z
" clip-path="url(#pfebbc6aa3a)" style="fill: #009e73; opacity: 0.78"/>
   </g>
   <g id="patch_191">
    <path d="M 1164.00978 427.426747 
L 1168.13567 427.426747 
L 1168.13567 425.187794 
L 1164.00978 425.187794 
z
" clip-path="url(#pfebbc6aa3a)" style="fill: #d55e00; opacity: 0.78"/>
   </g>
   <g id="patch_192">
    <path d="M 1169.786026 427.426747 
L 1173.911917 427.426747 
L 1173.911917 375.569712 
L 1169.786026 375.569712 
z
" clip-path="url(#pfebbc6aa3a)" style="fill: #d55e00; opacity: 0.78"/>
   </g>
   <g id="patch_193">
    <path d="M 1175.562273 427.426747 
L 1179.688163 427.426747 
L 1179.688163 381.058757 
L 1175.562273 381.058757 
z
" clip-path="url(#pfebbc6aa3a)" style="fill: #d55e00; opacity: 0.78"/>
   </g>
   <g id="patch_194">
    <path d="M 1181.338519 427.426747 
L 1185.46441 427.426747 
L 1185.46441 446.277285 
L 1181.338519 446.277285 
z
" clip-path="url(#pfebbc6aa3a)" style="fill: #009e73; opacity: 0.78"/>
   </g>
   <g id="patch_195">
    <path d="M 1187.114766 427.426747 
L 1191.240656 427.426747 
L 1191.240656 369.719545 
L 1187.114766 369.719545 
z
" clip-path="url(#pfebbc6aa3a)" style="fill: #d55e00; opacity: 0.78"/>
   </g>
   <g id="patch_196">
    <path d="M 1192.891012 427.426747 
L 1197.016903 427.426747 
L 1197.016903 390.231241 
L 1192.891012 390.231241 
z
" clip-path="url(#pfebbc6aa3a)" style="fill: #d55e00; opacity: 0.78"/>
   </g>
   <g id="patch_197">
    <path d="M 1198.667259 427.426747 
L 1202.793149 427.426747 
L 1202.793149 414.931946 
L 1198.667259 414.931946 
z
" clip-path="url(#pfebbc6aa3a)" style="fill: #d55e00; opacity: 0.78"/>
   </g>
   <g id="patch_198">
    <path d="M 1204.443506 427.426747 
L 1208.569396 427.426747 
L 1208.569396 410.309592 
L 1204.443506 410.309592 
z
" clip-path="url(#pfebbc6aa3a)" style="fill: #d55e00; opacity: 0.78"/>
   </g>
   <g id="patch_199">
    <path d="M 1210.219752 427.426747 
L 1214.345643 427.426747 
L 1214.345643 394.853595 
L 1210.219752 394.853595 
z
" clip-path="url(#pfebbc6aa3a)" style="fill: #d55e00; opacity: 0.78"/>
   </g>
   <g id="patch_200">
    <path d="M 1215.995999 427.426747 
L 1220.121889 427.426747 
L 1220.121889 399.475949 
L 1215.995999 399.475949 
z
" clip-path="url(#pfebbc6aa3a)" style="fill: #d55e00; opacity: 0.78"/>
   </g>
   <g id="patch_201">
    <path d="M 1221.772245 427.426747 
L 1225.898136 427.426747 
L 1225.898136 367.841713 
L 1221.772245 367.841713 
z
" clip-path="url(#pfebbc6aa3a)" style="fill: #d55e00; opacity: 0.78"/>
   </g>
   <g id="patch_202">
    <path d="M 1227.548492 427.426747 
L 1231.674382 427.426747 
L 1231.674382 336.42415 
L 1227.548492 336.42415 
z
" clip-path="url(#pfebbc6aa3a)" style="fill: #d55e00; opacity: 0.78"/>
   </g>
   <g id="patch_203">
    <path d="M 1233.324738 427.426747 
L 1237.450629 427.426747 
L 1237.450629 328.768376 
L 1233.324738 328.768376 
z
" clip-path="url(#pfebbc6aa3a)" style="fill: #d55e00; opacity: 0.78"/>
   </g>
   <g id="patch_204">
    <path d="M 1239.100985 427.426747 
L 1243.226875 427.426747 
L 1243.226875 338.735327 
L 1239.100985 338.735327 
z
" clip-path="url(#pfebbc6aa3a)" style="fill: #d55e00; opacity: 0.78"/>
   </g>
   <g id="patch_205">
    <path d="M 1244.877232 427.426747 
L 1249.003122 427.426747 
L 1249.003122 332.37959 
L 1244.877232 332.37959 
z
" clip-path="url(#pfebbc6aa3a)" style="fill: #d55e00; opacity: 0.78"/>
   </g>
   <g id="patch_206">
    <path d="M 1250.653478 427.426747 
L 1254.779369 427.426747 
L 1254.779369 329.85174 
L 1250.653478 329.85174 
z
" clip-path="url(#pfebbc6aa3a)" style="fill: #d55e00; opacity: 0.78"/>
   </g>
   <g id="patch_207">
    <path d="M 1256.429725 427.426747 
L 1260.555615 427.426747 
L 1260.555615 299.373092 
L 1256.429725 299.373092 
z
" clip-path="url(#pfebbc6aa3a)" style="fill: #d55e00; opacity: 0.78"/>
   </g>
   <g id="patch_208">
    <path d="M 1262.205971 427.426747 
L 1266.331862 427.426747 
L 1266.331862 282.111489 
L 1262.205971 282.111489 
z
" clip-path="url(#pfebbc6aa3a)" style="fill: #d55e00; opacity: 0.78"/>
   </g>
   <g id="patch_209">
    <path d="M 1267.982218 427.426747 
L 1272.108108 427.426747 
L 1272.108108 292.800683 
L 1267.982218 292.800683 
z
" clip-path="url(#pfebbc6aa3a)" style="fill: #d55e00; opacity: 0.78"/>
   </g>
   <g id="patch_210">
    <path d="M 1273.758464 427.426747 
L 1277.884355 427.426747 
L 1277.884355 291.717318 
L 1273.758464 291.717318 
z
" clip-path="url(#pfebbc6aa3a)" style="fill: #d55e00; opacity: 0.78"/>
   </g>
   <g id="patch_211">
    <path d="M 1279.534711 427.426747 
L 1283.660601 427.426747 
L 1283.660601 316.490248 
L 1279.534711 316.490248 
z
" clip-path="url(#pfebbc6aa3a)" style="fill: #d55e00; opacity: 0.78"/>
   </g>
   <g id="patch_212">
    <path d="M 76.837656 463.538889 
L 76.837656 391.314605 
L 1281.597656 391.314605 
L 1281.597656 463.538889 
z
" clip-path="url(#pfebbc6aa3a)" style="fill: #f3f4f6; opacity: 0.55"/>
   </g>
   <g id="patch_213">
    <path d="M 126.348341 581.535312 
L 126.348341 55.995312 
L 226.194889 55.995312 
L 226.194889 581.535312 
z
" clip-path="url(#pfebbc6aa3a)" style="fill: #f3f4f6; opacity: 0.28"/>
   </g>
   <g id="patch_214">
    <path d="M 302.936451 581.535312 
L 302.936451 55.995312 
L 426.713163 55.995312 
L 426.713163 581.535312 
z
" clip-path="url(#pfebbc6aa3a)" style="fill: #eceff3; opacity: 0.28"/>
   </g>
   <g id="patch_215">
    <path d="M 427.538341 581.535312 
L 427.538341 55.995312 
L 527.384889 55.995312 
L 527.384889 581.535312 
z
" clip-path="url(#pfebbc6aa3a)" style="fill: #f3f4f6; opacity: 0.28"/>
   </g>
   <g id="patch_216">
    <path d="M 604.126451 581.535312 
L 604.126451 55.995312 
L 704.798177 55.995312 
L 704.798177 581.535312 
z
" clip-path="url(#pfebbc6aa3a)" style="fill: #eceff3; opacity: 0.28"/>
   </g>
   <g id="patch_217">
    <path d="M 705.623355 581.535312 
L 705.623355 55.995312 
L 828.574889 55.995312 
L 828.574889 581.535312 
z
" clip-path="url(#pfebbc6aa3a)" style="fill: #e5e7eb; opacity: 0.28"/>
   </g>
   <g id="patch_218">
    <path d="M 829.400067 581.535312 
L 829.400067 55.995312 
L 1583.612834 55.995312 
L 1583.612834 581.535312 
z
" clip-path="url(#pfebbc6aa3a)" style="fill: #f7f7f7; opacity: 0.28"/>
   </g>
   <g id="line2d_21">
    <path d="M 76.837656 427.426747 
L 1281.597656 427.426747 
" clip-path="url(#pfebbc6aa3a)" style="fill: none; stroke: #9ca3af; stroke-linecap: square"/>
   </g>
   <g id="line2d_22">
    <path d="M 143.677081 581.535312 
L 143.677081 55.995312 
" clip-path="url(#pfebbc6aa3a)" style="fill: none; stroke-dasharray: 1.1,1.815; stroke-dashoffset: 0; stroke: #9ca3af; stroke-opacity: 0.8; stroke-width: 1.1"/>
   </g>
   <g id="line2d_23">
    <path d="M 374.726944 581.535312 
L 374.726944 55.995312 
" clip-path="url(#pfebbc6aa3a)" style="fill: none; stroke-dasharray: 1.1,1.815; stroke-dashoffset: 0; stroke: #9ca3af; stroke-opacity: 0.8; stroke-width: 1.1"/>
   </g>
   <g id="line2d_24">
    <path d="M 654.462314 581.535312 
L 654.462314 55.995312 
" clip-path="url(#pfebbc6aa3a)" style="fill: none; stroke-dasharray: 1.1,1.815; stroke-dashoffset: 0; stroke: #9ca3af; stroke-opacity: 0.8; stroke-width: 1.1"/>
   </g>
   <g id="patch_219">
    <path d="M 76.837656 581.535312 
L 76.837656 55.995313 
" style="fill: none; stroke: #9ca3af; stroke-linejoin: miter; stroke-linecap: square"/>
   </g>
   <g id="patch_220">
    <path d="M 76.837656 581.535312 
L 1281.597656 581.535312 
" style="fill: none; stroke: #9ca3af; stroke-linejoin: miter; stroke-linecap: square"/>
   </g>
   <g id="text_15">
    <g id="patch_221">
     <path d="M 145.427081 189.028747 
L 145.427081 96.288512 
L 129.829425 96.288512 
L 129.829425 189.028747 
z
" style="fill: #ffffff; opacity: 0.82"/>
    </g>
    <!-- First lockdown -->
    <g style="fill: #6b7280" transform="translate(141.077472 187.278747) rotate(-90) scale(0.125 -0.125)">
     <defs>
      <path id="DejaVuSans-46" d="M 628 4666 
L 3309 4666 
L 3309 4134 
L 1259 4134 
L 1259 2759 
L 3109 2759 
L 3109 2228 
L 1259 2228 
L 1259 0 
L 628 0 
L 628 4666 
z
" transform="scale(0.015625)"/>
      <path id="DejaVuSans-6b" d="M 581 4863 
L 1159 4863 
L 1159 1991 
L 2875 3500 
L 3609 3500 
L 1753 1863 
L 3688 0 
L 2938 0 
L 1159 1709 
L 1159 0 
L 581 0 
L 581 4863 
z
" transform="scale(0.015625)"/>
      <path id="DejaVuSans-64" d="M 2906 2969 
L 2906 4863 
L 3481 4863 
L 3481 0 
L 2906 0 
L 2906 525 
Q 2725 213 2448 61 
Q 2172 -91 1784 -91 
Q 1150 -91 751 415 
Q 353 922 353 1747 
Q 353 2572 751 3078 
Q 1150 3584 1784 3584 
Q 2172 3584 2448 3432 
Q 2725 3281 2906 2969 
z
M 947 1747 
Q 947 1113 1208 752 
Q 1469 391 1925 391 
Q 2381 391 2643 752 
Q 2906 1113 2906 1747 
Q 2906 2381 2643 2742 
Q 2381 3103 1925 3103 
Q 1469 3103 1208 2742 
Q 947 2381 947 1747 
z
" transform="scale(0.015625)"/>
      <path id="DejaVuSans-77" d="M 269 3500 
L 844 3500 
L 1563 769 
L 2278 3500 
L 2956 3500 
L 3675 769 
L 4391 3500 
L 4966 3500 
L 4050 0 
L 3372 0 
L 2619 2869 
L 1863 0 
L 1184 0 
L 269 3500 
z
" transform="scale(0.015625)"/>
      <path id="DejaVuSans-6e" d="M 3513 2113 
L 3513 0 
L 2938 0 
L 2938 2094 
Q 2938 2591 2744 2837 
Q 2550 3084 2163 3084 
Q 1697 3084 1428 2787 
Q 1159 2491 1159 1978 
L 1159 0 
L 581 0 
L 581 3500 
L 1159 3500 
L 1159 2956 
Q 1366 3272 1645 3428 
Q 1925 3584 2291 3584 
Q 2894 3584 3203 3211 
Q 3513 2838 3513 2113 
z
" transform="scale(0.015625)"/>
     </defs>
     <use xlink:href="#DejaVuSans-46"/>
     <use xlink:href="#DejaVuSans-69" x="50.269531"/>
     <use xlink:href="#DejaVuSans-72" x="78.052734"/>
     <use xlink:href="#DejaVuSans-73" x="119.166016"/>
     <use xlink:href="#DejaVuSans-74" x="171.265625"/>
     <use xlink:href="#DejaVuSans-20" x="210.474609"/>
     <use xlink:href="#DejaVuSans-6c" x="242.261719"/>
     <use xlink:href="#DejaVuSans-6f" x="270.044922"/>
     <use xlink:href="#DejaVuSans-63" x="331.226562"/>
     <use xlink:href="#DejaVuSans-6b" x="386.207031"/>
     <use xlink:href="#DejaVuSans-64" x="444.117188"/>
     <use xlink:href="#DejaVuSans-6f" x="507.59375"/>
     <use xlink:href="#DejaVuSans-77" x="568.775391"/>
     <use xlink:href="#DejaVuSans-6e" x="650.5625"/>
    </g>
   </g>
   <g id="text_16">
    <g id="patch_222">
     <path d="M 376.476944 191.757262 
L 376.476944 96.288512 
L 360.879288 96.288512 
L 360.879288 191.757262 
z
" style="fill: #ffffff; opacity: 0.82"/>
    </g>
    <!-- Vaccine rollout -->
    <g style="fill: #6b7280" transform="translate(372.127335 190.007262) rotate(-90) scale(0.125 -0.125)">
     <defs>
      <path id="DejaVuSans-56" d="M 1831 0 
L 50 4666 
L 709 4666 
L 2188 738 
L 3669 4666 
L 4325 4666 
L 2547 0 
L 1831 0 
z
" transform="scale(0.015625)"/>
      <path id="DejaVuSans-75" d="M 544 1381 
L 544 3500 
L 1119 3500 
L 1119 1403 
Q 1119 906 1312 657 
Q 1506 409 1894 409 
Q 2359 409 2629 706 
Q 2900 1003 2900 1516 
L 2900 3500 
L 3475 3500 
L 3475 0 
L 2900 0 
L 2900 538 
Q 2691 219 2414 64 
Q 2138 -91 1772 -91 
Q 1169 -91 856 284 
Q 544 659 544 1381 
z
M 1991 3584 
L 1991 3584 
z
" transform="scale(0.015625)"/>
     </defs>
     <use xlink:href="#DejaVuSans-56"/>
     <use xlink:href="#DejaVuSans-61" x="60.658203"/>
     <use xlink:href="#DejaVuSans-63" x="121.9375"/>
     <use xlink:href="#DejaVuSans-63" x="176.917969"/>
     <use xlink:href="#DejaVuSans-69" x="231.898438"/>
     <use xlink:href="#DejaVuSans-6e" x="259.681641"/>
     <use xlink:href="#DejaVuSans-65" x="323.060547"/>
     <use xlink:href="#DejaVuSans-20" x="384.583984"/>
     <use xlink:href="#DejaVuSans-72" x="416.371094"/>
     <use xlink:href="#DejaVuSans-6f" x="455.234375"/>
     <use xlink:href="#DejaVuSans-6c" x="516.416016"/>
     <use xlink:href="#DejaVuSans-6c" x="544.199219"/>
     <use xlink:href="#DejaVuSans-6f" x="571.982422"/>
     <use xlink:href="#DejaVuSans-75" x="633.164062"/>
     <use xlink:href="#DejaVuSans-74" x="696.542969"/>
    </g>
   </g>
   <g id="text_17">
    <g id="patch_223">
     <path d="M 656.212314 227.142028 
L 656.212314 96.288512 
L 640.614658 96.288512 
L 640.614658 227.142028 
z
" style="fill: #ffffff; opacity: 0.82"/>
    </g>
    <!-- Omicron emergence -->
    <g style="fill: #6b7280" transform="translate(651.862704 225.392028) rotate(-90) scale(0.125 -0.125)">
     <defs>
      <path id="DejaVuSans-4f" d="M 2522 4238 
Q 1834 4238 1429 3725 
Q 1025 3213 1025 2328 
Q 1025 1447 1429 934 
Q 1834 422 2522 422 
Q 3209 422 3611 934 
Q 4013 1447 4013 2328 
Q 4013 3213 3611 3725 
Q 3209 4238 2522 4238 
z
M 2522 4750 
Q 3503 4750 4090 4092 
Q 4678 3434 4678 2328 
Q 4678 1225 4090 567 
Q 3503 -91 2522 -91 
Q 1538 -91 948 565 
Q 359 1222 359 2328 
Q 359 3434 948 4092 
Q 1538 4750 2522 4750 
z
" transform="scale(0.015625)"/>
      <path id="DejaVuSans-67" d="M 2906 1791 
Q 2906 2416 2648 2759 
Q 2391 3103 1925 3103 
Q 1463 3103 1205 2759 
Q 947 2416 947 1791 
Q 947 1169 1205 825 
Q 1463 481 1925 481 
Q 2391 481 2648 825 
Q 2906 1169 2906 1791 
z
M 3481 434 
Q 3481 -459 3084 -895 
Q 2688 -1331 1869 -1331 
Q 1566 -1331 1297 -1286 
Q 1028 -1241 775 -1147 
L 775 -588 
Q 1028 -725 1275 -790 
Q 1522 -856 1778 -856 
Q 2344 -856 2625 -561 
Q 2906 -266 2906 331 
L 2906 616 
Q 2728 306 2450 153 
Q 2172 0 1784 0 
Q 1141 0 747 490 
Q 353 981 353 1791 
Q 353 2603 747 3093 
Q 1141 3584 1784 3584 
Q 2172 3584 2450 3431 
Q 2728 3278 2906 2969 
L 2906 3500 
L 3481 3500 
L 3481 434 
z
" transform="scale(0.015625)"/>
     </defs>
     <use xlink:href="#DejaVuSans-4f"/>
     <use xlink:href="#DejaVuSans-6d" x="78.710938"/>
     <use xlink:href="#DejaVuSans-69" x="176.123047"/>
     <use xlink:href="#DejaVuSans-63" x="203.90625"/>
     <use xlink:href="#DejaVuSans-72" x="258.886719"/>
     <use xlink:href="#DejaVuSans-6f" x="297.75"/>
     <use xlink:href="#DejaVuSans-6e" x="358.931641"/>
     <use xlink:href="#DejaVuSans-20" x="422.310547"/>
     <use xlink:href="#DejaVuSans-65" x="454.097656"/>
     <use xlink:href="#DejaVuSans-6d" x="515.621094"/>
     <use xlink:href="#DejaVuSans-65" x="613.033203"/>
     <use xlink:href="#DejaVuSans-72" x="674.556641"/>
     <use xlink:href="#DejaVuSans-67" x="713.919922"/>
     <use xlink:href="#DejaVuSans-65" x="777.396484"/>
     <use xlink:href="#DejaVuSans-6e" x="838.919922"/>
     <use xlink:href="#DejaVuSans-63" x="902.298828"/>
     <use xlink:href="#DejaVuSans-65" x="957.279297"/>
    </g>
   </g>
   <g id="text_18">
    <!-- Excess mortality in Germany (% above 2015–2019 baseline) -->
    <g style="fill: #111827" transform="translate(174.102031 29.995312) scale(0.3 -0.3)">
     <defs>
      <path id="DejaVuSans-Bold-45" d="M 588 4666 
L 3834 4666 
L 3834 3756 
L 1791 3756 
L 1791 2888 
L 3713 2888 
L 3713 1978 
L 1791 1978 
L 1791 909 
L 3903 909 
L 3903 0 
L 588 0 
L 588 4666 
z
" transform="scale(0.015625)"/>
      <path id="DejaVuSans-Bold-78" d="M 1422 1791 
L 159 3500 
L 1344 3500 
L 2059 2463 
L 2784 3500 
L 3969 3500 
L 2706 1797 
L 4031 0 
L 2847 0 
L 2059 1106 
L 1281 0 
L 97 0 
L 1422 1791 
z
" transform="scale(0.015625)"/>
      <path id="DejaVuSans-Bold-63" d="M 3366 3391 
L 3366 2478 
Q 3138 2634 2908 2709 
Q 2678 2784 2431 2784 
Q 1963 2784 1702 2511 
Q 1441 2238 1441 1747 
Q 1441 1256 1702 982 
Q 1963 709 2431 709 
Q 2694 709 2930 787 
Q 3166 866 3366 1019 
L 3366 103 
Q 3103 6 2833 -42 
Q 2563 -91 2291 -91 
Q 1344 -91 809 395 
Q 275 881 275 1747 
Q 275 2613 809 3098 
Q 1344 3584 2291 3584 
Q 2566 3584 2833 3536 
Q 3100 3488 3366 3391 
z
" transform="scale(0.015625)"/>
      <path id="DejaVuSans-Bold-65" d="M 4031 1759 
L 4031 1441 
L 1416 1441 
Q 1456 1047 1700 850 
Q 1944 653 2381 653 
Q 2734 653 3104 758 
Q 3475 863 3866 1075 
L 3866 213 
Q 3469 63 3072 -14 
Q 2675 -91 2278 -91 
Q 1328 -91 801 392 
Q 275 875 275 1747 
Q 275 2603 792 3093 
Q 1309 3584 2216 3584 
Q 3041 3584 3536 3087 
Q 4031 2591 4031 1759 
z
M 2881 2131 
Q 2881 2450 2695 2645 
Q 2509 2841 2209 2841 
Q 1884 2841 1681 2658 
Q 1478 2475 1428 2131 
L 2881 2131 
z
" transform="scale(0.015625)"/>
      <path id="DejaVuSans-Bold-73" d="M 3272 3391 
L 3272 2541 
Q 2913 2691 2578 2766 
Q 2244 2841 1947 2841 
Q 1628 2841 1473 2761 
Q 1319 2681 1319 2516 
Q 1319 2381 1436 2309 
Q 1553 2238 1856 2203 
L 2053 2175 
Q 2913 2066 3209 1816 
Q 3506 1566 3506 1031 
Q 3506 472 3093 190 
Q 2681 -91 1863 -91 
Q 1516 -91 1145 -36 
Q 775 19 384 128 
L 384 978 
Q 719 816 1070 734 
Q 1422 653 1784 653 
Q 2113 653 2278 743 
Q 2444 834 2444 1013 
Q 2444 1163 2330 1236 
Q 2216 1309 1875 1350 
L 1678 1375 
Q 931 1469 631 1722 
Q 331 1975 331 2491 
Q 331 3047 712 3315 
Q 1094 3584 1881 3584 
Q 2191 3584 2531 3537 
Q 2872 3491 3272 3391 
z
" transform="scale(0.015625)"/>
      <path id="DejaVuSans-Bold-20" transform="scale(0.015625)"/>
      <path id="DejaVuSans-Bold-6d" d="M 3781 2919 
Q 3994 3244 4286 3414 
Q 4578 3584 4928 3584 
Q 5531 3584 5847 3212 
Q 6163 2841 6163 2131 
L 6163 0 
L 5038 0 
L 5038 1825 
Q 5041 1866 5042 1909 
Q 5044 1953 5044 2034 
Q 5044 2406 4934 2573 
Q 4825 2741 4581 2741 
Q 4263 2741 4089 2478 
Q 3916 2216 3909 1719 
L 3909 0 
L 2784 0 
L 2784 1825 
Q 2784 2406 2684 2573 
Q 2584 2741 2328 2741 
Q 2006 2741 1831 2477 
Q 1656 2213 1656 1722 
L 1656 0 
L 531 0 
L 531 3500 
L 1656 3500 
L 1656 2988 
Q 1863 3284 2130 3434 
Q 2397 3584 2719 3584 
Q 3081 3584 3359 3409 
Q 3638 3234 3781 2919 
z
" transform="scale(0.015625)"/>
      <path id="DejaVuSans-Bold-6f" d="M 2203 2784 
Q 1831 2784 1636 2517 
Q 1441 2250 1441 1747 
Q 1441 1244 1636 976 
Q 1831 709 2203 709 
Q 2569 709 2762 976 
Q 2956 1244 2956 1747 
Q 2956 2250 2762 2517 
Q 2569 2784 2203 2784 
z
M 2203 3584 
Q 3106 3584 3614 3096 
Q 4122 2609 4122 1747 
Q 4122 884 3614 396 
Q 3106 -91 2203 -91 
Q 1297 -91 786 396 
Q 275 884 275 1747 
Q 275 2609 786 3096 
Q 1297 3584 2203 3584 
z
" transform="scale(0.015625)"/>
      <path id="DejaVuSans-Bold-72" d="M 3138 2547 
Q 2991 2616 2845 2648 
Q 2700 2681 2553 2681 
Q 2122 2681 1889 2404 
Q 1656 2128 1656 1613 
L 1656 0 
L 538 0 
L 538 3500 
L 1656 3500 
L 1656 2925 
Q 1872 3269 2151 3426 
Q 2431 3584 2822 3584 
Q 2878 3584 2943 3579 
Q 3009 3575 3134 3559 
L 3138 2547 
z
" transform="scale(0.015625)"/>
      <path id="DejaVuSans-Bold-74" d="M 1759 4494 
L 1759 3500 
L 2913 3500 
L 2913 2700 
L 1759 2700 
L 1759 1216 
Q 1759 972 1856 886 
Q 1953 800 2241 800 
L 2816 800 
L 2816 0 
L 1856 0 
Q 1194 0 917 276 
Q 641 553 641 1216 
L 641 2700 
L 84 2700 
L 84 3500 
L 641 3500 
L 641 4494 
L 1759 4494 
z
" transform="scale(0.015625)"/>
      <path id="DejaVuSans-Bold-61" d="M 2106 1575 
Q 1756 1575 1579 1456 
Q 1403 1338 1403 1106 
Q 1403 894 1545 773 
Q 1688 653 1941 653 
Q 2256 653 2472 879 
Q 2688 1106 2688 1447 
L 2688 1575 
L 2106 1575 
z
M 3816 1997 
L 3816 0 
L 2688 0 
L 2688 519 
Q 2463 200 2181 54 
Q 1900 -91 1497 -91 
Q 953 -91 614 226 
Q 275 544 275 1050 
Q 275 1666 698 1953 
Q 1122 2241 2028 2241 
L 2688 2241 
L 2688 2328 
Q 2688 2594 2478 2717 
Q 2269 2841 1825 2841 
Q 1466 2841 1156 2769 
Q 847 2697 581 2553 
L 581 3406 
Q 941 3494 1303 3539 
Q 1666 3584 2028 3584 
Q 2975 3584 3395 3211 
Q 3816 2838 3816 1997 
z
" transform="scale(0.015625)"/>
      <path id="DejaVuSans-Bold-6c" d="M 538 4863 
L 1656 4863 
L 1656 0 
L 538 0 
L 538 4863 
z
" transform="scale(0.015625)"/>
      <path id="DejaVuSans-Bold-69" d="M 538 3500 
L 1656 3500 
L 1656 0 
L 538 0 
L 538 3500 
z
M 538 4863 
L 1656 4863 
L 1656 3950 
L 538 3950 
L 538 4863 
z
" transform="scale(0.015625)"/>
      <path id="DejaVuSans-Bold-79" d="M 78 3500 
L 1197 3500 
L 2138 1125 
L 2938 3500 
L 4056 3500 
L 2584 -331 
Q 2363 -916 2067 -1148 
Q 1772 -1381 1288 -1381 
L 641 -1381 
L 641 -647 
L 991 -647 
Q 1275 -647 1404 -556 
Q 1534 -466 1606 -231 
L 1638 -134 
L 78 3500 
z
" transform="scale(0.015625)"/>
      <path id="DejaVuSans-Bold-6e" d="M 4056 2131 
L 4056 0 
L 2931 0 
L 2931 347 
L 2931 1631 
Q 2931 2084 2911 2256 
Q 2891 2428 2841 2509 
Q 2775 2619 2662 2680 
Q 2550 2741 2406 2741 
Q 2056 2741 1856 2470 
Q 1656 2200 1656 1722 
L 1656 0 
L 538 0 
L 538 3500 
L 1656 3500 
L 1656 2988 
Q 1909 3294 2193 3439 
Q 2478 3584 2822 3584 
Q 3428 3584 3742 3212 
Q 4056 2841 4056 2131 
z
" transform="scale(0.015625)"/>
      <path id="DejaVuSans-Bold-47" d="M 4781 347 
Q 4331 128 3847 18 
Q 3363 -91 2847 -91 
Q 1681 -91 1000 561 
Q 319 1213 319 2328 
Q 319 3456 1012 4103 
Q 1706 4750 2913 4750 
Q 3378 4750 3804 4662 
Q 4231 4575 4609 4403 
L 4609 3438 
Q 4219 3659 3833 3768 
Q 3447 3878 3059 3878 
Q 2341 3878 1952 3476 
Q 1563 3075 1563 2328 
Q 1563 1588 1938 1184 
Q 2313 781 3003 781 
Q 3191 781 3352 804 
Q 3513 828 3641 878 
L 3641 1784 
L 2906 1784 
L 2906 2591 
L 4781 2591 
L 4781 347 
z
" transform="scale(0.015625)"/>
      <path id="DejaVuSans-Bold-28" d="M 2413 -844 
L 1484 -844 
Q 1006 -72 778 623 
Q 550 1319 550 2003 
Q 550 2688 779 3389 
Q 1009 4091 1484 4856 
L 2413 4856 
Q 2013 4116 1813 3408 
Q 1613 2700 1613 2009 
Q 1613 1319 1811 609 
Q 2009 -100 2413 -844 
z
" transform="scale(0.015625)"/>
      <path id="DejaVuSans-Bold-25" d="M 4959 1925 
Q 4738 1925 4616 1733 
Q 4494 1541 4494 1184 
Q 4494 825 4614 633 
Q 4734 441 4959 441 
Q 5184 441 5303 633 
Q 5422 825 5422 1184 
Q 5422 1541 5301 1733 
Q 5181 1925 4959 1925 
z
M 4959 2450 
Q 5541 2450 5875 2112 
Q 6209 1775 6209 1184 
Q 6209 594 5875 251 
Q 5541 -91 4959 -91 
Q 4378 -91 4042 251 
Q 3706 594 3706 1184 
Q 3706 1772 4042 2111 
Q 4378 2450 4959 2450 
z
M 2094 -91 
L 1403 -91 
L 4319 4750 
L 5013 4750 
L 2094 -91 
z
M 1453 4750 
Q 2034 4750 2367 4411 
Q 2700 4072 2700 3481 
Q 2700 2891 2367 2550 
Q 2034 2209 1453 2209 
Q 872 2209 539 2550 
Q 206 2891 206 3481 
Q 206 4072 539 4411 
Q 872 4750 1453 4750 
z
M 1453 4225 
Q 1228 4225 1106 4031 
Q 984 3838 984 3481 
Q 984 3122 1106 2926 
Q 1228 2731 1453 2731 
Q 1678 2731 1798 2926 
Q 1919 3122 1919 3481 
Q 1919 3838 1797 4031 
Q 1675 4225 1453 4225 
z
" transform="scale(0.015625)"/>
      <path id="DejaVuSans-Bold-62" d="M 2400 722 
Q 2759 722 2948 984 
Q 3138 1247 3138 1747 
Q 3138 2247 2948 2509 
Q 2759 2772 2400 2772 
Q 2041 2772 1848 2508 
Q 1656 2244 1656 1747 
Q 1656 1250 1848 986 
Q 2041 722 2400 722 
z
M 1656 2988 
Q 1888 3294 2169 3439 
Q 2450 3584 2816 3584 
Q 3463 3584 3878 3070 
Q 4294 2556 4294 1747 
Q 4294 938 3878 423 
Q 3463 -91 2816 -91 
Q 2450 -91 2169 54 
Q 1888 200 1656 506 
L 1656 0 
L 538 0 
L 538 4863 
L 1656 4863 
L 1656 2988 
z
" transform="scale(0.015625)"/>
      <path id="DejaVuSans-Bold-76" d="M 97 3500 
L 1216 3500 
L 2088 1081 
L 2956 3500 
L 4078 3500 
L 2700 0 
L 1472 0 
L 97 3500 
z
" transform="scale(0.015625)"/>
      <path id="DejaVuSans-Bold-32" d="M 1844 884 
L 3897 884 
L 3897 0 
L 506 0 
L 506 884 
L 2209 2388 
Q 2438 2594 2547 2791 
Q 2656 2988 2656 3200 
Q 2656 3528 2436 3728 
Q 2216 3928 1850 3928 
Q 1569 3928 1234 3808 
Q 900 3688 519 3450 
L 519 4475 
Q 925 4609 1322 4679 
Q 1719 4750 2100 4750 
Q 2938 4750 3402 4381 
Q 3866 4013 3866 3353 
Q 3866 2972 3669 2642 
Q 3472 2313 2841 1759 
L 1844 884 
z
" transform="scale(0.015625)"/>
      <path id="DejaVuSans-Bold-30" d="M 2944 2338 
Q 2944 3213 2780 3570 
Q 2616 3928 2228 3928 
Q 1841 3928 1675 3570 
Q 1509 3213 1509 2338 
Q 1509 1453 1675 1090 
Q 1841 728 2228 728 
Q 2613 728 2778 1090 
Q 2944 1453 2944 2338 
z
M 4147 2328 
Q 4147 1169 3647 539 
Q 3147 -91 2228 -91 
Q 1306 -91 806 539 
Q 306 1169 306 2328 
Q 306 3491 806 4120 
Q 1306 4750 2228 4750 
Q 3147 4750 3647 4120 
Q 4147 3491 4147 2328 
z
" transform="scale(0.015625)"/>
      <path id="DejaVuSans-Bold-31" d="M 750 831 
L 1813 831 
L 1813 3847 
L 722 3622 
L 722 4441 
L 1806 4666 
L 2950 4666 
L 2950 831 
L 4013 831 
L 4013 0 
L 750 0 
L 750 831 
z
" transform="scale(0.015625)"/>
      <path id="DejaVuSans-Bold-35" d="M 678 4666 
L 3669 4666 
L 3669 3781 
L 1638 3781 
L 1638 3059 
Q 1775 3097 1914 3117 
Q 2053 3138 2203 3138 
Q 3056 3138 3531 2711 
Q 4006 2284 4006 1522 
Q 4006 766 3489 337 
Q 2972 -91 2053 -91 
Q 1656 -91 1267 -14 
Q 878 63 494 219 
L 494 1166 
Q 875 947 1217 837 
Q 1559 728 1863 728 
Q 2300 728 2551 942 
Q 2803 1156 2803 1522 
Q 2803 1891 2551 2103 
Q 2300 2316 1863 2316 
Q 1603 2316 1309 2248 
Q 1016 2181 678 2041 
L 678 4666 
z
" transform="scale(0.015625)"/>
      <path id="DejaVuSans-Bold-2013" d="M 344 2156 
L 2856 2156 
L 2856 1350 
L 344 1350 
L 344 2156 
z
" transform="scale(0.015625)"/>
      <path id="DejaVuSans-Bold-39" d="M 641 103 
L 641 966 
Q 928 831 1190 764 
Q 1453 697 1709 697 
Q 2247 697 2547 995 
Q 2847 1294 2900 1881 
Q 2688 1725 2447 1647 
Q 2206 1569 1925 1569 
Q 1209 1569 770 1986 
Q 331 2403 331 3084 
Q 331 3838 820 4291 
Q 1309 4744 2131 4744 
Q 3044 4744 3544 4128 
Q 4044 3513 4044 2388 
Q 4044 1231 3459 570 
Q 2875 -91 1856 -91 
Q 1528 -91 1228 -42 
Q 928 6 641 103 
z
M 2125 2350 
Q 2441 2350 2600 2554 
Q 2759 2759 2759 3169 
Q 2759 3575 2600 3781 
Q 2441 3988 2125 3988 
Q 1809 3988 1650 3781 
Q 1491 3575 1491 3169 
Q 1491 2759 1650 2554 
Q 1809 2350 2125 2350 
z
" transform="scale(0.015625)"/>
      <path id="DejaVuSans-Bold-29" d="M 513 -844 
Q 913 -100 1113 609 
Q 1313 1319 1313 2009 
Q 1313 2700 1113 3408 
Q 913 4116 513 4856 
L 1441 4856 
Q 1916 4091 2145 3389 
Q 2375 2688 2375 2003 
Q 2375 1319 2147 623 
Q 1919 -72 1441 -844 
L 513 -844 
z
" transform="scale(0.015625)"/>
     </defs>
     <use xlink:href="#DejaVuSans-Bold-45"/>
     <use xlink:href="#DejaVuSans-Bold-78" x="68.310547"/>
     <use xlink:href="#DejaVuSans-Bold-63" x="132.8125"/>
     <use xlink:href="#DejaVuSans-Bold-65" x="192.089844"/>
     <use xlink:href="#DejaVuSans-Bold-73" x="259.912109"/>
     <use xlink:href="#DejaVuSans-Bold-73" x="319.433594"/>
     <use xlink:href="#DejaVuSans-Bold-20" x="378.955078"/>
     <use xlink:href="#DejaVuSans-Bold-6d" x="413.769531"/>
     <use xlink:href="#DejaVuSans-Bold-6f" x="517.96875"/>
     <use xlink:href="#DejaVuSans-Bold-72" x="586.669922"/>
     <use xlink:href="#DejaVuSans-Bold-74" x="635.986328"/>
     <use xlink:href="#DejaVuSans-Bold-61" x="683.789062"/>
     <use xlink:href="#DejaVuSans-Bold-6c" x="751.269531"/>
     <use xlink:href="#DejaVuSans-Bold-69" x="785.546875"/>
     <use xlink:href="#DejaVuSans-Bold-74" x="819.824219"/>
     <use xlink:href="#DejaVuSans-Bold-79" x="867.626953"/>
     <use xlink:href="#DejaVuSans-Bold-20" x="932.8125"/>
     <use xlink:href="#DejaVuSans-Bold-69" x="967.626953"/>
     <use xlink:href="#DejaVuSans-Bold-6e" x="1001.904297"/>
     <use xlink:href="#DejaVuSans-Bold-20" x="1073.095703"/>
     <use xlink:href="#DejaVuSans-Bold-47" x="1107.910156"/>
     <use xlink:href="#DejaVuSans-Bold-65" x="1189.990234"/>
     <use xlink:href="#DejaVuSans-Bold-72" x="1257.8125"/>
     <use xlink:href="#DejaVuSans-Bold-6d" x="1307.128906"/>
     <use xlink:href="#DejaVuSans-Bold-61" x="1411.328125"/>
     <use xlink:href="#DejaVuSans-Bold-6e" x="1478.808594"/>
     <use xlink:href="#DejaVuSans-Bold-79" x="1550"/>
     <use xlink:href="#DejaVuSans-Bold-20" x="1615.185547"/>
     <use xlink:href="#DejaVuSans-Bold-28" x="1650"/>
     <use xlink:href="#DejaVuSans-Bold-25" x="1695.703125"/>
     <use xlink:href="#DejaVuSans-Bold-20" x="1795.898438"/>
     <use xlink:href="#DejaVuSans-Bold-61" x="1830.712891"/>
     <use xlink:href="#DejaVuSans-Bold-62" x="1898.193359"/>
     <use xlink:href="#DejaVuSans-Bold-6f" x="1969.775391"/>
     <use xlink:href="#DejaVuSans-Bold-76" x="2038.476562"/>
     <use xlink:href="#DejaVuSans-Bold-65" x="2103.662109"/>
     <use xlink:href="#DejaVuSans-Bold-20" x="2171.484375"/>
     <use xlink:href="#DejaVuSans-Bold-32" x="2206.298828"/>
     <use xlink:href="#DejaVuSans-Bold-30" x="2275.878906"/>
     <use xlink:href="#DejaVuSans-Bold-31" x="2345.458984"/>
     <use xlink:href="#DejaVuSans-Bold-35" x="2415.039062"/>
     <use xlink:href="#DejaVuSans-Bold-2013" x="2484.619141"/>
     <use xlink:href="#DejaVuSans-Bold-32" x="2534.619141"/>
     <use xlink:href="#DejaVuSans-Bold-30" x="2604.199219"/>
     <use xlink:href="#DejaVuSans-Bold-31" x="2673.779297"/>
     <use xlink:href="#DejaVuSans-Bold-39" x="2743.359375"/>
     <use xlink:href="#DejaVuSans-Bold-20" x="2812.939453"/>
     <use xlink:href="#DejaVuSans-Bold-62" x="2847.753906"/>
     <use xlink:href="#DejaVuSans-Bold-61" x="2919.335938"/>
     <use xlink:href="#DejaVuSans-Bold-73" x="2986.816406"/>
     <use xlink:href="#DejaVuSans-Bold-65" x="3046.337891"/>
     <use xlink:href="#DejaVuSans-Bold-6c" x="3114.160156"/>
     <use xlink:href="#DejaVuSans-Bold-69" x="3148.4375"/>
     <use xlink:href="#DejaVuSans-Bold-6e" x="3182.714844"/>
     <use xlink:href="#DejaVuSans-Bold-65" x="3253.90625"/>
     <use xlink:href="#DejaVuSans-Bold-29" x="3321.728516"/>
    </g>
   </g>
   <g id="legend_1">
    <g id="patch_224">
     <path d="M 1118.834531 128.843437 
L 1271.797656 128.843437 
Q 1274.597656 128.843437 1274.597656 126.043437 
L 1274.597656 65.795312 
Q 1274.597656 62.995312 1271.797656 62.995312 
L 1118.834531 62.995312 
Q 1116.034531 62.995312 1116.034531 65.795312 
L 1116.034531 126.043437 
Q 1116.034531 128.843437 1118.834531 128.843437 
z
" style="fill: #ffffff; opacity: 0.8; stroke: #cccccc; stroke-linejoin: miter"/>
    </g>
    <g id="patch_225">
     <path d="M 1121.634531 79.233125 
L 1149.634531 79.233125 
L 1149.634531 69.433125 
L 1121.634531 69.433125 
z
" style="fill: #d55e00; opacity: 0.78"/>
    </g>
    <g id="text_19">
     <!-- Above baseline -->
     <g transform="translate(1160.834531 79.233125) scale(0.14 -0.14)">
      <defs>
       <path id="DejaVuSans-41" d="M 2188 4044 
L 1331 1722 
L 3047 1722 
L 2188 4044 
z
M 1831 4666 
L 2547 4666 
L 4325 0 
L 3669 0 
L 3244 1197 
L 1141 1197 
L 716 0 
L 50 0 
L 1831 4666 
z
" transform="scale(0.015625)"/>
       <path id="DejaVuSans-62" d="M 3116 1747 
Q 3116 2381 2855 2742 
Q 2594 3103 2138 3103 
Q 1681 3103 1420 2742 
Q 1159 2381 1159 1747 
Q 1159 1113 1420 752 
Q 1681 391 2138 391 
Q 2594 391 2855 752 
Q 3116 1113 3116 1747 
z
M 1159 2969 
Q 1341 3281 1617 3432 
Q 1894 3584 2278 3584 
Q 2916 3584 3314 3078 
Q 3713 2572 3713 1747 
Q 3713 922 3314 415 
Q 2916 -91 2278 -91 
Q 1894 -91 1617 61 
Q 1341 213 1159 525 
L 1159 0 
L 581 0 
L 581 4863 
L 1159 4863 
L 1159 2969 
z
" transform="scale(0.015625)"/>
       <path id="DejaVuSans-76" d="M 191 3500 
L 800 3500 
L 1894 563 
L 2988 3500 
L 3597 3500 
L 2284 0 
L 1503 0 
L 191 3500 
z
" transform="scale(0.015625)"/>
      </defs>
      <use xlink:href="#DejaVuSans-41"/>
      <use xlink:href="#DejaVuSans-62" x="68.408203"/>
      <use xlink:href="#DejaVuSans-6f" x="131.884766"/>
      <use xlink:href="#DejaVuSans-76" x="193.066406"/>
      <use xlink:href="#DejaVuSans-65" x="252.246094"/>
      <use xlink:href="#DejaVuSans-20" x="313.769531"/>
      <use xlink:href="#DejaVuSans-62" x="345.556641"/>
      <use xlink:href="#DejaVuSans-61" x="409.033203"/>
      <use xlink:href="#DejaVuSans-73" x="470.3125"/>
      <use xlink:href="#DejaVuSans-65" x="522.412109"/>
      <use xlink:href="#DejaVuSans-6c" x="583.935547"/>
      <use xlink:href="#DejaVuSans-69" x="611.71875"/>
      <use xlink:href="#DejaVuSans-6e" x="639.501953"/>
      <use xlink:href="#DejaVuSans-65" x="702.880859"/>
     </g>
    </g>
    <g id="patch_226">
     <path d="M 1121.634531 99.7825 
L 1149.634531 99.7825 
L 1149.634531 89.9825 
L 1121.634531 89.9825 
z
" style="fill: #009e73; opacity: 0.78"/>
    </g>
    <g id="text_20">
     <!-- Below baseline -->
     <g transform="translate(1160.834531 99.7825) scale(0.14 -0.14)">
      <defs>
       <path id="DejaVuSans-42" d="M 1259 2228 
L 1259 519 
L 2272 519 
Q 2781 519 3026 730 
Q 3272 941 3272 1375 
Q 3272 1813 3026 2020 
Q 2781 2228 2272 2228 
L 1259 2228 
z
M 1259 4147 
L 1259 2741 
L 2194 2741 
Q 2656 2741 2882 2914 
Q 3109 3088 3109 3444 
Q 3109 3797 2882 3972 
Q 2656 4147 2194 4147 
L 1259 4147 
z
M 628 4666 
L 2241 4666 
Q 2963 4666 3353 4366 
Q 3744 4066 3744 3513 
Q 3744 3084 3544 2831 
Q 3344 2578 2956 2516 
Q 3422 2416 3680 2098 
Q 3938 1781 3938 1306 
Q 3938 681 3513 340 
Q 3088 0 2303 0 
L 628 0 
L 628 4666 
z
" transform="scale(0.015625)"/>
      </defs>
      <use xlink:href="#DejaVuSans-42"/>
      <use xlink:href="#DejaVuSans-65" x="68.603516"/>
      <use xlink:href="#DejaVuSans-6c" x="130.126953"/>
      <use xlink:href="#DejaVuSans-6f" x="157.910156"/>
      <use xlink:href="#DejaVuSans-77" x="219.091797"/>
      <use xlink:href="#DejaVuSans-20" x="300.878906"/>
      <use xlink:href="#DejaVuSans-62" x="332.666016"/>
      <use xlink:href="#DejaVuSans-61" x="396.142578"/>
      <use xlink:href="#DejaVuSans-73" x="457.421875"/>
      <use xlink:href="#DejaVuSans-65" x="509.521484"/>
      <use xlink:href="#DejaVuSans-6c" x="571.044922"/>
      <use xlink:href="#DejaVuSans-69" x="598.828125"/>
      <use xlink:href="#DejaVuSans-6e" x="626.611328"/>
      <use xlink:href="#DejaVuSans-65" x="689.990234"/>
     </g>
    </g>
    <g id="patch_227">
     <path d="M 1121.634531 120.331875 
L 1149.634531 120.331875 
L 1149.634531 110.531875 
L 1121.634531 110.531875 
z
" style="fill: #f3f4f6; opacity: 0.55"/>
    </g>
    <g id="text_21">
     <!-- Expected ±5 % -->
     <g transform="translate(1160.834531 120.331875) scale(0.14 -0.14)">
      <defs>
       <path id="DejaVuSans-70" d="M 1159 525 
L 1159 -1331 
L 581 -1331 
L 581 3500 
L 1159 3500 
L 1159 2969 
Q 1341 3281 1617 3432 
Q 1894 3584 2278 3584 
Q 2916 3584 3314 3078 
Q 3713 2572 3713 1747 
Q 3713 922 3314 415 
Q 2916 -91 2278 -91 
Q 1894 -91 1617 61 
Q 1341 213 1159 525 
z
M 3116 1747 
Q 3116 2381 2855 2742 
Q 2594 3103 2138 3103 
Q 1681 3103 1420 2742 
Q 1159 2381 1159 1747 
Q 1159 1113 1420 752 
Q 1681 391 2138 391 
Q 2594 391 2855 752 
Q 3116 1113 3116 1747 
z
" transform="scale(0.015625)"/>
       <path id="DejaVuSans-b1" d="M 2944 4013 
L 2944 2803 
L 4684 2803 
L 4684 2272 
L 2944 2272 
L 2944 1063 
L 2419 1063 
L 2419 2272 
L 678 2272 
L 678 2803 
L 2419 2803 
L 2419 4013 
L 2944 4013 
z
M 678 531 
L 4684 531 
L 4684 0 
L 678 0 
L 678 531 
z
" transform="scale(0.015625)"/>
      </defs>
      <use xlink:href="#DejaVuSans-45"/>
      <use xlink:href="#DejaVuSans-78" x="63.183594"/>
      <use xlink:href="#DejaVuSans-70" x="122.363281"/>
      <use xlink:href="#DejaVuSans-65" x="185.839844"/>
      <use xlink:href="#DejaVuSans-63" x="247.363281"/>
      <use xlink:href="#DejaVuSans-74" x="302.34375"/>
      <use xlink:href="#DejaVuSans-65" x="341.552734"/>
      <use xlink:href="#DejaVuSans-64" x="403.076172"/>
      <use xlink:href="#DejaVuSans-20" x="466.552734"/>
      <use xlink:href="#DejaVuSans-b1" x="498.339844"/>
      <use xlink:href="#DejaVuSans-35" x="582.128906"/>
      <use xlink:href="#DejaVuSans-20" x="645.751953"/>
      <use xlink:href="#DejaVuSans-25" x="677.539062"/>
     </g>
    </g>
   </g>
  </g>
 </g>
 <defs>
  <clipPath id="pfebbc6aa3a">
   <rect x="76.837656" y="55.995312" width="1204.76" height="525.54"/>
  </clipPath>
 </defs>
</svg>
